<?xml version="1.0" encoding="utf-8"?>
<!-- Generator: Adobe Illustrator 26.3.0, SVG Export Plug-In . SVG Version: 6.00 Build 0)  -->
<svg version="1.1" id="Camada_1" xmlns="http://www.w3.org/2000/svg" xmlns:xlink="http://www.w3.org/1999/xlink" x="0px" y="0px"
	 width="256px" height="256px" viewBox="0 0 256 256" style="enable-background:new 0 0 256 256;" xml:space="preserve">
<style type="text/css">
	.st0{fill:#241314;}
	.st1{display:none;}
	.st2{display:inline;fill:#E34F26;}
	.st3{display:inline;}
	.st4{fill:#F7DF1E;}
	.st5{display:none;fill:#339933;}
	.st6{display:none;fill:#4000BF;}
	.st7{display:inline;fill:#31A8FF;}
	.st8{display:none;fill:#D3D3D3;}
	.st9{display:none;fill:#2F6792;}
	.st10{fill:#5865F2;}
	.st11{fill:#CC342D;}
</style>
<path class="st0" d="M33.7-0.05h188.7c18.5,0,33.6,15.1,33.6,33.7v188.7c0,18.6-15.1,33.7-33.7,33.7H33.7
	c-18.6-0.1-33.7-15.2-33.7-33.8V33.65C0,15.05,15.1-0.05,33.7-0.05z"/>
<g class="st1">
	<path class="st2" d="M203.4,42.6H52.6c0.3,3.8,0.5,7.5,0.8,11.2c0.9,12,1.7,23.9,2.6,35.9c1,13.3,1.9,26.6,2.9,39.9
		c0.8,11.6,1.6,23.2,2.5,34.8c0.6,8.6,1.3,17.3,1.8,25.9c0.1,1.4,0.6,1.9,1.9,2.3c20.4,6.7,40.7,13.4,61.1,20.1
		c0.6,0.2,1.1,0.4,1.7,0.7h1c2.5-0.9,5-1.8,7.5-2.7c18.3-6,36.7-12.1,55.1-18.1c1.4-0.4,1.8-1.1,1.9-2.5c1.5-21.8,3.1-43.6,4.6-65.4
		c1.2-16.5,2.3-32.9,3.5-49.4c0.7-10.1,1.5-20.2,2.2-30.3C203.4,44.3,203.4,43.5,203.4,42.6z M175.2,87.5H101
		c0.6,8.6,1.2,17.1,1.8,25.7h70.6c-0.3,3.9-0.5,7.7-0.8,11.4c-0.7,10.3-1.5,20.5-2.2,30.8c-0.4,5.5-0.8,11.1-1.2,16.6
		c-0.1,1.1-0.4,1.6-1.5,2c-12.8,4.2-25.6,8.5-38.4,12.7c-0.8,0.3-1.8,0.2-2.5,0c-12.8-4.2-25.6-8.5-38.4-12.7
		c-1.1-0.4-1.4-0.8-1.5-2c-0.3-5.6-0.8-11.2-1.2-16.8c0-0.6,0-1.2,0-1.9h19.9c0.1,1.4,0.2,2.8,0.4,4.2c0.1,0.6,0.6,1.3,1.1,1.5
		c6.7,2.3,13.4,4.5,20.1,6.7c0.5,0.2,1.2,0.2,1.8,0c6.7-2.2,13.4-4.4,20.1-6.7c0.5-0.2,1-0.7,1.1-1.2c0.6-8.1,1.2-16.3,1.8-24.7
		H84.1c-1.5-21.9-3.1-43.7-4.6-65.7h97.1C176.1,74.3,175.7,80.8,175.2,87.5z"/>
</g>
<g class="st1">
	<g class="st3">
		<path class="st4" d="M230.8,154v8.8c-0.5,2.2-0.8,4.4-1.4,6.5c-2.9,10.4-9.8,17.8-19.8,22.6c-17.8,8.6-47.6,7.7-65.5-5.4
			c-6.4-4.7-11.5-10.4-15.3-17.5c7.9-4.4,15.8-8.7,23.7-13.1c1.7,2.2,3.3,4.3,5,6.3c8.2,9.4,22,13,33.8,9c8.3-2.8,12-9.6,9.5-16.8
			c-1-2.7-2.8-5.1-5.4-6.5c-4.8-2.6-9.8-5-14.7-7.3c-7.1-3.3-14.4-6.1-21.3-9.7c-10-5.3-17.5-12.9-20.2-23.8
			c-3.2-12.8-1.8-24.8,7.4-35.2c5.4-6.1,12.4-9.8,20.5-11.7c10.3-2.5,20.6-2.2,30.7,0.7c11.1,3.2,18.7,10.4,24.5,20
			c-7.5,4.6-15.1,9.2-22.6,13.8c-1.3-1.8-2.5-3.5-3.8-5.1c-5.1-6-11.9-7.9-19.6-6.2c-9.6,2.1-13.1,13.6-6,20.2
			c2.5,2.3,5.6,4.1,8.8,5.6c6.8,3.2,13.9,5.8,20.8,8.9c7.5,3.4,14.6,7.3,20.4,13c6.1,5.9,9.4,13,10.4,21.2
			C230.5,152.9,230.7,153.4,230.8,154z"/>
	</g>
	<g class="st3">
		<path class="st4" d="M113,60.2v94c0,5.8-0.5,11.6-2.2,17.2c-3.7,11.8-11.6,20-24.1,23.6c-13.9,4-27.6,3.6-40.9-2.4
			c-9.5-4.3-16-11.5-20.6-20.6c8-4.6,15.8-9.1,23.7-13.7c1.6,2.4,3.1,4.7,4.7,7c4.7,6.5,11.4,8.3,19.2,6.9c5.2-0.9,8.6-3.9,9.6-8.8
			c0.7-3.2,1.1-6.5,1.1-9.8c0.1-30.2,0-60.4,0-90.7c0-2.6,0-2.6,2.7-2.6H113V60.2z"/>
	</g>
</g>
<path class="st5" d="M128,213c-2.3,0-4.5-0.6-6.5-1.8L100.7,199c-3.1-1.7-1.6-2.4-0.6-2.7c4.1-1.4,5-1.8,9.4-4.3
	c0.5-0.3,1.1-0.2,1.5,0.1l16,9.5c0.6,0.3,1.4,0.3,1.9,0l62.3-36c0.6-0.3,0.9-1,0.9-1.7V92c0-0.7-0.4-1.4-1-1.7L129,54.4
	c-0.6-0.3-1.3-0.3-1.9,0L64.8,90.3c-0.6,0.3-1,1-1,1.7v71.9c0,0.7,0.4,1.3,1,1.7l17.1,9.9c9.3,4.6,14.9-0.8,14.9-6.3v-71
	c0-1,0.8-1.8,1.8-1.8h7.9c1,0,1.8,0.8,1.8,1.8v71c0,12.4-6.7,19.5-18.5,19.5c-3.6,0-6.4,0-14.4-3.9L59,175.4
	c-4-2.3-6.5-6.7-6.5-11.4V92c0-4.7,2.5-9,6.5-11.4l62.3-36c3.9-2.2,9.2-2.2,13.1,0l62.3,36c4,2.3,6.5,6.7,6.5,11.4v71.9
	c0,4.7-2.5,9-6.5,11.4l-62.3,36C132.6,212.4,130.3,213,128,213z M178.3,142.1c0-13.5-9.1-17-28.3-19.6c-19.4-2.6-21.3-3.9-21.3-8.4
	c0-3.7,1.7-8.7,16-8.7c12.8,0,17.5,2.8,19.5,11.4c0.2,0.8,0.9,1.4,1.8,1.4h8.1c0.5,0,1-0.2,1.3-0.6s0.5-0.9,0.5-1.4
	c-1.3-14.9-11.1-21.8-31.1-21.8c-17.8,0-28.4,7.5-28.4,20.1c0,13.6,10.5,17.4,27.6,19.1c20.4,2,22,5,22,9c0,7-5.6,9.9-18.7,9.9
	c-16.5,0-20.1-4.1-21.3-12.3c-0.1-0.9-0.9-1.5-1.8-1.5H116c-1,0-1.8,0.8-1.8,1.8c0,10.5,5.7,23,33,23
	C167,163.5,178.3,155.7,178.3,142.1z"/>
<path class="st6" d="M129,67.5c33.4,0,60.5,27.1,60.5,60.5s-27.1,60.5-60.5,60.5S68.5,161.4,68.5,128c0-8.2,1.6-16,4.6-23.1
	c4.3,5.8,11.2,9.6,19,9.6c13,0,23.5-10.5,23.5-23.5c0-7.8-3.8-14.7-9.6-19C113,69.1,120.8,67.5,129,67.5z M128,43c-47,0-85,38-85,85
	s38.1,85,85,85s85-38.1,85-85S175,43,128,43z M128,51.6c42.2,0,76.4,34.2,76.4,76.4s-34.2,76.4-76.4,76.4S51.6,170.2,51.6,128
	S85.8,51.6,128,51.6z"/>
<g class="st1">
	<path class="st7" d="M129.4,87.7c-2.1-5.5-5.3-10.5-9.4-14.7c-4.9-4.8-10.8-8.4-17.2-10.5c-7.2-2.7-15.9-4-26.5-4
		c-3.9,0-7.7,0-11.7,0.1s-7.7,0.1-11.2,0.3c-3.5,0.1-6.7,0.1-9.8,0.3c-3,0.1-5,0.1-7.2,0.1c-0.9,0-1.3,0.5-1.3,1.4V193
		c0,1.2,0.5,1.7,1.5,1.7h24.9c0.9-0.1,1.5-0.9,1.4-1.8v-41.3c2.4,0,4.2,0,5.5,0.1s3.3,0.1,6.4,0.1c10.5,0,20.2-1.2,28.9-4.4
		c8.4-3.1,15.6-8.5,20.7-15.7c5.1-7.2,7.7-16.3,7.7-27.4C132.4,98.7,131.3,93.1,129.4,87.7z M100.3,118.5c-2.8,3.2-6.4,5.7-10.5,6.8
		c-4.8,1.5-9.8,2.3-14.8,2.3h-6.8c-1.5,0-3.2-0.1-5-0.3V84.1c0.9-0.1,2.7-0.3,5.3-0.1c2.4-0.1,5.4-0.1,8.7-0.1
		c5.3-0.1,10.4,0.6,15.2,2.6c3.7,1.4,6.8,4,9,7.3c2.1,3.5,3.1,7.5,3,11.4C104.3,110.9,103,115.3,100.3,118.5z"/>
	<path class="st7" d="M220.8,164.8c0.1,6-1.7,12.1-5,17.1c-3.6,5.1-8.6,9.1-14.4,11.4c-6.3,2.7-14,4.1-23.3,4.1
		c-5.9,0-11.7-0.5-17.5-1.7c-4.5-0.8-9-2.2-13.1-4.1c-0.9-0.5-1.5-1.4-1.4-2.4v-22.4c0-0.4,0.1-0.9,0.5-1.2s0.8-0.1,1.2,0.1
		c5,3,10.3,5,15.9,6.3c4.9,1.3,10,1.9,15.2,1.9c4.9,0,8.4-0.6,10.7-1.8c2.1-0.9,3.5-3.1,3.5-5.4c0-1.8-1-3.5-3.1-5.1
		s-6.3-3.6-12.6-6c-6.6-2.3-12.6-5.4-18.3-9.3c-4-2.8-7.3-6.6-9.8-10.9c-2.1-4.1-3.1-8.6-3-13.1c0-5.5,1.5-10.8,4.4-15.6
		c3.2-5.1,8-9.3,13.5-11.8c6-3.1,13.6-4.5,22.8-4.5c5.3,0,10.7,0.4,15.9,1.2c3.9,0.5,7.6,1.5,11.1,3c0.5,0.1,1,0.6,1.3,1.2
		c0.1,0.5,0.3,1,0.3,1.5v21c0,0.5-0.3,1-0.6,1.3c-1.2,0.3-1.8,0.3-2.3,0c-3.9-2.1-8-3.5-12.3-4.4c-4.8-1-9.5-1.7-14.4-1.7
		c-2.6-0.1-5.3,0.3-7.7,0.9c-1.7,0.4-3.1,1.3-4,2.6c-0.6,1-1,2.3-1,3.5s0.5,2.3,1.3,3.3c1.2,1.4,2.7,2.6,4.4,3.5c3,1.5,6,3,9.1,4.2
		c6.9,2.3,13.6,5.5,19.8,9.4c4.2,2.7,7.7,6.3,10.2,10.7C219.9,155.6,221,160.1,220.8,164.8z"/>
</g>
<path class="st8" d="M74.6,72.8c5.3,4.3,7.3,4,17.2,3.3l93.6-5.6c2,0,0.3-2-0.3-2.3L169.5,57c-3-2.3-7-5-14.6-4.3l-90.7,6.6
	c-3.3,0.3-4,2-2.7,3.3L74.6,72.8z M80.2,94.6v98.5c0,5.3,2.6,7.3,8.6,6.9l102.9-6c6-0.3,6.6-4,6.6-8.3V88c0-4.3-1.7-6.6-5.3-6.3
	L85.5,88C81.5,88.3,80.2,90.3,80.2,94.6L80.2,94.6z M181.8,99.9c0.7,3,0,6-3,6.3l-5,1v72.7c-4.3,2.3-8.3,3.6-11.6,3.6
	c-5.3,0-6.6-1.7-10.6-6.6L119.2,126v49.3l10.3,2.3c0,0,0,6-8.3,6l-22.8,1.3c-0.7-1.3,0-4.6,2.3-5.3l6-1.7v-65.1l-8.3-0.7
	c-0.7-3,1-7.3,5.6-7.6l24.5-1.7l33.8,51.6v-45.6l-8.6-1c-0.7-3.6,2-6.3,5.3-6.6L181.8,99.9z M56.7,50.3l94.3-6.9
	c11.6-1,14.6-0.3,21.8,5l30.1,21.2c5,3.6,6.6,4.6,6.6,8.6v116.1c0,7.3-2.6,11.6-11.9,12.2L88.1,213c-6.9,0.3-10.3-0.7-13.9-5.3
	L52,178.9c-4-5.3-5.6-9.3-5.6-13.9V61.9C46.4,55.9,49.1,50.9,56.7,50.3z"/>
<path class="st9" d="M210,147.3c-0.1-0.3-0.2-0.6-0.4-0.8c-1-1.9-3.4-2.4-7.1-1.6c-11.7,2.4-16.3,0.9-17.9-0.1
	c9.5-14.5,17.3-32,21.5-48.4c1.9-7.4,5.7-25,0.9-33.5c-0.3-0.6-0.7-1.1-1.1-1.7c-9.1-11.7-22.5-17.9-38.8-18.1
	c-10.6-0.1-19.6,2.5-22.1,3.4c-1.2-0.2-2.4-0.4-3.7-0.6c-3.1-0.6-6.2-0.9-9.3-0.9c-8.4-0.1-15.6,1.9-21.6,6
	c-6.1-2.3-33.9-11.7-51.2,0.6c-9.6,6.8-14.1,19-13.2,36.2c0.3,5.8,3.6,23.6,8.8,40.7c3.3,10.7,6.7,19.1,10.2,25.4
	c3.9,7,8,11.3,12.1,12.7c3.2,1.1,8,1,13.2-5.2c5.7-6.8,11.3-12.9,13.8-15.6c3.1,1.7,6.4,2.6,9.8,2.7l0,0c-0.6,0.7-1.2,1.4-1.8,2.2
	c-2.4,3-2.9,3.7-10.6,5.3c-2.2,0.5-8,1.7-8.1,5.8c0,0.9,0.2,1.6,0.7,2.3c1.6,3,6.5,4.3,7.2,4.5c9.5,2.4,17.7,0.7,23.9-4.8
	c-0.1,15.8,0.5,31.3,2.4,36c1.6,3.9,5.4,13.5,17.5,13.5c1.8,0,3.7-0.2,5.9-0.7c12.6-2.7,18.1-8.3,20.2-20.6
	c1.1-6.2,2.8-20.4,3.8-29.1c0.1-0.5,0.3-0.9,0.4-1c0,0,0.5-0.3,3,0.2c0.1,0,0.2,0,0.3,0l1.8,0.2h0.1c6,0.3,13.5-1,17.9-3.1
	C203.3,157,211.5,151.8,210,147.3z M59.9,127.1c-5.3-17.3-8.3-34.6-8.6-39.5c-0.8-15.4,3-26.1,11.1-31.8c13-9.2,34.3-3.8,43.3-0.9
	c0,0,0,0-0.1,0.1c-14.3,14.5-14,39.2-14,40.7c0,0.6,0,1.4,0.1,2.5c0.2,4.2,0.7,11.9-0.5,20.7c-1.1,8.2,1.4,16.1,6.9,21.9
	c0.6,0.6,1.2,1.2,1.8,1.7c-2.5,2.6-7.8,8.5-13.5,15.3c-4,4.8-6.8,3.9-7.7,3.6c-2.8-0.9-5.8-4.2-8.8-9.4
	C66.5,146.1,63.1,137.6,59.9,127.1z M102.4,163.2c-1.2-0.3-2.3-0.8-3.1-1.3c0.6-0.3,1.7-0.6,3.4-1c9.1-1.9,10.5-3.2,13.6-7.1
	c0.7-0.9,1.5-1.9,2.6-3.1c0.2-0.3,0.4-0.6,0.5-0.9c1.2-1.1,1.9-0.8,3.1-0.3c1.1,0.5,2.2,1.8,2.6,3.4c0.2,0.7,0.4,2.1-0.3,3.1
	C118.5,165,109.1,164.8,102.4,163.2z M117.3,134.9l-0.4,1c-0.9,2.5-1.8,4.9-2.4,7.1c-4.7,0-9.3-2-12.8-5.7
	c-4.4-4.6-6.5-11.1-5.5-17.7c1.3-9.3,0.8-17.3,0.6-21.7c0-0.6-0.1-1.1-0.1-1.6c2.1-1.9,11.8-7.1,18.7-5.5c3.2,0.7,5.1,2.9,5.9,6.6
	c4.1,19.2,0.5,27.1-2.3,33.6C118.3,132.4,117.8,133.6,117.3,134.9z M169.5,167.3c-0.1,1.3-0.3,2.7-0.4,4.2l-1,3.1
	c-0.1,0.2-0.1,0.5-0.1,0.8c0,3.4-0.4,4.6-0.8,6.2c-0.4,1.6-1,3.5-1.3,7.5c-0.8,10-6.2,15.8-17.1,18.1c-10.7,2.3-12.6-3.5-14.3-8.7
	c-0.2-0.5-0.4-1.1-0.5-1.6c-1.5-4.2-1.4-10-1.1-18.1c0.1-4-0.2-13.5-2.3-18.8c0-2.1,0.1-4.2,0.1-6.3c0-0.3,0-0.5-0.1-0.8
	c-0.1-0.5-0.2-1-0.3-1.5c-0.9-3-3-5.6-5.5-6.6c-1-0.4-2.9-1.2-5.1-0.6c0.5-2,1.3-4.2,2.2-6.6l0.4-1c0.4-1.1,0.9-2.3,1.5-3.6
	c3-6.7,7.2-15.9,2.7-36.7c-1.7-7.8-7.3-11.6-15.8-10.7c-5.1,0.5-9.8,2.6-12.1,3.8c-0.5,0.2-0.9,0.5-1.4,0.7
	c0.7-7.8,3.1-22.5,12.3-31.8c0.7-0.7,1.4-1.3,2.1-2c0.4-0.1,0.7-0.2,1-0.5c5.3-4,12-6,19.9-5.9c2.9,0,5.7,0.2,8.3,0.6
	c13.7,2.5,23,10.3,28.6,16.9c5.8,6.8,8.9,13.7,10.1,17.4c-9.4-1-15.8,0.9-19,5.5c-7,10.1,3.8,29.6,9.1,38.9c1,1.7,1.8,3.2,2,3.8
	c1.7,4.1,3.9,6.9,5.5,8.9c0.5,0.6,1,1.2,1.3,1.7c-2.8,0.8-7.9,2.7-7.5,12.2c-0.1,1.1-0.3,3.2-0.6,5.8
	C169.8,163.3,169.7,165.1,169.5,167.3z M175.8,155.8c-0.3-5.9,1.9-6.5,4.2-7.2c0.3-0.1,0.6-0.2,1-0.3c0.3,0.3,0.6,0.5,1,0.7
	c4,2.7,11.2,3,21.3,1c-1.4,1.3-3.7,2.8-6.8,4.3c-2.9,1.3-7.8,2.4-12.4,2.6C179,157.1,176.4,156.3,175.8,155.8z M179.8,90.1
	c0,2.5-0.4,4.7-0.7,7.1c-0.4,2.5-0.8,5.2-0.9,8.3c-0.1,3.1,0.3,6.3,0.7,9.4c0.8,6.3,1.5,12.8-1.5,19.1c-0.5-0.9-0.9-1.8-1.3-2.7
	c-0.4-0.9-1.2-2.4-2.3-4.4c-4.4-7.8-14.6-26.1-9.3-33.6C167.1,89.6,173.9,89.4,179.8,90.1z M181.4,139.8c-0.2-0.3-0.4-0.5-0.6-0.8
	l-0.3-0.3c5.1-8.5,4.1-16.9,3.2-24.4c-0.4-3.1-0.7-5.9-0.6-8.7c0.1-2.9,0.5-5.3,0.8-7.7c0.5-2.9,0.9-6,0.8-9.6
	c0.1-0.4,0.1-0.8,0.1-1.3c-0.3-3.4-4.3-13.7-12.3-23.1c-4.3-5-10.6-10.6-19.1-14.5c3.7-0.8,8.7-1.4,14.3-1.3
	c14.5,0.3,26,5.8,34.2,16.2c0.2,0.2,0.3,0.5,0.5,0.7C207.7,74.7,200.6,109.6,181.4,139.8z M118.9,96.5c-0.2,1.3-2.2,3-4.4,3
	c-0.2,0-0.4,0-0.6,0c-1.3-0.2-2.7-1-3.6-2.2c-0.3-0.4-0.9-1.3-0.7-2c0-0.3,0.2-0.7,0.7-1.1c0.8-0.6,2.5-0.9,4.3-0.6
	C116.9,93.8,119.2,94.9,118.9,96.5z M175.1,93.6c0.1,0.6-0.3,1.4-1.1,2.2c-0.5,0.5-1.5,1.4-2.9,1.6c-0.2,0-0.4,0-0.5,0
	c-2.1,0-3.8-1.7-4-2.6c-0.2-1.3,1.9-2.2,4-2.5S175,92.3,175.1,93.6z"/>
<g id="图层_2" class="st1">
	<g class="st3">
		<g id="Discord_Logos_00000138549306992159209430000003057274643393915286_">
			<g id="Discord_Logo_-_Large_-_White_00000003807933755945876800000010744415278828232596_">
				<path class="st10" d="M185,76.2c-10.8-4.9-22.2-8.4-33.9-10.4c-1.6,2.9-3,5.8-4.3,8.8c-12.5-1.9-25.1-1.9-37.6,0
					c-1.3-3-2.7-6-4.3-8.8c-11.7,2-23.1,5.5-33.9,10.4c-21.4,31.7-27.2,62.6-24.3,93.1l0,0c12.6,9.3,26.6,16.3,41.5,20.9
					c3.4-4.5,6.3-9.3,8.9-14.3c-4.9-1.8-9.5-4.1-14-6.7c1.2-0.9,2.3-1.7,3.4-2.6c26.3,12.4,56.8,12.4,83.1,0
					c1.1,0.9,2.3,1.8,3.4,2.6c-4.5,2.6-9.2,4.9-14,6.7c2.6,5,5.5,9.8,8.9,14.3c15-4.5,29-11.6,41.6-20.8l0,0
					C212.8,134,203.6,103.4,185,76.2z M100.7,150.6c-8.1,0-14.8-7.3-14.8-16.4s6.5-16.5,14.8-16.5s14.9,7.4,14.8,16.5
					S109,150.6,100.7,150.6z M155.3,150.6c-8.1,0-14.8-7.3-14.8-16.4s6.5-16.5,14.8-16.5s14.9,7.4,14.8,16.5
					S163.5,150.6,155.3,150.6z"/>
			</g>
		</g>
	</g>
</g>
<path class="st11" d="M186.45,42.61c21.73,3.76,27.9,18.62,27.44,34.18l0.11-0.22l-9.78,128.18l-127.16,8.71h0.11
	c-10.56-0.44-34.08-1.41-35.16-34.3l11.79-21.5L74,204.86l3.6,8.4l20.1-65.53l-0.21,0.05l0.11-0.21l66.32,21.18l-10-38.92
	l-7.09-27.95l63.2-4.08l-4.41-3.65l-45.37-36.99l26.22-14.63L186.45,42.61z M78.77,78.37c25.52-25.32,58.45-40.28,71.1-27.52
	c12.63,12.73-0.75,43.75-26.32,69.05c-25.53,25.31-58.07,41.09-70.68,28.36c-12.65-12.73,0.32-44.55,25.88-69.87
	C78.75,78.39,78.77,78.37,78.77,78.37z"/>
</svg>
