<?xml version="1.0" encoding="utf-8"?>
<!-- Generator: Adobe Illustrator 27.3.1, SVG Export Plug-In . SVG Version: 6.00 Build 0)  -->
<svg version="1.1" id="Camada_1" xmlns="http://www.w3.org/2000/svg" xmlns:xlink="http://www.w3.org/1999/xlink" x="0px" y="0px"
	 width="50px" height="64.3px" viewBox="0 0 50 64.3" style="enable-background:new 0 0 50 64.3;" xml:space="preserve">
<style type="text/css">
	.st0{fill:#2B2611;}
	.st1{fill:url(#SVGID_1_);}
	.st2{fill:url(#SVGID_00000029023576272820704480000007555052795748454312_);}
	.st3{fill:url(#SVGID_00000088850415501834448110000011973868391125335447_);}
	.st4{fill:url(#SVGID_00000080929618012444354680000001689560471659201437_);}
	.st5{fill:url(#SVGID_00000062911180411792266210000001564018181327499139_);}
	.st6{display:none;fill:#141D14;}
	.st7{fill:#281613;}
	.st8{fill:url(#SVGID_00000008138902560207737560000015812909010938054826_);}
	.st9{fill:url(#SVGID_00000158744163295831566570000006166427944421568416_);}
	.st10{fill:url(#SVGID_00000009583446500402489260000013514797060513939126_);}
	.st11{fill:#111921;}
	.st12{fill:url(#SVGID_00000128463322647578433280000015159443590213443251_);}
	.st13{fill:url(#SVGID_00000083808507656397947100000010550828015221876405_);}
	.st14{fill:url(#SVGID_00000173144429108741410170000006999229070562841783_);}
	.st15{fill:#291614;}
	.st16{fill:url(#SVGID_00000152969690169788752140000005824332001584699581_);}
	.st17{fill:#19191B;}
	.st18{fill:url(#SVGID_00000029003768455271012810000011195290546098570401_);}
	.st19{fill:url(#SVGID_00000057829903472821662120000005532690931646676394_);}
	.st20{fill:url(#SVGID_00000115496290407949026840000015887008831438023059_);}
	.st21{fill:url(#SVGID_00000124158015967845259250000014264211196470299577_);}
	.st22{fill:url(#SVGID_00000036943698370149504350000015581584515109332358_);}
	.st23{fill:#141D14;}
	.st24{fill:url(#SVGID_00000147921819065113876850000013361004418780302749_);}
	.st25{fill:url(#SVGID_00000106846643709724921190000000566706035283944596_);}
	.st26{fill:url(#SVGID_00000022544464656193524010000000366340445778842043_);}
	.st27{fill:url(#SVGID_00000114778439623010390050000010703970662134247086_);}
	.st28{fill:url(#SVGID_00000082370401656286076800000017350994514319111298_);}
	.st29{fill:url(#SVGID_00000056411783502451402980000000764819605754852770_);}
	.st30{fill:#111B24;}
	.st31{fill:url(#SVGID_00000097460919216679610160000009643798130662057129_);}
	.st32{fill:url(#SVGID_00000049215160548997517830000004985019119531951766_);}
	.st33{fill:url(#SVGID_00000015322733562858839650000012457107240615082914_);}
	.st34{fill:#161122;}
	.st35{fill:url(#SVGID_00000124128298699706943610000010268919400764846734_);}
	.st36{fill:url(#SVGID_00000160178443894846480310000004151346671004727964_);}
	.st37{fill:url(#SVGID_00000128452742206726120080000016082902833766448029_);}
	.st38{fill:#001E36;}
	.st39{fill:url(#SVGID_00000129181344332859543840000005434300072481616774_);}
	.st40{fill:url(#SVGID_00000142166649320397648730000017767461182913340594_);}
	.st41{fill:url(#SVGID_00000015328678526744017980000016197684647770606483_);}
	.st42{fill:url(#SVGID_00000107574911195220409150000008559110223052476576_);}
	.st43{fill:url(#SVGID_00000070819730286725067570000003533281677911103908_);}
	.st44{fill:#161F25;}
	.st45{fill:url(#SVGID_00000061469003305584096230000010043099698607889339_);}
	.st46{fill:url(#SVGID_00000054243639096341830170000003011551905391522965_);}
	.st47{fill:url(#SVGID_00000152253398837528301600000014317279372058235029_);}
	.st48{fill:#242628;}
	.st49{fill:url(#SVGID_00000078031881608158361100000001089269689235151285_);}
	.st50{fill:url(#SVGID_00000075140766547088850590000018056052176696471990_);}
	.st51{fill:url(#SVGID_00000062871505135915611340000009654061411589762484_);}
	.st52{fill:#1D1D2C;}
	.st53{fill:url(#SVGID_00000175289663343363349220000013996031163474644643_);}
	.st54{fill:url(#SVGID_00000065032698458620313150000005771903839990128531_);}
	.st55{fill:url(#SVGID_00000065065283668561683240000000676711637197815946_);}
	.st56{fill:#151515;}
	.st57{fill:url(#SVGID_00000181061022023715775350000003126189510557587384_);}
	.st58{fill:url(#SVGID_00000111907969428122130150000000351440787240223926_);}
	.st59{fill:url(#SVGID_00000160904694322290135230000017856534662673877894_);}
	.st60{fill:#281C11;}
	.st61{fill:url(#SVGID_00000159455338331765446490000000367764800056338095_);}
	.st62{fill:url(#SVGID_00000034089914036485067960000007361150752744050869_);}
	.st63{fill:url(#SVGID_00000075858052543428590340000002636699642437835650_);}
	.st64{fill:url(#SVGID_00000092447892273621728230000013570097015651308719_);}
	.st65{fill:url(#SVGID_00000138571202035231131770000003235524208892046979_);}
	.st66{fill:url(#SVGID_00000111895795220056081310000010641384733130482080_);}
	.st67{fill:url(#SVGID_00000148662540460191881970000006926542594381837468_);}
	.st68{fill:none;}
	.st69{fill:url(#SVGID_00000065050547086092819040000012520350733438499234_);}
	.st70{fill:url(#SVGID_00000157288753905423775370000017634853209105447822_);}
	.st71{fill:#656D76;}
</style>
<path class="st0" d="M-171.2-30.3h-24.2c-7.1,0-12.9-5.8-12.9-12.9v-24.2c0-7.1,5.8-12.9,12.9-12.9h24.2c7.1,0,12.9,5.8,12.9,12.9
	v24.2C-158.3-36.1-164.1-30.3-171.2-30.3z"/>
<g>
	<g>
		<g>
			<linearGradient id="SVGID_1_" gradientUnits="userSpaceOnUse" x1="-183.3072" y1="-75.2919" x2="-183.3072" y2="-35.2919">
				<stop  offset="0" style="stop-color:#FAF92A"/>
				<stop  offset="1" style="stop-color:#F4C121"/>
			</linearGradient>
			<path class="st1" d="M-173.6-35.3H-193c-5.7,0-10.3-4.6-10.3-10.3V-65c0-5.7,4.6-10.3,10.3-10.3h19.4c5.7,0,10.3,4.6,10.3,10.3
				v19.4C-163.3-39.9-167.9-35.3-173.6-35.3z"/>
		</g>
	</g>
	<g>
		<g>
			<g>
				<g>
					<g>
						
							<linearGradient id="SVGID_00000147920037824080068180000011316635645016963998_" gradientUnits="userSpaceOnUse" x1="-175.6935" y1="-65.555" x2="-175.6935" y2="-44.789">
							<stop  offset="0" style="stop-color:#FFFFFF"/>
							<stop  offset="1" style="stop-color:#E2AA2D"/>
						</linearGradient>
						<path style="fill:url(#SVGID_00000147920037824080068180000011316635645016963998_);" d="M-168.1-51.3v1.3
							c-0.1,0.3-0.1,0.7-0.2,1c-0.4,1.6-1.5,2.7-3,3.4c-2,1-6.7,1.5-9.8-0.8c-1-0.7-1.7-1.6-2.3-2.6c0.2-0.2,0.5-0.4,0.8-0.6
							c1-0.7,1.9-1.1,2.8-1.4c0.1,0.2,0.4,0.6,0.7,0.9c1.2,1.4,3.3,2,5.1,1.4c1.2-0.4,1.8-1.4,1.4-2.5c-0.1-0.4-0.4-0.8-0.8-1
							c-0.7-0.4-1.5-0.7-2.2-1.1c-1.1-0.5-2.2-0.9-3.2-1.5c-1.5-0.8-2.6-1.9-3-3.6c-0.5-1.9-0.3-3.7,1.1-5.3
							c0.8-0.9,1.9-1.5,3.1-1.8c1.5-0.4,3.1-0.3,4.6,0.1c1.7,0.5,2.8,1.6,3.7,3c-1.1,0.7-2.3,1.4-3.4,2.1c-0.2-0.3-0.4-0.5-0.6-0.8
							c-0.8-0.9-1.8-1.2-2.9-0.9c-1.4,0.3-2,2-0.9,3c0.4,0.3,0.8,0.6,1.3,0.8c1,0.5,2.1,0.9,3.1,1.3c1.1,0.5,2.2,1.1,3.1,1.9
							c0.9,0.9,1.4,2,1.6,3.2C-168.1-51.4-168.1-51.4-168.1-51.3z"/>
						
							<linearGradient id="SVGID_00000119097035562492494590000004195980553555114370_" gradientUnits="userSpaceOnUse" x1="-191.8693" y1="-65.5404" x2="-191.8693" y2="-44.9882">
							<stop  offset="0" style="stop-color:#FFFFFF"/>
							<stop  offset="1" style="stop-color:#E2AA2D"/>
						</linearGradient>
						<path style="fill:url(#SVGID_00000119097035562492494590000004195980553555114370_);" d="M-185.2-65.5v14.1
							c0,0.9-0.1,1.7-0.3,2.6c-0.6,1.8-1.7,3-3.6,3.5c-2.1,0.6-4.1,0.5-6.1-0.4c-1.4-0.6-2.6-2-3.3-3.4c1.2-0.7,2.6-1.1,3.8-1.8
							c0.2,0.4,0.5,0.7,0.7,1c0.7,1,1.7,1.2,2.9,1c0.8-0.1,1.3-0.6,1.4-1.3c0.1-0.5,0.2-1,0.2-1.5c0-4.5,0-9,0-13.6
							c0-0.4,0-0.4,0.4-0.4H-185.2z"/>
					</g>
				</g>
			</g>
		</g>
		<g>
			<g>
				<g>
					<g>
						
							<linearGradient id="SVGID_00000132805137618250395160000005752391884154804631_" gradientUnits="userSpaceOnUse" x1="-175.7344" y1="-65.7949" x2="-175.7344" y2="-45.5868">
							<stop  offset="0" style="stop-color:#FFFFFF"/>
							<stop  offset="1" style="stop-color:#F9E280"/>
						</linearGradient>
						<path style="fill:url(#SVGID_00000132805137618250395160000005752391884154804631_);" d="M-168.3-51.9v1.3
							c-0.1,0.3-0.1,0.6-0.2,0.9c-0.4,1.5-1.4,2.6-2.9,3.3c-2.6,1.3-6.9,1.1-9.5-0.8c-0.9-0.7-1.7-1.5-2.2-2.5
							c1.1-0.6,2.3-1.3,3.4-1.9c0.3,0.3,0.5,0.6,0.7,0.9c1.2,1.4,3.2,1.9,4.9,1.3c1.2-0.4,1.8-1.4,1.4-2.4c-0.1-0.4-0.4-0.7-0.8-0.9
							c-0.7-0.4-1.4-0.7-2.1-1.1c-1-0.5-2.1-0.9-3.1-1.4c-1.4-0.8-2.5-1.9-2.9-3.5c-0.5-1.9-0.3-3.6,1.1-5.1c0.8-0.9,1.8-1.4,3-1.7
							c1.5-0.4,3-0.3,4.5,0.1c1.6,0.5,2.7,1.5,3.6,2.9c-1.1,0.7-2.2,1.3-3.3,2c-0.2-0.3-0.4-0.5-0.6-0.7c-0.7-0.9-1.7-1.1-2.9-0.9
							c-1.4,0.3-1.9,2-0.9,2.9c0.4,0.3,0.8,0.6,1.3,0.8c1,0.5,2,0.9,3,1.3c1.1,0.5,2.1,1.1,3,1.9c0.9,0.9,1.4,1.9,1.5,3.1
							C-168.4-52.1-168.3-52-168.3-51.9z"/>
						
							<linearGradient id="SVGID_00000047061277074204250720000014445491421803028384_" gradientUnits="userSpaceOnUse" x1="-191.8426" y1="-65.5544" x2="-191.8426" y2="-45.5768">
							<stop  offset="0" style="stop-color:#FFFFFF"/>
							<stop  offset="1" style="stop-color:#F9E280"/>
						</linearGradient>
						<path style="fill:url(#SVGID_00000047061277074204250720000014445491421803028384_);" d="M-185.5-65.6v13.7
							c0,0.8-0.1,1.7-0.3,2.5c-0.5,1.7-1.7,2.9-3.5,3.4c-2,0.6-4,0.5-5.9-0.3c-1.4-0.6-2.3-1.7-3-3c1.2-0.7,2.3-1.3,3.5-2
							c0.2,0.3,0.5,0.7,0.7,1c0.7,0.9,1.7,1.2,2.8,1c0.8-0.1,1.2-0.6,1.4-1.3c0.1-0.5,0.2-1,0.2-1.4c0-4.4,0-8.8,0-13.2
							c0-0.4,0-0.4,0.4-0.4H-185.5z"/>
					</g>
				</g>
			</g>
		</g>
	</g>
</g>
<rect x="0" y="0" class="st6" width="50" height="50"/>
<path class="st7" d="M-228.7-29.5h-24.2c-7.1,0-12.9-5.8-12.9-12.9v-24.2c0-7.1,5.8-12.9,12.9-12.9h24.2c7.1,0,12.9,5.8,12.9,12.9
	v24.2C-215.8-35.3-221.5-29.5-228.7-29.5z"/>
<g>
	<g>
		<g>
			
				<linearGradient id="SVGID_00000175312600911939221500000015478649055909483424_" gradientUnits="userSpaceOnUse" x1="-240.7681" y1="-74.5395" x2="-240.7681" y2="-34.5395">
				<stop  offset="0" style="stop-color:#E9952F"/>
				<stop  offset="1" style="stop-color:#E34F26"/>
			</linearGradient>
			<path style="fill:url(#SVGID_00000175312600911939221500000015478649055909483424_);" d="M-231.1-34.5h-19.4
				c-5.7,0-10.3-4.6-10.3-10.3v-19.4c0-5.7,4.6-10.3,10.3-10.3h19.4c5.7,0,10.3,4.6,10.3,10.3v19.4
				C-220.8-39.2-225.4-34.5-231.1-34.5z"/>
		</g>
	</g>
</g>
<g>
	<g>
		
			<linearGradient id="SVGID_00000183238216894784420670000008423469333393502866_" gradientUnits="userSpaceOnUse" x1="-240.7946" y1="-65.5029" x2="-240.7946" y2="-42.9866">
			<stop  offset="0" style="stop-color:#FFFFFF"/>
			<stop  offset="1" style="stop-color:#D34124"/>
		</linearGradient>
		<path style="fill:url(#SVGID_00000183238216894784420670000008423469333393502866_);" d="M-230.9-65.5h-19.9c0,0.5,0.1,1,0.1,1.5
			c0.1,1.6,0.2,3.2,0.3,4.7c0.1,1.8,0.3,3.5,0.4,5.3c0.1,1.5,0.2,3.1,0.3,4.6c0.1,1.1,0.2,2.3,0.2,3.4c0,0.2,0.1,0.2,0.2,0.3
			c2.7,0.9,5.4,1.8,8.1,2.6c0.1,0,0.1,0.1,0.2,0.1h0.1c0.3-0.1,0.7-0.2,1-0.3c2.4-0.8,4.8-1.6,7.3-2.4c0.2-0.1,0.2-0.1,0.2-0.3
			c0.2-2.9,0.4-5.7,0.6-8.6c0.2-2.2,0.3-4.3,0.5-6.5c0.1-1.3,0.2-2.7,0.3-4C-230.9-65.3-230.9-65.4-230.9-65.5z M-234.6-59.6h-9.8
			c0.1,1.1,0.2,2.2,0.2,3.4h9.3c0,0.5-0.1,1-0.1,1.5c-0.1,1.4-0.2,2.7-0.3,4.1c-0.1,0.7-0.1,1.5-0.2,2.2c0,0.1-0.1,0.2-0.2,0.3
			c-1.7,0.6-3.4,1.1-5.1,1.7c-0.1,0-0.2,0-0.3,0c-1.7-0.6-3.4-1.1-5.1-1.7c-0.1,0-0.2-0.1-0.2-0.3c0-0.7-0.1-1.5-0.2-2.2
			c0-0.1,0-0.2,0-0.2h2.6c0,0.2,0,0.4,0.1,0.6c0,0.1,0.1,0.2,0.1,0.2c0.9,0.3,1.8,0.6,2.6,0.9c0.1,0,0.2,0,0.2,0
			c0.9-0.3,1.8-0.6,2.6-0.9c0.1,0,0.1-0.1,0.1-0.2c0.1-1.1,0.2-2.1,0.2-3.3h-8.9c-0.2-2.9-0.4-5.8-0.6-8.7h12.8
			C-234.4-61.3-234.5-60.5-234.6-59.6z"/>
	</g>
	<g>
		
			<linearGradient id="SVGID_00000085934964751833960260000008574443337323894926_" gradientUnits="userSpaceOnUse" x1="-240.7681" y1="-66.0924" x2="-240.7681" y2="-43.4405">
			<stop  offset="0" style="stop-color:#FFFFFF"/>
			<stop  offset="1" style="stop-color:#F7803E"/>
		</linearGradient>
		<path style="fill:url(#SVGID_00000085934964751833960260000008574443337323894926_);" d="M-230.8-66.1h-20c0,0.5,0.1,1,0.1,1.5
			c0.1,1.6,0.2,3.2,0.3,4.8c0.1,1.8,0.3,3.5,0.4,5.3c0.1,1.5,0.2,3.1,0.3,4.6c0.1,1.1,0.2,2.3,0.2,3.4c0,0.2,0.1,0.2,0.2,0.3
			c2.7,0.9,5.4,1.8,8.1,2.7c0.1,0,0.1,0.1,0.2,0.1h0.1c0.3-0.1,0.7-0.2,1-0.4c2.4-0.8,4.9-1.6,7.3-2.4c0.2-0.1,0.2-0.1,0.2-0.3
			c0.2-2.9,0.4-5.8,0.6-8.7c0.2-2.2,0.3-4.4,0.5-6.6c0.1-1.3,0.2-2.7,0.3-4C-230.8-65.9-230.8-66-230.8-66.1z M-234.5-60.1h-9.8
			c0.1,1.1,0.2,2.3,0.2,3.4h9.4c0,0.5-0.1,1-0.1,1.5c-0.1,1.4-0.2,2.7-0.3,4.1c-0.1,0.7-0.1,1.5-0.2,2.2c0,0.1-0.1,0.2-0.2,0.3
			c-1.7,0.6-3.4,1.1-5.1,1.7c-0.1,0-0.2,0-0.3,0c-1.7-0.6-3.4-1.1-5.1-1.7c-0.1,0-0.2-0.1-0.2-0.3c0-0.7-0.1-1.5-0.2-2.2
			c0-0.1,0-0.2,0-0.2h2.6c0,0.2,0,0.4,0.1,0.6c0,0.1,0.1,0.2,0.1,0.2c0.9,0.3,1.8,0.6,2.7,0.9c0.1,0,0.2,0,0.2,0
			c0.9-0.3,1.8-0.6,2.7-0.9c0.1,0,0.1-0.1,0.1-0.2c0.1-1.1,0.2-2.2,0.2-3.3h-9c-0.2-2.9-0.4-5.8-0.6-8.7h12.9
			C-234.4-61.9-234.4-61-234.5-60.1z"/>
	</g>
</g>
<path class="st11" d="M-290.4-30.9h-24.2c-7.1,0-12.9-5.8-12.9-12.9V-68c0-7.1,5.8-12.9,12.9-12.9h24.2c7.1,0,12.9,5.8,12.9,12.9
	v24.2C-277.6-36.7-283.3-30.9-290.4-30.9z"/>
<g>
	<g>
		<g>
			<g>
				
					<linearGradient id="SVGID_00000091719843856260943980000003536786135314093728_" gradientUnits="userSpaceOnUse" x1="-302.5501" y1="-75.884" x2="-302.5501" y2="-35.884">
					<stop  offset="0" style="stop-color:#31BAFF"/>
					<stop  offset="1" style="stop-color:#1572B6"/>
				</linearGradient>
				<path style="fill:url(#SVGID_00000091719843856260943980000003536786135314093728_);" d="M-292.9-35.9h-19.4
					c-5.7,0-10.3-4.6-10.3-10.3v-19.4c0-5.7,4.6-10.3,10.3-10.3h19.4c5.7,0,10.3,4.6,10.3,10.3v19.4
					C-282.6-40.5-287.2-35.9-292.9-35.9z"/>
			</g>
		</g>
	</g>
	<g>
		<g>
			
				<linearGradient id="SVGID_00000060022609275890075410000002243513710639390131_" gradientUnits="userSpaceOnUse" x1="-302.577" y1="-67.0253" x2="-302.577" y2="-44.1903">
				<stop  offset="0" style="stop-color:#FFFFFF"/>
				<stop  offset="1" style="stop-color:#146799"/>
			</linearGradient>
			<path style="fill:url(#SVGID_00000060022609275890075410000002243513710639390131_);" d="M-312.5-67c0.1,1.6,0.3,3.2,0.4,4.8
				c0.1,1.6,0.3,3.2,0.4,4.8c0.1,1.6,0.3,3.2,0.4,4.8c0.1,1.6,0.3,3.2,0.4,4.8c0,0.4,0.1,0.8,0.1,1.2c0,0.1,0.1,0.2,0.2,0.2
				c2.6,0.7,5.2,1.5,7.9,2.2c0.1,0,0.2,0,0.3,0c2.6-0.7,5.2-1.5,7.8-2.2c0.1,0,0.2-0.1,0.2-0.2c0.1-1.1,0.2-2.2,0.3-3.3
				c0.1-1.4,0.3-2.9,0.4-4.3c0.1-1.4,0.2-2.8,0.4-4.2c0.1-1.4,0.3-2.9,0.4-4.3c0.1-1.4,0.2-2.8,0.4-4.2H-312.5z M-296.4-61.8
				c-0.2,1.9-0.3,3.8-0.5,5.8c-0.2,1.7-0.3,3.5-0.5,5.2c0,0.2,0,0.5-0.1,0.7c0,0.1-0.1,0.2-0.1,0.2c-1.6,0.5-3.3,0.9-4.9,1.4
				c-0.1,0-0.2,0-0.3,0c-1.6-0.4-3.2-0.9-4.8-1.3c-0.1,0-0.2-0.1-0.2-0.2c-0.1-1.1-0.2-2.2-0.3-3.3c0-0.2,0-0.4,0-0.6
				c0.8,0,1.6,0,2.4,0c0,0,0.1,0.1,0.1,0.2c0.1,0.6,0.1,1.1,0.2,1.7c0,0.2,0.1,0.2,0.2,0.3c0.8,0.2,1.6,0.4,2.4,0.6
				c0.1,0,0.2,0,0.3,0c0.8-0.2,1.6-0.4,2.4-0.7c0.2,0,0.2-0.1,0.2-0.3c0.1-1.1,0.2-2.2,0.3-3.3h-8.8c-0.1-0.8-0.2-1.6-0.2-2.4
				c0.1,0,0.2,0,0.3,0c2.9,0,5.8-0.1,8.7-0.1c0.3,0,0.3,0,0.3-0.3c0-0.7,0.1-1.5,0.2-2.2h-9.7c-0.1-0.8-0.1-1.6-0.2-2.4h12.5
				C-296.3-62.5-296.4-62.2-296.4-61.8z"/>
		</g>
		
			<linearGradient id="SVGID_00000049907606386388205550000006292921264204752297_" gradientUnits="userSpaceOnUse" x1="-302.5501" y1="-67.5778" x2="-302.5501" y2="-44.743">
			<stop  offset="0" style="stop-color:#FFFFFF"/>
			<stop  offset="1" style="stop-color:#30B8FD"/>
		</linearGradient>
		<path style="fill:url(#SVGID_00000049907606386388205550000006292921264204752297_);" d="M-312.6-67.6c0.1,1.6,0.3,3.2,0.4,4.8
			c0.1,1.6,0.3,3.2,0.4,4.8c0.1,1.6,0.3,3.2,0.4,4.8c0.1,1.6,0.3,3.2,0.4,4.8c0,0.4,0.1,0.8,0.1,1.2c0,0.1,0.1,0.2,0.2,0.2
			c2.6,0.7,5.3,1.5,7.9,2.2c0.1,0,0.2,0,0.3,0c2.6-0.7,5.2-1.5,7.9-2.2c0.1,0,0.2-0.1,0.2-0.2c0.1-1.1,0.2-2.2,0.3-3.3
			c0.1-1.4,0.3-2.9,0.4-4.3c0.1-1.4,0.2-2.8,0.4-4.2c0.1-1.4,0.3-2.9,0.4-4.3c0.1-1.4,0.2-2.8,0.4-4.2H-312.6z M-296.3-62.4
			c-0.2,1.9-0.3,3.8-0.5,5.8c-0.2,1.7-0.3,3.5-0.5,5.2c0,0.2,0,0.5-0.1,0.7c0,0.1-0.1,0.2-0.1,0.2c-1.6,0.5-3.3,0.9-4.9,1.4
			c-0.1,0-0.2,0-0.3,0c-1.6-0.4-3.2-0.9-4.8-1.3c-0.1,0-0.2-0.1-0.2-0.2c-0.1-1.1-0.2-2.2-0.3-3.3c0-0.2,0-0.4-0.1-0.6
			c0.8,0,1.6,0,2.4,0c0,0,0.1,0.1,0.1,0.2c0.1,0.6,0.1,1.1,0.2,1.7c0,0.2,0.1,0.2,0.2,0.3c0.8,0.2,1.6,0.4,2.4,0.6
			c0.1,0,0.2,0,0.3,0c0.8-0.2,1.6-0.4,2.5-0.7c0.2,0,0.2-0.1,0.2-0.3c0.1-1.1,0.2-2.2,0.4-3.3h-8.9c-0.1-0.8-0.2-1.6-0.3-2.4
			c0.1,0,0.2,0,0.3,0c2.9,0,5.8-0.1,8.8-0.1c0.3,0,0.3,0,0.3-0.3c0.1-0.7,0.1-1.5,0.2-2.2h-9.8c-0.1-0.8-0.1-1.6-0.2-2.4h12.7
			C-296.3-63-296.3-62.7-296.3-62.4z"/>
	</g>
</g>
<g>
	<path class="st15" d="M37.1,50H12.9C5.8,50,0,44.2,0,37.1V12.9C0,5.8,5.8,0,12.9,0h24.2C44.2,0,50,5.8,50,12.9v24.2
		C50,44.2,44.2,50,37.1,50z"/>
	<g>
		<g>
			<g>
				<g>
					
						<linearGradient id="SVGID_00000132802814826186228100000018131718670363599038_" gradientUnits="userSpaceOnUse" x1="25.0115" y1="5.0109" x2="25.0115" y2="45.0109">
						<stop  offset="0" style="stop-color:#FFDB43"/>
						<stop  offset="1" style="stop-color:#F9C33D"/>
					</linearGradient>
					<path style="fill:url(#SVGID_00000132802814826186228100000018131718670363599038_);" d="M34.7,45H15.3C9.6,45,5,40.4,5,34.7
						V15.3C5,9.6,9.6,5,15.3,5h19.4C40.4,5,45,9.6,45,15.3v19.4C45,40.4,40.4,45,34.7,45z"/>
				</g>
			</g>
		</g>
	</g>
</g>
<g>
	<path class="st17" d="M-364.7-31.8h-24.2c-7.1,0-12.9-5.8-12.9-12.9v-24.2c0-7.1,5.8-12.9,12.9-12.9h24.2c7.1,0,12.9,5.8,12.9,12.9
		v24.2C-351.8-37.5-357.5-31.8-364.7-31.8z"/>
	<g>
		<g>
			<g>
				<g>
					
						<linearGradient id="SVGID_00000016062525997991824430000000381766361990454203_" gradientUnits="userSpaceOnUse" x1="-376.775" y1="-76.7613" x2="-376.775" y2="-36.7613">
						<stop  offset="0" style="stop-color:#42484C"/>
						<stop  offset="1" style="stop-color:#1D1E21"/>
					</linearGradient>
					<path style="fill:url(#SVGID_00000016062525997991824430000000381766361990454203_);" d="M-367.1-36.8h-19.4
						c-5.7,0-10.3-4.6-10.3-10.3v-19.4c0-5.7,4.6-10.3,10.3-10.3h19.4c5.7,0,10.3,4.6,10.3,10.3v19.4
						C-356.8-41.4-361.4-36.8-367.1-36.8z"/>
				</g>
			</g>
		</g>
	</g>
	<g transform="matrix(0.42 0 0 0.42 12 12)">
		<g>
			<g transform="matrix(1 0 0 1 10.5 1.28)">
				
					<linearGradient id="SVGID_00000013909612150570746570000001631462034018354328_" gradientUnits="userSpaceOnUse" x1="-918.2206" y1="-184.7804" x2="-918.2206" y2="-167.5281">
					<stop  offset="0" style="stop-color:#CCCCCC"/>
					<stop  offset="0.1606" style="stop-color:#B7B8B8"/>
					<stop  offset="0.492" style="stop-color:#828384"/>
					<stop  offset="0.9621" style="stop-color:#2C2E32"/>
					<stop  offset="1" style="stop-color:#25272B"/>
				</linearGradient>
				<path style="fill:url(#SVGID_00000013909612150570746570000001631462034018354328_);" d="M-900.4-143.7h-1.9
					c-1.4,0-2.7-0.6-3.5-1.8l-12.4-16.5l-12.3,16.5c-0.8,1.1-2.1,1.8-3.5,1.8h-1.9l15.7-21l-15-20.1h1.9c1.4,0,2.7,0.6,3.5,1.8
					l11.6,15.5l11.6-15.5c0.8-1.1,2.1-1.8,3.5-1.8h1.9l-15,20.1L-900.4-143.7z"/>
			</g>
			<g transform="matrix(1 0 0 1 -11 1)">
				
					<linearGradient id="SVGID_00000042722889091509146780000000282088307161703088_" gradientUnits="userSpaceOnUse" x1="-932.1898" y1="-184.655" x2="-932.1898" y2="-166.9671">
					<stop  offset="0" style="stop-color:#CCCCCC"/>
					<stop  offset="0.1606" style="stop-color:#B7B8B8"/>
					<stop  offset="0.492" style="stop-color:#828384"/>
					<stop  offset="0.9621" style="stop-color:#2C2E32"/>
					<stop  offset="1" style="stop-color:#25272B"/>
				</linearGradient>
				<path style="fill:url(#SVGID_00000042722889091509146780000000282088307161703088_);" d="M-914.1-162v-4.9
					c0-10.8-9.8-19.4-21.1-17.6c-8.8,1.4-15.1,9.3-15.1,18v4.6c0,10.6,7.9,19.1,17.9,19.2c8.4,0.1,15.4-5.4,17.6-13h-1.7
					c-1,0-1.9,0.6-2.4,1.5c-2.9,5.8-9.5,9.5-16.8,7.8c-6.7-1.5-11.3-7.7-11.3-14.5v-1.3H-914.1z M-947-165.7
					c0-7.6,4.6-13.8,11.4-15.3c9.7-2.1,18.2,5.1,18.2,14.2v1.6H-947V-165.7z"/>
			</g>
		</g>
	</g>
	<g>
		<g transform="matrix(1 0 0 1 10.5 1.28)">
			
				<linearGradient id="SVGID_00000003098675529055363360000009584314340589491626_" gradientUnits="userSpaceOnUse" x1="-379.7898" y1="-66.6588" x2="-379.7898" y2="-49.6817">
				<stop  offset="0" style="stop-color:#FFFFFF"/>
				<stop  offset="1" style="stop-color:#41474A"/>
			</linearGradient>
			<path style="fill:url(#SVGID_00000003098675529055363360000009584314340589491626_);" d="M-372.3-49.7h-0.8
				c-0.6,0-1.1-0.3-1.5-0.7l-5.2-6.8l-5.2,6.8c-0.3,0.5-0.9,0.7-1.5,0.7h-0.8l6.6-8.7l-6.3-8.3h0.8c0.6,0,1.1,0.3,1.5,0.7l4.9,6.4
				l4.9-6.4c0.3-0.5,0.9-0.7,1.5-0.7h0.8l-6.3,8.3L-372.3-49.7z"/>
		</g>
		<g transform="matrix(1 0 0 1 -11 1)">
			
				<linearGradient id="SVGID_00000181777874636030868960000000358607496097450930_" gradientUnits="userSpaceOnUse" x1="-373.1674" y1="-67.0754" x2="-373.1674" y2="-49.0884">
				<stop  offset="0" style="stop-color:#FFFFFF"/>
				<stop  offset="1" style="stop-color:#41474A"/>
			</linearGradient>
			<path style="fill:url(#SVGID_00000181777874636030868960000000358607496097450930_);" d="M-365.6-57.4v-2.1
				c0-4.6-4.1-8.3-8.9-7.5c-3.7,0.6-6.4,4-6.4,7.7v2c0,4.5,3.3,8.2,7.5,8.2c3.5,0,6.5-2.3,7.4-5.5h-0.7c-0.4,0-0.8,0.2-1,0.6
				c-1.2,2.5-4,4.1-7.1,3.3c-2.8-0.6-4.8-3.3-4.8-6.2v-0.5H-365.6z M-379.4-59c0-3.2,1.9-5.9,4.8-6.6c4.1-0.9,7.7,2.2,7.7,6.1v0.7
				h-12.4V-59z"/>
		</g>
	</g>
</g>
<path class="st23" d="M-368.8,36.4H-393c-7.1,0-12.9-5.8-12.9-12.9V-0.7c0-7.1,5.8-12.9,12.9-12.9h24.2c7.1,0,12.9,5.8,12.9,12.9
	v24.2C-355.9,30.6-361.7,36.4-368.8,36.4z"/>
<g>
	<g>
		<g>
			<g>
				
					<linearGradient id="SVGID_00000023283286764683100590000017649746839296715922_" gradientUnits="userSpaceOnUse" x1="-380.9254" y1="-8.6296" x2="-380.9254" y2="31.3704">
					<stop  offset="0" style="stop-color:#46CC46"/>
					<stop  offset="1" style="stop-color:#155019"/>
				</linearGradient>
				<path style="fill:url(#SVGID_00000023283286764683100590000017649746839296715922_);" d="M-371.2,31.4h-19.4
					c-5.7,0-10.3-4.6-10.3-10.3V1.7c0-5.7,4.6-10.3,10.3-10.3h19.4c5.7,0,10.3,4.6,10.3,10.3v19.4
					C-360.9,26.8-365.5,31.4-371.2,31.4z"/>
			</g>
		</g>
	</g>
</g>
<g>
	
		<linearGradient id="SVGID_00000003102834832137865270000000461525430523004298_" gradientUnits="userSpaceOnUse" x1="-380.8736" y1="-0.1098" x2="-380.8736" y2="23.3704">
		<stop  offset="0" style="stop-color:#FFFFFF"/>
		<stop  offset="1" style="stop-color:#113D17"/>
	</linearGradient>
	<path style="fill:url(#SVGID_00000003102834832137865270000000461525430523004298_);" d="M-380.9,23.4c-0.3,0-0.6-0.1-0.9-0.2
		l-2.8-1.7c-0.4-0.2-0.2-0.3-0.1-0.4c0.6-0.2,0.7-0.2,1.3-0.6c0.1,0,0.1,0,0.2,0l2.1,1.3c0.1,0,0.2,0,0.3,0l8.3-5
		c0.1,0,0.1-0.1,0.1-0.2V6.7c0-0.1-0.1-0.2-0.1-0.2l-8.3-5c-0.1,0-0.2,0-0.3,0l-8.3,5c-0.1,0-0.1,0.1-0.1,0.2v9.9
		c0,0.1,0.1,0.2,0.1,0.2l2.3,1.4c1.2,0.6,2-0.1,2-0.9V7.1c0-0.1,0.1-0.3,0.2-0.3l1,0c0.1,0,0.3,0.1,0.3,0.3v10.3
		c0,1.7-0.9,2.7-2.5,2.7c-0.5,0-0.9,0-1.9-0.5l-2.2-1.3c-0.5-0.3-0.9-0.9-0.9-1.6V6.7c0-0.6,0.3-1.2,0.9-1.6l8.3-5
		c0.5-0.3,1.2-0.3,1.7,0l8.3,5c0.5,0.3,0.9,0.9,0.9,1.6v9.9c0,0.6-0.3,1.2-0.9,1.6l-8.3,5C-380.3,23.3-380.6,23.4-380.9,23.4z
		 M-374.2,13.6c0-1.9-1.2-2.4-3.8-2.7c-2.6-0.4-2.8-0.5-2.8-1.2c0-0.5,0.2-1.2,2.1-1.2c1.7,0,2.3,0.4,2.6,1.6c0,0.1,0.1,0.2,0.2,0.2
		h1.1c0.1,0,0.1,0,0.2-0.1c0-0.1,0.1-0.1,0.1-0.2c-0.2-2.1-1.5-3-4.2-3c-2.4,0-3.8,1-3.8,2.8c0,1.9,1.4,2.4,3.7,2.6
		c2.7,0.3,2.9,0.7,2.9,1.2c0,1-0.7,1.4-2.5,1.4c-2.2,0-2.7-0.6-2.8-1.7c0-0.1-0.1-0.2-0.2-0.2h-1.1c-0.1,0-0.2,0.1-0.2,0.2
		c0,1.4,0.8,3.2,4.4,3.2C-375.7,16.5-374.2,15.5-374.2,13.6z"/>
	
		<linearGradient id="SVGID_00000059295005246402374770000011645266759022781085_" gradientUnits="userSpaceOnUse" x1="-380.9254" y1="-0.6296" x2="-380.9254" y2="22.8506">
		<stop  offset="0" style="stop-color:#FFFFFF"/>
		<stop  offset="1" style="stop-color:#45C945"/>
	</linearGradient>
	<path style="fill:url(#SVGID_00000059295005246402374770000011645266759022781085_);" d="M-380.9,22.9c-0.3,0-0.6-0.1-0.9-0.2
		l-2.9-1.7c-0.4-0.2-0.2-0.3-0.1-0.4c0.6-0.2,0.7-0.2,1.3-0.6c0.1,0,0.1,0,0.2,0l2.2,1.3c0.1,0,0.2,0,0.3,0l8.6-5
		c0.1,0,0.1-0.1,0.1-0.2V6.1c0-0.1-0.1-0.2-0.1-0.2l-8.6-5c-0.1,0-0.2,0-0.3,0l-8.6,5c-0.1,0-0.1,0.1-0.1,0.2v9.9
		c0,0.1,0.1,0.2,0.1,0.2l2.4,1.4c1.3,0.6,2.1-0.1,2.1-0.9V7c0-0.1,0.1-0.2,0.3-0.2h1.1c0.1,0,0.2,0.1,0.2,0.2v9.8
		c0,1.7-0.9,2.7-2.5,2.7c-0.5,0-0.9,0-2-0.5l-2.3-1.3c-0.6-0.3-0.9-0.9-0.9-1.6V6.1c0-0.6,0.3-1.2,0.9-1.6l8.6-5
		c0.5-0.3,1.3-0.3,1.8,0l8.6,5c0.6,0.3,0.9,0.9,0.9,1.6v9.9c0,0.6-0.3,1.2-0.9,1.6l-8.6,5C-380.3,22.8-380.6,22.9-380.9,22.9z
		 M-374,13.1c0-1.9-1.3-2.4-3.9-2.7c-2.7-0.4-2.9-0.5-2.9-1.2c0-0.5,0.2-1.2,2.2-1.2c1.8,0,2.4,0.4,2.7,1.6c0,0.1,0.1,0.2,0.2,0.2
		h1.1c0.1,0,0.1,0,0.2-0.1c0-0.1,0.1-0.1,0.1-0.2c-0.2-2.1-1.5-3-4.3-3c-2.5,0-3.9,1-3.9,2.8c0,1.9,1.5,2.4,3.8,2.6
		c2.8,0.3,3,0.7,3,1.2c0,1-0.8,1.4-2.6,1.4c-2.3,0-2.8-0.6-2.9-1.7c0-0.1-0.1-0.2-0.2-0.2h-1.1c-0.1,0-0.2,0.1-0.2,0.2
		c0,1.4,0.8,3.2,4.6,3.2C-375.5,16-374,14.9-374,13.1z"/>
</g>
<g>
	<path class="st15" d="M-239.6,37h-24.2c-7.1,0-12.9-5.8-12.9-12.9V-0.1c0-7.1,5.8-12.9,12.9-12.9h24.2c7.1,0,12.9,5.8,12.9,12.9
		v24.2C-226.7,31.2-232.5,37-239.6,37z"/>
	<g>
		<g>
			<g>
				<g>
					
						<linearGradient id="SVGID_00000090979875176091429510000014538749384805442236_" gradientUnits="userSpaceOnUse" x1="-251.7416" y1="-8.0308" x2="-251.7416" y2="31.9692">
						<stop  offset="0" style="stop-color:#FF603B"/>
						<stop  offset="1" style="stop-color:#992E25"/>
					</linearGradient>
					<path style="fill:url(#SVGID_00000090979875176091429510000014538749384805442236_);" d="M-242.1,32h-19.4
						c-5.7,0-10.3-4.6-10.3-10.3V2.3c0-5.7,4.6-10.3,10.3-10.3h19.4c5.7,0,10.3,4.6,10.3,10.3v19.4C-231.7,27.4-236.4,32-242.1,32z"
						/>
				</g>
			</g>
		</g>
	</g>
</g>
<g>
	
		<linearGradient id="SVGID_00000067935543830673494010000013644927694101251972_" gradientUnits="userSpaceOnUse" x1="-251.76" y1="0.5017" x2="-251.76" y2="24.5363">
		<stop  offset="0" style="stop-color:#FFFFFF"/>
		<stop  offset="0.5531" style="stop-color:#9E3026"/>
	</linearGradient>
	<path style="fill:url(#SVGID_00000067935543830673494010000013644927694101251972_);" d="M-239.8,11.4L-250.7,1
		c-0.6-0.6-1.6-0.6-2.3,0l-2.3,2.2l2.9,2.8c0.7-0.2,1.4-0.1,2,0.4c0.5,0.5,0.7,1.3,0.5,1.9l2.8,2.7c0.7-0.2,1.4-0.1,2,0.4
		c0.7,0.7,0.7,1.9,0,2.6c-0.7,0.7-2,0.7-2.7,0c-0.6-0.5-0.7-1.3-0.4-2l-2.6-2.5V16c0.2,0.1,0.4,0.2,0.5,0.3c0.7,0.7,0.7,1.9,0,2.6
		c-0.7,0.7-2,0.7-2.7,0c-0.7-0.7-0.7-1.9,0-2.6c0.2-0.2,0.4-0.3,0.6-0.4V9.3c-0.2-0.1-0.4-0.2-0.6-0.4c-0.6-0.5-0.7-1.3-0.4-2
		l-2.8-2.7l-7.5,7.2c-0.6,0.6-0.6,1.6,0,2.2l10.9,10.5c0.6,0.6,1.6,0.6,2.3,0l10.8-10.4C-239.1,13-239.1,12.1-239.8,11.4"/>
	
		<linearGradient id="SVGID_00000153676328828812494950000014225982199515767467_" gradientUnits="userSpaceOnUse" x1="-251.7231" y1="-0.5979" x2="-251.7231" y2="23.4367">
		<stop  offset="0" style="stop-color:#FFFFFF"/>
		<stop  offset="1" style="stop-color:#FC5F3A"/>
	</linearGradient>
	<path style="fill:url(#SVGID_00000153676328828812494950000014225982199515767467_);" d="M-239.7,10.3l-10.9-10.5
		c-0.6-0.6-1.6-0.6-2.3,0l-2.3,2.2l2.9,2.8c0.7-0.2,1.4-0.1,2,0.4c0.5,0.5,0.7,1.3,0.5,1.9l2.8,2.7c0.7-0.2,1.4-0.1,2,0.4
		c0.7,0.7,0.7,1.9,0,2.6c-0.7,0.7-2,0.7-2.7,0c-0.6-0.5-0.7-1.3-0.4-2l-2.6-2.5v6.5c0.2,0.1,0.4,0.2,0.5,0.3c0.7,0.7,0.7,1.9,0,2.6
		c-0.7,0.7-2,0.7-2.7,0c-0.7-0.7-0.7-1.9,0-2.6c0.2-0.2,0.4-0.3,0.6-0.4V8.2c-0.2-0.1-0.4-0.2-0.6-0.4c-0.6-0.5-0.7-1.3-0.4-2
		l-2.8-2.7l-7.5,7.2c-0.6,0.6-0.6,1.6,0,2.2l10.9,10.5c0.6,0.6,1.6,0.6,2.3,0l10.8-10.4C-239.1,11.9-239.1,11-239.7,10.3"/>
</g>
<g>
	<path class="st30" d="M-300.5,36.3h-24.2c-7.1,0-12.9-5.8-12.9-12.9V-0.8c0-7.1,5.8-12.9,12.9-12.9h24.2c7.1,0,12.9,5.8,12.9,12.9
		v24.2C-287.6,30.6-293.3,36.3-300.5,36.3z"/>
	<g>
		<g>
			<g>
				<g>
					
						<linearGradient id="SVGID_00000004532142873041320130000001022462329911265951_" gradientUnits="userSpaceOnUse" x1="-312.5766" y1="-8.6667" x2="-312.5766" y2="31.3333">
						<stop  offset="0" style="stop-color:#0093E5"/>
						<stop  offset="1" style="stop-color:#004383"/>
					</linearGradient>
					<path style="fill:url(#SVGID_00000004532142873041320130000001022462329911265951_);" d="M-302.9,31.3h-19.4
						c-5.7,0-10.3-4.6-10.3-10.3V1.6c0-5.7,4.6-10.3,10.3-10.3h19.4c5.7,0,10.3,4.6,10.3,10.3V21C-292.6,26.7-297.2,31.3-302.9,31.3
						z"/>
				</g>
			</g>
		</g>
	</g>
</g>
<g>
	
		<linearGradient id="SVGID_00000141436890058937882220000003094609186401040004_" gradientUnits="userSpaceOnUse" x1="-312.5951" y1="0.3639" x2="-312.5951" y2="23.0158">
		<stop  offset="0" style="stop-color:#FFFFFF"/>
		<stop  offset="0.6844" style="stop-color:#0C5190"/>
		<stop  offset="1" style="stop-color:#00488A"/>
	</linearGradient>
	<path style="fill:url(#SVGID_00000141436890058937882220000003094609186401040004_);" d="M-301.9,2.8l-4.7-2.3
		c-0.5-0.3-1.2-0.2-1.6,0.3l-9.1,8.2l-4-3c-0.4-0.3-0.9-0.3-1.2,0.1l-1.3,1.1c-0.4,0.4-0.4,1-0.1,1.3c0,0,0,0,0.1,0.1l3.4,3.1
		l-3.4,3.1c-0.4,0.4-0.4,1-0.1,1.3c0,0,0,0,0.1,0.1l1.3,1.1c0.3,0.3,0.9,0.3,1.2,0.1l4-3l9.1,8.2c0.4,0.4,1.1,0.5,1.6,0.3l4.7-2.3
		c0.5-0.2,0.8-0.7,0.8-1.3V4C-301.1,3.5-301.4,3-301.9,2.8z M-306.8,16.9l-6.9-5.2l6.9-5.2V16.9z"/>
	
		<linearGradient id="SVGID_00000055696792063043598870000008511384628426799007_" gradientUnits="userSpaceOnUse" x1="-312.5581" y1="-0.3491" x2="-312.5581" y2="22.3028">
		<stop  offset="0" style="stop-color:#FFFFFF"/>
		<stop  offset="1" style="stop-color:#0091E3"/>
	</linearGradient>
	<path style="fill:url(#SVGID_00000055696792063043598870000008511384628426799007_);" d="M-301.9,2l-4.7-2.3
		c-0.5-0.3-1.2-0.2-1.6,0.3l-9.1,8.2l-4-3c-0.4-0.3-0.9-0.3-1.2,0.1l-1.3,1.1c-0.4,0.4-0.4,1-0.1,1.3c0,0,0,0,0.1,0.1l3.4,3.1
		l-3.4,3.1c-0.4,0.4-0.4,1-0.1,1.3c0,0,0,0,0.1,0.1l1.3,1.1c0.3,0.3,0.9,0.3,1.2,0.1l4-3l9.1,8.2c0.4,0.4,1.1,0.5,1.6,0.3l4.7-2.3
		c0.5-0.2,0.8-0.7,0.8-1.3V3.3C-301.1,2.8-301.4,2.3-301.9,2z M-306.8,16.1l-6.9-5.2l6.9-5.2V16.1z"/>
</g>
<g>
	<path class="st34" d="M-175.3,34.9h-24.2c-7.1,0-12.9-5.8-12.9-12.9V-2.2c0-7.1,5.8-12.9,12.9-12.9h24.2c7.1,0,12.9,5.8,12.9,12.9
		V22C-162.4,29.1-168.2,34.9-175.3,34.9z"/>
	<g>
		<g>
			<g>
				<g>
					
						<linearGradient id="SVGID_00000082343434998853621370000011969183741783039632_" gradientUnits="userSpaceOnUse" x1="-187.4364" y1="-10.1052" x2="-187.4364" y2="29.8948">
						<stop  offset="0" style="stop-color:#8129FF"/>
						<stop  offset="1" style="stop-color:#4000BF"/>
					</linearGradient>
					<path style="fill:url(#SVGID_00000082343434998853621370000011969183741783039632_);" d="M-177.7,29.9h-19.4
						c-5.7,0-10.3-4.6-10.3-10.3V0.2c0-5.7,4.6-10.3,10.3-10.3h19.4c5.7,0,10.3,4.6,10.3,10.3v19.4
						C-167.4,25.3-172.1,29.9-177.7,29.9z"/>
				</g>
			</g>
		</g>
	</g>
</g>
<linearGradient id="SVGID_00000145771757286424072940000016735870224725672320_" gradientUnits="userSpaceOnUse" x1="-187.4364" y1="-1.4311" x2="-187.4364" y2="21.2208">
	<stop  offset="0" style="stop-color:#FFFFFF"/>
	<stop  offset="0.662" style="stop-color:#4302C2"/>
	<stop  offset="1" style="stop-color:#4302C2"/>
</linearGradient>
<path style="fill:url(#SVGID_00000145771757286424072940000016735870224725672320_);" d="M-187.3,1.8c4.5,0,8.1,3.6,8.1,8.1
	c0,4.5-3.6,8.1-8.1,8.1c-4.5,0-8.1-3.6-8.1-8.1c0-1.1,0.2-2.1,0.6-3.1c0.6,0.8,1.5,1.3,2.5,1.3c1.7,0,3.1-1.4,3.1-3.1
	c0-1-0.5-2-1.3-2.5C-189.4,2-188.4,1.8-187.3,1.8z M-187.4-1.4c-6.3,0-11.3,5.1-11.3,11.3s5.1,11.3,11.3,11.3
	c6.3,0,11.3-5.1,11.3-11.3S-181.2-1.4-187.4-1.4z M-187.4-0.3c5.6,0,10.2,4.6,10.2,10.2s-4.6,10.2-10.2,10.2s-10.2-4.6-10.2-10.2
	S-193.1-0.3-187.4-0.3z"/>
<linearGradient id="SVGID_00000060021011302478165350000007493817199707754402_" gradientUnits="userSpaceOnUse" x1="-187.4364" y1="-1.4311" x2="-187.4364" y2="21.2208">
	<stop  offset="0" style="stop-color:#FFFFFF"/>
	<stop  offset="1" style="stop-color:#8029FE"/>
</linearGradient>
<path style="fill:url(#SVGID_00000060021011302478165350000007493817199707754402_);" d="M-187.3,1.8c4.5,0,8.1,3.6,8.1,8.1
	c0,4.5-3.6,8.1-8.1,8.1c-4.5,0-8.1-3.6-8.1-8.1c0-1.1,0.2-2.1,0.6-3.1c0.6,0.8,1.5,1.3,2.5,1.3c1.7,0,3.1-1.4,3.1-3.1
	c0-1-0.5-2-1.3-2.5C-189.4,2-188.4,1.8-187.3,1.8z M-187.4-1.4c-6.3,0-11.3,5.1-11.3,11.3s5.1,11.3,11.3,11.3
	c6.3,0,11.3-5.1,11.3-11.3S-181.2-1.4-187.4-1.4z M-187.4-0.3c5.6,0,10.2,4.6,10.2,10.2s-4.6,10.2-10.2,10.2s-10.2-4.6-10.2-10.2
	S-193.1-0.3-187.4-0.3z"/>
<g>
	<path class="st38" d="M-174.4,95.8h-24.2c-7.1,0-12.9-5.8-12.9-12.9V58.7c0-7.1,5.8-12.9,12.9-12.9h24.2c7.1,0,12.9,5.8,12.9,12.9
		v24.2C-161.6,90-167.3,95.8-174.4,95.8z"/>
	<g>
		<g>
			<g>
				<g>
					
						<linearGradient id="SVGID_00000089561950564928239430000014133332443095069332_" gradientUnits="userSpaceOnUse" x1="-186.559" y1="50.7813" x2="-186.559" y2="90.7813">
						<stop  offset="0" style="stop-color:#33C1FF"/>
						<stop  offset="1" style="stop-color:#2E6BFF"/>
					</linearGradient>
					<path style="fill:url(#SVGID_00000089561950564928239430000014133332443095069332_);" d="M-176.9,90.8h-19.4
						c-5.7,0-10.3-4.6-10.3-10.3V61.1c0-5.7,4.6-10.3,10.3-10.3h19.4c5.7,0,10.3,4.6,10.3,10.3v19.4
						C-166.6,86.2-171.2,90.8-176.9,90.8z"/>
				</g>
			</g>
		</g>
	</g>
</g>
<g>
	
		<linearGradient id="SVGID_00000088133445120175567420000003338247271336028081_" gradientUnits="userSpaceOnUse" x1="-192.5746" y1="61.8739" x2="-192.5746" y2="80.5045">
		<stop  offset="0" style="stop-color:#FFFFFF"/>
		<stop  offset="0.6508" style="stop-color:#2E6EFF"/>
		<stop  offset="1" style="stop-color:#2E6DFF"/>
	</linearGradient>
	<path style="fill:url(#SVGID_00000088133445120175567420000003338247271336028081_);" d="M-186.3,65.9c-0.3-0.8-0.7-1.4-1.3-2
		c-0.7-0.7-1.5-1.1-2.4-1.4c-1-0.4-2.2-0.5-3.6-0.5c-0.5,0-1.1,0-1.6,0c-0.5,0-1.1,0-1.5,0c-0.5,0-0.9,0-1.3,0c-0.4,0-0.7,0-1,0
		c-0.1,0-0.2,0.1-0.2,0.2v18.1c0,0.2,0.1,0.2,0.2,0.2h3.4c0.1,0,0.2-0.1,0.2-0.2v-5.6c0.3,0,0.6,0,0.8,0c0.2,0,0.5,0,0.9,0
		c1.4,0,2.8-0.2,4-0.6c1.1-0.4,2.1-1.2,2.8-2.1c0.7-1,1.1-2.2,1.1-3.7C-185.9,67.4-186.1,66.6-186.3,65.9z M-190.3,70.1
		c-0.4,0.4-0.9,0.8-1.4,0.9c-0.7,0.2-1.3,0.3-2,0.3h-0.9c-0.2,0-0.4,0-0.7,0v-5.9c0.1,0,0.4,0,0.7,0c0.3,0,0.7,0,1.2,0
		c0.7,0,1.4,0.1,2.1,0.4c0.5,0.2,0.9,0.5,1.2,1c0.3,0.5,0.4,1,0.4,1.6C-189.8,69-189.9,69.6-190.3,70.1z"/>
	
		<linearGradient id="SVGID_00000054947342334270831120000001383017376573997706_" gradientUnits="userSpaceOnUse" x1="-178.9319" y1="66.2368" x2="-178.9319" y2="80.8739">
		<stop  offset="0" style="stop-color:#FFFFFF"/>
		<stop  offset="0.6508" style="stop-color:#2E6EFF"/>
		<stop  offset="1" style="stop-color:#2E6DFF"/>
	</linearGradient>
	<path style="fill:url(#SVGID_00000054947342334270831120000001383017376573997706_);" d="M-173.8,76.4c0,0.8-0.2,1.7-0.7,2.3
		c-0.5,0.7-1.2,1.2-2,1.6c-0.9,0.4-1.9,0.6-3.2,0.6c-0.8,0-1.6-0.1-2.4-0.2c-0.6-0.1-1.2-0.3-1.8-0.6c-0.1-0.1-0.2-0.2-0.2-0.3v-3.1
		c0-0.1,0-0.1,0.1-0.2c0.1,0,0.1,0,0.2,0c0.7,0.4,1.4,0.7,2.2,0.9c0.7,0.2,1.4,0.3,2.1,0.3c0.7,0,1.1-0.1,1.5-0.2
		c0.3-0.1,0.5-0.4,0.5-0.7c0-0.2-0.1-0.5-0.4-0.7s-0.9-0.5-1.7-0.8c-0.9-0.3-1.7-0.7-2.5-1.3c-0.5-0.4-1-0.9-1.3-1.5
		c-0.3-0.6-0.4-1.2-0.4-1.8c0-0.8,0.2-1.5,0.6-2.1c0.4-0.7,1.1-1.3,1.8-1.6c0.8-0.4,1.9-0.6,3.1-0.6c0.7,0,1.5,0.1,2.2,0.2
		c0.5,0.1,1,0.2,1.5,0.4c0.1,0,0.1,0.1,0.2,0.2c0,0.1,0,0.1,0,0.2V70c0,0.1,0,0.1-0.1,0.2c-0.2,0-0.2,0-0.3,0
		c-0.5-0.3-1.1-0.5-1.7-0.6c-0.7-0.1-1.3-0.2-2-0.2c-0.4,0-0.7,0-1.1,0.1c-0.2,0.1-0.4,0.2-0.5,0.4c-0.1,0.1-0.1,0.3-0.1,0.5
		c0,0.2,0.1,0.3,0.2,0.5c0.2,0.2,0.4,0.4,0.6,0.5c0.4,0.2,0.8,0.4,1.2,0.6c0.9,0.3,1.9,0.8,2.7,1.3c0.6,0.4,1.1,0.9,1.4,1.5
		C-173.9,75.2-173.8,75.8-173.8,76.4z"/>
</g>
<g>
	
		<linearGradient id="SVGID_00000149340142205640133020000010413789599846892935_" gradientUnits="userSpaceOnUse" x1="-192.9079" y1="61.3924" x2="-192.9079" y2="80.023">
		<stop  offset="0" style="stop-color:#FFFFFF"/>
		<stop  offset="1" style="stop-color:#33C0FF"/>
	</linearGradient>
	<path style="fill:url(#SVGID_00000149340142205640133020000010413789599846892935_);" d="M-186.7,65.4c-0.3-0.8-0.7-1.4-1.3-2
		c-0.7-0.7-1.5-1.1-2.4-1.4c-1-0.4-2.2-0.5-3.6-0.5c-0.5,0-1.1,0-1.6,0c-0.5,0-1.1,0-1.5,0c-0.5,0-0.9,0-1.3,0c-0.4,0-0.7,0-1,0
		c-0.1,0-0.2,0.1-0.2,0.2v18.1c0,0.2,0.1,0.2,0.2,0.2h3.4c0.1,0,0.2-0.1,0.2-0.2v-5.6c0.3,0,0.6,0,0.8,0c0.2,0,0.5,0,0.9,0
		c1.4,0,2.8-0.2,4-0.6c1.1-0.4,2.1-1.2,2.8-2.1c0.7-1,1.1-2.2,1.1-3.7C-186.3,66.9-186.4,66.1-186.7,65.4z M-190.6,69.6
		c-0.4,0.4-0.9,0.8-1.4,0.9c-0.7,0.2-1.3,0.3-2,0.3h-0.9c-0.2,0-0.4,0-0.7,0v-5.9c0.1,0,0.4,0,0.7,0c0.3,0,0.7,0,1.2,0
		c0.7,0,1.4,0.1,2.1,0.4c0.5,0.2,0.9,0.5,1.2,1c0.3,0.5,0.4,1,0.4,1.6C-190.1,68.6-190.3,69.2-190.6,69.6z"/>
	
		<linearGradient id="SVGID_00000095298569883494811530000007903951418464242343_" gradientUnits="userSpaceOnUse" x1="-179.2652" y1="65.7553" x2="-179.2652" y2="80.3924">
		<stop  offset="0" style="stop-color:#FFFFFF"/>
		<stop  offset="1" style="stop-color:#33C0FF"/>
	</linearGradient>
	<path style="fill:url(#SVGID_00000095298569883494811530000007903951418464242343_);" d="M-174.2,75.9c0,0.8-0.2,1.7-0.7,2.3
		c-0.5,0.7-1.2,1.2-2,1.6c-0.9,0.4-1.9,0.6-3.2,0.6c-0.8,0-1.6-0.1-2.4-0.2c-0.6-0.1-1.2-0.3-1.8-0.6c-0.1-0.1-0.2-0.2-0.2-0.3v-3.1
		c0-0.1,0-0.1,0.1-0.2c0.1,0,0.1,0,0.2,0c0.7,0.4,1.4,0.7,2.2,0.9c0.7,0.2,1.4,0.3,2.1,0.3c0.7,0,1.1-0.1,1.5-0.2
		c0.3-0.1,0.5-0.4,0.5-0.7c0-0.2-0.1-0.5-0.4-0.7s-0.9-0.5-1.7-0.8c-0.9-0.3-1.7-0.7-2.5-1.3c-0.5-0.4-1-0.9-1.3-1.5
		c-0.3-0.6-0.4-1.2-0.4-1.8c0-0.8,0.2-1.5,0.6-2.1c0.4-0.7,1.1-1.3,1.8-1.6c0.8-0.4,1.9-0.6,3.1-0.6c0.7,0,1.5,0.1,2.2,0.2
		c0.5,0.1,1,0.2,1.5,0.4c0.1,0,0.1,0.1,0.2,0.2c0,0.1,0,0.1,0,0.2v2.9c0,0.1,0,0.1-0.1,0.2c-0.2,0-0.2,0-0.3,0
		c-0.5-0.3-1.1-0.5-1.7-0.6c-0.7-0.1-1.3-0.2-2-0.2c-0.4,0-0.7,0-1.1,0.1c-0.2,0.1-0.4,0.2-0.5,0.4c-0.1,0.1-0.1,0.3-0.1,0.5
		c0,0.2,0.1,0.3,0.2,0.5c0.2,0.2,0.4,0.4,0.6,0.5c0.4,0.2,0.8,0.4,1.2,0.6c0.9,0.3,1.9,0.8,2.7,1.3c0.6,0.4,1.1,0.9,1.4,1.5
		C-174.3,74.7-174.1,75.3-174.2,75.9z"/>
</g>
<g>
	<path class="st44" d="M-289.6,91.3h-24.2c-7.1,0-12.9-5.8-12.9-12.9V54.2c0-7.1,5.8-12.9,12.9-12.9h24.2c7.1,0,12.9,5.8,12.9,12.9
		v24.2C-276.7,85.6-282.4,91.3-289.6,91.3z"/>
	<g>
		<g>
			<g>
				<g>
					
						<linearGradient id="SVGID_00000139979158704688484110000017189998865877446310_" gradientUnits="userSpaceOnUse" x1="-301.669" y1="46.3413" x2="-301.669" y2="86.3413">
						<stop  offset="5.586592e-03" style="stop-color:#48A5D3"/>
						<stop  offset="1" style="stop-color:#20495E"/>
					</linearGradient>
					<path style="fill:url(#SVGID_00000139979158704688484110000017189998865877446310_);" d="M-292,86.3h-19.4
						c-5.7,0-10.3-4.6-10.3-10.3V56.7c0-5.7,4.6-10.3,10.3-10.3h19.4c5.7,0,10.3,4.6,10.3,10.3V76C-281.7,81.7-286.3,86.3-292,86.3z
						"/>
				</g>
			</g>
		</g>
	</g>
</g>
<g>
	
		<linearGradient id="SVGID_00000013166914812568221960000014699524116218468492_" gradientUnits="userSpaceOnUse" x1="-301.5185" y1="55.5997" x2="-301.5185" y2="77.6673">
		<stop  offset="0" style="stop-color:#FFFFFF"/>
		<stop  offset="0.581" style="stop-color:#235067"/>
	</linearGradient>
	<path style="fill:url(#SVGID_00000013166914812568221960000014699524116218468492_);" d="M-290.9,69.1c0,0,0-0.1-0.1-0.1
		c-0.1-0.2-0.4-0.3-0.9-0.2c-1.5,0.3-2.1,0.1-2.3,0c1.2-1.9,2.2-4.2,2.8-6.3c0.2-1,0.7-3.2,0.1-4.4c0-0.1-0.1-0.1-0.1-0.2
		c-1.2-1.5-2.9-2.3-5-2.3c-1.4,0-2.5,0.3-2.9,0.4c-0.2,0-0.3-0.1-0.5-0.1c-0.4-0.1-0.8-0.1-1.2-0.1c-1.1,0-2,0.2-2.8,0.8
		c-0.8-0.3-4.4-1.5-6.6,0.1c-1.2,0.9-1.8,2.5-1.7,4.7c0,0.8,0.5,3.1,1.1,5.3c0.4,1.4,0.9,2.5,1.3,3.3c0.5,0.9,1,1.5,1.6,1.6
		c0.4,0.1,1,0.1,1.7-0.7c0.7-0.9,1.5-1.7,1.8-2c0.4,0.2,0.8,0.3,1.3,0.3c0,0,0,0,0,0c-0.1,0.1-0.2,0.2-0.2,0.3
		c-0.3,0.4-0.4,0.5-1.4,0.7c-0.3,0.1-1,0.2-1.1,0.7c0,0.1,0,0.2,0.1,0.3c0.2,0.4,0.8,0.6,0.9,0.6c1.2,0.3,2.3,0.1,3.1-0.6
		c0,2.1,0.1,4.1,0.3,4.7c0.2,0.5,0.7,1.8,2.3,1.8c0.2,0,0.5,0,0.8-0.1c1.6-0.4,2.3-1.1,2.6-2.7c0.1-0.8,0.4-2.6,0.5-3.8
		c0-0.1,0-0.1,0.1-0.1c0,0,0.1,0,0.4,0c0,0,0,0,0,0l0.2,0l0,0c0.8,0,1.8-0.1,2.3-0.4C-291.8,70.4-290.7,69.7-290.9,69.1z
		 M-310.4,66.5c-0.7-2.2-1.1-4.5-1.1-5.1c-0.1-2,0.4-3.4,1.4-4.1c1.7-1.2,4.5-0.5,5.6-0.1c0,0,0,0,0,0c-1.9,1.9-1.8,5.1-1.8,5.3
		c0,0.1,0,0.2,0,0.3c0,0.5,0.1,1.5-0.1,2.7c-0.1,1.1,0.2,2.1,0.9,2.8c0.1,0.1,0.2,0.1,0.2,0.2c-0.3,0.3-1,1.1-1.7,2
		c-0.5,0.6-0.9,0.5-1,0.5c-0.4-0.1-0.7-0.5-1.1-1.2C-309.5,69-310,67.9-310.4,66.5z M-304.8,71.2c-0.2,0-0.3-0.1-0.4-0.2
		c0.1,0,0.2-0.1,0.4-0.1c1.2-0.2,1.4-0.4,1.8-0.9c0.1-0.1,0.2-0.2,0.3-0.4c0,0,0.1-0.1,0.1-0.1c0.2-0.1,0.3-0.1,0.4,0
		c0.1,0.1,0.3,0.2,0.3,0.4c0,0.1,0.1,0.3,0,0.4C-302.8,71.4-304,71.4-304.8,71.2z M-302.9,67.5l0,0.1c-0.1,0.3-0.2,0.6-0.3,0.9
		c-0.6,0-1.2-0.3-1.7-0.7c-0.6-0.6-0.8-1.4-0.7-2.3c0.2-1.2,0.1-2.2,0.1-2.8c0-0.1,0-0.1,0-0.2c-0.1-0.8,1.4-1.3,2.2-1.1
		c0.4,0.1,0.8,0.8,0.9,1.3c0.5,2.5,0.1,3.5-0.3,4.4C-302.8,67.2-302.9,67.4-302.9,67.5z M-296.2,71.7c0,0.2,0,0.3-0.1,0.5l-0.1,0.4
		c0,0,0,0.1,0,0.1c0,0.4,0,0.6-0.1,0.8c-0.1,0.2-0.1,0.4-0.2,1c-0.1,1.3-0.8,2-2.2,2.4c-1.4,0.3-1.6-0.5-1.9-1.1
		c0-0.1,0-0.1-0.1-0.2c-0.2-0.5-0.2-1.3-0.1-2.3c0-0.5,0-1.7-0.3-2.4c0-0.3,0-0.5,0-0.8c0,0,0-0.1,0-0.1c0-0.1,0-0.1,0-0.2
		c-0.1-0.4-0.4-0.7-0.7-0.9c-0.1-0.1-0.4-0.2-0.7-0.1c0.1-0.3,0.2-0.5,0.3-0.9l0-0.1c0.1-0.1,0.1-0.3,0.2-0.5
		c0.4-0.9,0.9-2.1,0.3-4.8c-0.2-1-0.9-1.5-2.1-1.4c-0.7,0.1-1.3,0.3-1.6,0.5c-0.1,0-0.1,0.1-0.2,0.1c0.1-1,0.4-2.9,1.6-4.1
		c0.1-0.1,0.2-0.2,0.3-0.3c0,0,0.1,0,0.1-0.1c0.7-0.5,1.6-0.8,2.6-0.8c0.4,0,0.7,0,1.1,0.1c1.8,0.3,3,1.3,3.7,2.2
		c0.7,0.9,1.2,1.8,1.3,2.3c-1.2-0.1-2,0.1-2.5,0.7c-0.9,1.3,0.5,3.8,1.2,5.1c0.1,0.2,0.2,0.4,0.3,0.5c0.2,0.5,0.5,0.9,0.7,1.2
		c0.1,0.1,0.1,0.2,0.2,0.2c-0.4,0.1-1,0.4-1,1.6c0,0.1,0,0.4-0.1,0.7C-296.1,71.2-296.1,71.5-296.2,71.7z M-295.3,70.2
		c0-0.8,0.2-0.8,0.5-0.9c0,0,0.1,0,0.1,0c0,0,0.1,0.1,0.1,0.1c0.5,0.3,1.5,0.4,2.8,0.1c-0.2,0.2-0.5,0.4-0.9,0.6
		c-0.4,0.2-1,0.3-1.6,0.3C-294.9,70.4-295.3,70.3-295.3,70.2z M-294.8,61.4c0,0.3-0.1,0.9-0.1,1.2c-0.1,0.3-0.1,0.7-0.1,1.1
		c0,0.4,0,0.8,0.1,1.2c0.1,0.8,0.2,1.7-0.2,2.5c-0.1-0.1-0.1-0.2-0.2-0.4c0-0.1-0.2-0.3-0.3-0.6c-0.6-1-2.2-3.9-1.5-4.8
		C-296.7,61.2-295.7,61.2-294.8,61.4z M-294.6,68.2C-294.6,68.1-294.7,68.1-294.6,68.2l-0.1-0.1c0.7-1.1,0.5-2.2,0.4-3.2
		c0-0.4-0.1-0.8-0.1-1.1c0-0.4,0.1-0.7,0.1-1c0.1-0.4,0.1-0.8,0.1-1.2c0,0,0-0.1,0-0.2c0-0.4-0.6-1.8-1.6-3
		c-0.6-0.7-1.4-1.4-2.5-1.9c0.5-0.1,1.1-0.2,1.9-0.2c1.9,0,3.4,0.7,4.4,2.1c0,0,0,0.1,0.1,0.1C-291.2,59.7-292.1,64.2-294.6,68.2z"
		/>
	
		<linearGradient id="SVGID_00000113321934793606968490000005907273654571043973_" gradientUnits="userSpaceOnUse" x1="-301.8195" y1="55.0154" x2="-301.8195" y2="77.083">
		<stop  offset="0" style="stop-color:#FFFFFF"/>
		<stop  offset="1" style="stop-color:#48A4D2"/>
	</linearGradient>
	<path style="fill:url(#SVGID_00000113321934793606968490000005907273654571043973_);" d="M-291.2,68.6c0,0,0-0.1-0.1-0.1
		c-0.1-0.2-0.4-0.3-0.9-0.2c-1.5,0.3-2.1,0.1-2.3,0c1.2-1.9,2.2-4.2,2.8-6.3c0.2-1,0.7-3.2,0.1-4.4c0-0.1-0.1-0.1-0.1-0.2
		c-1.2-1.5-2.9-2.3-5-2.3c-1.4,0-2.5,0.3-2.9,0.4c-0.2,0-0.3-0.1-0.5-0.1c-0.4-0.1-0.8-0.1-1.2-0.1c-1.1,0-2,0.2-2.8,0.8
		c-0.8-0.3-4.4-1.5-6.6,0.1c-1.2,0.9-1.8,2.5-1.7,4.7c0,0.8,0.5,3.1,1.1,5.3c0.4,1.4,0.9,2.5,1.3,3.3c0.5,0.9,1,1.5,1.6,1.6
		c0.4,0.1,1,0.1,1.7-0.7c0.7-0.9,1.5-1.7,1.8-2c0.4,0.2,0.8,0.3,1.3,0.3c0,0,0,0,0,0c-0.1,0.1-0.2,0.2-0.2,0.3
		c-0.3,0.4-0.4,0.5-1.4,0.7c-0.3,0.1-1,0.2-1.1,0.7c0,0.1,0,0.2,0.1,0.3c0.2,0.4,0.8,0.6,0.9,0.6c1.2,0.3,2.3,0.1,3.1-0.6
		c0,2.1,0.1,4.1,0.3,4.7c0.2,0.5,0.7,1.8,2.3,1.8c0.2,0,0.5,0,0.8-0.1c1.6-0.4,2.3-1.1,2.6-2.7c0.1-0.8,0.4-2.6,0.5-3.8
		c0-0.1,0-0.1,0.1-0.1c0,0,0.1,0,0.4,0c0,0,0,0,0,0l0.2,0l0,0c0.8,0,1.8-0.1,2.3-0.4C-292.1,69.8-291,69.1-291.2,68.6z M-310.7,65.9
		c-0.7-2.2-1.1-4.5-1.1-5.1c-0.1-2,0.4-3.4,1.4-4.1c1.7-1.2,4.5-0.5,5.6-0.1c0,0,0,0,0,0c-1.9,1.9-1.8,5.1-1.8,5.3
		c0,0.1,0,0.2,0,0.3c0,0.5,0.1,1.5-0.1,2.7c-0.1,1.1,0.2,2.1,0.9,2.8c0.1,0.1,0.2,0.1,0.2,0.2c-0.3,0.3-1,1.1-1.7,2
		c-0.5,0.6-0.9,0.5-1,0.5c-0.4-0.1-0.7-0.5-1.1-1.2C-309.8,68.4-310.3,67.3-310.7,65.9z M-305.1,70.6c-0.2,0-0.3-0.1-0.4-0.2
		c0.1,0,0.2-0.1,0.4-0.1c1.2-0.2,1.4-0.4,1.8-0.9c0.1-0.1,0.2-0.2,0.3-0.4c0,0,0.1-0.1,0.1-0.1c0.2-0.1,0.3-0.1,0.4,0
		c0.1,0.1,0.3,0.2,0.3,0.4c0,0.1,0.1,0.3,0,0.4C-303.1,70.8-304.3,70.8-305.1,70.6z M-303.2,66.9l0,0.1c-0.1,0.3-0.2,0.6-0.3,0.9
		c-0.6,0-1.2-0.3-1.7-0.7c-0.6-0.6-0.8-1.4-0.7-2.3c0.2-1.2,0.1-2.2,0.1-2.8c0-0.1,0-0.1,0-0.2c0.3-0.2,1.5-0.9,2.4-0.7
		c0.4,0.1,0.7,0.4,0.8,0.9c0.5,2.5,0.1,3.5-0.3,4.4C-303.1,66.6-303.2,66.8-303.2,66.9z M-296.5,71.2c0,0.2,0,0.3-0.1,0.5l-0.1,0.4
		c0,0,0,0.1,0,0.1c0,0.4,0,0.6-0.1,0.8c-0.1,0.2-0.1,0.4-0.2,1c-0.1,1.3-0.8,2-2.2,2.4c-1.4,0.3-1.6-0.5-1.9-1.1
		c0-0.1,0-0.1-0.1-0.2c-0.2-0.5-0.2-1.3-0.1-2.3c0-0.5,0-1.7-0.3-2.4c0-0.3,0-0.5,0-0.8c0,0,0-0.1,0-0.1c0-0.1,0-0.1,0-0.2
		c-0.1-0.4-0.4-0.7-0.7-0.9c-0.1-0.1-0.4-0.2-0.7-0.1c0.1-0.3,0.2-0.5,0.3-0.9l0-0.1c0.1-0.1,0.1-0.3,0.2-0.5
		c0.4-0.9,0.9-2.1,0.3-4.8c-0.2-1-0.9-1.5-2.1-1.4c-0.7,0.1-1.3,0.3-1.6,0.5c-0.1,0-0.1,0.1-0.2,0.1c0.1-1,0.4-2.9,1.6-4.1
		c0.1-0.1,0.2-0.2,0.3-0.3c0,0,0.1,0,0.1-0.1c0.7-0.5,1.6-0.8,2.6-0.8c0.4,0,0.7,0,1.1,0.1c1.8,0.3,3,1.3,3.7,2.2
		c0.7,0.9,1.2,1.8,1.3,2.3c-1.2-0.1-2,0.1-2.5,0.7c-0.9,1.3,0.5,3.8,1.2,5.1c0.1,0.2,0.2,0.4,0.3,0.5c0.2,0.5,0.5,0.9,0.7,1.2
		c0.1,0.1,0.1,0.2,0.2,0.2c-0.4,0.1-1,0.4-1,1.6c0,0.1,0,0.4-0.1,0.7C-296.4,70.6-296.4,70.9-296.5,71.2z M-295.6,69.7
		c0-0.8,0.2-0.8,0.5-0.9c0,0,0.1,0,0.1,0c0,0,0.1,0.1,0.1,0.1c0.5,0.3,1.5,0.4,2.8,0.1c-0.2,0.2-0.5,0.4-0.9,0.6
		c-0.4,0.2-1,0.3-1.6,0.3C-295.2,69.8-295.6,69.7-295.6,69.7z M-295.1,61.1c0,0.3,0,0.6-0.1,0.9c-0.1,0.3-0.1,0.7-0.1,1.1
		c0,0.4,0,0.8,0.1,1.2c0.1,0.8,0.2,1.7-0.2,2.5c-0.1-0.1-0.1-0.2-0.2-0.4c0-0.1-0.2-0.3-0.3-0.6c-0.6-1-1.9-3.4-1.2-4.4
		C-296.8,61.1-295.9,61-295.1,61.1z M-294.9,67.6C-294.9,67.6-295,67.5-294.9,67.6l-0.1-0.1c0.7-1.1,0.5-2.2,0.4-3.2
		c0-0.4-0.1-0.8-0.1-1.1c0-0.4,0.1-0.7,0.1-1c0.1-0.4,0.1-0.8,0.1-1.2c0,0,0-0.1,0-0.2c0-0.4-0.6-1.8-1.6-3
		c-0.6-0.7-1.4-1.4-2.5-1.9c0.5-0.1,1.1-0.2,1.9-0.2c1.9,0,3.4,0.7,4.4,2.1c0,0,0,0.1,0.1,0.1C-291.5,59.1-292.4,63.7-294.9,67.6z
		 M-303,62c0,0.2-0.3,0.4-0.6,0.4c0,0,0,0-0.1,0c-0.2,0-0.3-0.1-0.5-0.3c0-0.1-0.1-0.2-0.1-0.3c0,0,0-0.1,0.1-0.1
		c0.1-0.1,0.3-0.1,0.6-0.1C-303.3,61.6-303,61.8-303,62z M-295.7,61.6c0,0.1,0,0.2-0.1,0.3c-0.1,0.1-0.2,0.2-0.4,0.2c0,0,0,0-0.1,0
		c-0.3,0-0.5-0.2-0.5-0.3c0-0.2,0.2-0.3,0.5-0.3C-296,61.4-295.7,61.4-295.7,61.6z"/>
</g>
<g>
	<path class="st48" d="M-231.3,93.6h-24.2c-7.1,0-12.9-5.8-12.9-12.9V56.5c0-7.1,5.8-12.9,12.9-12.9h24.2c7.1,0,12.9,5.8,12.9,12.9
		v24.2C-218.4,87.8-224.2,93.6-231.3,93.6z"/>
	<g>
		<g>
			<g>
				<g>
					
						<linearGradient id="SVGID_00000110435174539835439910000001168705672421875388_" gradientUnits="userSpaceOnUse" x1="-243.4361" y1="48.5654" x2="-243.4361" y2="88.5654">
						<stop  offset="0" style="stop-color:#DCE0E2"/>
						<stop  offset="1" style="stop-color:#8F9FB2"/>
					</linearGradient>
					<path style="fill:url(#SVGID_00000110435174539835439910000001168705672421875388_);" d="M-233.7,88.6h-19.4
						c-5.7,0-10.3-4.6-10.3-10.3V58.9c0-5.7,4.6-10.3,10.3-10.3h19.4c5.7,0,10.3,4.6,10.3,10.3v19.4
						C-223.4,83.9-228.1,88.6-233.7,88.6z"/>
				</g>
			</g>
		</g>
	</g>
</g>
<linearGradient id="SVGID_00000150086444529169729650000014718177257654276287_" gradientUnits="userSpaceOnUse" x1="-243.4361" y1="57.2395" x2="-243.4361" y2="79.8914">
	<stop  offset="0" style="stop-color:#DCE0E2"/>
	<stop  offset="1" style="stop-color:#6F7C89"/>
</linearGradient>
<path style="fill:url(#SVGID_00000150086444529169729650000014718177257654276287_);" d="M-250.6,61.2c0.7,0.6,1,0.5,2.3,0.4
	l12.5-0.7c0.3,0,0-0.3,0-0.3l-2.1-1.5c-0.4-0.3-0.9-0.7-1.9-0.6l-12.1,0.9c-0.4,0-0.5,0.3-0.4,0.4L-250.6,61.2z M-249.8,64.1v13.1
	c0,0.7,0.4,1,1.1,0.9l13.7-0.8c0.8,0,0.9-0.5,0.9-1.1v-13c0-0.6-0.2-0.9-0.7-0.8l-14.3,0.8C-249.6,63.3-249.8,63.5-249.8,64.1
	L-249.8,64.1z M-236.3,64.8c0.1,0.4,0,0.8-0.4,0.8l-0.7,0.1v9.7c-0.6,0.3-1.1,0.5-1.5,0.5c-0.7,0-0.9-0.2-1.4-0.9l-4.3-6.8v6.6
	l1.4,0.3c0,0,0,0.8-1.1,0.8l-3,0.2c-0.1-0.2,0-0.6,0.3-0.7l0.8-0.2v-8.7l-1.1-0.1c-0.1-0.4,0.1-1,0.7-1l3.3-0.2l4.5,6.9V66l-1.1-0.1
	c-0.1-0.5,0.3-0.8,0.7-0.9L-236.3,64.8z M-252.9,58.2l12.6-0.9c1.5-0.1,1.9,0,2.9,0.7l4,2.8c0.7,0.5,0.9,0.6,0.9,1.1v15.5
	c0,1-0.4,1.5-1.6,1.6l-14.6,0.9c-0.9,0-1.4-0.1-1.9-0.7l-3-3.8c-0.5-0.7-0.7-1.2-0.7-1.8V59.8C-254.3,59-253.9,58.3-252.9,58.2z"/>
<linearGradient id="SVGID_00000002344738937718353220000007916603306412379275_" gradientUnits="userSpaceOnUse" x1="-243.4361" y1="57.2395" x2="-243.4361" y2="79.8914">
	<stop  offset="0" style="stop-color:#353535"/>
	<stop  offset="1" style="stop-color:#151515"/>
</linearGradient>
<path style="fill:url(#SVGID_00000002344738937718353220000007916603306412379275_);" d="M-250.6,61.2c0.7,0.6,1,0.5,2.3,0.4
	l12.5-0.7c0.3,0,0-0.3,0-0.3l-2.1-1.5c-0.4-0.3-0.9-0.7-1.9-0.6l-12.1,0.9c-0.4,0-0.5,0.3-0.4,0.4L-250.6,61.2z M-249.8,64.1v13.1
	c0,0.7,0.4,1,1.1,0.9l13.7-0.8c0.8,0,0.9-0.5,0.9-1.1v-13c0-0.6-0.2-0.9-0.7-0.8l-14.3,0.8C-249.6,63.3-249.8,63.5-249.8,64.1
	L-249.8,64.1z M-236.3,64.8c0.1,0.4,0,0.8-0.4,0.8l-0.7,0.1v9.7c-0.6,0.3-1.1,0.5-1.5,0.5c-0.7,0-0.9-0.2-1.4-0.9l-4.3-6.8v6.6
	l1.4,0.3c0,0,0,0.8-1.1,0.8l-3,0.2c-0.1-0.2,0-0.6,0.3-0.7l0.8-0.2v-8.7l-1.1-0.1c-0.1-0.4,0.1-1,0.7-1l3.3-0.2l4.5,6.9V66l-1.1-0.1
	c-0.1-0.5,0.3-0.8,0.7-0.9L-236.3,64.8z M-252.9,58.2l12.6-0.9c1.5-0.1,1.9,0,2.9,0.7l4,2.8c0.7,0.5,0.9,0.6,0.9,1.1v15.5
	c0,1-0.4,1.5-1.6,1.6l-14.6,0.9c-0.9,0-1.4-0.1-1.9-0.7l-3-3.8c-0.5-0.7-0.7-1.2-0.7-1.8V59.8C-254.3,59-253.9,58.3-252.9,58.2z"/>
<g>
	<path class="st52" d="M-367.4,91.7h-24.2c-7.1,0-12.9-5.8-12.9-12.9V54.6c0-7.1,5.8-12.9,12.9-12.9h24.2c7.1,0,12.9,5.8,12.9,12.9
		v24.2C-354.6,86-360.3,91.7-367.4,91.7z"/>
	<g>
		<g>
			<g>
				<g>
					
						<linearGradient id="SVGID_00000147193607189555590410000014430609216685258405_" gradientUnits="userSpaceOnUse" x1="-379.5588" y1="46.7479" x2="-379.5588" y2="86.7479">
						<stop  offset="0" style="stop-color:#9088FF"/>
						<stop  offset="1" style="stop-color:#5865F2"/>
					</linearGradient>
					<path style="fill:url(#SVGID_00000147193607189555590410000014430609216685258405_);" d="M-369.9,86.7h-19.4
						c-5.7,0-10.3-4.6-10.3-10.3V57.1c0-5.7,4.6-10.3,10.3-10.3h19.4c5.7,0,10.3,4.6,10.3,10.3v19.4
						C-359.6,82.1-364.2,86.7-369.9,86.7z"/>
				</g>
			</g>
		</g>
	</g>
</g>
<g>
	<g id="_2_00000105403290655438259080000004599690892376677031_">
		<g id="Discord_Logos_00000015339368837798244070000013304816961511327158_">
			<g id="Discord_Logo_-_Large_-_White_00000062170276513918347990000003093195935158141103_">
				
					<linearGradient id="SVGID_00000154408287589593873430000009031416303238921371_" gradientUnits="userSpaceOnUse" x1="-379.531" y1="56.9167" x2="-379.531" y2="77.1347">
					<stop  offset="0" style="stop-color:#FFFFFF"/>
					<stop  offset="1" style="stop-color:#5A66F2"/>
				</linearGradient>
				<path style="fill:url(#SVGID_00000154408287589593873430000009031416303238921371_);" d="M-370.3,58.6c-1.8-0.8-3.6-1.4-5.5-1.7
					c-0.3,0.5-0.5,0.9-0.7,1.4c-2-0.3-4.1-0.3-6.1,0c-0.2-0.5-0.4-1-0.7-1.4c-1.9,0.3-3.8,0.9-5.5,1.7c-3.5,5.2-4.4,10.2-4,15.1l0,0
					c2,1.5,4.3,2.7,6.7,3.4c0.5-0.7,1-1.5,1.4-2.3c-0.8-0.3-1.6-0.7-2.3-1.1c0.2-0.1,0.4-0.3,0.6-0.4c4.3,2,9.2,2,13.5,0
					c0.2,0.1,0.4,0.3,0.6,0.4c-0.7,0.4-1.5,0.8-2.3,1.1c0.4,0.8,0.9,1.6,1.4,2.3c2.4-0.7,4.7-1.9,6.8-3.4l0,0
					C-365.8,68-367.3,63-370.3,58.6z M-384,70.7c-1.3,0-2.4-1.2-2.4-2.7c0-1.5,1-2.7,2.4-2.7c1.3,0,2.4,1.2,2.4,2.7
					C-381.6,69.5-382.6,70.7-384,70.7z M-375.1,70.7c-1.3,0-2.4-1.2-2.4-2.7c0-1.5,1-2.7,2.4-2.7s2.4,1.2,2.4,2.7
					C-372.7,69.5-373.8,70.7-375.1,70.7z"/>
			</g>
		</g>
	</g>
	<g id="_2_00000080891021390953466360000012290610452150015669_">
		<g id="Discord_Logos_00000114767948726506065390000008913904537969812113_">
			<g id="Discord_Logo_-_Large_-_White_00000112615048365184050680000004647852928042650552_">
				
					<linearGradient id="SVGID_00000107562427360695127310000017730305930260971697_" gradientUnits="userSpaceOnUse" x1="-379.5865" y1="56.3612" x2="-379.5865" y2="76.5792">
					<stop  offset="0" style="stop-color:#FFFFFF"/>
					<stop  offset="0.8659" style="stop-color:#8F87FF"/>
				</linearGradient>
				<path style="fill:url(#SVGID_00000107562427360695127310000017730305930260971697_);" d="M-370.3,58.1c-1.8-0.8-3.6-1.4-5.5-1.7
					c-0.3,0.5-0.5,0.9-0.7,1.4c-2-0.3-4.1-0.3-6.1,0c-0.2-0.5-0.4-1-0.7-1.4c-1.9,0.3-3.8,0.9-5.5,1.7c-3.5,5.2-4.4,10.2-4,15.1l0,0
					c2,1.5,4.3,2.7,6.7,3.4c0.5-0.7,1-1.5,1.4-2.3c-0.8-0.3-1.6-0.7-2.3-1.1c0.2-0.1,0.4-0.3,0.6-0.4c4.3,2,9.2,2,13.5,0
					c0.2,0.1,0.4,0.3,0.6,0.4c-0.7,0.4-1.5,0.8-2.3,1.1c0.4,0.8,0.9,1.6,1.4,2.3c2.4-0.7,4.7-1.9,6.8-3.4l0,0
					C-365.8,67.4-367.3,62.5-370.3,58.1z M-384,70.1c-1.3,0-2.4-1.2-2.4-2.7c0-1.5,1-2.7,2.4-2.7s2.4,1.2,2.4,2.7
					C-381.6,69-382.7,70.1-384,70.1z M-375.2,70.1c-1.3,0-2.4-1.2-2.4-2.7c0-1.5,1-2.7,2.4-2.7s2.4,1.2,2.4,2.7
					C-372.8,69-373.8,70.1-375.2,70.1z"/>
			</g>
		</g>
	</g>
</g>
<image style="overflow:visible;" width="450" height="450" xlink:href="60601A61.jpg"  transform="matrix(0.1504 0 0 0.1504 -94.1111 -4.6667)">
</image>
<g>
	<path class="st56" d="M-288.7,154.5h-24.2c-7.1,0-12.9-5.8-12.9-12.9v-24.2c0-7.1,5.8-12.9,12.9-12.9h24.2
		c7.1,0,12.9,5.8,12.9,12.9v24.2C-275.8,148.7-281.6,154.5-288.7,154.5z"/>
	<g>
		<g>
			<g>
				<g>
					
						<linearGradient id="SVGID_00000112623608917300888990000004157046691562645937_" gradientUnits="userSpaceOnUse" x1="-300.7795" y1="109.4792" x2="-300.7795" y2="149.4792">
						<stop  offset="0" style="stop-color:#2A2F35"/>
						<stop  offset="1" style="stop-color:#0A0A0A"/>
					</linearGradient>
					<path style="fill:url(#SVGID_00000112623608917300888990000004157046691562645937_);" d="M-291.1,149.5h-19.4
						c-5.7,0-10.3-4.6-10.3-10.3v-19.4c0-5.7,4.6-10.3,10.3-10.3h19.4c5.7,0,10.3,4.6,10.3,10.3v19.4
						C-280.8,144.9-285.4,149.5-291.1,149.5z"/>
				</g>
			</g>
		</g>
	</g>
</g>
<linearGradient id="SVGID_00000160192858477380937270000000872485049444734398_" gradientUnits="userSpaceOnUse" x1="-300.7795" y1="118.1533" x2="-300.7795" y2="140.8052">
	<stop  offset="0" style="stop-color:#FFFFFF"/>
	<stop  offset="1" style="stop-color:#15171A"/>
</linearGradient>
<path style="fill:url(#SVGID_00000160192858477380937270000000872485049444734398_);" d="M-300.8,118.2c-6.4,0-11.6,5.2-11.6,11.6
	c0,5.1,3.3,9.5,7.9,11c0.6,0.1,0.8-0.2,0.8-0.6c0-0.3,0-1,0-2c-3.2,0.7-3.9-1.6-3.9-1.6c-0.5-1.3-1.3-1.7-1.3-1.7
	c-1.1-0.7,0.1-0.7,0.1-0.7c1.2,0.1,1.8,1.2,1.8,1.2c1,1.8,2.7,1.3,3.4,1c0.1-0.8-0.2-1.5,0.1-1.8c-2.6-0.3-4.7-1-4.7-5.5
	c0-1.3-0.3-2.5,0.5-3.3c-0.3-0.9-0.5-3,0.5-3.3c0,0,1.3,0.2,3.5,1.7c0.9-0.3,1.9-0.4,2.9-0.4c1,0,2,0.1,2.9,0.4
	c2.2-1.5,3.8-1.5,3.8-1.5c0.6,1.6,0.1,2.7,0,3c0.7,0.8,0.7,2.3,0.7,3.5c0,4.5-2.3,5.1-4.8,5.4c0.4,0.3,0.4,1.8,0.4,2.9
	c0,1.6-0.1,2.4-0.1,2.8c0,0.3,0.2,0.7,0.8,0.6c4.6-1.5,8-5.9,8-11C-289.2,123.4-294.4,118.2-300.8,118.2"/>
<linearGradient id="SVGID_00000123408524084448675560000002171760677564486844_" gradientUnits="userSpaceOnUse" x1="-300.7795" y1="118.1533" x2="-300.7795" y2="140.8052">
	<stop  offset="0" style="stop-color:#FFFFFF"/>
	<stop  offset="1" style="stop-color:#292E34"/>
</linearGradient>
<path style="fill:url(#SVGID_00000123408524084448675560000002171760677564486844_);" d="M-300.8,118.2c-6.4,0-11.6,5.2-11.6,11.6
	c0,5.1,3.3,9.5,7.9,11c0.6,0.1,0.8-0.2,0.8-0.6c0-0.3,0-1,0-2c-3.2,0.7-3.9-1.6-3.9-1.6c-0.5-1.3-1.3-1.7-1.3-1.7
	c-1.1-0.7,0.1-0.7,0.1-0.7c1.2,0.1,1.8,1.2,1.8,1.2c1,1.8,2.7,1.3,3.4,1c0.1-0.8,0.4-1.3,0.7-1.6c-2.6-0.3-5.3-1.3-5.3-5.7
	c0-1.3,0.5-2.3,1.2-3.1c-0.1-0.3-0.5-1.5,0.1-3.1c0,0,1-0.3,3.2,1.2c0.9-0.3,1.9-0.4,2.9-0.4c1,0,2,0.1,2.9,0.4
	c2.2-1.5,3.2-1.2,3.2-1.2c0.6,1.6,0.2,2.8,0.1,3.1c0.7,0.8,1.2,1.8,1.2,3.1c0,4.5-2.7,5.4-5.3,5.7c0.4,0.3,0.8,1.1,0.8,2.1
	c0,1.6,0,2.8,0,3.2c0,0.3,0.2,0.7,0.8,0.6c4.6-1.5,8-5.9,8-11C-289.2,123.4-294.4,118.2-300.8,118.2"/>
<g>
	<path class="st60" d="M-171.8,153.5H-196c-7.1,0-12.9-5.8-12.9-12.9v-24.2c0-7.1,5.8-12.9,12.9-12.9h24.2c7.1,0,12.9,5.8,12.9,12.9
		v24.2C-158.9,147.8-164.6,153.5-171.8,153.5z"/>
	<g>
		<g>
			<g>
				<g>
					
						<linearGradient id="SVGID_00000000181407369342041730000008502459923672554642_" gradientUnits="userSpaceOnUse" x1="-183.8757" y1="108.547" x2="-183.8757" y2="148.547">
						<stop  offset="0" style="stop-color:#FFBE4A"/>
						<stop  offset="1" style="stop-color:#E57D00"/>
					</linearGradient>
					<path style="fill:url(#SVGID_00000000181407369342041730000008502459923672554642_);" d="M-174.2,148.5h-19.4
						c-5.7,0-10.3-4.6-10.3-10.3v-19.4c0-5.7,4.6-10.3,10.3-10.3h19.4c5.7,0,10.3,4.6,10.3,10.3v19.4
						C-163.9,143.9-168.5,148.5-174.2,148.5z"/>
				</g>
			</g>
		</g>
	</g>
</g>
<g>
	<g>
		<g>
			
				<linearGradient id="SVGID_00000008122617591172633130000006162008970961916293_" gradientUnits="userSpaceOnUse" x1="-186.5713" y1="120.6481" x2="-186.5713" y2="138.2943">
				<stop  offset="0" style="stop-color:#FFFFFF"/>
				<stop  offset="0.7318" style="stop-color:#D67205"/>
				<stop  offset="1" style="stop-color:#D67205"/>
			</linearGradient>
			<path style="fill:url(#SVGID_00000008122617591172633130000006162008970961916293_);" d="M-184.5,120.8c0-0.1-0.1-0.1-0.2-0.1
				h-4.3c-0.1,0-0.1,0.1-0.1,0.2c0,0.4,0,0.7-0.1,1.1c-0.1,0.2-0.1,0.4-0.2,0.6l-5.3,15.5c0,0.2,0,0.3,0.2,0.3h3.1
				c0.1,0,0.3-0.1,0.3-0.2l1.3-3.9h6.2l1.4,4c0,0.1,0.1,0.2,0.3,0.2h3.5c0.2,0,0.2-0.1,0.2-0.3L-184.5,120.8z M-188.9,130.7
				c0.2-0.7,0.5-1.5,0.7-2.3c0.3-0.8,0.5-1.7,0.8-2.5c0.2-0.7,0.4-1.4,0.6-2.2h0c0.1,0.4,0.2,0.8,0.4,1.3c0.1,0.5,0.3,1,0.4,1.5
				c0.2,0.5,0.3,1,0.5,1.5c0.1,0.5,0.3,1,0.4,1.4c0.1,0.4,0.3,0.9,0.4,1.2H-188.9z"/>
			
				<linearGradient id="SVGID_00000159429317836841813180000017646186439208662443_" gradientUnits="userSpaceOnUse" x1="-174.6378" y1="124.4034" x2="-174.6378" y2="138.2534">
				<stop  offset="0" style="stop-color:#FFFFFF"/>
				<stop  offset="0.7318" style="stop-color:#D67205"/>
				<stop  offset="1" style="stop-color:#D67205"/>
			</linearGradient>
			<path style="fill:url(#SVGID_00000159429317836841813180000017646186439208662443_);" d="M-172.8,124.6V138
				c0,0.2-0.1,0.3-0.2,0.3h-3.3c-0.2,0-0.3-0.1-0.3-0.3v-13.3c0-0.2,0.1-0.2,0.2-0.2h3.3C-172.8,124.4-172.8,124.5-172.8,124.6z"/>
			
				<linearGradient id="SVGID_00000072994435651051550030000008516417202288354228_" gradientUnits="userSpaceOnUse" x1="-174.7979" y1="119.0311" x2="-174.7979" y2="123.2363">
				<stop  offset="0" style="stop-color:#FFFFFF"/>
				<stop  offset="0.7318" style="stop-color:#D67205"/>
				<stop  offset="1" style="stop-color:#D67205"/>
			</linearGradient>
			<path style="fill:url(#SVGID_00000072994435651051550030000008516417202288354228_);" d="M-173.3,119.6c0.4,0.4,0.6,0.9,0.6,1.5
				c0,0.6-0.2,1.1-0.6,1.5c-0.4,0.4-1,0.6-1.5,0.6c-0.6,0-1.1-0.2-1.5-0.6c-0.4-0.4-0.6-1-0.6-1.5c0-0.6,0.2-1.1,0.6-1.5
				c0.4-0.4,0.9-0.6,1.5-0.6C-174.1,119-173.6,119.2-173.3,119.6z"/>
		</g>
	</g>
	<g>
		<g>
			
				<linearGradient id="SVGID_00000121239567558038644950000007960981104627143311_" gradientUnits="userSpaceOnUse" x1="-186.7925" y1="120.1388" x2="-186.7925" y2="137.785">
				<stop  offset="0" style="stop-color:#FFFFFF"/>
				<stop  offset="8.656977e-02" style="stop-color:#FFFBF4"/>
				<stop  offset="0.238" style="stop-color:#FFF1D7"/>
				<stop  offset="0.4363" style="stop-color:#FFDFA8"/>
				<stop  offset="0.6713" style="stop-color:#FEC868"/>
				<stop  offset="0.7821" style="stop-color:#FEBC47"/>
			</linearGradient>
			<path style="fill:url(#SVGID_00000121239567558038644950000007960981104627143311_);" d="M-184.7,120.3c0-0.1-0.1-0.1-0.2-0.1
				h-4.3c-0.1,0-0.2,0.1-0.1,0.2c0,0.4,0,0.7-0.1,1.1c-0.1,0.2-0.1,0.4-0.2,0.6l-5.4,15.5c-0.1,0.2,0,0.3,0.2,0.3h3.1
				c0.2,0,0.3-0.1,0.3-0.2l1.3-3.9h6.2l1.4,4c0,0.1,0.2,0.2,0.3,0.2h3.5c0.2,0,0.2-0.1,0.2-0.3L-184.7,120.3z M-189.1,130.2
				c0.3-0.7,0.5-1.5,0.7-2.3c0.3-0.8,0.5-1.7,0.8-2.5c0.2-0.7,0.4-1.4,0.6-2.2h0c0.1,0.4,0.2,0.8,0.4,1.3c0.1,0.5,0.3,1,0.5,1.5
				c0.2,0.5,0.3,1,0.5,1.5c0.2,0.5,0.3,1,0.5,1.4c0.2,0.4,0.3,0.9,0.4,1.2H-189.1z"/>
			
				<linearGradient id="SVGID_00000167354144708039219420000015671527994762256770_" gradientUnits="userSpaceOnUse" x1="-174.9156" y1="124.4076" x2="-174.9156" y2="137.7997">
				<stop  offset="0" style="stop-color:#FFFFFF"/>
				<stop  offset="0.7318" style="stop-color:#FEBC47"/>
			</linearGradient>
			<path style="fill:url(#SVGID_00000167354144708039219420000015671527994762256770_);" d="M-173,124.6v12.9c0,0.2-0.1,0.3-0.2,0.3
				h-3.3c-0.2,0-0.3-0.1-0.3-0.3v-12.9c0-0.2,0.1-0.2,0.2-0.2h3.3C-173.1,124.4-173,124.5-173,124.6z"/>
			
				<linearGradient id="SVGID_00000026152101224327664510000005941534018605689993_" gradientUnits="userSpaceOnUse" x1="-174.8904" y1="118.7997" x2="-174.8904" y2="123.0048">
				<stop  offset="0" style="stop-color:#FFFFFF"/>
				<stop  offset="0.676" style="stop-color:#FEBC47"/>
			</linearGradient>
			<path style="fill:url(#SVGID_00000026152101224327664510000005941534018605689993_);" d="M-173.4,119.4c0.4,0.4,0.6,0.9,0.6,1.5
				c0,0.6-0.2,1.1-0.6,1.5c-0.4,0.4-1,0.6-1.5,0.6c-0.6,0-1.1-0.2-1.5-0.6c-0.4-0.4-0.6-1-0.6-1.5c0-0.6,0.2-1.1,0.6-1.5
				c0.4-0.4,0.9-0.6,1.5-0.6C-174.2,118.8-173.7,119-173.4,119.4z"/>
		</g>
	</g>
</g>
<rect x="0" y="50" class="st68" width="50" height="14.3"/>
<g>
	<g>
		<g>
			
				<linearGradient id="SVGID_00000121987456277385950630000009191028120215748007_" gradientUnits="userSpaceOnUse" x1="25.0393" y1="14.0877" x2="25.0393" y2="36.7396">
				<stop  offset="0" style="stop-color:#FFFFFF"/>
				<stop  offset="1" style="stop-color:#D1A537"/>
			</linearGradient>
			<path style="fill:url(#SVGID_00000121987456277385950630000009191028120215748007_);" d="M33.5,18.5l-6.8-3.9
				c-1.1-0.6-2.4-0.6-3.5,0l-1.8,1v4.5v1v4.3c0,1.3,0.7,2.4,1.8,3.1c0.5,0.3,1.2,0.5,1.8,0.5c0.6,0,1.2-0.2,1.8-0.5l0,0
				c1.1-0.6,1.8-1.8,1.8-3.1c0-1.3-0.7-2.4-1.8-3.1l0,0c-0.5-0.3-1.2-0.5-1.8-0.5v-2.2c0.6,0,1.2,0.2,1.8,0.5l1.9,1.1
				c1.1,0.6,1.8,1.8,1.8,3.1v2.2c0,1.3-0.7,2.4-1.8,3.1l-1.9,1.1c-0.5,0.3-1.2,0.5-1.8,0.5c-0.6,0-1.2-0.2-1.8-0.5l-1.9-1.1
				c-1.1-0.6-1.8-1.8-1.8-3.1v-1.1v-1.1v-2.9v-4.8l-3.1,1.8c-1.1,0.6-1.8,1.8-1.8,3.1v7.8c0,1.3,0.7,2.4,1.8,3.1l6.8,3.9
				c1.1,0.6,2.4,0.6,3.5,0l6.8-3.9c1.1-0.6,1.8-1.8,1.8-3.1v-7.8C35.3,20.2,34.6,19.1,33.5,18.5z M22.9,22.6
				c-0.2,0.2-0.4,0.3-0.5,0.5v-2.5l0.5-0.3V22.6z M24.2,22c-0.2,0-0.4,0.1-0.5,0.2v-2.2c0.2-0.1,0.4-0.1,0.5-0.2V22z"/>
		</g>
	</g>
	<g>
		<g>
			
				<linearGradient id="SVGID_00000163031535273637209220000016205400803248804234_" gradientUnits="userSpaceOnUse" x1="24.9837" y1="13.2822" x2="24.9837" y2="35.9341">
				<stop  offset="0" style="stop-color:#FFFFFF"/>
				<stop  offset="1" style="stop-color:#FDDA42"/>
			</linearGradient>
			<path style="fill:url(#SVGID_00000163031535273637209220000016205400803248804234_);" d="M33.5,17.6l-6.8-3.9
				c-1.1-0.6-2.4-0.6-3.5,0l-1.8,1v4.5v1v4.3c0,1.3,0.7,2.4,1.8,3.1c0.5,0.3,1.2,0.5,1.8,0.5c0.6,0,1.2-0.2,1.8-0.5l0,0
				c1.1-0.6,1.8-1.8,1.8-3.1c0-1.3-0.7-2.4-1.8-3.1l0,0c-0.5-0.3-1.2-0.5-1.8-0.5v-2.2c0.6,0,1.2,0.2,1.8,0.5l1.9,1.1
				c1.1,0.6,1.8,1.8,1.8,3.1v2.2c0,1.3-0.7,2.4-1.8,3.1l-1.9,1.1c-0.5,0.3-1.2,0.5-1.8,0.5c-0.6,0-1.2-0.2-1.8-0.5l-1.9-1.1
				c-1.1-0.6-1.8-1.8-1.8-3.1v-1.1v-1.1v-2.9v-4.8l-3.1,1.8c-1.1,0.6-1.8,1.8-1.8,3.1v7.8c0,1.3,0.7,2.4,1.8,3.1l6.8,3.9
				c1.1,0.6,2.4,0.6,3.5,0l6.8-3.9c1.1-0.6,1.8-1.8,1.8-3.1v-7.8C35.3,19.4,34.6,18.3,33.5,17.6z M22.8,21.8
				c-0.2,0.2-0.4,0.3-0.5,0.5v-2.5l0.5-0.3V21.8z M24.1,21.2c-0.2,0-0.4,0.1-0.5,0.2v-2.2c0.2-0.1,0.4-0.1,0.5-0.2V21.2z"/>
		</g>
	</g>
</g>
<g>
	<g>
		<path class="st71" d="M4.4,59.5v-6.1h2c0.6,0,1.1,0.1,1.4,0.4c0.3,0.3,0.5,0.6,0.5,1.1c0,0.3-0.1,0.6-0.3,0.9
			c-0.2,0.2-0.4,0.4-0.8,0.5v0c0.4,0,0.7,0.2,1,0.5c0.2,0.3,0.4,0.6,0.4,1c0,0.5-0.2,1-0.6,1.3s-0.9,0.5-1.5,0.5H4.4z M5.5,54.3V56
			h0.7c0.3,0,0.6-0.1,0.8-0.2c0.2-0.2,0.3-0.4,0.3-0.7c0-0.3-0.1-0.5-0.3-0.6c-0.2-0.1-0.5-0.2-0.8-0.2H5.5z M5.5,56.8v1.9h0.9
			c0.4,0,0.7-0.1,0.9-0.3s0.3-0.4,0.3-0.7c0-0.3-0.1-0.5-0.3-0.7c-0.2-0.2-0.5-0.2-0.9-0.2H5.5z"/>
		<path class="st71" d="M13.4,57.6h-3c0,0.4,0.1,0.7,0.4,1c0.2,0.2,0.5,0.3,1,0.3c0.2,0,0.3,0,0.6-0.1c0.2-0.1,0.4-0.2,0.6-0.3
			l0.4,0.6c-0.3,0.2-0.6,0.3-0.8,0.4c-0.3,0.1-0.6,0.1-0.9,0.1c-0.7,0-1.2-0.2-1.6-0.6c-0.4-0.4-0.6-1-0.6-1.7
			c0-0.7,0.2-1.3,0.6-1.7c0.4-0.4,0.9-0.7,1.5-0.7c0.6,0,1.1,0.2,1.4,0.6c0.3,0.4,0.5,0.9,0.5,1.6V57.6z M12.5,56.9
			c0-0.4-0.1-0.7-0.3-0.9c-0.2-0.2-0.4-0.3-0.7-0.3c-0.3,0-0.5,0.1-0.7,0.3c-0.2,0.2-0.3,0.5-0.4,0.8H12.5z"/>
		<path class="st71" d="M18.2,57.6h-3c0,0.4,0.1,0.7,0.4,1c0.2,0.2,0.5,0.3,1,0.3c0.2,0,0.3,0,0.6-0.1c0.2-0.1,0.4-0.2,0.6-0.3
			l0.4,0.6c-0.3,0.2-0.6,0.3-0.8,0.4c-0.3,0.1-0.6,0.1-0.9,0.1c-0.7,0-1.2-0.2-1.6-0.6c-0.4-0.4-0.6-1-0.6-1.7
			c0-0.7,0.2-1.3,0.6-1.7c0.4-0.4,0.9-0.7,1.5-0.7c0.6,0,1.1,0.2,1.4,0.6c0.3,0.4,0.5,0.9,0.5,1.6V57.6z M17.2,56.9
			c0-0.4-0.1-0.7-0.3-0.9c-0.2-0.2-0.4-0.3-0.7-0.3c-0.3,0-0.5,0.1-0.7,0.3c-0.2,0.2-0.3,0.5-0.4,0.8H17.2z"/>
		<path class="st71" d="M23.2,59.5H22l-1.7-2.2h0v2.2h-1v-6.4h1v4h0l1.6-2h1.2l-1.8,2.1L23.2,59.5z"/>
		<path class="st71" d="M27.7,57.6h-3c0,0.4,0.1,0.7,0.4,1c0.2,0.2,0.5,0.3,1,0.3c0.2,0,0.3,0,0.6-0.1c0.2-0.1,0.4-0.2,0.6-0.3
			l0.4,0.6c-0.3,0.2-0.6,0.3-0.8,0.4c-0.3,0.1-0.6,0.1-0.9,0.1c-0.7,0-1.2-0.2-1.6-0.6c-0.4-0.4-0.6-1-0.6-1.7
			c0-0.7,0.2-1.3,0.6-1.7c0.4-0.4,0.9-0.7,1.5-0.7c0.6,0,1.1,0.2,1.4,0.6c0.3,0.4,0.5,0.9,0.5,1.6V57.6z M26.7,56.9
			c0-0.4-0.1-0.7-0.3-0.9c-0.2-0.2-0.4-0.3-0.7-0.3c-0.3,0-0.5,0.1-0.7,0.3c-0.2,0.2-0.3,0.5-0.4,0.8H26.7z"/>
		<path class="st71" d="M32.5,57.6h-3c0,0.4,0.1,0.7,0.4,1c0.2,0.2,0.5,0.3,1,0.3c0.2,0,0.3,0,0.6-0.1c0.2-0.1,0.4-0.2,0.6-0.3
			l0.4,0.6c-0.3,0.2-0.6,0.3-0.8,0.4c-0.3,0.1-0.6,0.1-0.9,0.1c-0.7,0-1.2-0.2-1.6-0.6c-0.4-0.4-0.6-1-0.6-1.7
			c0-0.7,0.2-1.3,0.6-1.7c0.4-0.4,0.9-0.7,1.5-0.7c0.6,0,1.1,0.2,1.4,0.6c0.3,0.4,0.5,0.9,0.5,1.6V57.6z M31.5,56.9
			c0-0.4-0.1-0.7-0.3-0.9c-0.2-0.2-0.4-0.3-0.7-0.3c-0.3,0-0.5,0.1-0.7,0.3s-0.3,0.5-0.4,0.8H31.5z"/>
		<path class="st71" d="M34.5,58.9L34.5,58.9l0,2.6h-1v-6.4h1v0.7h0c0.2-0.3,0.4-0.5,0.6-0.6S35.7,55,36,55c0.6,0,1,0.2,1.3,0.6
			s0.5,0.9,0.5,1.6c0,0.7-0.2,1.3-0.5,1.8c-0.4,0.4-0.9,0.7-1.5,0.7c-0.3,0-0.5-0.1-0.7-0.2C34.9,59.3,34.7,59.2,34.5,58.9z
			 M34.5,57.1v0.5c0,0.3,0.1,0.6,0.3,0.9c0.2,0.2,0.5,0.3,0.8,0.3c0.4,0,0.7-0.1,0.9-0.4c0.2-0.3,0.3-0.7,0.3-1.2
			c0-0.4-0.1-0.8-0.3-1s-0.5-0.4-0.8-0.4c-0.4,0-0.6,0.1-0.9,0.4S34.5,56.7,34.5,57.1z"/>
		<path class="st71" d="M42.7,57.6h-3c0,0.4,0.1,0.7,0.4,1c0.2,0.2,0.5,0.3,1,0.3c0.2,0,0.3,0,0.6-0.1c0.2-0.1,0.4-0.2,0.6-0.3
			l0.4,0.6c-0.3,0.2-0.6,0.3-0.8,0.4c-0.3,0.1-0.6,0.1-0.9,0.1c-0.7,0-1.2-0.2-1.6-0.6c-0.4-0.4-0.6-1-0.6-1.7
			c0-0.7,0.2-1.3,0.6-1.7c0.4-0.4,0.9-0.7,1.5-0.7c0.6,0,1.1,0.2,1.4,0.6c0.3,0.4,0.5,0.9,0.5,1.6V57.6z M41.7,56.9
			c0-0.4-0.1-0.7-0.3-0.9c-0.2-0.2-0.4-0.3-0.7-0.3c-0.3,0-0.5,0.1-0.7,0.3s-0.3,0.5-0.4,0.8H41.7z"/>
		<path class="st71" d="M46.2,55.9c-0.1,0-0.1,0-0.2,0c-0.1,0-0.1,0-0.2,0c-0.4,0-0.6,0.1-0.8,0.4s-0.3,0.6-0.3,1v2.2h-1v-4.4h1v0.9
			h0c0.1-0.3,0.3-0.5,0.5-0.7c0.2-0.2,0.4-0.2,0.7-0.2c0.1,0,0.1,0,0.2,0c0.1,0,0.1,0,0.2,0L46.2,55.9z"/>
	</g>
</g>
</svg>
