<?xml version="1.0" encoding="utf-8"?>
<!-- Generator: Adobe Illustrator 27.3.1, SVG Export Plug-In . SVG Version: 6.00 Build 0)  -->
<svg version="1.1" id="Camada_1" xmlns="http://www.w3.org/2000/svg" xmlns:xlink="http://www.w3.org/1999/xlink" x="0px" y="0px"
	 width="50px" height="50px" viewBox="0 0 50 50" style="enable-background:new 0 0 50 50;" xml:space="preserve">
<style type="text/css">
	.st0{fill:#2B2611;}
	.st1{fill:url(#SVGID_1_);}
	.st2{fill:url(#SVGID_00000087406276224309773290000009835322197052162197_);}
	.st3{fill:url(#SVGID_00000057126882420977220660000010207034334506633350_);}
	.st4{fill:url(#SVGID_00000133526263763560075160000006467371123427072385_);}
	.st5{fill:url(#SVGID_00000129916052921599422660000012980568824071786627_);}
	.st6{display:none;fill:#141D14;}
	.st7{fill:#281613;}
	.st8{fill:url(#SVGID_00000036945840498420218100000002748437521516336019_);}
	.st9{fill:url(#SVGID_00000051362344426605445830000001235092966668150409_);}
	.st10{fill:url(#SVGID_00000142883327305280438030000015540920261720815003_);}
	.st11{fill:#111921;}
	.st12{fill:url(#SVGID_00000127037214332477996140000015715230817688869760_);}
	.st13{fill:url(#SVGID_00000059294888219985412980000005385698200162561973_);}
	.st14{fill:url(#SVGID_00000177458481786955845390000012417074387651857307_);}
	.st15{fill:#151515;}
	.st16{fill:url(#SVGID_00000103237421279321186340000002176111081159510662_);}
	.st17{fill:#19191B;}
	.st18{fill:url(#SVGID_00000176721847388484310260000002358460905767670172_);}
	.st19{fill:url(#SVGID_00000098185436878166701000000018362835367001277877_);}
	.st20{fill:url(#SVGID_00000098197770925962258250000013643370087716593574_);}
	.st21{fill:url(#SVGID_00000106132822801923965240000009529891246212997816_);}
	.st22{fill:url(#SVGID_00000154401551635393453560000007676997332234506377_);}
	.st23{fill:#141D14;}
	.st24{fill:url(#SVGID_00000106144544817678565110000008078056445995987601_);}
	.st25{fill:url(#SVGID_00000055696485046876177460000003906987805275755405_);}
	.st26{fill:url(#SVGID_00000024701777295557523790000015872808385042413719_);}
	.st27{fill:#291614;}
	.st28{fill:url(#SVGID_00000098935395998673955390000002643390674090186885_);}
	.st29{fill:url(#SVGID_00000132062003365678356210000008697074090368707232_);}
	.st30{fill:url(#SVGID_00000179610960198839758590000011594051467886947758_);}
	.st31{fill:url(#SVGID_00000078724753817148025720000012177988304025397914_);}
	.st32{fill:url(#SVGID_00000104702323920911282930000010252216505159052215_);}
	.st33{fill:#111B24;}
	.st34{fill:url(#SVGID_00000031894007678349398720000013106471623199674797_);}
	.st35{fill:url(#SVGID_00000118391148690622055540000008288461401265454003_);}
	.st36{fill:url(#SVGID_00000037674072503307480330000016855809174020658837_);}
	.st37{fill:#161122;}
	.st38{fill:url(#SVGID_00000110462566932415843790000003459821017627742643_);}
	.st39{fill:url(#SVGID_00000102507350967353537850000009850702399380178087_);}
	.st40{fill:url(#SVGID_00000000192926835616686490000013642803332480346047_);}
	.st41{fill:#001E36;}
	.st42{fill:url(#SVGID_00000034784734868252691460000014987296909634419612_);}
	.st43{fill:url(#SVGID_00000088818675922532040410000012242665181937865396_);}
	.st44{fill:url(#SVGID_00000085956927082145644610000016735036572248426431_);}
	.st45{fill:url(#SVGID_00000137122679174132261180000000157517368070607524_);}
	.st46{fill:url(#SVGID_00000045618940523635160840000008991752384963913373_);}
	.st47{fill:#161F25;}
	.st48{fill:url(#SVGID_00000140703914552474337850000003529017237216985257_);}
	.st49{fill:url(#SVGID_00000043428763066103285490000013379385842688886688_);}
	.st50{fill:url(#SVGID_00000139289160762230122640000014231304830588793996_);}
	.st51{fill:#242628;}
	.st52{fill:url(#SVGID_00000023274340125632365780000011976133263972062368_);}
	.st53{fill:url(#SVGID_00000041296087015776628480000007000263872954609299_);}
	.st54{fill:url(#SVGID_00000134227800998138739550000018427457144854618814_);}
	.st55{fill:#1D1D2C;}
	.st56{fill:url(#SVGID_00000086691345551644570360000009275272980938903949_);}
	.st57{fill:url(#SVGID_00000100354047286204010580000016949820132276694160_);}
	.st58{fill:url(#SVGID_00000141432118388120522060000018144782795615252361_);}
	.st59{fill:url(#SVGID_00000058586947343289080090000012481556712265493404_);}
	.st60{fill:url(#SVGID_00000010988814658951807760000013998924174233239721_);}
	.st61{fill:url(#SVGID_00000080925898196142306840000016305725866560489878_);}
	.st62{fill:#281C11;}
	.st63{fill:url(#SVGID_00000128467666527898366910000013460937330411871884_);}
	.st64{fill:url(#SVGID_00000098927297021766975410000012975512224201832620_);}
	.st65{fill:url(#SVGID_00000103968140224885953580000017265102881054169503_);}
	.st66{fill:url(#SVGID_00000000902584601989048920000003868346131326507652_);}
	.st67{fill:url(#SVGID_00000105417203456063923840000013759423821699501484_);}
	.st68{fill:url(#SVGID_00000033329799277255867500000011746553623658519685_);}
	.st69{fill:url(#SVGID_00000113322230924306801900000001120336016145773189_);}
	.st70{fill:url(#SVGID_00000095321502642447770390000006531728082670303140_);}
	.st71{fill:url(#SVGID_00000080178524897814644910000005999026851513419908_);}
	.st72{fill:url(#SVGID_00000055684980273916553450000000318999571796217259_);}
	.st73{fill:url(#SVGID_00000144325829751976523870000002859862109447239555_);}
	.st74{fill:url(#SVGID_00000119799663601891064580000010287048334276167842_);}
	.st75{fill:url(#SVGID_00000111912797117666892620000012047141798184384934_);}
	.st76{fill:url(#SVGID_00000159440996644594355720000006968096558738251686_);}
	.st77{fill:url(#SVGID_00000126291726063268347010000007096914055511561862_);}
	.st78{fill:url(#SVGID_00000178927159020419194300000009337749732331229626_);}
	.st79{fill:url(#SVGID_00000047043747177244059300000010106983035465445299_);}
	.st80{fill:url(#SVGID_00000006686638156430478290000004264726639745789580_);}
	.st81{fill:url(#SVGID_00000090275101462968867610000012468757225852092839_);}
	.st82{fill:url(#SVGID_00000058554488390039828040000013518548087981009029_);}
	.st83{fill:url(#SVGID_00000142178048670397345660000002669545066392723859_);}
</style>
<path class="st0" d="M-171.2-30.3h-24.2c-7.1,0-12.9-5.8-12.9-12.9v-24.2c0-7.1,5.8-12.9,12.9-12.9h24.2c7.1,0,12.9,5.8,12.9,12.9
	v24.2C-158.3-36.1-164.1-30.3-171.2-30.3z"/>
<g>
	<g>
		<g>
			
				<linearGradient id="SVGID_1_" gradientUnits="userSpaceOnUse" x1="-183.3" y1="127.3" x2="-183.3" y2="87.3" gradientTransform="matrix(1 0 0 -1 0 52)">
				<stop  offset="0" style="stop-color:#FAF92A"/>
				<stop  offset="1" style="stop-color:#F4C121"/>
			</linearGradient>
			<path class="st1" d="M-173.6-35.3H-193c-5.7,0-10.3-4.6-10.3-10.3V-65c0-5.7,4.6-10.3,10.3-10.3h19.4c5.7,0,10.3,4.6,10.3,10.3
				v19.4C-163.3-39.9-167.9-35.3-173.6-35.3z"/>
		</g>
	</g>
	<g>
		<g>
			<g>
				<g>
					<g>
						
							<linearGradient id="SVGID_00000095313466995108565240000013064070462795646131_" gradientUnits="userSpaceOnUse" x1="-175.7" y1="117.555" x2="-175.7" y2="96.789" gradientTransform="matrix(1 0 0 -1 0 52)">
							<stop  offset="0" style="stop-color:#FFFFFF"/>
							<stop  offset="1" style="stop-color:#E2AA2D"/>
						</linearGradient>
						<path style="fill:url(#SVGID_00000095313466995108565240000013064070462795646131_);" d="M-168.1-51.3v1.3
							c-0.1,0.3-0.1,0.7-0.2,1c-0.4,1.6-1.5,2.7-3,3.4c-2,1-6.7,1.5-9.8-0.8c-1-0.7-1.7-1.6-2.3-2.6c0.2-0.2,0.5-0.4,0.8-0.6
							c1-0.7,1.9-1.1,2.8-1.4c0.1,0.2,0.4,0.6,0.7,0.9c1.2,1.4,3.3,2,5.1,1.4c1.2-0.4,1.8-1.4,1.4-2.5c-0.1-0.4-0.4-0.8-0.8-1
							c-0.7-0.4-1.5-0.7-2.2-1.1c-1.1-0.5-2.2-0.9-3.2-1.5c-1.5-0.8-2.6-1.9-3-3.6c-0.5-1.9-0.3-3.7,1.1-5.3
							c0.8-0.9,1.9-1.5,3.1-1.8c1.5-0.4,3.1-0.3,4.6,0.1c1.7,0.5,2.8,1.6,3.7,3c-1.1,0.7-2.3,1.4-3.4,2.1c-0.2-0.3-0.4-0.5-0.6-0.8
							c-0.8-0.9-1.8-1.2-2.9-0.9c-1.4,0.3-2,2-0.9,3c0.4,0.3,0.8,0.6,1.3,0.8c1,0.5,2.1,0.9,3.1,1.3c1.1,0.5,2.2,1.1,3.1,1.9
							c0.9,0.9,1.4,2,1.6,3.2C-168.1-51.4-168.1-51.4-168.1-51.3z"/>
						
							<linearGradient id="SVGID_00000067236822253731907110000001305362551082326454_" gradientUnits="userSpaceOnUse" x1="-191.85" y1="117.5404" x2="-191.85" y2="96.9882" gradientTransform="matrix(1 0 0 -1 0 52)">
							<stop  offset="0" style="stop-color:#FFFFFF"/>
							<stop  offset="1" style="stop-color:#E2AA2D"/>
						</linearGradient>
						<path style="fill:url(#SVGID_00000067236822253731907110000001305362551082326454_);" d="M-185.2-65.5v14.1
							c0,0.9-0.1,1.7-0.3,2.6c-0.6,1.8-1.7,3-3.6,3.5c-2.1,0.6-4.1,0.5-6.1-0.4c-1.4-0.6-2.6-2-3.3-3.4c1.2-0.7,2.6-1.1,3.8-1.8
							c0.2,0.4,0.5,0.7,0.7,1c0.7,1,1.7,1.2,2.9,1c0.8-0.1,1.3-0.6,1.4-1.3c0.1-0.5,0.2-1,0.2-1.5c0-4.5,0-9,0-13.6
							c0-0.4,0-0.4,0.4-0.4h3.9V-65.5z"/>
					</g>
				</g>
			</g>
		</g>
		<g>
			<g>
				<g>
					<g>
						
							<linearGradient id="SVGID_00000149356729338194695860000004877732266865400708_" gradientUnits="userSpaceOnUse" x1="-175.7" y1="117.7949" x2="-175.7" y2="97.5868" gradientTransform="matrix(1 0 0 -1 0 52)">
							<stop  offset="0" style="stop-color:#FFFFFF"/>
							<stop  offset="1" style="stop-color:#F9E280"/>
						</linearGradient>
						<path style="fill:url(#SVGID_00000149356729338194695860000004877732266865400708_);" d="M-168.3-51.9v1.3
							c-0.1,0.3-0.1,0.6-0.2,0.9c-0.4,1.5-1.4,2.6-2.9,3.3c-2.6,1.3-6.9,1.1-9.5-0.8c-0.9-0.7-1.7-1.5-2.2-2.5
							c1.1-0.6,2.3-1.3,3.4-1.9c0.3,0.3,0.5,0.6,0.7,0.9c1.2,1.4,3.2,1.9,4.9,1.3c1.2-0.4,1.8-1.4,1.4-2.4c-0.1-0.4-0.4-0.7-0.8-0.9
							c-0.7-0.4-1.4-0.7-2.1-1.1c-1-0.5-2.1-0.9-3.1-1.4c-1.4-0.8-2.5-1.9-2.9-3.5c-0.5-1.9-0.3-3.6,1.1-5.1c0.8-0.9,1.8-1.4,3-1.7
							c1.5-0.4,3-0.3,4.5,0.1c1.6,0.5,2.7,1.5,3.6,2.9c-1.1,0.7-2.2,1.3-3.3,2c-0.2-0.3-0.4-0.5-0.6-0.7c-0.7-0.9-1.7-1.1-2.9-0.9
							c-1.4,0.3-1.9,2-0.9,2.9c0.4,0.3,0.8,0.6,1.3,0.8c1,0.5,2,0.9,3,1.3c1.1,0.5,2.1,1.1,3,1.9c0.9,0.9,1.4,1.9,1.5,3.1
							C-168.4-52.1-168.3-52-168.3-51.9z"/>
						
							<linearGradient id="SVGID_00000031185674234153807470000010894010552161194138_" gradientUnits="userSpaceOnUse" x1="-191.85" y1="117.5544" x2="-191.85" y2="97.5687" gradientTransform="matrix(1 0 0 -1 0 52)">
							<stop  offset="0" style="stop-color:#FFFFFF"/>
							<stop  offset="1" style="stop-color:#F9E280"/>
						</linearGradient>
						<path style="fill:url(#SVGID_00000031185674234153807470000010894010552161194138_);" d="M-185.5-65.6v13.7
							c0,0.8-0.1,1.7-0.3,2.5c-0.5,1.7-1.7,2.9-3.5,3.4c-2,0.6-4,0.5-5.9-0.3c-1.4-0.6-2.3-1.7-3-3c1.2-0.7,2.3-1.3,3.5-2
							c0.2,0.3,0.5,0.7,0.7,1c0.7,0.9,1.7,1.2,2.8,1c0.8-0.1,1.2-0.6,1.4-1.3c0.1-0.5,0.2-1,0.2-1.4c0-4.4,0-8.8,0-13.2
							c0-0.4,0-0.4,0.4-0.4H-185.5z"/>
					</g>
				</g>
			</g>
		</g>
	</g>
</g>
<rect class="st6" width="50" height="50"/>
<path class="st7" d="M-228.7-29.5h-24.2c-7.1,0-12.9-5.8-12.9-12.9v-24.2c0-7.1,5.8-12.9,12.9-12.9h24.2c7.1,0,12.9,5.8,12.9,12.9
	v24.2C-215.8-35.3-221.5-29.5-228.7-29.5z"/>
<g>
	<g>
		<g>
			
				<linearGradient id="SVGID_00000088846756928186109280000000443567233895351684_" gradientUnits="userSpaceOnUse" x1="-240.8" y1="126.5" x2="-240.8" y2="86.5" gradientTransform="matrix(1 0 0 -1 0 52)">
				<stop  offset="0" style="stop-color:#E9952F"/>
				<stop  offset="1" style="stop-color:#E34F26"/>
			</linearGradient>
			<path style="fill:url(#SVGID_00000088846756928186109280000000443567233895351684_);" d="M-231.1-34.5h-19.4
				c-5.7,0-10.3-4.6-10.3-10.3v-19.4c0-5.7,4.6-10.3,10.3-10.3h19.4c5.7,0,10.3,4.6,10.3,10.3v19.4
				C-220.8-39.2-225.4-34.5-231.1-34.5z"/>
		</g>
	</g>
</g>
<g>
	<g>
		
			<linearGradient id="SVGID_00000059296529675576499380000006392998355774075811_" gradientUnits="userSpaceOnUse" x1="-240.85" y1="117.5" x2="-240.85" y2="95" gradientTransform="matrix(1 0 0 -1 0 52)">
			<stop  offset="0" style="stop-color:#FFFFFF"/>
			<stop  offset="1" style="stop-color:#D34124"/>
		</linearGradient>
		<path style="fill:url(#SVGID_00000059296529675576499380000006392998355774075811_);" d="M-230.9-65.5h-19.9c0,0.5,0.1,1,0.1,1.5
			c0.1,1.6,0.2,3.2,0.3,4.7c0.1,1.8,0.3,3.5,0.4,5.3c0.1,1.5,0.2,3.1,0.3,4.6c0.1,1.1,0.2,2.3,0.2,3.4c0,0.2,0.1,0.2,0.2,0.3
			c2.7,0.9,5.4,1.8,8.1,2.6c0.1,0,0.1,0.1,0.2,0.1h0.1c0.3-0.1,0.7-0.2,1-0.3c2.4-0.8,4.8-1.6,7.3-2.4c0.2-0.1,0.2-0.1,0.2-0.3
			c0.2-2.9,0.4-5.7,0.6-8.6c0.2-2.2,0.3-4.3,0.5-6.5c0.1-1.3,0.2-2.7,0.3-4C-230.9-65.3-230.9-65.4-230.9-65.5z M-234.6-59.6h-9.8
			c0.1,1.1,0.2,2.2,0.2,3.4h9.3c0,0.5-0.1,1-0.1,1.5c-0.1,1.4-0.2,2.7-0.3,4.1c-0.1,0.7-0.1,1.5-0.2,2.2c0,0.1-0.1,0.2-0.2,0.3
			c-1.7,0.6-3.4,1.1-5.1,1.7c-0.1,0-0.2,0-0.3,0c-1.7-0.6-3.4-1.1-5.1-1.7c-0.1,0-0.2-0.1-0.2-0.3c0-0.7-0.1-1.5-0.2-2.2
			c0-0.1,0-0.2,0-0.2h2.6c0,0.2,0,0.4,0.1,0.6c0,0.1,0.1,0.2,0.1,0.2c0.9,0.3,1.8,0.6,2.6,0.9c0.1,0,0.2,0,0.2,0
			c0.9-0.3,1.8-0.6,2.6-0.9c0.1,0,0.1-0.1,0.1-0.2c0.1-1.1,0.2-2.1,0.2-3.3h-8.9c-0.2-2.9-0.4-5.8-0.6-8.7h12.8
			C-234.4-61.3-234.5-60.5-234.6-59.6z"/>
	</g>
	<g>
		
			<linearGradient id="SVGID_00000018214739035081000330000010965704115293508758_" gradientUnits="userSpaceOnUse" x1="-240.8" y1="118.1" x2="-240.8" y2="95.4481" gradientTransform="matrix(1 0 0 -1 0 52)">
			<stop  offset="0" style="stop-color:#FFFFFF"/>
			<stop  offset="1" style="stop-color:#F7803E"/>
		</linearGradient>
		<path style="fill:url(#SVGID_00000018214739035081000330000010965704115293508758_);" d="M-230.8-66.1h-20c0,0.5,0.1,1,0.1,1.5
			c0.1,1.6,0.2,3.2,0.3,4.8c0.1,1.8,0.3,3.5,0.4,5.3c0.1,1.5,0.2,3.1,0.3,4.6c0.1,1.1,0.2,2.3,0.2,3.4c0,0.2,0.1,0.2,0.2,0.3
			c2.7,0.9,5.4,1.8,8.1,2.7c0.1,0,0.1,0.1,0.2,0.1h0.1c0.3-0.1,0.7-0.2,1-0.4c2.4-0.8,4.9-1.6,7.3-2.4c0.2-0.1,0.2-0.1,0.2-0.3
			c0.2-2.9,0.4-5.8,0.6-8.7c0.2-2.2,0.3-4.4,0.5-6.6c0.1-1.3,0.2-2.7,0.3-4C-230.8-65.9-230.8-66-230.8-66.1z M-234.5-60.1h-9.8
			c0.1,1.1,0.2,2.3,0.2,3.4h9.4c0,0.5-0.1,1-0.1,1.5c-0.1,1.4-0.2,2.7-0.3,4.1c-0.1,0.7-0.1,1.5-0.2,2.2c0,0.1-0.1,0.2-0.2,0.3
			c-1.7,0.6-3.4,1.1-5.1,1.7c-0.1,0-0.2,0-0.3,0c-1.7-0.6-3.4-1.1-5.1-1.7c-0.1,0-0.2-0.1-0.2-0.3c0-0.7-0.1-1.5-0.2-2.2
			c0-0.1,0-0.2,0-0.2h2.6c0,0.2,0,0.4,0.1,0.6c0,0.1,0.1,0.2,0.1,0.2c0.9,0.3,1.8,0.6,2.7,0.9c0.1,0,0.2,0,0.2,0
			c0.9-0.3,1.8-0.6,2.7-0.9c0.1,0,0.1-0.1,0.1-0.2c0.1-1.1,0.2-2.2,0.2-3.3h-9c-0.2-2.9-0.4-5.8-0.6-8.7h12.9
			C-234.4-61.9-234.4-61-234.5-60.1z"/>
	</g>
</g>
<path class="st11" d="M-290.4-30.9h-24.2c-7.1,0-12.9-5.8-12.9-12.9V-68c0-7.1,5.8-12.9,12.9-12.9h24.2c7.1,0,12.9,5.8,12.9,12.9
	v24.2C-277.6-36.7-283.3-30.9-290.4-30.9z"/>
<g>
	<g>
		<g>
			<g>
				
					<linearGradient id="SVGID_00000075882897070280346210000011832170657265969579_" gradientUnits="userSpaceOnUse" x1="-302.6" y1="127.9" x2="-302.6" y2="87.9" gradientTransform="matrix(1 0 0 -1 0 52)">
					<stop  offset="0" style="stop-color:#31BAFF"/>
					<stop  offset="1" style="stop-color:#1572B6"/>
				</linearGradient>
				<path style="fill:url(#SVGID_00000075882897070280346210000011832170657265969579_);" d="M-292.9-35.9h-19.4
					c-5.7,0-10.3-4.6-10.3-10.3v-19.4c0-5.7,4.6-10.3,10.3-10.3h19.4c5.7,0,10.3,4.6,10.3,10.3v19.4
					C-282.6-40.5-287.2-35.9-292.9-35.9z"/>
			</g>
		</g>
	</g>
	<g>
		<g>
			
				<linearGradient id="SVGID_00000103983721869909849000000011485090200688426411_" gradientUnits="userSpaceOnUse" x1="-302.5" y1="119.0253" x2="-302.5" y2="96.1903" gradientTransform="matrix(1 0 0 -1 0 52)">
				<stop  offset="0" style="stop-color:#FFFFFF"/>
				<stop  offset="1" style="stop-color:#146799"/>
			</linearGradient>
			<path style="fill:url(#SVGID_00000103983721869909849000000011485090200688426411_);" d="M-312.5-67c0.1,1.6,0.3,3.2,0.4,4.8
				s0.3,3.2,0.4,4.8s0.3,3.2,0.4,4.8s0.3,3.2,0.4,4.8c0,0.4,0.1,0.8,0.1,1.2c0,0.1,0.1,0.2,0.2,0.2c2.6,0.7,5.2,1.5,7.9,2.2
				c0.1,0,0.2,0,0.3,0c2.6-0.7,5.2-1.5,7.8-2.2c0.1,0,0.2-0.1,0.2-0.2c0.1-1.1,0.2-2.2,0.3-3.3c0.1-1.4,0.3-2.9,0.4-4.3
				c0.1-1.4,0.2-2.8,0.4-4.2c0.1-1.4,0.3-2.9,0.4-4.3s0.2-2.8,0.4-4.2L-312.5-67L-312.5-67z M-296.4-61.8c-0.2,1.9-0.3,3.8-0.5,5.8
				c-0.2,1.7-0.3,3.5-0.5,5.2c0,0.2,0,0.5-0.1,0.7c0,0.1-0.1,0.2-0.1,0.2c-1.6,0.5-3.3,0.9-4.9,1.4c-0.1,0-0.2,0-0.3,0
				c-1.6-0.4-3.2-0.9-4.8-1.3c-0.1,0-0.2-0.1-0.2-0.2c-0.1-1.1-0.2-2.2-0.3-3.3c0-0.2,0-0.4,0-0.6c0.8,0,1.6,0,2.4,0
				c0,0,0.1,0.1,0.1,0.2c0.1,0.6,0.1,1.1,0.2,1.7c0,0.2,0.1,0.2,0.2,0.3c0.8,0.2,1.6,0.4,2.4,0.6c0.1,0,0.2,0,0.3,0
				c0.8-0.2,1.6-0.4,2.4-0.7c0.2,0,0.2-0.1,0.2-0.3c0.1-1.1,0.2-2.2,0.3-3.3h-8.8c-0.1-0.8-0.2-1.6-0.2-2.4c0.1,0,0.2,0,0.3,0
				c2.9,0,5.8-0.1,8.7-0.1c0.3,0,0.3,0,0.3-0.3c0-0.7,0.1-1.5,0.2-2.2h-9.7c-0.1-0.8-0.1-1.6-0.2-2.4h12.5
				C-296.3-62.5-296.4-62.2-296.4-61.8z"/>
		</g>
		
			<linearGradient id="SVGID_00000113350117038442941900000004597744858866269107_" gradientUnits="userSpaceOnUse" x1="-302.55" y1="119.6" x2="-302.55" y2="96.7652" gradientTransform="matrix(1 0 0 -1 0 52)">
			<stop  offset="0" style="stop-color:#FFFFFF"/>
			<stop  offset="1" style="stop-color:#30B8FD"/>
		</linearGradient>
		<path style="fill:url(#SVGID_00000113350117038442941900000004597744858866269107_);" d="M-312.6-67.6c0.1,1.6,0.3,3.2,0.4,4.8
			c0.1,1.6,0.3,3.2,0.4,4.8s0.3,3.2,0.4,4.8s0.3,3.2,0.4,4.8c0,0.4,0.1,0.8,0.1,1.2c0,0.1,0.1,0.2,0.2,0.2c2.6,0.7,5.3,1.5,7.9,2.2
			c0.1,0,0.2,0,0.3,0c2.6-0.7,5.2-1.5,7.9-2.2c0.1,0,0.2-0.1,0.2-0.2c0.1-1.1,0.2-2.2,0.3-3.3c0.1-1.4,0.3-2.9,0.4-4.3
			c0.1-1.4,0.2-2.8,0.4-4.2c0.1-1.4,0.3-2.9,0.4-4.3s0.2-2.8,0.4-4.2L-312.6-67.6L-312.6-67.6z M-296.3-62.4
			c-0.2,1.9-0.3,3.8-0.5,5.8c-0.2,1.7-0.3,3.5-0.5,5.2c0,0.2,0,0.5-0.1,0.7c0,0.1-0.1,0.2-0.1,0.2c-1.6,0.5-3.3,0.9-4.9,1.4
			c-0.1,0-0.2,0-0.3,0c-1.6-0.4-3.2-0.9-4.8-1.3c-0.1,0-0.2-0.1-0.2-0.2c-0.1-1.1-0.2-2.2-0.3-3.3c0-0.2,0-0.4-0.1-0.6
			c0.8,0,1.6,0,2.4,0c0,0,0.1,0.1,0.1,0.2c0.1,0.6,0.1,1.1,0.2,1.7c0,0.2,0.1,0.2,0.2,0.3c0.8,0.2,1.6,0.4,2.4,0.6
			c0.1,0,0.2,0,0.3,0c0.8-0.2,1.6-0.4,2.5-0.7c0.2,0,0.2-0.1,0.2-0.3c0.1-1.1,0.2-2.2,0.4-3.3h-8.9c-0.1-0.8-0.2-1.6-0.3-2.4
			c0.1,0,0.2,0,0.3,0c2.9,0,5.8-0.1,8.8-0.1c0.3,0,0.3,0,0.3-0.3c0.1-0.7,0.1-1.5,0.2-2.2h-9.8c-0.1-0.8-0.1-1.6-0.2-2.4h12.7
			C-296.3-63-296.3-62.7-296.3-62.4z"/>
	</g>
</g>
<g>
	<path class="st15" d="M37.1,50.1H12.9C5.8,50.1,0,44.3,0,37.2V13C0,5.9,5.8,0.1,12.9,0.1h24.2C44.2,0.1,50,5.9,50,13v24.2
		C50,44.3,44.2,50.1,37.1,50.1z"/>
	<g>
		<g>
			<g>
				<g>
					
						<linearGradient id="SVGID_00000106860398953736527240000001531439530251744693_" gradientUnits="userSpaceOnUse" x1="25" y1="46.9268" x2="25" y2="6.9268" gradientTransform="matrix(1 0 0 -1 0 52)">
						<stop  offset="0" style="stop-color:#2A2F35"/>
						<stop  offset="1" style="stop-color:#0A0A0A"/>
					</linearGradient>
					<path style="fill:url(#SVGID_00000106860398953736527240000001531439530251744693_);" d="M34.7,45.1H15.3
						C9.6,45.1,5,40.5,5,34.8V15.4C5,9.7,9.6,5.1,15.3,5.1h19.4C40.4,5.1,45,9.7,45,15.4v19.4C45,40.5,40.4,45.1,34.7,45.1z"/>
				</g>
			</g>
		</g>
	</g>
</g>
<g>
	<path class="st17" d="M-364.7-31.8h-24.2c-7.1,0-12.9-5.8-12.9-12.9v-24.2c0-7.1,5.8-12.9,12.9-12.9h24.2c7.1,0,12.9,5.8,12.9,12.9
		v24.2C-351.8-37.5-357.5-31.8-364.7-31.8z"/>
	<g>
		<g>
			<g>
				<g>
					
						<linearGradient id="SVGID_00000101085602342265949680000011046312237212946316_" gradientUnits="userSpaceOnUse" x1="-376.8" y1="128.8" x2="-376.8" y2="88.8" gradientTransform="matrix(1 0 0 -1 0 52)">
						<stop  offset="0" style="stop-color:#42484C"/>
						<stop  offset="1" style="stop-color:#1D1E21"/>
					</linearGradient>
					<path style="fill:url(#SVGID_00000101085602342265949680000011046312237212946316_);" d="M-367.1-36.8h-19.4
						c-5.7,0-10.3-4.6-10.3-10.3v-19.4c0-5.7,4.6-10.3,10.3-10.3h19.4c5.7,0,10.3,4.6,10.3,10.3v19.4
						C-356.8-41.4-361.4-36.8-367.1-36.8z"/>
				</g>
			</g>
		</g>
	</g>
	<g transform="matrix(0.42 0 0 0.42 12 12)">
		<g>
			<g transform="matrix(1 0 0 1 10.5 1.28)">
				
					<linearGradient id="SVGID_00000111877337755071982470000012265499919792028814_" gradientUnits="userSpaceOnUse" x1="845.8322" y1="-1156.0647" x2="845.8322" y2="-1173.3169" gradientTransform="matrix(0.42 0 0 -0.42 -1273.3995 -670.3472)">
					<stop  offset="0" style="stop-color:#CCCCCC"/>
					<stop  offset="0.1606" style="stop-color:#B7B8B8"/>
					<stop  offset="0.492" style="stop-color:#828384"/>
					<stop  offset="0.9621" style="stop-color:#2C2E32"/>
					<stop  offset="1" style="stop-color:#25272B"/>
				</linearGradient>
				<path style="fill:url(#SVGID_00000111877337755071982470000012265499919792028814_);" d="M-900.4-143.7h-1.9
					c-1.4,0-2.7-0.6-3.5-1.8l-12.4-16.5l-12.3,16.5c-0.8,1.1-2.1,1.8-3.5,1.8h-1.9l15.7-21l-15-20.1h1.9c1.4,0,2.7,0.6,3.5,1.8
					l11.6,15.5l11.6-15.5c0.8-1.1,2.1-1.8,3.5-1.8h1.9l-15,20.1L-900.4-143.7z"/>
			</g>
			<g transform="matrix(1 0 0 1 -11 1)">
				
					<linearGradient id="SVGID_00000098183178586161041720000011861772540596238730_" gradientUnits="userSpaceOnUse" x1="833.8801" y1="-1156.1299" x2="833.8801" y2="-1173.8177" gradientTransform="matrix(0.42 0 0 -0.42 -1282.4296 -670.2296)">
					<stop  offset="0" style="stop-color:#CCCCCC"/>
					<stop  offset="0.1606" style="stop-color:#B7B8B8"/>
					<stop  offset="0.492" style="stop-color:#828384"/>
					<stop  offset="0.9621" style="stop-color:#2C2E32"/>
					<stop  offset="1" style="stop-color:#25272B"/>
				</linearGradient>
				<path style="fill:url(#SVGID_00000098183178586161041720000011861772540596238730_);" d="M-914.1-162v-4.9
					c0-10.8-9.8-19.4-21.1-17.6c-8.8,1.4-15.1,9.3-15.1,18v4.6c0,10.6,7.9,19.1,17.9,19.2c8.4,0.1,15.4-5.4,17.6-13h-1.7
					c-1,0-1.9,0.6-2.4,1.5c-2.9,5.8-9.5,9.5-16.8,7.8c-6.7-1.5-11.3-7.7-11.3-14.5v-1.3h32.9V-162z M-947-165.7
					c0-7.6,4.6-13.8,11.4-15.3c9.7-2.1,18.2,5.1,18.2,14.2v1.6H-947V-165.7z"/>
			</g>
		</g>
	</g>
	<g>
		<g transform="matrix(1 0 0 1 10.5 1.28)">
			
				<linearGradient id="SVGID_00000142876057065109597510000010219314929667914392_" gradientUnits="userSpaceOnUse" x1="-390.3" y1="117.3788" x2="-390.3" y2="100.4017" gradientTransform="matrix(1 0 0 -1 10.5 50.72)">
				<stop  offset="0" style="stop-color:#FFFFFF"/>
				<stop  offset="1" style="stop-color:#41474A"/>
			</linearGradient>
			<path style="fill:url(#SVGID_00000142876057065109597510000010219314929667914392_);" d="M-372.3-49.7h-0.8
				c-0.6,0-1.1-0.3-1.5-0.7l-5.2-6.8l-5.2,6.8c-0.3,0.5-0.9,0.7-1.5,0.7h-0.8l6.6-8.7l-6.3-8.3h0.8c0.6,0,1.1,0.3,1.5,0.7l4.9,6.4
				l4.9-6.4c0.3-0.5,0.9-0.7,1.5-0.7h0.8l-6.3,8.3L-372.3-49.7z"/>
		</g>
		<g transform="matrix(1 0 0 1 -11 1)">
			
				<linearGradient id="SVGID_00000007394073220355056950000013161873890082387853_" gradientUnits="userSpaceOnUse" x1="-362.25" y1="118.0754" x2="-362.25" y2="100.0884" gradientTransform="matrix(1 0 0 -1 -11 51)">
				<stop  offset="0" style="stop-color:#FFFFFF"/>
				<stop  offset="1" style="stop-color:#41474A"/>
			</linearGradient>
			<path style="fill:url(#SVGID_00000007394073220355056950000013161873890082387853_);" d="M-365.6-57.4v-2.1
				c0-4.6-4.1-8.3-8.9-7.5c-3.7,0.6-6.4,4-6.4,7.7v2c0,4.5,3.3,8.2,7.5,8.2c3.5,0,6.5-2.3,7.4-5.5h-0.7c-0.4,0-0.8,0.2-1,0.6
				c-1.2,2.5-4,4.1-7.1,3.3c-2.8-0.6-4.8-3.3-4.8-6.2v-0.5H-365.6z M-379.4-59c0-3.2,1.9-5.9,4.8-6.6c4.1-0.9,7.7,2.2,7.7,6.1v0.7
				h-12.4V-59H-379.4z"/>
		</g>
	</g>
</g>
<path class="st23" d="M-368.8,36.4H-393c-7.1,0-12.9-5.8-12.9-12.9V-0.7c0-7.1,5.8-12.9,12.9-12.9h24.2c7.1,0,12.9,5.8,12.9,12.9
	v24.2C-355.9,30.6-361.7,36.4-368.8,36.4z"/>
<g>
	<g>
		<g>
			<g>
				
					<linearGradient id="SVGID_00000013906611262767926770000012066793365801071036_" gradientUnits="userSpaceOnUse" x1="-380.9" y1="60.6" x2="-380.9" y2="20.6" gradientTransform="matrix(1 0 0 -1 0 52)">
					<stop  offset="0" style="stop-color:#46CC46"/>
					<stop  offset="1" style="stop-color:#155019"/>
				</linearGradient>
				<path style="fill:url(#SVGID_00000013906611262767926770000012066793365801071036_);" d="M-371.2,31.4h-19.4
					c-5.7,0-10.3-4.6-10.3-10.3V1.7c0-5.7,4.6-10.3,10.3-10.3h19.4c5.7,0,10.3,4.6,10.3,10.3v19.4
					C-360.9,26.8-365.5,31.4-371.2,31.4z"/>
			</g>
		</g>
	</g>
</g>
<g>
	
		<linearGradient id="SVGID_00000078033697877773118020000007485732461277679797_" gradientUnits="userSpaceOnUse" x1="-381.05" y1="52.125" x2="-381.05" y2="28.6448" gradientTransform="matrix(1 0 0 -1 0 52)">
		<stop  offset="0" style="stop-color:#FFFFFF"/>
		<stop  offset="1" style="stop-color:#113D17"/>
	</linearGradient>
	<path style="fill:url(#SVGID_00000078033697877773118020000007485732461277679797_);" d="M-380.9,23.4c-0.3,0-0.6-0.1-0.9-0.2
		l-2.8-1.7c-0.4-0.2-0.2-0.3-0.1-0.4c0.6-0.2,0.7-0.2,1.3-0.6c0.1,0,0.1,0,0.2,0l2.1,1.3c0.1,0,0.2,0,0.3,0l8.3-5
		c0.1,0,0.1-0.1,0.1-0.2V6.7c0-0.1-0.1-0.2-0.1-0.2l-8.3-5c-0.1,0-0.2,0-0.3,0l-8.3,5c-0.1,0-0.1,0.1-0.1,0.2v9.9
		c0,0.1,0.1,0.2,0.1,0.2l2.3,1.4c1.2,0.6,2-0.1,2-0.9V7.1c0-0.1,0.1-0.3,0.2-0.3h1c0.1,0,0.3,0.1,0.3,0.3v10.3
		c0,1.7-0.9,2.7-2.5,2.7c-0.5,0-0.9,0-1.9-0.5l-2.2-1.3c-0.5-0.3-0.9-0.9-0.9-1.6v-10c0-0.6,0.3-1.2,0.9-1.6l8.3-5
		c0.5-0.3,1.2-0.3,1.7,0l8.3,5c0.5,0.3,0.9,0.9,0.9,1.6v9.9c0,0.6-0.3,1.2-0.9,1.6l-8.3,5C-380.3,23.3-380.6,23.4-380.9,23.4z
		 M-374.2,13.6c0-1.9-1.2-2.4-3.8-2.7c-2.6-0.4-2.8-0.5-2.8-1.2c0-0.5,0.2-1.2,2.1-1.2c1.7,0,2.3,0.4,2.6,1.6c0,0.1,0.1,0.2,0.2,0.2
		h1.1c0.1,0,0.1,0,0.2-0.1c0-0.1,0.1-0.1,0.1-0.2c-0.2-2.1-1.5-3-4.2-3c-2.4,0-3.8,1-3.8,2.8c0,1.9,1.4,2.4,3.7,2.6
		c2.7,0.3,2.9,0.7,2.9,1.2c0,1-0.7,1.4-2.5,1.4c-2.2,0-2.7-0.6-2.8-1.7c0-0.1-0.1-0.2-0.2-0.2h-1.1c-0.1,0-0.2,0.1-0.2,0.2
		c0,1.4,0.8,3.2,4.4,3.2C-375.7,16.5-374.2,15.5-374.2,13.6z"/>
	
		<linearGradient id="SVGID_00000155860645330626488860000005715974361565319075_" gradientUnits="userSpaceOnUse" x1="-380.9" y1="52.6296" x2="-380.9" y2="29.1494" gradientTransform="matrix(1 0 0 -1 0 52)">
		<stop  offset="0" style="stop-color:#FFFFFF"/>
		<stop  offset="1" style="stop-color:#45C945"/>
	</linearGradient>
	<path style="fill:url(#SVGID_00000155860645330626488860000005715974361565319075_);" d="M-380.9,22.9c-0.3,0-0.6-0.1-0.9-0.2
		l-2.9-1.7c-0.4-0.2-0.2-0.3-0.1-0.4c0.6-0.2,0.7-0.2,1.3-0.6c0.1,0,0.1,0,0.2,0l2.2,1.3c0.1,0,0.2,0,0.3,0l8.6-5
		c0.1,0,0.1-0.1,0.1-0.2v-10c0-0.1-0.1-0.2-0.1-0.2l-8.6-5c-0.1,0-0.2,0-0.3,0l-8.6,5c-0.1,0-0.1,0.1-0.1,0.2V16
		c0,0.1,0.1,0.2,0.1,0.2l2.4,1.4c1.3,0.6,2.1-0.1,2.1-0.9V7c0-0.1,0.1-0.2,0.3-0.2h1.1c0.1,0,0.2,0.1,0.2,0.2v9.8
		c0,1.7-0.9,2.7-2.5,2.7c-0.5,0-0.9,0-2-0.5l-2.3-1.3c-0.6-0.3-0.9-0.9-0.9-1.6v-10c0-0.6,0.3-1.2,0.9-1.6l8.6-5
		c0.5-0.3,1.3-0.3,1.8,0l8.6,5c0.6,0.3,0.9,0.9,0.9,1.6V16c0,0.6-0.3,1.2-0.9,1.6l-8.6,5C-380.3,22.8-380.6,22.9-380.9,22.9z
		 M-374,13.1c0-1.9-1.3-2.4-3.9-2.7c-2.7-0.4-2.9-0.5-2.9-1.2c0-0.5,0.2-1.2,2.2-1.2c1.8,0,2.4,0.4,2.7,1.6c0,0.1,0.1,0.2,0.2,0.2
		h1.1c0.1,0,0.1,0,0.2-0.1c0-0.1,0.1-0.1,0.1-0.2c-0.2-2.1-1.5-3-4.3-3c-2.5,0-3.9,1-3.9,2.8c0,1.9,1.5,2.4,3.8,2.6
		c2.8,0.3,3,0.7,3,1.2c0,1-0.8,1.4-2.6,1.4c-2.3,0-2.8-0.6-2.9-1.7c0-0.1-0.1-0.2-0.2-0.2h-1.1c-0.1,0-0.2,0.1-0.2,0.2
		c0,1.4,0.8,3.2,4.6,3.2C-375.5,16-374,14.9-374,13.1z"/>
</g>
<g>
	<path class="st27" d="M-239.6,37h-24.2c-7.1,0-12.9-5.8-12.9-12.9V-0.1c0-7.1,5.8-12.9,12.9-12.9h24.2c7.1,0,12.9,5.8,12.9,12.9
		v24.2C-226.7,31.2-232.5,37-239.6,37z"/>
	<g>
		<g>
			<g>
				<g>
					
						<linearGradient id="SVGID_00000042713428249626201910000013381557096700268196_" gradientUnits="userSpaceOnUse" x1="-251.7992" y1="60" x2="-251.7992" y2="20" gradientTransform="matrix(1 0 0 -1 0 52)">
						<stop  offset="0" style="stop-color:#FF603B"/>
						<stop  offset="1" style="stop-color:#992E25"/>
					</linearGradient>
					<path style="fill:url(#SVGID_00000042713428249626201910000013381557096700268196_);" d="M-242.1,32h-19.4
						c-5.7,0-10.3-4.6-10.3-10.3V2.3c0-5.7,4.6-10.3,10.3-10.3h19.4c5.7,0,10.3,4.6,10.3,10.3v19.4C-231.7,27.4-236.4,32-242.1,32z"
						/>
				</g>
			</g>
		</g>
	</g>
</g>
<g>
	
		<linearGradient id="SVGID_00000047749460955612873380000009823571834843775621_" gradientUnits="userSpaceOnUse" x1="-251.7059" y1="51.4983" x2="-251.7059" y2="27.4637" gradientTransform="matrix(1 0 0 -1 0 52)">
		<stop  offset="0" style="stop-color:#FFFFFF"/>
		<stop  offset="0.5531" style="stop-color:#9E3026"/>
	</linearGradient>
	<path style="fill:url(#SVGID_00000047749460955612873380000009823571834843775621_);" d="M-239.8,11.4L-250.7,1
		c-0.6-0.6-1.6-0.6-2.3,0l-2.3,2.2l2.9,2.8c0.7-0.2,1.4-0.1,2,0.4c0.5,0.5,0.7,1.3,0.5,1.9l2.8,2.7c0.7-0.2,1.4-0.1,2,0.4
		c0.7,0.7,0.7,1.9,0,2.6c-0.7,0.7-2,0.7-2.7,0c-0.6-0.5-0.7-1.3-0.4-2l-2.6-2.5V16c0.2,0.1,0.4,0.2,0.5,0.3c0.7,0.7,0.7,1.9,0,2.6
		s-2,0.7-2.7,0s-0.7-1.9,0-2.6c0.2-0.2,0.4-0.3,0.6-0.4V9.3c-0.2-0.1-0.4-0.2-0.6-0.4c-0.6-0.5-0.7-1.3-0.4-2l-2.8-2.7l-7.5,7.2
		c-0.6,0.6-0.6,1.6,0,2.2l10.9,10.5c0.6,0.6,1.6,0.6,2.3,0l10.8-10.4C-239.1,13-239.1,12.1-239.8,11.4"/>
	
		<linearGradient id="SVGID_00000172424456229256519280000015953453536814892983_" gradientUnits="userSpaceOnUse" x1="-251.6433" y1="52.5979" x2="-251.6433" y2="28.5633" gradientTransform="matrix(1 0 0 -1 0 52)">
		<stop  offset="0" style="stop-color:#FFFFFF"/>
		<stop  offset="1" style="stop-color:#FC5F3A"/>
	</linearGradient>
	<path style="fill:url(#SVGID_00000172424456229256519280000015953453536814892983_);" d="M-239.7,10.3l-10.9-10.5
		c-0.6-0.6-1.6-0.6-2.3,0l-2.3,2.2l2.9,2.8c0.7-0.2,1.4-0.1,2,0.4c0.5,0.5,0.7,1.3,0.5,1.9l2.8,2.7c0.7-0.2,1.4-0.1,2,0.4
		c0.7,0.7,0.7,1.9,0,2.6s-2,0.7-2.7,0c-0.6-0.5-0.7-1.3-0.4-2l-2.6-2.5v6.5c0.2,0.1,0.4,0.2,0.5,0.3c0.7,0.7,0.7,1.9,0,2.6
		c-0.7,0.7-2,0.7-2.7,0s-0.7-1.9,0-2.6c0.2-0.2,0.4-0.3,0.6-0.4V8.2c-0.2-0.1-0.4-0.2-0.6-0.4c-0.6-0.5-0.7-1.3-0.4-2l-2.8-2.7
		l-7.5,7.2c-0.6,0.6-0.6,1.6,0,2.2l10.9,10.5c0.6,0.6,1.6,0.6,2.3,0l10.8-10.4C-239.1,11.9-239.1,11-239.7,10.3"/>
</g>
<g>
	
		<linearGradient id="SVGID_00000173867964085597884090000006559732817410404273_" gradientUnits="userSpaceOnUse" x1="60.1931" y1="76.7477" x2="60.1931" y2="54.0958" gradientTransform="matrix(1 0 0 -1 0 52)">
		<stop  offset="0" style="stop-color:#FFFFFF"/>
		<stop  offset="0.6844" style="stop-color:#0C5190"/>
		<stop  offset="1" style="stop-color:#00488A"/>
	</linearGradient>
	<path style="fill:url(#SVGID_00000173867964085597884090000006559732817410404273_);" d="M70.9-22.4l-4.7-2.3
		c-0.5-0.3-1.2-0.2-1.6,0.3l-9.1,8.2l-4-3c-0.4-0.3-0.9-0.3-1.2,0.1L49-17.9c-0.4,0.4-0.4,1-0.1,1.3c0,0,0,0,0.1,0.1l3.4,3.1
		L49-10.3c-0.4,0.4-0.4,1-0.1,1.3c0,0,0,0,0.1,0.1l1.3,1.1c0.3,0.3,0.9,0.3,1.2,0.1l4-3l9.1,8.2c0.4,0.4,1,0.5,1.6,0.3l4.7-2.3
		c0.5-0.2,0.8-0.7,0.8-1.3v-15.3C71.7-21.6,71.4-22.1,70.9-22.4z M66-8.3l-6.9-5.2l6.9-5.2V-8.3z"/>
	
		<linearGradient id="SVGID_00000065784545536582903150000010135151320908897711_" gradientUnits="userSpaceOnUse" x1="60.1931" y1="77.4607" x2="60.1931" y2="54.8088" gradientTransform="matrix(1 0 0 -1 0 52)">
		<stop  offset="0" style="stop-color:#FFFFFF"/>
		<stop  offset="1" style="stop-color:#0091E3"/>
	</linearGradient>
	<path style="fill:url(#SVGID_00000065784545536582903150000010135151320908897711_);" d="M70.9-23.1l-4.7-2.3
		c-0.5-0.3-1.2-0.2-1.6,0.3l-9.1,8.2l-4-3c-0.4-0.3-0.9-0.3-1.2,0.1L49-18.6c-0.4,0.4-0.4,1-0.1,1.3c0,0,0,0,0.1,0.1l3.4,3.1L49-11
		c-0.4,0.4-0.4,1-0.1,1.3c0,0,0,0,0.1,0.1l1.3,1.1c0.3,0.3,0.9,0.3,1.2,0.1l4-3l9.1,8.2c0.4,0.4,1.1,0.5,1.6,0.3l4.7-2.3
		c0.5-0.2,0.8-0.7,0.8-1.3v-15.3C71.7-22.3,71.4-22.8,70.9-23.1z M66-9l-6.9-5.2l6.9-5.2V-9z"/>
</g>
<g>
	<path class="st33" d="M-300.5,36.3h-24.2c-7.1,0-12.9-5.8-12.9-12.9V-0.8c0-7.1,5.8-12.9,12.9-12.9h24.2c7.1,0,12.9,5.8,12.9,12.9
		v24.2C-287.6,30.6-293.3,36.3-300.5,36.3z"/>
	<g>
		<g>
			<g>
				<g>
					
						<linearGradient id="SVGID_00000129177022135105781820000016044466003702368181_" gradientUnits="userSpaceOnUse" x1="-312.6" y1="60.7" x2="-312.6" y2="20.7" gradientTransform="matrix(1 0 0 -1 0 52)">
						<stop  offset="0" style="stop-color:#0093E5"/>
						<stop  offset="1" style="stop-color:#004383"/>
					</linearGradient>
					<path style="fill:url(#SVGID_00000129177022135105781820000016044466003702368181_);" d="M-302.9,31.3h-19.4
						c-5.7,0-10.3-4.6-10.3-10.3V1.6c0-5.7,4.6-10.3,10.3-10.3h19.4c5.7,0,10.3,4.6,10.3,10.3V21C-292.6,26.7-297.2,31.3-302.9,31.3
						z"/>
				</g>
			</g>
		</g>
	</g>
</g>
<g>
	
		<linearGradient id="SVGID_00000022553073223625675560000007630605122226674331_" gradientUnits="userSpaceOnUse" x1="-312.6069" y1="51.6361" x2="-312.6069" y2="28.9673" gradientTransform="matrix(1 0 0 -1 0 52)">
		<stop  offset="0" style="stop-color:#FFFFFF"/>
		<stop  offset="0.6844" style="stop-color:#0C5190"/>
		<stop  offset="1" style="stop-color:#00488A"/>
	</linearGradient>
	<path style="fill:url(#SVGID_00000022553073223625675560000007630605122226674331_);" d="M-301.9,2.8l-4.7-2.3
		c-0.5-0.3-1.2-0.2-1.6,0.3l-9.1,8.2l-4-3c-0.4-0.3-0.9-0.3-1.2,0.1l-1.3,1.1c-0.4,0.4-0.4,1-0.1,1.3c0,0,0,0,0.1,0.1l3.4,3.1
		l-3.4,3.1c-0.4,0.4-0.4,1-0.1,1.3c0,0,0,0,0.1,0.1l1.3,1.1c0.3,0.3,0.9,0.3,1.2,0.1l4-3l9.1,8.2c0.4,0.4,1.1,0.5,1.6,0.3l4.7-2.3
		c0.5-0.2,0.8-0.7,0.8-1.3V4C-301.1,3.5-301.4,3-301.9,2.8z M-306.8,16.9l-6.9-5.2l6.9-5.2V16.9z"/>
	
		<linearGradient id="SVGID_00000173883798424664901960000009210304208039005331_" gradientUnits="userSpaceOnUse" x1="-312.6069" y1="52.3491" x2="-312.6069" y2="29.6804" gradientTransform="matrix(1 0 0 -1 0 52)">
		<stop  offset="0" style="stop-color:#FFFFFF"/>
		<stop  offset="1" style="stop-color:#0091E3"/>
	</linearGradient>
	<path style="fill:url(#SVGID_00000173883798424664901960000009210304208039005331_);" d="M-301.9,2l-4.7-2.3
		c-0.5-0.3-1.2-0.2-1.6,0.3l-9.1,8.2l-4-3c-0.4-0.3-0.9-0.3-1.2,0.1l-1.3,1.1c-0.4,0.4-0.4,1-0.1,1.3c0,0,0,0,0.1,0.1l3.4,3.1
		l-3.4,3.1c-0.4,0.4-0.4,1-0.1,1.3c0,0,0,0,0.1,0.1l1.3,1.1c0.3,0.3,0.9,0.3,1.2,0.1l4-3l9.1,8.2c0.4,0.4,1.1,0.5,1.6,0.3l4.7-2.3
		c0.5-0.2,0.8-0.7,0.8-1.3V3.3C-301.1,2.8-301.4,2.3-301.9,2z M-306.8,16.1l-6.9-5.2l6.9-5.2V16.1z"/>
</g>
<g>
	<path class="st37" d="M-175.3,34.9h-24.2c-7.1,0-12.9-5.8-12.9-12.9V-2.2c0-7.1,5.8-12.9,12.9-12.9h24.2c7.1,0,12.9,5.8,12.9,12.9
		V22C-162.4,29.1-168.2,34.9-175.3,34.9z"/>
	<g>
		<g>
			<g>
				<g>
					
						<linearGradient id="SVGID_00000080173927089455480850000001508154923328770750_" gradientUnits="userSpaceOnUse" x1="-187.4" y1="62.1" x2="-187.4" y2="22.1" gradientTransform="matrix(1 0 0 -1 0 52)">
						<stop  offset="0" style="stop-color:#8129FF"/>
						<stop  offset="1" style="stop-color:#4000BF"/>
					</linearGradient>
					<path style="fill:url(#SVGID_00000080173927089455480850000001508154923328770750_);" d="M-177.7,29.9h-19.4
						c-5.7,0-10.3-4.6-10.3-10.3V0.2c0-5.7,4.6-10.3,10.3-10.3h19.4c5.7,0,10.3,4.6,10.3,10.3v19.4
						C-167.4,25.3-172.1,29.9-177.7,29.9z"/>
				</g>
			</g>
		</g>
	</g>
</g>
<linearGradient id="SVGID_00000067196789737139143610000003217201994677832374_" gradientUnits="userSpaceOnUse" x1="-187.4" y1="53.4311" x2="-187.4" y2="30.7792" gradientTransform="matrix(1 0 0 -1 0 52)">
	<stop  offset="0" style="stop-color:#FFFFFF"/>
	<stop  offset="0.662" style="stop-color:#4302C2"/>
	<stop  offset="1" style="stop-color:#4302C2"/>
</linearGradient>
<path style="fill:url(#SVGID_00000067196789737139143610000003217201994677832374_);" d="M-187.3,1.8c4.5,0,8.1,3.6,8.1,8.1
	s-3.6,8.1-8.1,8.1s-8.1-3.6-8.1-8.1c0-1.1,0.2-2.1,0.6-3.1c0.6,0.8,1.5,1.3,2.5,1.3c1.7,0,3.1-1.4,3.1-3.1c0-1-0.5-2-1.3-2.5
	C-189.4,2-188.4,1.8-187.3,1.8z M-187.4-1.4c-6.3,0-11.3,5.1-11.3,11.3s5.1,11.3,11.3,11.3c6.3,0,11.3-5.1,11.3-11.3
	S-181.2-1.4-187.4-1.4z M-187.4-0.3c5.6,0,10.2,4.6,10.2,10.2s-4.6,10.2-10.2,10.2s-10.2-4.6-10.2-10.2S-193.1-0.3-187.4-0.3z"/>
<linearGradient id="SVGID_00000098938428401738900640000009406789206178208954_" gradientUnits="userSpaceOnUse" x1="-187.4" y1="53.4311" x2="-187.4" y2="30.7792" gradientTransform="matrix(1 0 0 -1 0 52)">
	<stop  offset="0" style="stop-color:#FFFFFF"/>
	<stop  offset="1" style="stop-color:#8029FE"/>
</linearGradient>
<path style="fill:url(#SVGID_00000098938428401738900640000009406789206178208954_);" d="M-187.3,1.8c4.5,0,8.1,3.6,8.1,8.1
	s-3.6,8.1-8.1,8.1s-8.1-3.6-8.1-8.1c0-1.1,0.2-2.1,0.6-3.1c0.6,0.8,1.5,1.3,2.5,1.3c1.7,0,3.1-1.4,3.1-3.1c0-1-0.5-2-1.3-2.5
	C-189.4,2-188.4,1.8-187.3,1.8z M-187.4-1.4c-6.3,0-11.3,5.1-11.3,11.3s5.1,11.3,11.3,11.3c6.3,0,11.3-5.1,11.3-11.3
	S-181.2-1.4-187.4-1.4z M-187.4-0.3c5.6,0,10.2,4.6,10.2,10.2s-4.6,10.2-10.2,10.2s-10.2-4.6-10.2-10.2S-193.1-0.3-187.4-0.3z"/>
<g>
	<path class="st41" d="M-174.4,95.8h-24.2c-7.1,0-12.9-5.8-12.9-12.9V58.7c0-7.1,5.8-12.9,12.9-12.9h24.2c7.1,0,12.9,5.8,12.9,12.9
		v24.2C-161.6,90-167.3,95.8-174.4,95.8z"/>
	<g>
		<g>
			<g>
				<g>
					
						<linearGradient id="SVGID_00000021827565534841576990000014067145680405697949_" gradientUnits="userSpaceOnUse" x1="-186.6" y1="1.2" x2="-186.6" y2="-38.8" gradientTransform="matrix(1 0 0 -1 0 52)">
						<stop  offset="0" style="stop-color:#33C1FF"/>
						<stop  offset="1" style="stop-color:#2E6BFF"/>
					</linearGradient>
					<path style="fill:url(#SVGID_00000021827565534841576990000014067145680405697949_);" d="M-176.9,90.8h-19.4
						c-5.7,0-10.3-4.6-10.3-10.3V61.1c0-5.7,4.6-10.3,10.3-10.3h19.4c5.7,0,10.3,4.6,10.3,10.3v19.4
						C-166.6,86.2-171.2,90.8-176.9,90.8z"/>
				</g>
			</g>
		</g>
	</g>
</g>
<g>
	
		<linearGradient id="SVGID_00000181801271704026582370000013468046250630595764_" gradientUnits="userSpaceOnUse" x1="-192.5" y1="-9.8739" x2="-192.5" y2="-28.5045" gradientTransform="matrix(1 0 0 -1 0 52)">
		<stop  offset="0" style="stop-color:#FFFFFF"/>
		<stop  offset="0.6508" style="stop-color:#2E6EFF"/>
		<stop  offset="1" style="stop-color:#2E6DFF"/>
	</linearGradient>
	<path style="fill:url(#SVGID_00000181801271704026582370000013468046250630595764_);" d="M-186.3,65.9c-0.3-0.8-0.7-1.4-1.3-2
		c-0.7-0.7-1.5-1.1-2.4-1.4c-1-0.4-2.2-0.5-3.6-0.5c-0.5,0-1.1,0-1.6,0s-1.1,0-1.5,0c-0.5,0-0.9,0-1.3,0c-0.4,0-0.7,0-1,0
		c-0.1,0-0.2,0.1-0.2,0.2v18.1c0,0.2,0.1,0.2,0.2,0.2h3.4c0.1,0,0.2-0.1,0.2-0.2v-5.6c0.3,0,0.6,0,0.8,0s0.5,0,0.9,0
		c1.4,0,2.8-0.2,4-0.6c1.1-0.4,2.1-1.2,2.8-2.1c0.7-1,1.1-2.2,1.1-3.7C-185.9,67.4-186.1,66.6-186.3,65.9z M-190.3,70.1
		c-0.4,0.4-0.9,0.8-1.4,0.9c-0.7,0.2-1.3,0.3-2,0.3h-0.9c-0.2,0-0.4,0-0.7,0v-5.9c0.1,0,0.4,0,0.7,0s0.7,0,1.2,0
		c0.7,0,1.4,0.1,2.1,0.4c0.5,0.2,0.9,0.5,1.2,1s0.4,1,0.4,1.6C-189.8,69-189.9,69.6-190.3,70.1z"/>
	
		<linearGradient id="SVGID_00000146478182676227800940000010797095092318448558_" gradientUnits="userSpaceOnUse" x1="-178.95" y1="-14.2368" x2="-178.95" y2="-28.8739" gradientTransform="matrix(1 0 0 -1 0 52)">
		<stop  offset="0" style="stop-color:#FFFFFF"/>
		<stop  offset="0.6508" style="stop-color:#2E6EFF"/>
		<stop  offset="1" style="stop-color:#2E6DFF"/>
	</linearGradient>
	<path style="fill:url(#SVGID_00000146478182676227800940000010797095092318448558_);" d="M-173.8,76.4c0,0.8-0.2,1.7-0.7,2.3
		c-0.5,0.7-1.2,1.2-2,1.6c-0.9,0.4-1.9,0.6-3.2,0.6c-0.8,0-1.6-0.1-2.4-0.2c-0.6-0.1-1.2-0.3-1.8-0.6c-0.1-0.1-0.2-0.2-0.2-0.3v-3.1
		c0-0.1,0-0.1,0.1-0.2c0.1,0,0.1,0,0.2,0c0.7,0.4,1.4,0.7,2.2,0.9c0.7,0.2,1.4,0.3,2.1,0.3c0.7,0,1.1-0.1,1.5-0.2
		c0.3-0.1,0.5-0.4,0.5-0.7c0-0.2-0.1-0.5-0.4-0.7s-0.9-0.5-1.7-0.8c-0.9-0.3-1.7-0.7-2.5-1.3c-0.5-0.4-1-0.9-1.3-1.5
		s-0.4-1.2-0.4-1.8c0-0.8,0.2-1.5,0.6-2.1c0.4-0.7,1.1-1.3,1.8-1.6c0.8-0.4,1.9-0.6,3.1-0.6c0.7,0,1.5,0.1,2.2,0.2
		c0.5,0.1,1,0.2,1.5,0.4c0.1,0,0.1,0.1,0.2,0.2c0,0.1,0,0.1,0,0.2V70c0,0.1,0,0.1-0.1,0.2c-0.2,0-0.2,0-0.3,0
		c-0.5-0.3-1.1-0.5-1.7-0.6c-0.7-0.1-1.3-0.2-2-0.2c-0.4,0-0.7,0-1.1,0.1c-0.2,0.1-0.4,0.2-0.5,0.4c-0.1,0.1-0.1,0.3-0.1,0.5
		s0.1,0.3,0.2,0.5c0.2,0.2,0.4,0.4,0.6,0.5c0.4,0.2,0.8,0.4,1.2,0.6c0.9,0.3,1.9,0.8,2.7,1.3c0.6,0.4,1.1,0.9,1.4,1.5
		C-173.9,75.2-173.8,75.8-173.8,76.4z"/>
</g>
<g>
	
		<linearGradient id="SVGID_00000046301205942523187960000007132119867755523213_" gradientUnits="userSpaceOnUse" x1="-192.9" y1="-9.3924" x2="-192.9" y2="-28.023" gradientTransform="matrix(1 0 0 -1 0 52)">
		<stop  offset="0" style="stop-color:#FFFFFF"/>
		<stop  offset="1" style="stop-color:#33C0FF"/>
	</linearGradient>
	<path style="fill:url(#SVGID_00000046301205942523187960000007132119867755523213_);" d="M-186.7,65.4c-0.3-0.8-0.7-1.4-1.3-2
		c-0.7-0.7-1.5-1.1-2.4-1.4c-1-0.4-2.2-0.5-3.6-0.5c-0.5,0-1.1,0-1.6,0s-1.1,0-1.5,0c-0.5,0-0.9,0-1.3,0c-0.4,0-0.7,0-1,0
		c-0.1,0-0.2,0.1-0.2,0.2v18.1c0,0.2,0.1,0.2,0.2,0.2h3.4c0.1,0,0.2-0.1,0.2-0.2v-5.6c0.3,0,0.6,0,0.8,0s0.5,0,0.9,0
		c1.4,0,2.8-0.2,4-0.6c1.1-0.4,2.1-1.2,2.8-2.1c0.7-1,1.1-2.2,1.1-3.7C-186.3,66.9-186.4,66.1-186.7,65.4z M-190.6,69.6
		c-0.4,0.4-0.9,0.8-1.4,0.9c-0.7,0.2-1.3,0.3-2,0.3h-0.9c-0.2,0-0.4,0-0.7,0v-5.9c0.1,0,0.4,0,0.7,0s0.7,0,1.2,0
		c0.7,0,1.4,0.1,2.1,0.4c0.5,0.2,0.9,0.5,1.2,1s0.4,1,0.4,1.6C-190.1,68.6-190.3,69.2-190.6,69.6z"/>
	
		<linearGradient id="SVGID_00000062150344651846699710000016387282948130197404_" gradientUnits="userSpaceOnUse" x1="-179.3367" y1="-13.7553" x2="-179.3367" y2="-28.3924" gradientTransform="matrix(1 0 0 -1 0 52)">
		<stop  offset="0" style="stop-color:#FFFFFF"/>
		<stop  offset="1" style="stop-color:#33C0FF"/>
	</linearGradient>
	<path style="fill:url(#SVGID_00000062150344651846699710000016387282948130197404_);" d="M-174.2,75.9c0,0.8-0.2,1.7-0.7,2.3
		c-0.5,0.7-1.2,1.2-2,1.6c-0.9,0.4-1.9,0.6-3.2,0.6c-0.8,0-1.6-0.1-2.4-0.2c-0.6-0.1-1.2-0.3-1.8-0.6c-0.1-0.1-0.2-0.2-0.2-0.3v-3.1
		c0-0.1,0-0.1,0.1-0.2c0.1,0,0.1,0,0.2,0c0.7,0.4,1.4,0.7,2.2,0.9c0.7,0.2,1.4,0.3,2.1,0.3c0.7,0,1.1-0.1,1.5-0.2
		c0.3-0.1,0.5-0.4,0.5-0.7c0-0.2-0.1-0.5-0.4-0.7s-0.9-0.5-1.7-0.8c-0.9-0.3-1.7-0.7-2.5-1.3c-0.5-0.4-1-0.9-1.3-1.5
		s-0.4-1.2-0.4-1.8c0-0.8,0.2-1.5,0.6-2.1c0.4-0.7,1.1-1.3,1.8-1.6c0.8-0.4,1.9-0.6,3.1-0.6c0.7,0,1.5,0.1,2.2,0.2
		c0.5,0.1,1,0.2,1.5,0.4c0.1,0,0.1,0.1,0.2,0.2c0,0.1,0,0.1,0,0.2v2.9c0,0.1,0,0.1-0.1,0.2c-0.2,0-0.2,0-0.3,0
		c-0.5-0.3-1.1-0.5-1.7-0.6c-0.7-0.1-1.3-0.2-2-0.2c-0.4,0-0.7,0-1.1,0.1c-0.2,0.1-0.4,0.2-0.5,0.4c-0.1,0.1-0.1,0.3-0.1,0.5
		s0.1,0.3,0.2,0.5c0.2,0.2,0.4,0.4,0.6,0.5c0.4,0.2,0.8,0.4,1.2,0.6c0.9,0.3,1.9,0.8,2.7,1.3c0.6,0.4,1.1,0.9,1.4,1.5
		C-174.3,74.7-174.1,75.3-174.2,75.9z"/>
</g>
<g>
	<path class="st47" d="M-289.6,91.3h-24.2c-7.1,0-12.9-5.8-12.9-12.9V54.2c0-7.1,5.8-12.9,12.9-12.9h24.2c7.1,0,12.9,5.8,12.9,12.9
		v24.2C-276.7,85.6-282.4,91.3-289.6,91.3z"/>
	<g>
		<g>
			<g>
				<g>
					
						<linearGradient id="SVGID_00000155104016725624138000000002439313440779889551_" gradientUnits="userSpaceOnUse" x1="-301.7" y1="5.6587" x2="-301.7" y2="-34.3413" gradientTransform="matrix(1 0 0 -1 0 52)">
						<stop  offset="5.586592e-03" style="stop-color:#48A5D3"/>
						<stop  offset="1" style="stop-color:#20495E"/>
					</linearGradient>
					<path style="fill:url(#SVGID_00000155104016725624138000000002439313440779889551_);" d="M-292,86.3h-19.4
						c-5.7,0-10.3-4.6-10.3-10.3V56.7c0-5.7,4.6-10.3,10.3-10.3h19.4c5.7,0,10.3,4.6,10.3,10.3V76C-281.7,81.7-286.3,86.3-292,86.3z
						"/>
				</g>
			</g>
		</g>
	</g>
</g>
<g>
	
		<linearGradient id="SVGID_00000181786498297419196080000015416468303185033654_" gradientUnits="userSpaceOnUse" x1="-301.4934" y1="-3.6" x2="-301.4934" y2="-25.6676" gradientTransform="matrix(1 0 0 -1 0 52)">
		<stop  offset="0" style="stop-color:#FFFFFF"/>
		<stop  offset="0.581" style="stop-color:#235067"/>
	</linearGradient>
	<path style="fill:url(#SVGID_00000181786498297419196080000015416468303185033654_);" d="M-290.9,69.1c0,0,0-0.1-0.1-0.1
		c-0.1-0.2-0.4-0.3-0.9-0.2c-1.5,0.3-2.1,0.1-2.3,0c1.2-1.9,2.2-4.2,2.8-6.3c0.2-1,0.7-3.2,0.1-4.4c0-0.1-0.1-0.1-0.1-0.2
		c-1.2-1.5-2.9-2.3-5-2.3c-1.4,0-2.5,0.3-2.9,0.4c-0.2,0-0.3-0.1-0.5-0.1c-0.4-0.1-0.8-0.1-1.2-0.1c-1.1,0-2,0.2-2.8,0.8
		c-0.8-0.3-4.4-1.5-6.6,0.1c-1.2,0.9-1.8,2.5-1.7,4.7c0,0.8,0.5,3.1,1.1,5.3c0.4,1.4,0.9,2.5,1.3,3.3c0.5,0.9,1,1.5,1.6,1.6
		c0.4,0.1,1,0.1,1.7-0.7c0.7-0.9,1.5-1.7,1.8-2c0.4,0.2,0.8,0.3,1.3,0.3l0,0c-0.1,0.1-0.2,0.2-0.2,0.3c-0.3,0.4-0.4,0.5-1.4,0.7
		c-0.3,0.1-1,0.2-1.1,0.7c0,0.1,0,0.2,0.1,0.3c0.2,0.4,0.8,0.6,0.9,0.6c1.2,0.3,2.3,0.1,3.1-0.6c0,2.1,0.1,4.1,0.3,4.7
		c0.2,0.5,0.7,1.8,2.3,1.8c0.2,0,0.5,0,0.8-0.1c1.6-0.4,2.3-1.1,2.6-2.7c0.1-0.8,0.4-2.6,0.5-3.8c0-0.1,0-0.1,0.1-0.1
		c0,0,0.1,0,0.4,0l0,0h0.2l0,0c0.8,0,1.8-0.1,2.3-0.4C-291.8,70.4-290.7,69.7-290.9,69.1z M-310.4,66.5c-0.7-2.2-1.1-4.5-1.1-5.1
		c-0.1-2,0.4-3.4,1.4-4.1c1.7-1.2,4.5-0.5,5.6-0.1l0,0c-1.9,1.9-1.8,5.1-1.8,5.3c0,0.1,0,0.2,0,0.3c0,0.5,0.1,1.5-0.1,2.7
		c-0.1,1.1,0.2,2.1,0.9,2.8c0.1,0.1,0.2,0.1,0.2,0.2c-0.3,0.3-1,1.1-1.7,2c-0.5,0.6-0.9,0.5-1,0.5c-0.4-0.1-0.7-0.5-1.1-1.2
		C-309.5,69-310,67.9-310.4,66.5z M-304.8,71.2c-0.2,0-0.3-0.1-0.4-0.2c0.1,0,0.2-0.1,0.4-0.1c1.2-0.2,1.4-0.4,1.8-0.9
		c0.1-0.1,0.2-0.2,0.3-0.4l0.1-0.1c0.2-0.1,0.3-0.1,0.4,0s0.3,0.2,0.3,0.4c0,0.1,0.1,0.3,0,0.4C-302.8,71.4-304,71.4-304.8,71.2z
		 M-302.9,67.5L-302.9,67.5c-0.1,0.4-0.2,0.7-0.3,1c-0.6,0-1.2-0.3-1.7-0.7c-0.6-0.6-0.8-1.4-0.7-2.3c0.2-1.2,0.1-2.2,0.1-2.8
		c0-0.1,0-0.1,0-0.2c-0.1-0.8,1.4-1.3,2.2-1.1c0.4,0.1,0.8,0.8,0.9,1.3c0.5,2.5,0.1,3.5-0.3,4.4C-302.8,67.2-302.9,67.4-302.9,67.5z
		 M-296.2,71.7c0,0.2,0,0.3-0.1,0.5l-0.1,0.4v0.1c0,0.4,0,0.6-0.1,0.8c-0.1,0.2-0.1,0.4-0.2,1c-0.1,1.3-0.8,2-2.2,2.4
		c-1.4,0.3-1.6-0.5-1.9-1.1c0-0.1,0-0.1-0.1-0.2c-0.2-0.5-0.2-1.3-0.1-2.3c0-0.5,0-1.7-0.3-2.4c0-0.3,0-0.5,0-0.8V70
		c0-0.1,0-0.1,0-0.2c-0.1-0.4-0.4-0.7-0.7-0.9c-0.1-0.1-0.4-0.2-0.7-0.1c0.1-0.3,0.2-0.5,0.3-0.9v-0.1c0.1-0.1,0.1-0.3,0.2-0.5
		c0.4-0.9,0.9-2.1,0.3-4.8c-0.2-1-0.9-1.5-2.1-1.4c-0.7,0.1-1.3,0.3-1.6,0.5c-0.1,0-0.1,0.1-0.2,0.1c0.1-1,0.4-2.9,1.6-4.1
		c0.1-0.1,0.2-0.2,0.3-0.3c0,0,0.1,0,0.1-0.1c0.7-0.5,1.6-0.8,2.6-0.8c0.4,0,0.7,0,1.1,0.1c1.8,0.3,3,1.3,3.7,2.2s1.2,1.8,1.3,2.3
		c-1.2-0.1-2,0.1-2.5,0.7c-0.9,1.3,0.5,3.8,1.2,5.1c0.1,0.2,0.2,0.4,0.3,0.5c0.2,0.5,0.5,0.9,0.7,1.2c0.1,0.1,0.1,0.2,0.2,0.2
		c-0.4,0.1-1,0.4-1,1.6c0,0.1,0,0.4-0.1,0.7C-296.1,71.2-296.1,71.5-296.2,71.7z M-295.3,70.2c0-0.8,0.2-0.8,0.5-0.9h0.1l0.1,0.1
		c0.5,0.3,1.5,0.4,2.8,0.1c-0.2,0.2-0.5,0.4-0.9,0.6s-1,0.3-1.6,0.3C-294.9,70.4-295.3,70.3-295.3,70.2z M-294.8,61.4
		c0,0.3-0.1,0.9-0.1,1.2c-0.1,0.3-0.1,0.7-0.1,1.1s0,0.8,0.1,1.2c0.1,0.8,0.2,1.7-0.2,2.5c-0.1-0.1-0.1-0.2-0.2-0.4
		c0-0.1-0.2-0.3-0.3-0.6c-0.6-1-2.2-3.9-1.5-4.8C-296.7,61.2-295.7,61.2-294.8,61.4z M-294.6,68.2
		C-294.6,68.1-294.7,68.1-294.6,68.2l-0.1-0.1c0.7-1.1,0.5-2.2,0.4-3.2c0-0.4-0.1-0.8-0.1-1.1c0-0.4,0.1-0.7,0.1-1
		c0.1-0.4,0.1-0.8,0.1-1.2c0,0,0-0.1,0-0.2c0-0.4-0.6-1.8-1.6-3c-0.6-0.7-1.4-1.4-2.5-1.9c0.5-0.1,1.1-0.2,1.9-0.2
		c1.9,0,3.4,0.7,4.4,2.1c0,0,0,0.1,0.1,0.1C-291.2,59.7-292.1,64.2-294.6,68.2z"/>
	
		<linearGradient id="SVGID_00000095308320834367921580000006626031949206581416_" gradientUnits="userSpaceOnUse" x1="-301.7934" y1="-3.0154" x2="-301.7934" y2="-25.083" gradientTransform="matrix(1 0 0 -1 0 52)">
		<stop  offset="0" style="stop-color:#FFFFFF"/>
		<stop  offset="1" style="stop-color:#48A4D2"/>
	</linearGradient>
	<path style="fill:url(#SVGID_00000095308320834367921580000006626031949206581416_);" d="M-291.2,68.6c0,0,0-0.1-0.1-0.1
		c-0.1-0.2-0.4-0.3-0.9-0.2c-1.5,0.3-2.1,0.1-2.3,0c1.2-1.9,2.2-4.2,2.8-6.3c0.2-1,0.7-3.2,0.1-4.4c0-0.1-0.1-0.1-0.1-0.2
		c-1.2-1.5-2.9-2.3-5-2.3c-1.4,0-2.5,0.3-2.9,0.4c-0.2,0-0.3-0.1-0.5-0.1c-0.4-0.1-0.8-0.1-1.2-0.1c-1.1,0-2,0.2-2.8,0.8
		c-0.8-0.3-4.4-1.5-6.6,0.1c-1.2,0.9-1.8,2.5-1.7,4.7c0,0.8,0.5,3.1,1.1,5.3c0.4,1.4,0.9,2.5,1.3,3.3c0.5,0.9,1,1.5,1.6,1.6
		c0.4,0.1,1,0.1,1.7-0.7c0.7-0.9,1.5-1.7,1.8-2c0.4,0.2,0.8,0.3,1.3,0.3l0,0c-0.1,0.1-0.2,0.2-0.2,0.3c-0.3,0.4-0.4,0.5-1.4,0.7
		c-0.3,0.1-1,0.2-1.1,0.7c0,0.1,0,0.2,0.1,0.3c0.2,0.4,0.8,0.6,0.9,0.6c1.2,0.3,2.3,0.1,3.1-0.6c0,2.1,0.1,4.1,0.3,4.7
		c0.2,0.5,0.7,1.8,2.3,1.8c0.2,0,0.5,0,0.8-0.1c1.6-0.4,2.3-1.1,2.6-2.7c0.1-0.8,0.4-2.6,0.5-3.8c0-0.1,0-0.1,0.1-0.1
		c0,0,0.1,0,0.4,0l0,0h0.2l0,0c0.8,0,1.8-0.1,2.3-0.4C-292.1,69.8-291,69.1-291.2,68.6z M-310.7,65.9c-0.7-2.2-1.1-4.5-1.1-5.1
		c-0.1-2,0.4-3.4,1.4-4.1c1.7-1.2,4.5-0.5,5.6-0.1l0,0c-1.9,1.9-1.8,5.1-1.8,5.3c0,0.1,0,0.2,0,0.3c0,0.5,0.1,1.5-0.1,2.7
		c-0.1,1.1,0.2,2.1,0.9,2.8c0.1,0.1,0.2,0.1,0.2,0.2c-0.3,0.3-1,1.1-1.7,2c-0.5,0.6-0.9,0.5-1,0.5c-0.4-0.1-0.7-0.5-1.1-1.2
		C-309.8,68.4-310.3,67.3-310.7,65.9z M-305.1,70.6c-0.2,0-0.3-0.1-0.4-0.2c0.1,0,0.2-0.1,0.4-0.1c1.2-0.2,1.4-0.4,1.8-0.9
		c0.1-0.1,0.2-0.2,0.3-0.4l0.1-0.1c0.2-0.1,0.3-0.1,0.4,0s0.3,0.2,0.3,0.4c0,0.1,0.1,0.3,0,0.4C-303.1,70.8-304.3,70.8-305.1,70.6z
		 M-303.2,66.9L-303.2,66.9c-0.1,0.4-0.2,0.7-0.3,1c-0.6,0-1.2-0.3-1.7-0.7c-0.6-0.6-0.8-1.4-0.7-2.3c0.2-1.2,0.1-2.2,0.1-2.8
		c0-0.1,0-0.1,0-0.2c0.3-0.2,1.5-0.9,2.4-0.7c0.4,0.1,0.7,0.4,0.8,0.9c0.5,2.5,0.1,3.5-0.3,4.4C-303.1,66.6-303.2,66.8-303.2,66.9z
		 M-296.5,71.2c0,0.2,0,0.3-0.1,0.5l-0.1,0.4v0.1c0,0.4,0,0.6-0.1,0.8c-0.1,0.2-0.1,0.4-0.2,1c-0.1,1.3-0.8,2-2.2,2.4
		c-1.4,0.3-1.6-0.5-1.9-1.1c0-0.1,0-0.1-0.1-0.2c-0.2-0.5-0.2-1.3-0.1-2.3c0-0.5,0-1.7-0.3-2.4c0-0.3,0-0.5,0-0.8v-0.1
		c0-0.1,0-0.1,0-0.2c-0.1-0.4-0.4-0.7-0.7-0.9c-0.1-0.1-0.4-0.2-0.7-0.1c0.1-0.3,0.2-0.5,0.3-0.9v-0.1c0.1-0.1,0.1-0.3,0.2-0.5
		c0.4-0.9,0.9-2.1,0.3-4.8c-0.2-1-0.9-1.5-2.1-1.4c-0.7,0.1-1.3,0.3-1.6,0.5c-0.1,0-0.1,0.1-0.2,0.1c0.1-1,0.4-2.9,1.6-4.1
		c0.1-0.1,0.2-0.2,0.3-0.3c0,0,0.1,0,0.1-0.1c0.7-0.5,1.6-0.8,2.6-0.8c0.4,0,0.7,0,1.1,0.1c1.8,0.3,3,1.3,3.7,2.2s1.2,1.8,1.3,2.3
		c-1.2-0.1-2,0.1-2.5,0.7c-0.9,1.3,0.5,3.8,1.2,5.1c0.1,0.2,0.2,0.4,0.3,0.5c0.2,0.5,0.5,0.9,0.7,1.2c0.1,0.1,0.1,0.2,0.2,0.2
		c-0.4,0.1-1,0.4-1,1.6c0,0.1,0,0.4-0.1,0.7C-296.4,70.6-296.4,70.9-296.5,71.2z M-295.6,69.7c0-0.8,0.2-0.8,0.5-0.9h0.1l0.1,0.1
		c0.5,0.3,1.5,0.4,2.8,0.1c-0.2,0.2-0.5,0.4-0.9,0.6s-1,0.3-1.6,0.3C-295.2,69.8-295.6,69.7-295.6,69.7z M-295.1,61.1
		c0,0.3,0,0.6-0.1,0.9c-0.1,0.3-0.1,0.7-0.1,1.1c0,0.4,0,0.8,0.1,1.2c0.1,0.8,0.2,1.7-0.2,2.5c-0.1-0.1-0.1-0.2-0.2-0.4
		c0-0.1-0.2-0.3-0.3-0.6c-0.6-1-1.9-3.4-1.2-4.4C-296.8,61.1-295.9,61-295.1,61.1z M-294.9,67.6C-294.9,67.6-295,67.5-294.9,67.6
		l-0.1-0.1c0.7-1.1,0.5-2.2,0.4-3.2c0-0.4-0.1-0.8-0.1-1.1c0-0.4,0.1-0.7,0.1-1c0.1-0.4,0.1-0.8,0.1-1.2c0,0,0-0.1,0-0.2
		c0-0.4-0.6-1.8-1.6-3c-0.6-0.7-1.4-1.4-2.5-1.9c0.5-0.1,1.1-0.2,1.9-0.2c1.9,0,3.4,0.7,4.4,2.1c0,0,0,0.1,0.1,0.1
		C-291.5,59.1-292.4,63.7-294.9,67.6z M-303,62c0,0.2-0.3,0.4-0.6,0.4c0,0,0,0-0.1,0c-0.2,0-0.3-0.1-0.5-0.3c0-0.1-0.1-0.2-0.1-0.3
		c0,0,0-0.1,0.1-0.1c0.1-0.1,0.3-0.1,0.6-0.1C-303.3,61.6-303,61.8-303,62z M-295.7,61.6c0,0.1,0,0.2-0.1,0.3s-0.2,0.2-0.4,0.2
		c0,0,0,0-0.1,0c-0.3,0-0.5-0.2-0.5-0.3c0-0.2,0.2-0.3,0.5-0.3C-296,61.4-295.7,61.4-295.7,61.6z"/>
</g>
<g>
	<path class="st51" d="M-231.3,93.6h-24.2c-7.1,0-12.9-5.8-12.9-12.9V56.5c0-7.1,5.8-12.9,12.9-12.9h24.2c7.1,0,12.9,5.8,12.9,12.9
		v24.2C-218.4,87.8-224.2,93.6-231.3,93.6z"/>
	<g>
		<g>
			<g>
				<g>
					
						<linearGradient id="SVGID_00000048481222979778214100000008191823827849307801_" gradientUnits="userSpaceOnUse" x1="-243.4" y1="3.4" x2="-243.4" y2="-36.6" gradientTransform="matrix(1 0 0 -1 0 52)">
						<stop  offset="0" style="stop-color:#DCE0E2"/>
						<stop  offset="1" style="stop-color:#8F9FB2"/>
					</linearGradient>
					<path style="fill:url(#SVGID_00000048481222979778214100000008191823827849307801_);" d="M-233.7,88.6h-19.4
						c-5.7,0-10.3-4.6-10.3-10.3V58.9c0-5.7,4.6-10.3,10.3-10.3h19.4c5.7,0,10.3,4.6,10.3,10.3v19.4
						C-223.4,83.9-228.1,88.6-233.7,88.6z"/>
				</g>
			</g>
		</g>
	</g>
</g>
<linearGradient id="SVGID_00000164501304691958850390000015893771865839486345_" gradientUnits="userSpaceOnUse" x1="-243.4" y1="-5.2395" x2="-243.4" y2="-27.8723" gradientTransform="matrix(1 0 0 -1 0 52)">
	<stop  offset="0" style="stop-color:#DCE0E2"/>
	<stop  offset="1" style="stop-color:#6F7C89"/>
</linearGradient>
<path style="fill:url(#SVGID_00000164501304691958850390000015893771865839486345_);" d="M-250.6,61.2c0.7,0.6,1,0.5,2.3,0.4
	l12.5-0.7c0.3,0,0-0.3,0-0.3l-2.1-1.5c-0.4-0.3-0.9-0.7-1.9-0.6l-12.1,0.9c-0.4,0-0.5,0.3-0.4,0.4L-250.6,61.2z M-249.8,64.1v13.1
	c0,0.7,0.4,1,1.1,0.9l13.7-0.8c0.8,0,0.9-0.5,0.9-1.1v-13c0-0.6-0.2-0.9-0.7-0.8l-14.3,0.8C-249.6,63.3-249.8,63.5-249.8,64.1
	L-249.8,64.1z M-236.3,64.8c0.1,0.4,0,0.8-0.4,0.8l-0.7,0.1v9.7c-0.6,0.3-1.1,0.5-1.5,0.5c-0.7,0-0.9-0.2-1.4-0.9l-4.3-6.8v6.6
	l1.4,0.3c0,0,0,0.8-1.1,0.8l-3,0.2c-0.1-0.2,0-0.6,0.3-0.7l0.8-0.2v-8.7l-1.1-0.1c-0.1-0.4,0.1-1,0.7-1l3.3-0.2l4.5,6.9V66l-1.1-0.1
	c-0.1-0.5,0.3-0.8,0.7-0.9L-236.3,64.8z M-252.9,58.2l12.6-0.9c1.5-0.1,1.9,0,2.9,0.7l4,2.8c0.7,0.5,0.9,0.6,0.9,1.1v15.5
	c0,1-0.4,1.5-1.6,1.6l-14.6,0.9c-0.9,0-1.4-0.1-1.9-0.7l-3-3.8c-0.5-0.7-0.7-1.2-0.7-1.8V59.8C-254.3,59-253.9,58.3-252.9,58.2z"/>
<linearGradient id="SVGID_00000183227671731071064930000013525781970794490769_" gradientUnits="userSpaceOnUse" x1="-243.4" y1="-5.2395" x2="-243.4" y2="-27.8723" gradientTransform="matrix(1 0 0 -1 0 52)">
	<stop  offset="0" style="stop-color:#353535"/>
	<stop  offset="1" style="stop-color:#151515"/>
</linearGradient>
<path style="fill:url(#SVGID_00000183227671731071064930000013525781970794490769_);" d="M-250.6,61.2c0.7,0.6,1,0.5,2.3,0.4
	l12.5-0.7c0.3,0,0-0.3,0-0.3l-2.1-1.5c-0.4-0.3-0.9-0.7-1.9-0.6l-12.1,0.9c-0.4,0-0.5,0.3-0.4,0.4L-250.6,61.2z M-249.8,64.1v13.1
	c0,0.7,0.4,1,1.1,0.9l13.7-0.8c0.8,0,0.9-0.5,0.9-1.1v-13c0-0.6-0.2-0.9-0.7-0.8l-14.3,0.8C-249.6,63.3-249.8,63.5-249.8,64.1
	L-249.8,64.1z M-236.3,64.8c0.1,0.4,0,0.8-0.4,0.8l-0.7,0.1v9.7c-0.6,0.3-1.1,0.5-1.5,0.5c-0.7,0-0.9-0.2-1.4-0.9l-4.3-6.8v6.6
	l1.4,0.3c0,0,0,0.8-1.1,0.8l-3,0.2c-0.1-0.2,0-0.6,0.3-0.7l0.8-0.2v-8.7l-1.1-0.1c-0.1-0.4,0.1-1,0.7-1l3.3-0.2l4.5,6.9V66l-1.1-0.1
	c-0.1-0.5,0.3-0.8,0.7-0.9L-236.3,64.8z M-252.9,58.2l12.6-0.9c1.5-0.1,1.9,0,2.9,0.7l4,2.8c0.7,0.5,0.9,0.6,0.9,1.1v15.5
	c0,1-0.4,1.5-1.6,1.6l-14.6,0.9c-0.9,0-1.4-0.1-1.9-0.7l-3-3.8c-0.5-0.7-0.7-1.2-0.7-1.8V59.8C-254.3,59-253.9,58.3-252.9,58.2z"/>
<g>
	<path class="st55" d="M-367.4,91.7h-24.2c-7.1,0-12.9-5.8-12.9-12.9V54.6c0-7.1,5.8-12.9,12.9-12.9h24.2c7.1,0,12.9,5.8,12.9,12.9
		v24.2C-354.6,86-360.3,91.7-367.4,91.7z"/>
	<g>
		<g>
			<g>
				<g>
					
						<linearGradient id="SVGID_00000016061637428444530070000016184878473230564777_" gradientUnits="userSpaceOnUse" x1="-379.6" y1="5.2521" x2="-379.6" y2="-34.7479" gradientTransform="matrix(1 0 0 -1 0 52)">
						<stop  offset="0" style="stop-color:#9088FF"/>
						<stop  offset="1" style="stop-color:#5865F2"/>
					</linearGradient>
					<path style="fill:url(#SVGID_00000016061637428444530070000016184878473230564777_);" d="M-369.9,86.7h-19.4
						c-5.7,0-10.3-4.6-10.3-10.3V57.1c0-5.7,4.6-10.3,10.3-10.3h19.4c5.7,0,10.3,4.6,10.3,10.3v19.4
						C-359.6,82.1-364.2,86.7-369.9,86.7z"/>
				</g>
			</g>
		</g>
	</g>
</g>
<g>
	<g id="_2_00000105403290655438259080000004599690892376677031_">
		<g id="Discord_Logos_00000015339368837798244070000013304816961511327158_">
			<g id="Discord_Logo_-_Large_-_White_00000062170276513918347990000003093195935158141103_">
				
					<linearGradient id="SVGID_00000137818645423521831740000003721936502902447258_" gradientUnits="userSpaceOnUse" x1="-379.5788" y1="-4.9" x2="-379.5788" y2="-25.1" gradientTransform="matrix(1 0 0 -1 0 52)">
					<stop  offset="0" style="stop-color:#FFFFFF"/>
					<stop  offset="1" style="stop-color:#5A66F2"/>
				</linearGradient>
				<path style="fill:url(#SVGID_00000137818645423521831740000003721936502902447258_);" d="M-370.3,58.6c-1.8-0.8-3.6-1.4-5.5-1.7
					c-0.3,0.5-0.5,0.9-0.7,1.4c-2-0.3-4.1-0.3-6.1,0c-0.2-0.5-0.4-1-0.7-1.4c-1.9,0.3-3.8,0.9-5.5,1.7c-3.5,5.2-4.4,10.2-4,15.1l0,0
					c2,1.5,4.3,2.7,6.7,3.4c0.5-0.7,1-1.5,1.4-2.3c-0.8-0.3-1.6-0.7-2.3-1.1c0.2-0.1,0.4-0.3,0.6-0.4c4.3,2,9.2,2,13.5,0
					c0.2,0.1,0.4,0.3,0.6,0.4c-0.7,0.4-1.5,0.8-2.3,1.1c0.4,0.8,0.9,1.6,1.4,2.3c2.4-0.7,4.7-1.9,6.8-3.4l0,0
					C-365.8,68-367.3,63-370.3,58.6z M-384,70.7c-1.3,0-2.4-1.2-2.4-2.7s1-2.7,2.4-2.7c1.3,0,2.4,1.2,2.4,2.7S-382.6,70.7-384,70.7z
					 M-375.1,70.7c-1.3,0-2.4-1.2-2.4-2.7s1-2.7,2.4-2.7s2.4,1.2,2.4,2.7S-373.8,70.7-375.1,70.7z"/>
			</g>
		</g>
	</g>
	<g id="_2_00000080891021390953466360000012290610452150015669_">
		<g id="Discord_Logos_00000114767948726506065390000008913904537969812113_">
			<g id="Discord_Logo_-_Large_-_White_00000112615048365184050680000004647852928042650552_">
				
					<linearGradient id="SVGID_00000005977658264458337700000000665727647442312324_" gradientUnits="userSpaceOnUse" x1="-379.5788" y1="-4.3612" x2="-379.5788" y2="-24.5612" gradientTransform="matrix(1 0 0 -1 0 52)">
					<stop  offset="0" style="stop-color:#FFFFFF"/>
					<stop  offset="0.8659" style="stop-color:#8F87FF"/>
				</linearGradient>
				<path style="fill:url(#SVGID_00000005977658264458337700000000665727647442312324_);" d="M-370.3,58.1c-1.8-0.8-3.6-1.4-5.5-1.7
					c-0.3,0.5-0.5,0.9-0.7,1.4c-2-0.3-4.1-0.3-6.1,0c-0.2-0.5-0.4-1-0.7-1.4c-1.9,0.3-3.8,0.9-5.5,1.7c-3.5,5.2-4.4,10.2-4,15.1l0,0
					c2,1.5,4.3,2.7,6.7,3.4c0.5-0.7,1-1.5,1.4-2.3c-0.8-0.3-1.6-0.7-2.3-1.1c0.2-0.1,0.4-0.3,0.6-0.4c4.3,2,9.2,2,13.5,0
					c0.2,0.1,0.4,0.3,0.6,0.4c-0.7,0.4-1.5,0.8-2.3,1.1c0.4,0.8,0.9,1.6,1.4,2.3c2.4-0.7,4.7-1.9,6.8-3.4l0,0
					C-365.8,67.4-367.3,62.5-370.3,58.1z M-384,70.1c-1.3,0-2.4-1.2-2.4-2.7s1-2.7,2.4-2.7s2.4,1.2,2.4,2.7
					C-381.6,69-382.7,70.1-384,70.1z M-375.2,70.1c-1.3,0-2.4-1.2-2.4-2.7s1-2.7,2.4-2.7s2.4,1.2,2.4,2.7
					C-372.8,69-373.8,70.1-375.2,70.1z"/>
			</g>
		</g>
	</g>
</g>
<g>
	<g>
		<path class="st15" d="M-288.7,154.5h-24.2c-7.1,0-12.9-5.8-12.9-12.9v-24.2c0-7.1,5.8-12.9,12.9-12.9h24.2
			c7.1,0,12.9,5.8,12.9,12.9v24.2C-275.8,148.7-281.6,154.5-288.7,154.5z"/>
		<g>
			<g>
				<g>
					<g>
						
							<linearGradient id="SVGID_00000070100158499412242300000003971173159571771017_" gradientUnits="userSpaceOnUse" x1="-300.8" y1="-57.5" x2="-300.8" y2="-97.5" gradientTransform="matrix(1 0 0 -1 0 52)">
							<stop  offset="0" style="stop-color:#2A2F35"/>
							<stop  offset="1" style="stop-color:#0A0A0A"/>
						</linearGradient>
						<path style="fill:url(#SVGID_00000070100158499412242300000003971173159571771017_);" d="M-291.1,149.5h-19.4
							c-5.7,0-10.3-4.6-10.3-10.3v-19.4c0-5.7,4.6-10.3,10.3-10.3h19.4c5.7,0,10.3,4.6,10.3,10.3v19.4
							C-280.8,144.9-285.4,149.5-291.1,149.5z"/>
					</g>
				</g>
			</g>
		</g>
	</g>
	
		<linearGradient id="SVGID_00000127031503549001141080000011943877539399535526_" gradientUnits="userSpaceOnUse" x1="-300.75" y1="-66.1533" x2="-300.75" y2="-88.8052" gradientTransform="matrix(1 0 0 -1 0 52)">
		<stop  offset="0" style="stop-color:#FFFFFF"/>
		<stop  offset="1" style="stop-color:#15171A"/>
	</linearGradient>
	<path style="fill:url(#SVGID_00000127031503549001141080000011943877539399535526_);" d="M-300.8,118.2c-6.4,0-11.6,5.2-11.6,11.6
		c0,5.1,3.3,9.5,7.9,11c0.6,0.1,0.8-0.2,0.8-0.6c0-0.3,0-1,0-2c-3.2,0.7-3.9-1.6-3.9-1.6c-0.5-1.3-1.3-1.7-1.3-1.7
		c-1.1-0.7,0.1-0.7,0.1-0.7c1.2,0.1,1.8,1.2,1.8,1.2c1,1.8,2.7,1.3,3.4,1c0.1-0.8-0.2-1.5,0.1-1.8c-2.6-0.3-4.7-1-4.7-5.5
		c0-1.3-0.3-2.5,0.5-3.3c-0.3-0.9-0.5-3,0.5-3.3c0,0,1.3,0.2,3.5,1.7c0.9-0.3,1.9-0.4,2.9-0.4s2,0.1,2.9,0.4
		c2.2-1.5,3.8-1.5,3.8-1.5c0.6,1.6,0.1,2.7,0,3c0.7,0.8,0.7,2.3,0.7,3.5c0,4.5-2.3,5.1-4.8,5.4c0.4,0.3,0.4,1.8,0.4,2.9
		c0,1.6-0.1,2.4-0.1,2.8c0,0.3,0.2,0.7,0.8,0.6c4.6-1.5,8-5.9,8-11C-289.2,123.4-294.4,118.2-300.8,118.2"/>
	
		<linearGradient id="SVGID_00000008112290545902008710000008627849014594476476_" gradientUnits="userSpaceOnUse" x1="-300.75" y1="-66.1533" x2="-300.75" y2="-88.8052" gradientTransform="matrix(1 0 0 -1 0 52)">
		<stop  offset="0" style="stop-color:#FFFFFF"/>
		<stop  offset="1" style="stop-color:#292E34"/>
	</linearGradient>
	<path style="fill:url(#SVGID_00000008112290545902008710000008627849014594476476_);" d="M-300.8,118.2c-6.4,0-11.6,5.2-11.6,11.6
		c0,5.1,3.3,9.5,7.9,11c0.6,0.1,0.8-0.2,0.8-0.6c0-0.3,0-1,0-2c-3.2,0.7-3.9-1.6-3.9-1.6c-0.5-1.3-1.3-1.7-1.3-1.7
		c-1.1-0.7,0.1-0.7,0.1-0.7c1.2,0.1,1.8,1.2,1.8,1.2c1,1.8,2.7,1.3,3.4,1c0.1-0.8,0.4-1.3,0.7-1.6c-2.6-0.3-5.3-1.3-5.3-5.7
		c0-1.3,0.5-2.3,1.2-3.1c-0.1-0.3-0.5-1.5,0.1-3.1c0,0,1-0.3,3.2,1.2c0.9-0.3,1.9-0.4,2.9-0.4s2,0.1,2.9,0.4
		c2.2-1.5,3.2-1.2,3.2-1.2c0.6,1.6,0.2,2.8,0.1,3.1c0.7,0.8,1.2,1.8,1.2,3.1c0,4.5-2.7,5.4-5.3,5.7c0.4,0.3,0.8,1.1,0.8,2.1
		c0,1.6,0,2.8,0,3.2c0,0.3,0.2,0.7,0.8,0.6c4.6-1.5,8-5.9,8-11C-289.2,123.4-294.4,118.2-300.8,118.2"/>
</g>
<g>
	<g>
		<path class="st62" d="M-171.8,153.5H-196c-7.1,0-12.9-5.8-12.9-12.9v-24.2c0-7.1,5.8-12.9,12.9-12.9h24.2
			c7.1,0,12.9,5.8,12.9,12.9v24.2C-158.9,147.8-164.6,153.5-171.8,153.5z"/>
		<g>
			<g>
				<g>
					<g>
						
							<linearGradient id="SVGID_00000047027231574341452430000009495037556529848492_" gradientUnits="userSpaceOnUse" x1="-183.9" y1="-56.547" x2="-183.9" y2="-96.547" gradientTransform="matrix(1 0 0 -1 0 52)">
							<stop  offset="0" style="stop-color:#FFBE4A"/>
							<stop  offset="1" style="stop-color:#E57D00"/>
						</linearGradient>
						<path style="fill:url(#SVGID_00000047027231574341452430000009495037556529848492_);" d="M-174.2,148.5h-19.4
							c-5.7,0-10.3-4.6-10.3-10.3v-19.4c0-5.7,4.6-10.3,10.3-10.3h19.4c5.7,0,10.3,4.6,10.3,10.3v19.4
							C-163.9,143.9-168.5,148.5-174.2,148.5z"/>
					</g>
				</g>
			</g>
		</g>
	</g>
	<g>
		<g>
			<g>
				
					<linearGradient id="SVGID_00000041295396827475029800000002723386584224607373_" gradientUnits="userSpaceOnUse" x1="-186.45" y1="-68.6481" x2="-186.45" y2="-86.2943" gradientTransform="matrix(1 0 0 -1 0 52)">
					<stop  offset="0" style="stop-color:#FFFFFF"/>
					<stop  offset="0.7318" style="stop-color:#D67205"/>
					<stop  offset="1" style="stop-color:#D67205"/>
				</linearGradient>
				<path style="fill:url(#SVGID_00000041295396827475029800000002723386584224607373_);" d="M-184.5,120.8c0-0.1-0.1-0.1-0.2-0.1
					h-4.3c-0.1,0-0.1,0.1-0.1,0.2c0,0.4,0,0.7-0.1,1.1c-0.1,0.2-0.1,0.4-0.2,0.6l-5.3,15.5c0,0.2,0,0.3,0.2,0.3h3.1
					c0.1,0,0.3-0.1,0.3-0.2l1.3-3.9h6.2l1.4,4c0,0.1,0.1,0.2,0.3,0.2h3.5c0.2,0,0.2-0.1,0.2-0.3L-184.5,120.8z M-188.9,130.7
					c0.2-0.7,0.5-1.5,0.7-2.3c0.3-0.8,0.5-1.7,0.8-2.5c0.2-0.7,0.4-1.4,0.6-2.2l0,0c0.1,0.4,0.2,0.8,0.4,1.3c0.1,0.5,0.3,1,0.4,1.5
					c0.2,0.5,0.3,1,0.5,1.5c0.1,0.5,0.3,1,0.4,1.4c0.1,0.4,0.3,0.9,0.4,1.2h-4.2V130.7z"/>
				
					<linearGradient id="SVGID_00000018237924600530997410000006316996106336802211_" gradientUnits="userSpaceOnUse" x1="-174.7" y1="-72.4034" x2="-174.7" y2="-86.2448" gradientTransform="matrix(1 0 0 -1 0 52)">
					<stop  offset="0" style="stop-color:#FFFFFF"/>
					<stop  offset="0.7318" style="stop-color:#D67205"/>
					<stop  offset="1" style="stop-color:#D67205"/>
				</linearGradient>
				<path style="fill:url(#SVGID_00000018237924600530997410000006316996106336802211_);" d="M-172.8,124.6V138
					c0,0.2-0.1,0.3-0.2,0.3h-3.3c-0.2,0-0.3-0.1-0.3-0.3v-13.3c0-0.2,0.1-0.2,0.2-0.2h3.3C-172.8,124.4-172.8,124.5-172.8,124.6z"/>
				
					<linearGradient id="SVGID_00000026126551473695195820000003735295882444463010_" gradientUnits="userSpaceOnUse" x1="-174.8" y1="-67.0311" x2="-174.8" y2="-71.2363" gradientTransform="matrix(1 0 0 -1 0 52)">
					<stop  offset="0" style="stop-color:#FFFFFF"/>
					<stop  offset="0.7318" style="stop-color:#D67205"/>
					<stop  offset="1" style="stop-color:#D67205"/>
				</linearGradient>
				<path style="fill:url(#SVGID_00000026126551473695195820000003735295882444463010_);" d="M-173.3,119.6c0.4,0.4,0.6,0.9,0.6,1.5
					s-0.2,1.1-0.6,1.5c-0.4,0.4-1,0.6-1.5,0.6c-0.6,0-1.1-0.2-1.5-0.6s-0.6-1-0.6-1.5c0-0.6,0.2-1.1,0.6-1.5
					c0.4-0.4,0.9-0.6,1.5-0.6C-174.1,119-173.6,119.2-173.3,119.6z"/>
			</g>
		</g>
		<g>
			<g>
				
					<linearGradient id="SVGID_00000146485351061135290310000002253629120627987881_" gradientUnits="userSpaceOnUse" x1="-186.7696" y1="-68.1388" x2="-186.7696" y2="-85.785" gradientTransform="matrix(1 0 0 -1 0 52)">
					<stop  offset="0" style="stop-color:#FFFFFF"/>
					<stop  offset="8.656976e-02" style="stop-color:#FFFBF4"/>
					<stop  offset="0.238" style="stop-color:#FFF1D7"/>
					<stop  offset="0.4363" style="stop-color:#FFDFA8"/>
					<stop  offset="0.6713" style="stop-color:#FEC868"/>
					<stop  offset="0.7821" style="stop-color:#FEBC47"/>
				</linearGradient>
				<path style="fill:url(#SVGID_00000146485351061135290310000002253629120627987881_);" d="M-184.7,120.3c0-0.1-0.1-0.1-0.2-0.1
					h-4.3c-0.1,0-0.2,0.1-0.1,0.2c0,0.4,0,0.7-0.1,1.1c-0.1,0.2-0.1,0.4-0.2,0.6l-5.4,15.5c-0.1,0.2,0,0.3,0.2,0.3h3.1
					c0.2,0,0.3-0.1,0.3-0.2l1.3-3.9h6.2l1.4,4c0,0.1,0.2,0.2,0.3,0.2h3.5c0.2,0,0.2-0.1,0.2-0.3L-184.7,120.3z M-189.1,130.2
					c0.3-0.7,0.5-1.5,0.7-2.3c0.3-0.8,0.5-1.7,0.8-2.5c0.2-0.7,0.4-1.4,0.6-2.2l0,0c0.1,0.4,0.2,0.8,0.4,1.3c0.1,0.5,0.3,1,0.5,1.5
					s0.3,1,0.5,1.5s0.3,1,0.5,1.4s0.3,0.9,0.4,1.2h-4.4V130.2z"/>
				
					<linearGradient id="SVGID_00000136377164139611160510000003253980535920128907_" gradientUnits="userSpaceOnUse" x1="-174.9" y1="-72.4" x2="-174.9" y2="-85.8" gradientTransform="matrix(1 0 0 -1 0 52)">
					<stop  offset="0" style="stop-color:#FFFFFF"/>
					<stop  offset="0.7318" style="stop-color:#FEBC47"/>
				</linearGradient>
				<path style="fill:url(#SVGID_00000136377164139611160510000003253980535920128907_);" d="M-173,124.6v12.9
					c0,0.2-0.1,0.3-0.2,0.3h-3.3c-0.2,0-0.3-0.1-0.3-0.3v-12.9c0-0.2,0.1-0.2,0.2-0.2h3.3C-173.1,124.4-173,124.5-173,124.6z"/>
				
					<linearGradient id="SVGID_00000060713329962814431030000009718446819764404635_" gradientUnits="userSpaceOnUse" x1="-174.9" y1="-66.8" x2="-174.9" y2="-71.0051" gradientTransform="matrix(1 0 0 -1 0 52)">
					<stop  offset="0" style="stop-color:#FFFFFF"/>
					<stop  offset="0.676" style="stop-color:#FEBC47"/>
				</linearGradient>
				<path style="fill:url(#SVGID_00000060713329962814431030000009718446819764404635_);" d="M-173.4,119.4c0.4,0.4,0.6,0.9,0.6,1.5
					s-0.2,1.1-0.6,1.5c-0.4,0.4-1,0.6-1.5,0.6c-0.6,0-1.1-0.2-1.5-0.6s-0.6-1-0.6-1.5c0-0.6,0.2-1.1,0.6-1.5
					c0.4-0.4,0.9-0.6,1.5-0.6C-174.2,118.8-173.7,119-173.4,119.4z"/>
			</g>
		</g>
	</g>
</g>
<g>
	<g>
		<path class="st27" d="M-225.4,154.3h-24.2c-7.1,0-12.9-5.8-12.9-12.9v-24.2c0-7.1,5.8-12.9,12.9-12.9h24.2
			c7.1,0,12.9,5.8,12.9,12.9v24.2C-212.5,148.5-218.3,154.3-225.4,154.3z"/>
		<g>
			<g>
				<g>
					<g>
						
							<linearGradient id="SVGID_00000041288623522546885420000004281703530210944171_" gradientUnits="userSpaceOnUse" x1="-237.5" y1="-57.3" x2="-237.5" y2="-97.3" gradientTransform="matrix(1 0 0 -1 0 52)">
							<stop  offset="0" style="stop-color:#FFDB43"/>
							<stop  offset="1" style="stop-color:#F9C33D"/>
						</linearGradient>
						<path style="fill:url(#SVGID_00000041288623522546885420000004281703530210944171_);" d="M-227.8,149.3h-19.4
							c-5.7,0-10.3-4.6-10.3-10.3v-19.4c0-5.7,4.6-10.3,10.3-10.3h19.4c5.7,0,10.3,4.6,10.3,10.3V139
							C-217.5,144.7-222.1,149.3-227.8,149.3z"/>
					</g>
				</g>
			</g>
		</g>
	</g>
	<g>
		<g>
			<g>
				
					<linearGradient id="SVGID_00000101096158092976941300000015680984528265138323_" gradientUnits="userSpaceOnUse" x1="-237.55" y1="-66.384" x2="-237.55" y2="-89.0359" gradientTransform="matrix(1 0 0 -1 0 52)">
					<stop  offset="0" style="stop-color:#FFFFFF"/>
					<stop  offset="1" style="stop-color:#D1A537"/>
				</linearGradient>
				<path style="fill:url(#SVGID_00000101096158092976941300000015680984528265138323_);" d="M-229,122.7l-6.8-3.9
					c-1.1-0.6-2.4-0.6-3.5,0l-1.8,1v4.5v1v4.3c0,1.3,0.7,2.4,1.8,3.1c0.5,0.3,1.2,0.5,1.8,0.5s1.2-0.2,1.8-0.5l0,0
					c1.1-0.6,1.8-1.8,1.8-3.1s-0.7-2.4-1.8-3.1l0,0c-0.5-0.3-1.2-0.5-1.8-0.5v-2c0.6,0,1.2,0.2,1.8,0.5l1.9,1.1
					c1.1,0.6,1.8,1.8,1.8,3.1v2.2c0,1.3-0.7,2.4-1.8,3.1l-1.9,1.1c-0.5,0.3-1.2,0.5-1.8,0.5s-1.2-0.2-1.8-0.5l-1.9-1.1
					c-1.1-0.6-1.8-1.8-1.8-3.1v-1.1v-1.1v-2.9V121l-3.1,1.8c-1.1,0.6-1.8,1.8-1.8,3.1v7.8c0,1.3,0.7,2.4,1.8,3.1l6.8,3.9
					c1.1,0.6,2.4,0.6,3.5,0l6.8-3.9c1.1-0.6,1.8-1.8,1.8-3.1v-7.8C-227.2,124.5-227.9,123.4-229,122.7z M-239.7,126.9
					c-0.2,0.2-0.4,0.3-0.5,0.5V125l0.5-0.3V126.9z M-238.3,126.3c-0.2,0-0.4,0.1-0.5,0.2v-2.2c0.2-0.1,0.4-0.1,0.5-0.2V126.3z"/>
			</g>
		</g>
		<g>
			<g>
				
					<linearGradient id="SVGID_00000130621672655653538920000016081365278262703542_" gradientUnits="userSpaceOnUse" x1="-237.55" y1="-65.5785" x2="-237.55" y2="-88.2304" gradientTransform="matrix(1 0 0 -1 0 52)">
					<stop  offset="0" style="stop-color:#FFFFFF"/>
					<stop  offset="1" style="stop-color:#FDDA42"/>
				</linearGradient>
				<path style="fill:url(#SVGID_00000130621672655653538920000016081365278262703542_);" d="M-229,121.9l-6.8-3.9
					c-1.1-0.6-2.4-0.6-3.5,0l-1.8,1v4.5v1v4.3c0,1.3,0.7,2.4,1.8,3.1c0.5,0.3,1.2,0.5,1.8,0.5s1.2-0.2,1.8-0.5l0,0
					c1.1-0.6,1.8-1.8,1.8-3.1s-0.7-2.4-1.8-3.1l0,0c-0.5-0.3-1.2-0.5-1.8-0.5V123c0.6,0,1.2,0.2,1.8,0.5l1.9,1.1
					c1.1,0.6,1.8,1.8,1.8,3.1v2.2c0,1.3-0.7,2.4-1.8,3.1l-1.9,1.1c-0.5,0.3-1.2,0.5-1.8,0.5s-1.2-0.2-1.8-0.5l-1.9-1.1
					c-1.1-0.6-1.8-1.8-1.8-3.1v-1.1v-1.1v-2.9V120l-3.1,1.8c-1.1,0.6-1.8,1.8-1.8,3.1v7.8c0,1.3,0.7,2.4,1.8,3.1l6.8,3.9
					c1.1,0.6,2.4,0.6,3.5,0l6.8-3.9c1.1-0.6,1.8-1.8,1.8-3.1V125C-227.3,123.7-227.9,122.6-229,121.9z M-239.7,126.1
					c-0.2,0.2-0.4,0.3-0.5,0.5v-2.5l0.5-0.3V126.1z M-238.4,125.5c-0.2,0-0.4,0.1-0.5,0.2v-2.2c0.2-0.1,0.4-0.1,0.5-0.2V125.5z"/>
			</g>
		</g>
	</g>
</g>
<g>
	<path class="st27" d="M-364.7,151.4h-24.2c-7.1,0-12.9-5.8-12.9-12.9v-24.2c0-7.1,5.8-12.9,12.9-12.9h24.2
		c7.1,0,12.9,5.8,12.9,12.9v24.2C-351.8,145.7-357.5,151.4-364.7,151.4z"/>
	<g>
		<g>
			<g>
				<g>
					
						<linearGradient id="SVGID_00000177452587001669790480000004139396436679238317_" gradientUnits="userSpaceOnUse" x1="-376.8" y1="-54.4496" x2="-376.8" y2="-94.4496" gradientTransform="matrix(1 0 0 -1 0 52)">
						<stop  offset="0" style="stop-color:#FF7A64"/>
						<stop  offset="1" style="stop-color:#CC342D"/>
					</linearGradient>
					<path style="fill:url(#SVGID_00000177452587001669790480000004139396436679238317_);" d="M-367.1,146.4h-19.4
						c-5.7,0-10.3-4.6-10.3-10.3v-19.4c0-5.7,4.6-10.3,10.3-10.3h19.4c5.7,0,10.3,4.6,10.3,10.3v19.4
						C-356.8,141.8-361.4,146.4-367.1,146.4z"/>
				</g>
			</g>
		</g>
	</g>
</g>
<g>
	
		<linearGradient id="SVGID_00000111163894071250527930000001726691135440709015_" gradientUnits="userSpaceOnUse" x1="-381.5786" y1="-66.5429" x2="-369.8444" y2="-86.867" gradientTransform="matrix(1 0 0 -1 0 52)">
		<stop  offset="0" style="stop-color:#FFFFFF"/>
		<stop  offset="0.5978" style="stop-color:#C12F2F"/>
		<stop  offset="1" style="stop-color:#C12F2F"/>
	</linearGradient>
	<path style="fill:url(#SVGID_00000111163894071250527930000001726691135440709015_);" d="M-369,115.5c2.9,0.5,3.7,2.5,3.6,4.5l0,0
		l-1.3,17l-16.9,1.2l0,0c-1.4-0.1-4.5-0.2-4.7-4.5l1.6-2.8l2.7,6.3l0.5,1.1l2.7-8.7l0,0l0,0l8.8,2.8l-1.3-5.2l-0.9-3.7l8.4-0.5
		l-0.6-0.5l-6-4.9L-369,115.5L-369,115.5z M-383.3,120.3c3.4-3.4,7.7-5.3,9.4-3.6c1.7,1.7-0.1,5.8-3.5,9.2c-3.4,3.4-7.7,5.4-9.4,3.8
		C-388.4,127.8-386.7,123.6-383.3,120.3L-383.3,120.3z"/>
	
		<linearGradient id="SVGID_00000097484448039708772980000000257456113091575969_" gradientUnits="userSpaceOnUse" x1="-376.8459" y1="-62.7255" x2="-376.8459" y2="-85.3774" gradientTransform="matrix(1 0 0 -1 0 52)">
		<stop  offset="0" style="stop-color:#FFFFFF"/>
		<stop  offset="1" style="stop-color:#FD7762"/>
	</linearGradient>
	<path style="fill:url(#SVGID_00000097484448039708772980000000257456113091575969_);" d="M-369,114.7c2.9,0.5,3.7,2.5,3.6,4.5l0,0
		l-1.3,17l-16.9,1.2l0,0c-1.4-0.1-4.5-0.2-4.7-4.5l1.6-2.8l2.7,6.3l0.5,1.1l2.7-8.7l0,0l0,0l8.8,2.8l-1.3-5.2l-0.9-3.7l8.4-0.5
		l-0.6-0.5l-6-4.9L-369,114.7L-369,114.7z M-383.3,119.5c3.4-3.4,7.7-5.3,9.4-3.6c1.7,1.7-0.1,5.8-3.5,9.2c-3.4,3.4-7.7,5.4-9.4,3.8
		C-388.4,127-386.7,122.8-383.3,119.5L-383.3,119.5z"/>
</g>
<g>
	<path class="st27" d="M-172.4,209.1h-24.2c-7.1,0-12.9-5.8-12.9-12.9V172c0-7.1,5.8-12.9,12.9-12.9h24.2c7.1,0,12.9,5.8,12.9,12.9
		v24.2C-159.5,203.3-165.3,209.1-172.4,209.1z"/>
	<g>
		<g>
			<g>
				<g>
					
						<linearGradient id="SVGID_00000047039079599212588570000005710687938196365996_" gradientUnits="userSpaceOnUse" x1="-184.5" y1="-112.1111" x2="-184.5" y2="-152.1111" gradientTransform="matrix(1 0 0 -1 0 52)">
						<stop  offset="0" style="stop-color:#FF5942"/>
						<stop  offset="1" style="stop-color:#CB3837"/>
					</linearGradient>
					<path style="fill:url(#SVGID_00000047039079599212588570000005710687938196365996_);" d="M-174.8,204.1h-19.4
						c-5.7,0-10.3-4.6-10.3-10.3v-19.4c0-5.7,4.6-10.3,10.3-10.3h19.4c5.7,0,10.3,4.6,10.3,10.3v19.4
						C-164.5,199.5-169.1,204.1-174.8,204.1z"/>
				</g>
			</g>
		</g>
	</g>
</g>
<g>
	
		<linearGradient id="SVGID_00000013187432481347162560000018305684365812474535_" gradientUnits="userSpaceOnUse" x1="-184.5" y1="173.1463" x2="-184.5" y2="195.9463">
		<stop  offset="0" style="stop-color:#E5E5E5"/>
		<stop  offset="1" style="stop-color:#A52F2F"/>
	</linearGradient>
	<path style="fill:url(#SVGID_00000013187432481347162560000018305684365812474535_);" d="M-194.2,173.1c-0.9,0-1.7,0.7-1.7,1.7
		v19.5c0,0.9,0.7,1.7,1.7,1.7h19.5c0.9,0,1.7-0.7,1.7-1.7v-19.5c0-0.9-0.7-1.7-1.7-1.7H-194.2z M-191.4,177.9l13.8,0l0,13.8h-3.5
		l0-10.4h-3.5l0,10.4h-6.9L-191.4,177.9z"/>
	
		<linearGradient id="SVGID_00000047044383805748669330000018138674504175275666_" gradientUnits="userSpaceOnUse" x1="-184.5" y1="172.2759" x2="-184.5" y2="195.0759">
		<stop  offset="0" style="stop-color:#FFFFFF"/>
		<stop  offset="1" style="stop-color:#FE5842"/>
	</linearGradient>
	<path style="fill:url(#SVGID_00000047044383805748669330000018138674504175275666_);" d="M-194.2,172.3c-0.9,0-1.7,0.7-1.7,1.7
		v19.5c0,0.9,0.7,1.7,1.7,1.7h19.5c0.9,0,1.7-0.7,1.7-1.7V174c0-0.9-0.7-1.7-1.7-1.7H-194.2z M-191.4,177l13.8,0l0,13.8h-3.5l0-10.4
		h-3.5l0,10.4h-6.9L-191.4,177z"/>
</g>
<g>
	
		<linearGradient id="SVGID_00000027565802768372557510000007171662421438229899_" gradientUnits="userSpaceOnUse" x1="25" y1="13.8196" x2="25" y2="36.6196">
		<stop  offset="0" style="stop-color:#FFFFFF"/>
		<stop  offset="0.5464" style="stop-color:#101112"/>
	</linearGradient>
	<path style="fill:url(#SVGID_00000027565802768372557510000007171662421438229899_);" d="M23.3,13.8V20l1.7,2.3l1.7-2.3v-6.1H23.3z
		 M26.7,20v2.9l2.8-0.9l3.6-4.9l-2.8-2L26.7,20z M29.5,22l-1.7,2.4l2.8,0.9l5.8-1.9l-1.1-3.3L29.5,22z M30.5,25.2l-2.8,0.9l1.7,2.4
		l5.8,1.9l1.1-3.3L30.5,25.2z M29.5,28.5l-2.8-0.9v2.9l3.6,5l2.8-2L29.5,28.5z M26.7,30.5L25,28.1l-1.7,2.3v6.1h3.4L26.7,30.5z
		 M23.3,30.5v-2.9l-2.8,0.9l-3.6,4.9l2.8,2L23.3,30.5z M20.5,28.5l1.7-2.4l-2.8-0.9l-5.8,1.9l1.1,3.3L20.5,28.5z M19.5,25.2l2.8-0.9
		L20.5,22l-5.8-1.9l-1.1,3.3L19.5,25.2z M20.5,22l2.8,0.9V20l-3.6-5l-2.8,2L20.5,22z"/>
	
		<linearGradient id="SVGID_00000047779789665332382130000002821891598674381237_" gradientUnits="userSpaceOnUse" x1="25" y1="13.5268" x2="25" y2="36.3268">
		<stop  offset="0" style="stop-color:#FFFFFF"/>
		<stop  offset="1" style="stop-color:#41474A"/>
	</linearGradient>
	<path style="fill:url(#SVGID_00000047779789665332382130000002821891598674381237_);" d="M23.3,13.5v6.1L25,22l1.7-2.3v-6.1H23.3z
		 M26.7,19.7v2.9l2.8-0.9l3.6-4.9l-2.8-2L26.7,19.7z M29.5,21.7L27.8,24l2.8,0.9l5.8-1.9l-1.1-3.3L29.5,21.7z M30.5,24.9l-2.8,0.9
		l1.7,2.4l5.8,1.9l1.1-3.3L30.5,24.9z M29.5,28.2l-2.8-0.9v2.9l3.6,5l2.8-2L29.5,28.2z M26.7,30.2L25,27.8l-1.7,2.3v6.1h3.4
		L26.7,30.2z M23.3,30.2v-2.9l-2.8,0.9l-3.6,4.9l2.8,2L23.3,30.2z M20.5,28.2l1.7-2.4l-2.8-0.9l-5.8,1.9l1.1,3.3L20.5,28.2z
		 M19.5,24.9l2.8-0.9l-1.7-2.4l-5.8-1.9L13.6,23L19.5,24.9z M20.5,21.7l2.8,0.9v-2.9l-3.6-5l-2.8,2L20.5,21.7z"/>
</g>
<g>
	<path class="st15" d="M-227.2,208.7h-24.2c-7.1,0-12.9-5.8-12.9-12.9v-24.2c0-7.1,5.8-12.9,12.9-12.9h24.2
		c7.1,0,12.9,5.8,12.9,12.9v24.2C-214.3,202.9-220.1,208.7-227.2,208.7z"/>
	<g>
		<g>
			<g>
				<g>
					
						<linearGradient id="SVGID_00000114053635778832788060000017176212962851516601_" gradientUnits="userSpaceOnUse" x1="-239.2618" y1="-111.6759" x2="-239.2618" y2="-151.6759" gradientTransform="matrix(1 0 0 -1 0 52)">
						<stop  offset="0" style="stop-color:#2A2F35"/>
						<stop  offset="1" style="stop-color:#0A0A0A"/>
					</linearGradient>
					<path style="fill:url(#SVGID_00000114053635778832788060000017176212962851516601_);" d="M-229.6,203.7H-249
						c-5.7,0-10.3-4.6-10.3-10.3V174c0-5.7,4.6-10.3,10.3-10.3h19.4c5.7,0,10.3,4.6,10.3,10.3v19.4
						C-219.3,199.1-223.9,203.7-229.6,203.7z"/>
				</g>
			</g>
		</g>
	</g>
</g>
<g>
	
		<linearGradient id="SVGID_00000075129746829820019750000004283169084414885026_" gradientUnits="userSpaceOnUse" x1="-239.2618" y1="172.4223" x2="-239.2618" y2="195.2224">
		<stop  offset="0" style="stop-color:#FFFFFF"/>
		<stop  offset="0.5464" style="stop-color:#101112"/>
	</linearGradient>
	<path style="fill:url(#SVGID_00000075129746829820019750000004283169084414885026_);" d="M-241,172.4v6.1l1.7,2.3l1.7-2.3v-6.1
		H-241z M-237.6,178.6v2.9l2.8-0.9l3.6-4.9l-2.8-2L-237.6,178.6z M-234.8,180.6l-1.7,2.4l2.8,0.9l5.8-1.9l-1.1-3.3L-234.8,180.6z
		 M-233.7,183.8l-2.8,0.9l1.7,2.4l5.8,1.9l1.1-3.3L-233.7,183.8z M-234.8,187.1l-2.8-0.9v2.9l3.6,5l2.8-2L-234.8,187.1z
		 M-237.6,189.1l-1.7-2.3l-1.7,2.3v6.1h3.4L-237.6,189.1z M-241,189.1v-2.9l-2.8,0.9l-3.6,4.9l2.8,2L-241,189.1z M-243.7,187.1
		l1.7-2.4l-2.8-0.9l-5.8,1.9l1.1,3.3L-243.7,187.1z M-244.8,183.8l2.8-0.9l-1.7-2.4l-5.8-1.9l-1.1,3.3L-244.8,183.8z M-243.7,180.6
		l2.8,0.9v-2.9l-3.6-5l-2.8,2L-243.7,180.6z"/>
	
		<linearGradient id="SVGID_00000106869210394146181490000006767085012945826223_" gradientUnits="userSpaceOnUse" x1="-239.2618" y1="172.1295" x2="-239.2618" y2="194.9295">
		<stop  offset="0" style="stop-color:#FFFFFF"/>
		<stop  offset="1" style="stop-color:#41474A"/>
	</linearGradient>
	<path style="fill:url(#SVGID_00000106869210394146181490000006767085012945826223_);" d="M-241,172.1v6.1l1.7,2.3l1.7-2.3v-6.1
		H-241z M-237.6,178.3v2.9l2.8-0.9l3.6-4.9l-2.8-2L-237.6,178.3z M-234.8,180.3l-1.7,2.4l2.8,0.9l5.8-1.9l-1.1-3.3L-234.8,180.3z
		 M-233.7,183.5l-2.8,0.9l1.7,2.4l5.8,1.9l1.1-3.3L-233.7,183.5z M-234.8,186.8l-2.8-0.9v2.9l3.6,5l2.8-2L-234.8,186.8z
		 M-237.6,188.8l-1.7-2.3l-1.7,2.3v6.1h3.4L-237.6,188.8z M-241,188.8v-2.9l-2.8,0.9l-3.6,4.9l2.8,2L-241,188.8z M-243.7,186.8
		l1.7-2.4l-2.8-0.9l-5.8,1.9l1.1,3.3L-243.7,186.8z M-244.8,183.5l2.8-0.9l-1.7-2.4l-5.8-1.9l-1.1,3.3L-244.8,183.5z M-243.7,180.3
		l2.8,0.9v-2.9l-3.6-5l-2.8,2L-243.7,180.3z"/>
</g>
</svg>
