<?xml version="1.0" encoding="utf-8"?>
<!-- Generator: Adobe Illustrator 27.3.1, SVG Export Plug-In . SVG Version: 6.00 Build 0)  -->
<svg version="1.1" id="Camada_1" xmlns="http://www.w3.org/2000/svg" xmlns:xlink="http://www.w3.org/1999/xlink" x="0px" y="0px"
	 width="50px" height="50px" viewBox="0 0 50 50" style="enable-background:new 0 0 50 50;" xml:space="preserve">
<style type="text/css">
	.st0{fill:#2B2611;}
	.st1{fill:url(#SVGID_1_);}
	.st2{fill:url(#SVGID_00000101105576321905588100000006126090441550219954_);}
	.st3{fill:url(#SVGID_00000162324107936630892280000004571861223326208162_);}
	.st4{fill:url(#SVGID_00000009585592091000512990000004035736300328719502_);}
	.st5{fill:url(#SVGID_00000044885489261310303350000017162739158141775534_);}
	.st6{display:none;fill:#141D14;}
	.st7{fill:#281613;}
	.st8{fill:url(#SVGID_00000061453052026705677790000016613303024320321687_);}
	.st9{fill:url(#SVGID_00000110456403171989790870000006231907786438572978_);}
	.st10{fill:url(#SVGID_00000065042972597355908190000014370197797417455009_);}
	.st11{fill:#111921;}
	.st12{fill:url(#SVGID_00000023983951202369364620000011413704146063197574_);}
	.st13{fill:url(#SVGID_00000085251816394506139370000014997883344475425167_);}
	.st14{fill:url(#SVGID_00000128465896703375286760000015626969768261719211_);}
	.st15{fill:#271219;}
	.st16{fill:url(#SVGID_00000035488899957688853410000003475826976056712367_);}
	.st17{fill:#19191B;}
	.st18{fill:url(#SVGID_00000049943484269624099170000006043116678638521020_);}
	.st19{fill:url(#SVGID_00000170268135053978289410000003961845540622134698_);}
	.st20{fill:url(#SVGID_00000022518695949525322500000017735601799227251856_);}
	.st21{fill:url(#SVGID_00000086679713845985338440000001589795430887821715_);}
	.st22{fill:url(#SVGID_00000164503279522443234680000014930810992191505330_);}
	.st23{fill:#141D14;}
	.st24{fill:url(#SVGID_00000159458843809462586870000012080162433779163532_);}
	.st25{fill:url(#SVGID_00000005965356814037180570000005638528680468476566_);}
	.st26{fill:url(#SVGID_00000127742244781333797670000004591786813281173160_);}
	.st27{fill:#291614;}
	.st28{fill:url(#SVGID_00000128485253423888697380000006898753109243738782_);}
	.st29{fill:url(#SVGID_00000064331697716481722740000012539608422750353840_);}
	.st30{fill:url(#SVGID_00000150086074460785825070000015957758521029354115_);}
	.st31{fill:url(#SVGID_00000147901675752184804470000000028813306063892880_);}
	.st32{fill:url(#SVGID_00000122682662520852875290000006191004220063868094_);}
	.st33{fill:#111B24;}
	.st34{fill:url(#SVGID_00000147909991627274796520000006382686590995625142_);}
	.st35{fill:url(#SVGID_00000002347098765526289400000013031143849158304418_);}
	.st36{fill:url(#SVGID_00000037654084483609686660000012359003714937098134_);}
	.st37{fill:#161122;}
	.st38{fill:url(#SVGID_00000032642551694233172480000000388865816808672189_);}
	.st39{fill:url(#SVGID_00000042709769482756475750000017633109851566641041_);}
	.st40{fill:url(#SVGID_00000136406539405197162490000015115931251761030332_);}
	.st41{fill:#001E36;}
	.st42{fill:url(#SVGID_00000013193558227127537710000010136051389872889279_);}
	.st43{fill:url(#SVGID_00000049202310308381301410000003714785847197244054_);}
	.st44{fill:url(#SVGID_00000046338923436896997740000001724466089659462558_);}
	.st45{fill:url(#SVGID_00000120559886022860889370000009980651383837121447_);}
	.st46{fill:url(#SVGID_00000126281090271582810700000004260184884582550404_);}
	.st47{fill:#161F25;}
	.st48{fill:url(#SVGID_00000162351340924254718710000006432229172673668793_);}
	.st49{fill:url(#SVGID_00000116213434467583557100000004425208483569491852_);}
	.st50{fill:url(#SVGID_00000173875083169286077900000006665364142343292296_);}
	.st51{fill:#242628;}
	.st52{fill:url(#SVGID_00000052062497290265049010000018137527329829918120_);}
	.st53{fill:url(#SVGID_00000151518051552598763860000007360653785673361038_);}
	.st54{fill:url(#SVGID_00000143595770224019175860000010733100403207507119_);}
	.st55{fill:#1D1D2C;}
	.st56{fill:url(#SVGID_00000060032577228591067840000005005858170350783134_);}
	.st57{fill:url(#SVGID_00000034811292342393637990000004083705276211900600_);}
	.st58{fill:url(#SVGID_00000085941867427628708790000001967087826542717621_);}
	.st59{fill:#151515;}
	.st60{fill:url(#SVGID_00000102524320416119029710000000972448682360542652_);}
	.st61{fill:url(#SVGID_00000082333675459326242770000008549941529206648490_);}
	.st62{fill:url(#SVGID_00000026880166695865167400000002436099692441362306_);}
	.st63{fill:#281C11;}
	.st64{fill:url(#SVGID_00000008829945898852762550000017657800657403766931_);}
	.st65{fill:url(#SVGID_00000090988797500891960070000008079187813011716489_);}
	.st66{fill:url(#SVGID_00000000914749946489433940000016263146116097686972_);}
	.st67{fill:url(#SVGID_00000060726140677948842150000008625275002867310772_);}
	.st68{fill:url(#SVGID_00000063619642943324571230000007730495776571572866_);}
	.st69{fill:url(#SVGID_00000091006653369562775820000006086071129954041233_);}
	.st70{fill:url(#SVGID_00000093879067090376096540000006450474131402964379_);}
	.st71{fill:url(#SVGID_00000007405276598170120310000018199607433321863075_);}
	.st72{fill:url(#SVGID_00000027581563067942673970000003207803029695354498_);}
	.st73{fill:url(#SVGID_00000064335889566479988550000016114578775595140003_);}
	.st74{fill:url(#SVGID_00000106845747346630585930000002379107887432328106_);}
	.st75{fill:url(#SVGID_00000076604616935657327950000016392701953893219005_);}
	.st76{fill:url(#SVGID_00000039097300142049205530000006424985889966965639_);}
	.st77{fill:url(#SVGID_00000125584072906558625770000012717504405771786166_);}
	.st78{fill:url(#SVGID_00000112598942979606495070000006807201961281970860_);}
	.st79{fill:url(#SVGID_00000083079009417587908650000018240333049070299796_);}
	.st80{fill:url(#SVGID_00000037661544239378941540000003876679607634608520_);}
	.st81{fill:url(#SVGID_00000037663667181008471490000006401956628586504625_);}
	.st82{fill:url(#SVGID_00000168807936895817902370000001406065168652683948_);}
	.st83{fill:#19262B;}
	.st84{fill:url(#SVGID_00000044887587750614292380000002831727654688797117_);}
	.st85{fill:url(#SVGID_00000015315138528309323790000005729666386293958050_);}
	.st86{fill:url(#SVGID_00000042698838213011243800000015912097251537896127_);}
	.st87{fill:url(#SVGID_00000073713385365024728940000004886558955274551430_);}
	.st88{fill:url(#SVGID_00000056417507322221646320000015533734279264296098_);}
	.st89{fill:url(#SVGID_00000011020279099515185810000017661256819417714598_);}
</style>
<path class="st0" d="M-171.2-30.3h-24.2c-7.1,0-12.9-5.8-12.9-12.9v-24.2c0-7.1,5.8-12.9,12.9-12.9h24.2c7.1,0,12.9,5.8,12.9,12.9
	v24.2C-158.3-36.1-164.1-30.3-171.2-30.3z"/>
<g>
	<g>
		<g>
			
				<linearGradient id="SVGID_1_" gradientUnits="userSpaceOnUse" x1="-183.3" y1="952.7" x2="-183.3" y2="992.7" gradientTransform="matrix(1 0 0 1 0 -1028)">
				<stop  offset="0" style="stop-color:#FAF92A"/>
				<stop  offset="1" style="stop-color:#F4C121"/>
			</linearGradient>
			<path class="st1" d="M-173.6-35.3H-193c-5.7,0-10.3-4.6-10.3-10.3V-65c0-5.7,4.6-10.3,10.3-10.3h19.4c5.7,0,10.3,4.6,10.3,10.3
				v19.4C-163.3-39.9-167.9-35.3-173.6-35.3z"/>
		</g>
	</g>
	<g>
		<g>
			<g>
				<g>
					<g>
						
							<linearGradient id="SVGID_00000027574596503888062590000014841747113007106230_" gradientUnits="userSpaceOnUse" x1="-175.7" y1="962.445" x2="-175.7" y2="983.211" gradientTransform="matrix(1 0 0 1 0 -1028)">
							<stop  offset="0" style="stop-color:#FFFFFF"/>
							<stop  offset="1" style="stop-color:#E2AA2D"/>
						</linearGradient>
						<path style="fill:url(#SVGID_00000027574596503888062590000014841747113007106230_);" d="M-168.1-51.3v1.3
							c-0.1,0.3-0.1,0.7-0.2,1c-0.4,1.6-1.5,2.7-3,3.4c-2,1-6.7,1.5-9.8-0.8c-1-0.7-1.7-1.6-2.3-2.6c0.2-0.2,0.5-0.4,0.8-0.6
							c1-0.7,1.9-1.1,2.8-1.4c0.1,0.2,0.4,0.6,0.7,0.9c1.2,1.4,3.3,2,5.1,1.4c1.2-0.4,1.8-1.4,1.4-2.5c-0.1-0.4-0.4-0.8-0.8-1
							c-0.7-0.4-1.5-0.7-2.2-1.1c-1.1-0.5-2.2-0.9-3.2-1.5c-1.5-0.8-2.6-1.9-3-3.6c-0.5-1.9-0.3-3.7,1.1-5.3
							c0.8-0.9,1.9-1.5,3.1-1.8c1.5-0.4,3.1-0.3,4.6,0.1c1.7,0.5,2.8,1.6,3.7,3c-1.1,0.7-2.3,1.4-3.4,2.1c-0.2-0.3-0.4-0.5-0.6-0.8
							c-0.8-0.9-1.8-1.2-2.9-0.9c-1.4,0.3-2,2-0.9,3c0.4,0.3,0.8,0.6,1.3,0.8c1,0.5,2.1,0.9,3.1,1.3c1.1,0.5,2.2,1.1,3.1,1.9
							c0.9,0.9,1.4,2,1.6,3.2C-168.1-51.4-168.1-51.4-168.1-51.3z"/>
						
							<linearGradient id="SVGID_00000083780415932108527920000004035536810615570073_" gradientUnits="userSpaceOnUse" x1="-191.85" y1="962.4596" x2="-191.85" y2="983.0118" gradientTransform="matrix(1 0 0 1 0 -1028)">
							<stop  offset="0" style="stop-color:#FFFFFF"/>
							<stop  offset="1" style="stop-color:#E2AA2D"/>
						</linearGradient>
						<path style="fill:url(#SVGID_00000083780415932108527920000004035536810615570073_);" d="M-185.2-65.5v14.1
							c0,0.9-0.1,1.7-0.3,2.6c-0.6,1.8-1.7,3-3.6,3.5c-2.1,0.6-4.1,0.5-6.1-0.4c-1.4-0.6-2.6-2-3.3-3.4c1.2-0.7,2.6-1.1,3.8-1.8
							c0.2,0.4,0.5,0.7,0.7,1c0.7,1,1.7,1.2,2.9,1c0.8-0.1,1.3-0.6,1.4-1.3c0.1-0.5,0.2-1,0.2-1.5c0-4.5,0-9,0-13.6
							c0-0.4,0-0.4,0.4-0.4h3.9L-185.2-65.5L-185.2-65.5z"/>
					</g>
				</g>
			</g>
		</g>
		<g>
			<g>
				<g>
					<g>
						
							<linearGradient id="SVGID_00000062907283626458251490000009066692713965175176_" gradientUnits="userSpaceOnUse" x1="-175.7" y1="962.2051" x2="-175.7" y2="982.4132" gradientTransform="matrix(1 0 0 1 0 -1028)">
							<stop  offset="0" style="stop-color:#FFFFFF"/>
							<stop  offset="1" style="stop-color:#F9E280"/>
						</linearGradient>
						<path style="fill:url(#SVGID_00000062907283626458251490000009066692713965175176_);" d="M-168.3-51.9v1.3
							c-0.1,0.3-0.1,0.6-0.2,0.9c-0.4,1.5-1.4,2.6-2.9,3.3c-2.6,1.3-6.9,1.1-9.5-0.8c-0.9-0.7-1.7-1.5-2.2-2.5
							c1.1-0.6,2.3-1.3,3.4-1.9c0.3,0.3,0.5,0.6,0.7,0.9c1.2,1.4,3.2,1.9,4.9,1.3c1.2-0.4,1.8-1.4,1.4-2.4c-0.1-0.4-0.4-0.7-0.8-0.9
							c-0.7-0.4-1.4-0.7-2.1-1.1c-1-0.5-2.1-0.9-3.1-1.4c-1.4-0.8-2.5-1.9-2.9-3.5c-0.5-1.9-0.3-3.6,1.1-5.1c0.8-0.9,1.8-1.4,3-1.7
							c1.5-0.4,3-0.3,4.5,0.1c1.6,0.5,2.7,1.5,3.6,2.9c-1.1,0.7-2.2,1.3-3.3,2c-0.2-0.3-0.4-0.5-0.6-0.7c-0.7-0.9-1.7-1.1-2.9-0.9
							c-1.4,0.3-1.9,2-0.9,2.9c0.4,0.3,0.8,0.6,1.3,0.8c1,0.5,2,0.9,3,1.3c1.1,0.5,2.1,1.1,3,1.9c0.9,0.9,1.4,1.9,1.5,3.1
							C-168.4-52.1-168.3-52-168.3-51.9z"/>
						
							<linearGradient id="SVGID_00000121974885180392721910000008502926555572047279_" gradientUnits="userSpaceOnUse" x1="-191.85" y1="962.4456" x2="-191.85" y2="982.4313" gradientTransform="matrix(1 0 0 1 0 -1028)">
							<stop  offset="0" style="stop-color:#FFFFFF"/>
							<stop  offset="1" style="stop-color:#F9E280"/>
						</linearGradient>
						<path style="fill:url(#SVGID_00000121974885180392721910000008502926555572047279_);" d="M-185.5-65.6v13.7
							c0,0.8-0.1,1.7-0.3,2.5c-0.5,1.7-1.7,2.9-3.5,3.4c-2,0.6-4,0.5-5.9-0.3c-1.4-0.6-2.3-1.7-3-3c1.2-0.7,2.3-1.3,3.5-2
							c0.2,0.3,0.5,0.7,0.7,1c0.7,0.9,1.7,1.2,2.8,1c0.8-0.1,1.2-0.6,1.4-1.3c0.1-0.5,0.2-1,0.2-1.4c0-4.4,0-8.8,0-13.2
							c0-0.4,0-0.4,0.4-0.4H-185.5z"/>
					</g>
				</g>
			</g>
		</g>
	</g>
</g>
<rect class="st6" width="50" height="50"/>
<path class="st7" d="M-228.7-29.5h-24.2c-7.1,0-12.9-5.8-12.9-12.9v-24.2c0-7.1,5.8-12.9,12.9-12.9h24.2c7.1,0,12.9,5.8,12.9,12.9
	v24.2C-215.8-35.3-221.5-29.5-228.7-29.5z"/>
<g>
	<g>
		<g>
			
				<linearGradient id="SVGID_00000068658554776576617490000000744758775183472570_" gradientUnits="userSpaceOnUse" x1="-240.8" y1="953.5" x2="-240.8" y2="993.5" gradientTransform="matrix(1 0 0 1 0 -1028)">
				<stop  offset="0" style="stop-color:#E9952F"/>
				<stop  offset="1" style="stop-color:#E34F26"/>
			</linearGradient>
			<path style="fill:url(#SVGID_00000068658554776576617490000000744758775183472570_);" d="M-231.1-34.5h-19.4
				c-5.7,0-10.3-4.6-10.3-10.3v-19.4c0-5.7,4.6-10.3,10.3-10.3h19.4c5.7,0,10.3,4.6,10.3,10.3v19.4
				C-220.8-39.2-225.4-34.5-231.1-34.5z"/>
		</g>
	</g>
</g>
<g>
	<g>
		
			<linearGradient id="SVGID_00000053521995223576118380000010608883920642789519_" gradientUnits="userSpaceOnUse" x1="-240.85" y1="962.5" x2="-240.85" y2="985" gradientTransform="matrix(1 0 0 1 0 -1028)">
			<stop  offset="0" style="stop-color:#FFFFFF"/>
			<stop  offset="1" style="stop-color:#D34124"/>
		</linearGradient>
		<path style="fill:url(#SVGID_00000053521995223576118380000010608883920642789519_);" d="M-230.9-65.5h-19.9c0,0.5,0.1,1,0.1,1.5
			c0.1,1.6,0.2,3.2,0.3,4.7c0.1,1.8,0.3,3.5,0.4,5.3c0.1,1.5,0.2,3.1,0.3,4.6c0.1,1.1,0.2,2.3,0.2,3.4c0,0.2,0.1,0.2,0.2,0.3
			c2.7,0.9,5.4,1.8,8.1,2.6c0.1,0,0.1,0.1,0.2,0.1h0.1c0.3-0.1,0.7-0.2,1-0.3c2.4-0.8,4.8-1.6,7.3-2.4c0.2-0.1,0.2-0.1,0.2-0.3
			c0.2-2.9,0.4-5.7,0.6-8.6c0.2-2.2,0.3-4.3,0.5-6.5c0.1-1.3,0.2-2.7,0.3-4C-230.9-65.3-230.9-65.4-230.9-65.5z M-234.6-59.6h-9.8
			c0.1,1.1,0.2,2.2,0.2,3.4h9.3c0,0.5-0.1,1-0.1,1.5c-0.1,1.4-0.2,2.7-0.3,4.1c-0.1,0.7-0.1,1.5-0.2,2.2c0,0.1-0.1,0.2-0.2,0.3
			c-1.7,0.6-3.4,1.1-5.1,1.7c-0.1,0-0.2,0-0.3,0c-1.7-0.6-3.4-1.1-5.1-1.7c-0.1,0-0.2-0.1-0.2-0.3c0-0.7-0.1-1.5-0.2-2.2
			c0-0.1,0-0.2,0-0.2h2.6c0,0.2,0,0.4,0.1,0.6c0,0.1,0.1,0.2,0.1,0.2c0.9,0.3,1.8,0.6,2.6,0.9c0.1,0,0.2,0,0.2,0
			c0.9-0.3,1.8-0.6,2.6-0.9c0.1,0,0.1-0.1,0.1-0.2c0.1-1.1,0.2-2.1,0.2-3.3h-8.9c-0.2-2.9-0.4-5.8-0.6-8.7h12.8
			C-234.4-61.3-234.5-60.5-234.6-59.6z"/>
	</g>
	<g>
		
			<linearGradient id="SVGID_00000035515103836142346240000004577457813459050900_" gradientUnits="userSpaceOnUse" x1="-240.8" y1="961.9" x2="-240.8" y2="984.5519" gradientTransform="matrix(1 0 0 1 0 -1028)">
			<stop  offset="0" style="stop-color:#FFFFFF"/>
			<stop  offset="1" style="stop-color:#F7803E"/>
		</linearGradient>
		<path style="fill:url(#SVGID_00000035515103836142346240000004577457813459050900_);" d="M-230.8-66.1h-20c0,0.5,0.1,1,0.1,1.5
			c0.1,1.6,0.2,3.2,0.3,4.8c0.1,1.8,0.3,3.5,0.4,5.3c0.1,1.5,0.2,3.1,0.3,4.6c0.1,1.1,0.2,2.3,0.2,3.4c0,0.2,0.1,0.2,0.2,0.3
			c2.7,0.9,5.4,1.8,8.1,2.7c0.1,0,0.1,0.1,0.2,0.1h0.1c0.3-0.1,0.7-0.2,1-0.4c2.4-0.8,4.9-1.6,7.3-2.4c0.2-0.1,0.2-0.1,0.2-0.3
			c0.2-2.9,0.4-5.8,0.6-8.7c0.2-2.2,0.3-4.4,0.5-6.6c0.1-1.3,0.2-2.7,0.3-4C-230.8-65.9-230.8-66-230.8-66.1z M-234.5-60.1h-9.8
			c0.1,1.1,0.2,2.3,0.2,3.4h9.4c0,0.5-0.1,1-0.1,1.5c-0.1,1.4-0.2,2.7-0.3,4.1c-0.1,0.7-0.1,1.5-0.2,2.2c0,0.1-0.1,0.2-0.2,0.3
			c-1.7,0.6-3.4,1.1-5.1,1.7c-0.1,0-0.2,0-0.3,0c-1.7-0.6-3.4-1.1-5.1-1.7c-0.1,0-0.2-0.1-0.2-0.3c0-0.7-0.1-1.5-0.2-2.2
			c0-0.1,0-0.2,0-0.2h2.6c0,0.2,0,0.4,0.1,0.6c0,0.1,0.1,0.2,0.1,0.2c0.9,0.3,1.8,0.6,2.7,0.9c0.1,0,0.2,0,0.2,0
			c0.9-0.3,1.8-0.6,2.7-0.9c0.1,0,0.1-0.1,0.1-0.2c0.1-1.1,0.2-2.2,0.2-3.3h-9c-0.2-2.9-0.4-5.8-0.6-8.7h12.9
			C-234.4-61.9-234.4-61-234.5-60.1z"/>
	</g>
</g>
<path class="st11" d="M-290.4-30.9h-24.2c-7.1,0-12.9-5.8-12.9-12.9V-68c0-7.1,5.8-12.9,12.9-12.9h24.2c7.1,0,12.9,5.8,12.9,12.9
	v24.2C-277.6-36.7-283.3-30.9-290.4-30.9z"/>
<g>
	<g>
		<g>
			<g>
				
					<linearGradient id="SVGID_00000068673675098271309060000011353080799812646330_" gradientUnits="userSpaceOnUse" x1="-302.6" y1="952.1" x2="-302.6" y2="992.1" gradientTransform="matrix(1 0 0 1 0 -1028)">
					<stop  offset="0" style="stop-color:#31BAFF"/>
					<stop  offset="1" style="stop-color:#1572B6"/>
				</linearGradient>
				<path style="fill:url(#SVGID_00000068673675098271309060000011353080799812646330_);" d="M-292.9-35.9h-19.4
					c-5.7,0-10.3-4.6-10.3-10.3v-19.4c0-5.7,4.6-10.3,10.3-10.3h19.4c5.7,0,10.3,4.6,10.3,10.3v19.4
					C-282.6-40.5-287.2-35.9-292.9-35.9z"/>
			</g>
		</g>
	</g>
	<g>
		<g>
			
				<linearGradient id="SVGID_00000118369912462905286920000010653647694073106350_" gradientUnits="userSpaceOnUse" x1="-302.5" y1="960.9747" x2="-302.5" y2="983.8097" gradientTransform="matrix(1 0 0 1 0 -1028)">
				<stop  offset="0" style="stop-color:#FFFFFF"/>
				<stop  offset="1" style="stop-color:#146799"/>
			</linearGradient>
			<path style="fill:url(#SVGID_00000118369912462905286920000010653647694073106350_);" d="M-312.5-67c0.1,1.6,0.3,3.2,0.4,4.8
				s0.3,3.2,0.4,4.8s0.3,3.2,0.4,4.8s0.3,3.2,0.4,4.8c0,0.4,0.1,0.8,0.1,1.2c0,0.1,0.1,0.2,0.2,0.2c2.6,0.7,5.2,1.5,7.9,2.2
				c0.1,0,0.2,0,0.3,0c2.6-0.7,5.2-1.5,7.8-2.2c0.1,0,0.2-0.1,0.2-0.2c0.1-1.1,0.2-2.2,0.3-3.3c0.1-1.4,0.3-2.9,0.4-4.3
				c0.1-1.4,0.2-2.8,0.4-4.2c0.1-1.4,0.3-2.9,0.4-4.3s0.2-2.8,0.4-4.2L-312.5-67L-312.5-67z M-296.4-61.8c-0.2,1.9-0.3,3.8-0.5,5.8
				c-0.2,1.7-0.3,3.5-0.5,5.2c0,0.2,0,0.5-0.1,0.7c0,0.1-0.1,0.2-0.1,0.2c-1.6,0.5-3.3,0.9-4.9,1.4c-0.1,0-0.2,0-0.3,0
				c-1.6-0.4-3.2-0.9-4.8-1.3c-0.1,0-0.2-0.1-0.2-0.2c-0.1-1.1-0.2-2.2-0.3-3.3c0-0.2,0-0.4,0-0.6c0.8,0,1.6,0,2.4,0
				c0,0,0.1,0.1,0.1,0.2c0.1,0.6,0.1,1.1,0.2,1.7c0,0.2,0.1,0.2,0.2,0.3c0.8,0.2,1.6,0.4,2.4,0.6c0.1,0,0.2,0,0.3,0
				c0.8-0.2,1.6-0.4,2.4-0.7c0.2,0,0.2-0.1,0.2-0.3c0.1-1.1,0.2-2.2,0.3-3.3h-8.8c-0.1-0.8-0.2-1.6-0.2-2.4c0.1,0,0.2,0,0.3,0
				c2.9,0,5.8-0.1,8.7-0.1c0.3,0,0.3,0,0.3-0.3c0-0.7,0.1-1.5,0.2-2.2h-9.7c-0.1-0.8-0.1-1.6-0.2-2.4h12.5
				C-296.3-62.5-296.4-62.2-296.4-61.8z"/>
		</g>
		
			<linearGradient id="SVGID_00000022534768508676895510000007372610384197379729_" gradientUnits="userSpaceOnUse" x1="-302.55" y1="960.4" x2="-302.55" y2="983.2348" gradientTransform="matrix(1 0 0 1 0 -1028)">
			<stop  offset="0" style="stop-color:#FFFFFF"/>
			<stop  offset="1" style="stop-color:#30B8FD"/>
		</linearGradient>
		<path style="fill:url(#SVGID_00000022534768508676895510000007372610384197379729_);" d="M-312.6-67.6c0.1,1.6,0.3,3.2,0.4,4.8
			c0.1,1.6,0.3,3.2,0.4,4.8s0.3,3.2,0.4,4.8s0.3,3.2,0.4,4.8c0,0.4,0.1,0.8,0.1,1.2c0,0.1,0.1,0.2,0.2,0.2c2.6,0.7,5.3,1.5,7.9,2.2
			c0.1,0,0.2,0,0.3,0c2.6-0.7,5.2-1.5,7.9-2.2c0.1,0,0.2-0.1,0.2-0.2c0.1-1.1,0.2-2.2,0.3-3.3c0.1-1.4,0.3-2.9,0.4-4.3
			c0.1-1.4,0.2-2.8,0.4-4.2c0.1-1.4,0.3-2.9,0.4-4.3s0.2-2.8,0.4-4.2L-312.6-67.6L-312.6-67.6z M-296.3-62.4
			c-0.2,1.9-0.3,3.8-0.5,5.8c-0.2,1.7-0.3,3.5-0.5,5.2c0,0.2,0,0.5-0.1,0.7c0,0.1-0.1,0.2-0.1,0.2c-1.6,0.5-3.3,0.9-4.9,1.4
			c-0.1,0-0.2,0-0.3,0c-1.6-0.4-3.2-0.9-4.8-1.3c-0.1,0-0.2-0.1-0.2-0.2c-0.1-1.1-0.2-2.2-0.3-3.3c0-0.2,0-0.4-0.1-0.6
			c0.8,0,1.6,0,2.4,0c0,0,0.1,0.1,0.1,0.2c0.1,0.6,0.1,1.1,0.2,1.7c0,0.2,0.1,0.2,0.2,0.3c0.8,0.2,1.6,0.4,2.4,0.6
			c0.1,0,0.2,0,0.3,0c0.8-0.2,1.6-0.4,2.5-0.7c0.2,0,0.2-0.1,0.2-0.3c0.1-1.1,0.2-2.2,0.4-3.3h-8.9c-0.1-0.8-0.2-1.6-0.3-2.4
			c0.1,0,0.2,0,0.3,0c2.9,0,5.8-0.1,8.8-0.1c0.3,0,0.3,0,0.3-0.3c0.1-0.7,0.1-1.5,0.2-2.2h-9.8c-0.1-0.8-0.1-1.6-0.2-2.4h12.7
			C-296.3-63-296.3-62.7-296.3-62.4z"/>
	</g>
</g>
<g>
	<path class="st15" d="M37.1,50H12.9C5.8,50,0,44.2,0,37.1V12.9C0,5.8,5.8,0,12.9,0h24.2C44.2,0,50,5.8,50,12.9v24.2
		C50,44.2,44.2,50,37.1,50z"/>
	<g>
		<g>
			<g>
				<g>
					
						<linearGradient id="SVGID_00000066485441343310042530000003454923853888465841_" gradientUnits="userSpaceOnUse" x1="25" y1="1073" x2="25" y2="1033" gradientTransform="matrix(1 0 0 1 0 -1028)">
						<stop  offset="0" style="stop-color:#E0234E"/>
						<stop  offset="1" style="stop-color:#FF5162"/>
					</linearGradient>
					<path style="fill:url(#SVGID_00000066485441343310042530000003454923853888465841_);" d="M34.7,45H15.3C9.6,45,5,40.4,5,34.7
						V15.3C5,9.6,9.6,5,15.3,5h19.4C40.4,5,45,9.6,45,15.3v19.4C45,40.4,40.4,45,34.7,45z"/>
				</g>
			</g>
		</g>
	</g>
</g>
<g>
	<path class="st17" d="M-364.7-31.8h-24.2c-7.1,0-12.9-5.8-12.9-12.9v-24.2c0-7.1,5.8-12.9,12.9-12.9h24.2c7.1,0,12.9,5.8,12.9,12.9
		v24.2C-351.8-37.5-357.5-31.8-364.7-31.8z"/>
	<g>
		<g>
			<g>
				<g>
					
						<linearGradient id="SVGID_00000176042218682025056110000003126308093654784408_" gradientUnits="userSpaceOnUse" x1="-376.8" y1="951.2" x2="-376.8" y2="991.2" gradientTransform="matrix(1 0 0 1 0 -1028)">
						<stop  offset="0" style="stop-color:#42484C"/>
						<stop  offset="1" style="stop-color:#1D1E21"/>
					</linearGradient>
					<path style="fill:url(#SVGID_00000176042218682025056110000003126308093654784408_);" d="M-367.1-36.8h-19.4
						c-5.7,0-10.3-4.6-10.3-10.3v-19.4c0-5.7,4.6-10.3,10.3-10.3h19.4c5.7,0,10.3,4.6,10.3,10.3v19.4
						C-356.8-41.4-361.4-36.8-367.1-36.8z"/>
				</g>
			</g>
		</g>
	</g>
	<g transform="matrix(0.42 0 0 0.42 12 12)">
		<g>
			<g transform="matrix(1 0 0 1 10.5 1.28)">
				
					<linearGradient id="SVGID_00000062163411148385876450000012635097627477183893_" gradientUnits="userSpaceOnUse" x1="12357.6357" y1="11007.999" x2="12357.6357" y2="11025.251" gradientTransform="matrix(0.1764 0 0 0.1764 -3098.0369 -2126.6108)">
					<stop  offset="0" style="stop-color:#CCCCCC"/>
					<stop  offset="0.1606" style="stop-color:#B7B8B8"/>
					<stop  offset="0.492" style="stop-color:#828384"/>
					<stop  offset="0.9621" style="stop-color:#2C2E32"/>
					<stop  offset="1" style="stop-color:#25272B"/>
				</linearGradient>
				<path style="fill:url(#SVGID_00000062163411148385876450000012635097627477183893_);" d="M-900.4-143.7h-1.9
					c-1.4,0-2.7-0.6-3.5-1.8l-12.4-16.5l-12.3,16.5c-0.8,1.1-2.1,1.8-3.5,1.8h-1.9l15.7-21l-15-20.1h1.9c1.4,0,2.7,0.6,3.5,1.8
					l11.6,15.5l11.6-15.5c0.8-1.1,2.1-1.8,3.5-1.8h1.9l-15,20.1L-900.4-143.7z"/>
			</g>
			<g transform="matrix(1 0 0 1 -11 1)">
				
					<linearGradient id="SVGID_00000145761546073041263110000015255758742493300622_" gradientUnits="userSpaceOnUse" x1="12350.6787" y1="11008.4336" x2="12350.6787" y2="11026.1221" gradientTransform="matrix(0.1764 0 0 0.1764 -3110.8594 -2126.5427)">
					<stop  offset="0" style="stop-color:#CCCCCC"/>
					<stop  offset="0.1606" style="stop-color:#B7B8B8"/>
					<stop  offset="0.492" style="stop-color:#828384"/>
					<stop  offset="0.9621" style="stop-color:#2C2E32"/>
					<stop  offset="1" style="stop-color:#25272B"/>
				</linearGradient>
				<path style="fill:url(#SVGID_00000145761546073041263110000015255758742493300622_);" d="M-914.1-162v-4.9
					c0-10.8-9.8-19.4-21.1-17.6c-8.8,1.4-15.1,9.3-15.1,18v4.6c0,10.6,7.9,19.1,17.9,19.2c8.4,0.1,15.4-5.4,17.6-13h-1.7
					c-1,0-1.9,0.6-2.4,1.5c-2.9,5.8-9.5,9.5-16.8,7.8c-6.7-1.5-11.3-7.7-11.3-14.5v-1.3h32.9L-914.1-162L-914.1-162z M-947-165.7
					c0-7.6,4.6-13.8,11.4-15.3c9.7-2.1,18.2,5.1,18.2,14.2v1.6H-947V-165.7z"/>
			</g>
		</g>
	</g>
	<g>
		<g transform="matrix(1 0 0 1 10.5 1.28)">
			
				<linearGradient id="SVGID_00000044894005214240134570000014437595391665371526_" gradientUnits="userSpaceOnUse" x1="-400.8" y1="961.3412" x2="-400.8" y2="978.3183" gradientTransform="matrix(1 0 0 1 21 -1028)">
				<stop  offset="0" style="stop-color:#FFFFFF"/>
				<stop  offset="1" style="stop-color:#41474A"/>
			</linearGradient>
			<path style="fill:url(#SVGID_00000044894005214240134570000014437595391665371526_);" d="M-372.3-49.7h-0.8
				c-0.6,0-1.1-0.3-1.5-0.7l-5.2-6.8l-5.2,6.8c-0.3,0.5-0.9,0.7-1.5,0.7h-0.8l6.6-8.7l-6.3-8.3h0.8c0.6,0,1.1,0.3,1.5,0.7l4.9,6.4
				l4.9-6.4c0.3-0.5,0.9-0.7,1.5-0.7h0.8l-6.3,8.3L-372.3-49.7z"/>
		</g>
		<g transform="matrix(1 0 0 1 -11 1)">
			
				<linearGradient id="SVGID_00000029757312875283459430000008368890804284738978_" gradientUnits="userSpaceOnUse" x1="-351.25" y1="960.9246" x2="-351.25" y2="978.9116" gradientTransform="matrix(1 0 0 1 -22 -1028)">
				<stop  offset="0" style="stop-color:#FFFFFF"/>
				<stop  offset="1" style="stop-color:#41474A"/>
			</linearGradient>
			<path style="fill:url(#SVGID_00000029757312875283459430000008368890804284738978_);" d="M-365.6-57.4v-2.1
				c0-4.6-4.1-8.3-8.9-7.5c-3.7,0.6-6.4,4-6.4,7.7v2c0,4.5,3.3,8.2,7.5,8.2c3.5,0,6.5-2.3,7.4-5.5h-0.7c-0.4,0-0.8,0.2-1,0.6
				c-1.2,2.5-4,4.1-7.1,3.3c-2.8-0.6-4.8-3.3-4.8-6.2v-0.5H-365.6z M-379.4-59c0-3.2,1.9-5.9,4.8-6.6c4.1-0.9,7.7,2.2,7.7,6.1v0.7
				h-12.4V-59H-379.4z"/>
		</g>
	</g>
</g>
<path class="st23" d="M-368.8,36.4H-393c-7.1,0-12.9-5.8-12.9-12.9V-0.7c0-7.1,5.8-12.9,12.9-12.9h24.2c7.1,0,12.9,5.8,12.9,12.9
	v24.2C-355.9,30.6-361.7,36.4-368.8,36.4z"/>
<g>
	<g>
		<g>
			<g>
				
					<linearGradient id="SVGID_00000102544733244603977570000006834524714742281603_" gradientUnits="userSpaceOnUse" x1="-380.9" y1="1019.4" x2="-380.9" y2="1059.4" gradientTransform="matrix(1 0 0 1 0 -1028)">
					<stop  offset="0" style="stop-color:#46CC46"/>
					<stop  offset="1" style="stop-color:#155019"/>
				</linearGradient>
				<path style="fill:url(#SVGID_00000102544733244603977570000006834524714742281603_);" d="M-371.2,31.4h-19.4
					c-5.7,0-10.3-4.6-10.3-10.3V1.7c0-5.7,4.6-10.3,10.3-10.3h19.4c5.7,0,10.3,4.6,10.3,10.3v19.4
					C-360.9,26.8-365.5,31.4-371.2,31.4z"/>
			</g>
		</g>
	</g>
</g>
<g>
	
		<linearGradient id="SVGID_00000126316823296142942800000004142529865174985881_" gradientUnits="userSpaceOnUse" x1="-381.05" y1="1027.875" x2="-381.05" y2="1051.3552" gradientTransform="matrix(1 0 0 1 0 -1028)">
		<stop  offset="0" style="stop-color:#FFFFFF"/>
		<stop  offset="1" style="stop-color:#113D17"/>
	</linearGradient>
	<path style="fill:url(#SVGID_00000126316823296142942800000004142529865174985881_);" d="M-380.9,23.4c-0.3,0-0.6-0.1-0.9-0.2
		l-2.8-1.7c-0.4-0.2-0.2-0.3-0.1-0.4c0.6-0.2,0.7-0.2,1.3-0.6c0.1,0,0.1,0,0.2,0l2.1,1.3c0.1,0,0.2,0,0.3,0l8.3-5
		c0.1,0,0.1-0.1,0.1-0.2V6.7c0-0.1-0.1-0.2-0.1-0.2l-8.3-5c-0.1,0-0.2,0-0.3,0l-8.3,5c-0.1,0-0.1,0.1-0.1,0.2v9.9
		c0,0.1,0.1,0.2,0.1,0.2l2.3,1.4c1.2,0.6,2-0.1,2-0.9V7.1c0-0.1,0.1-0.3,0.2-0.3h1c0.1,0,0.3,0.1,0.3,0.3v10.3
		c0,1.7-0.9,2.7-2.5,2.7c-0.5,0-0.9,0-1.9-0.5l-2.2-1.3c-0.5-0.3-0.9-0.9-0.9-1.6v-10c0-0.6,0.3-1.2,0.9-1.6l8.3-5
		c0.5-0.3,1.2-0.3,1.7,0l8.3,5c0.5,0.3,0.9,0.9,0.9,1.6v9.9c0,0.6-0.3,1.2-0.9,1.6l-8.3,5C-380.3,23.3-380.6,23.4-380.9,23.4z
		 M-374.2,13.6c0-1.9-1.2-2.4-3.8-2.7c-2.6-0.4-2.8-0.5-2.8-1.2c0-0.5,0.2-1.2,2.1-1.2c1.7,0,2.3,0.4,2.6,1.6c0,0.1,0.1,0.2,0.2,0.2
		h1.1c0.1,0,0.1,0,0.2-0.1c0-0.1,0.1-0.1,0.1-0.2c-0.2-2.1-1.5-3-4.2-3c-2.4,0-3.8,1-3.8,2.8c0,1.9,1.4,2.4,3.7,2.6
		c2.7,0.3,2.9,0.7,2.9,1.2c0,1-0.7,1.4-2.5,1.4c-2.2,0-2.7-0.6-2.8-1.7c0-0.1-0.1-0.2-0.2-0.2h-1.1c-0.1,0-0.2,0.1-0.2,0.2
		c0,1.4,0.8,3.2,4.4,3.2C-375.7,16.5-374.2,15.5-374.2,13.6z"/>
	
		<linearGradient id="SVGID_00000136369796447505178760000016631041656180254360_" gradientUnits="userSpaceOnUse" x1="-380.9" y1="1027.3704" x2="-380.9" y2="1050.8506" gradientTransform="matrix(1 0 0 1 0 -1028)">
		<stop  offset="0" style="stop-color:#FFFFFF"/>
		<stop  offset="1" style="stop-color:#45C945"/>
	</linearGradient>
	<path style="fill:url(#SVGID_00000136369796447505178760000016631041656180254360_);" d="M-380.9,22.9c-0.3,0-0.6-0.1-0.9-0.2
		l-2.9-1.7c-0.4-0.2-0.2-0.3-0.1-0.4c0.6-0.2,0.7-0.2,1.3-0.6c0.1,0,0.1,0,0.2,0l2.2,1.3c0.1,0,0.2,0,0.3,0l8.6-5
		c0.1,0,0.1-0.1,0.1-0.2v-10c0-0.1-0.1-0.2-0.1-0.2l-8.6-5c-0.1,0-0.2,0-0.3,0l-8.6,5c-0.1,0-0.1,0.1-0.1,0.2V16
		c0,0.1,0.1,0.2,0.1,0.2l2.4,1.4c1.3,0.6,2.1-0.1,2.1-0.9V7c0-0.1,0.1-0.2,0.3-0.2h1.1c0.1,0,0.2,0.1,0.2,0.2v9.8
		c0,1.7-0.9,2.7-2.5,2.7c-0.5,0-0.9,0-2-0.5l-2.3-1.3c-0.6-0.3-0.9-0.9-0.9-1.6v-10c0-0.6,0.3-1.2,0.9-1.6l8.6-5
		c0.5-0.3,1.3-0.3,1.8,0l8.6,5c0.6,0.3,0.9,0.9,0.9,1.6V16c0,0.6-0.3,1.2-0.9,1.6l-8.6,5C-380.3,22.8-380.6,22.9-380.9,22.9z
		 M-374,13.1c0-1.9-1.3-2.4-3.9-2.7c-2.7-0.4-2.9-0.5-2.9-1.2c0-0.5,0.2-1.2,2.2-1.2c1.8,0,2.4,0.4,2.7,1.6c0,0.1,0.1,0.2,0.2,0.2
		h1.1c0.1,0,0.1,0,0.2-0.1c0-0.1,0.1-0.1,0.1-0.2c-0.2-2.1-1.5-3-4.3-3c-2.5,0-3.9,1-3.9,2.8c0,1.9,1.5,2.4,3.8,2.6
		c2.8,0.3,3,0.7,3,1.2c0,1-0.8,1.4-2.6,1.4c-2.3,0-2.8-0.6-2.9-1.7c0-0.1-0.1-0.2-0.2-0.2h-1.1c-0.1,0-0.2,0.1-0.2,0.2
		c0,1.4,0.8,3.2,4.6,3.2C-375.5,16-374,14.9-374,13.1z"/>
</g>
<g>
	<path class="st27" d="M-239.6,37h-24.2c-7.1,0-12.9-5.8-12.9-12.9V-0.1c0-7.1,5.8-12.9,12.9-12.9h24.2c7.1,0,12.9,5.8,12.9,12.9
		v24.2C-226.7,31.2-232.5,37-239.6,37z"/>
	<g>
		<g>
			<g>
				<g>
					
						<linearGradient id="SVGID_00000119820728141988349500000008158300209819069575_" gradientUnits="userSpaceOnUse" x1="-251.7992" y1="1020" x2="-251.7992" y2="1060" gradientTransform="matrix(1 0 0 1 0 -1028)">
						<stop  offset="0" style="stop-color:#FF603B"/>
						<stop  offset="1" style="stop-color:#992E25"/>
					</linearGradient>
					<path style="fill:url(#SVGID_00000119820728141988349500000008158300209819069575_);" d="M-242.1,32h-19.4
						c-5.7,0-10.3-4.6-10.3-10.3V2.3c0-5.7,4.6-10.3,10.3-10.3h19.4c5.7,0,10.3,4.6,10.3,10.3v19.4C-231.7,27.4-236.4,32-242.1,32z"
						/>
				</g>
			</g>
		</g>
	</g>
</g>
<g>
	
		<linearGradient id="SVGID_00000121256288348623298820000015168819958938777482_" gradientUnits="userSpaceOnUse" x1="-251.7059" y1="1028.5017" x2="-251.7059" y2="1052.5363" gradientTransform="matrix(1 0 0 1 0 -1028)">
		<stop  offset="0" style="stop-color:#FFFFFF"/>
		<stop  offset="0.5531" style="stop-color:#9E3026"/>
	</linearGradient>
	<path style="fill:url(#SVGID_00000121256288348623298820000015168819958938777482_);" d="M-239.8,11.4L-250.7,1
		c-0.6-0.6-1.6-0.6-2.3,0l-2.3,2.2l2.9,2.8c0.7-0.2,1.4-0.1,2,0.4c0.5,0.5,0.7,1.3,0.5,1.9l2.8,2.7c0.7-0.2,1.4-0.1,2,0.4
		c0.7,0.7,0.7,1.9,0,2.6c-0.7,0.7-2,0.7-2.7,0c-0.6-0.5-0.7-1.3-0.4-2l-2.6-2.5V16c0.2,0.1,0.4,0.2,0.5,0.3c0.7,0.7,0.7,1.9,0,2.6
		s-2,0.7-2.7,0s-0.7-1.9,0-2.6c0.2-0.2,0.4-0.3,0.6-0.4V9.3c-0.2-0.1-0.4-0.2-0.6-0.4c-0.6-0.5-0.7-1.3-0.4-2l-2.8-2.7l-7.5,7.2
		c-0.6,0.6-0.6,1.6,0,2.2l10.9,10.5c0.6,0.6,1.6,0.6,2.3,0l10.8-10.4C-239.1,13-239.1,12.1-239.8,11.4"/>
	
		<linearGradient id="SVGID_00000085956455615336894510000009599690466024910008_" gradientUnits="userSpaceOnUse" x1="-251.6433" y1="1027.4021" x2="-251.6433" y2="1051.4366" gradientTransform="matrix(1 0 0 1 0 -1028)">
		<stop  offset="0" style="stop-color:#FFFFFF"/>
		<stop  offset="1" style="stop-color:#FC5F3A"/>
	</linearGradient>
	<path style="fill:url(#SVGID_00000085956455615336894510000009599690466024910008_);" d="M-239.7,10.3l-10.9-10.5
		c-0.6-0.6-1.6-0.6-2.3,0l-2.3,2.2l2.9,2.8c0.7-0.2,1.4-0.1,2,0.4c0.5,0.5,0.7,1.3,0.5,1.9l2.8,2.7c0.7-0.2,1.4-0.1,2,0.4
		c0.7,0.7,0.7,1.9,0,2.6s-2,0.7-2.7,0c-0.6-0.5-0.7-1.3-0.4-2l-2.6-2.5v6.5c0.2,0.1,0.4,0.2,0.5,0.3c0.7,0.7,0.7,1.9,0,2.6
		c-0.7,0.7-2,0.7-2.7,0s-0.7-1.9,0-2.6c0.2-0.2,0.4-0.3,0.6-0.4V8.2c-0.2-0.1-0.4-0.2-0.6-0.4c-0.6-0.5-0.7-1.3-0.4-2l-2.8-2.7
		l-7.5,7.2c-0.6,0.6-0.6,1.6,0,2.2l10.9,10.5c0.6,0.6,1.6,0.6,2.3,0l10.8-10.4C-239.1,11.9-239.1,11-239.7,10.3"/>
</g>
<g>
	
		<linearGradient id="SVGID_00000015353566530343009580000005276276633838433460_" gradientUnits="userSpaceOnUse" x1="60.1931" y1="1003.2523" x2="60.1931" y2="1025.9042" gradientTransform="matrix(1 0 0 1 0 -1028)">
		<stop  offset="0" style="stop-color:#FFFFFF"/>
		<stop  offset="0.6844" style="stop-color:#0C5190"/>
		<stop  offset="1" style="stop-color:#00488A"/>
	</linearGradient>
	<path style="fill:url(#SVGID_00000015353566530343009580000005276276633838433460_);" d="M70.9-22.4l-4.7-2.3
		c-0.5-0.3-1.2-0.2-1.6,0.3l-9.1,8.2l-4-3c-0.4-0.3-0.9-0.3-1.2,0.1L49-17.9c-0.4,0.4-0.4,1-0.1,1.3c0,0,0,0,0.1,0.1l3.4,3.1
		L49-10.3c-0.4,0.4-0.4,1-0.1,1.3c0,0,0,0,0.1,0.1l1.3,1.1c0.3,0.3,0.9,0.3,1.2,0.1l4-3l9.1,8.2c0.4,0.4,1,0.5,1.6,0.3l4.7-2.3
		c0.5-0.2,0.8-0.7,0.8-1.3v-15.3C71.7-21.6,71.4-22.1,70.9-22.4z M66-8.3l-6.9-5.2l6.9-5.2V-8.3z"/>
	
		<linearGradient id="SVGID_00000097480085612372712450000009845106441715609262_" gradientUnits="userSpaceOnUse" x1="60.1931" y1="1002.5393" x2="60.1931" y2="1025.1912" gradientTransform="matrix(1 0 0 1 0 -1028)">
		<stop  offset="0" style="stop-color:#FFFFFF"/>
		<stop  offset="1" style="stop-color:#0091E3"/>
	</linearGradient>
	<path style="fill:url(#SVGID_00000097480085612372712450000009845106441715609262_);" d="M70.9-23.1l-4.7-2.3
		c-0.5-0.3-1.2-0.2-1.6,0.3l-9.1,8.2l-4-3c-0.4-0.3-0.9-0.3-1.2,0.1L49-18.6c-0.4,0.4-0.4,1-0.1,1.3c0,0,0,0,0.1,0.1l3.4,3.1L49-11
		c-0.4,0.4-0.4,1-0.1,1.3c0,0,0,0,0.1,0.1l1.3,1.1c0.3,0.3,0.9,0.3,1.2,0.1l4-3l9.1,8.2c0.4,0.4,1.1,0.5,1.6,0.3l4.7-2.3
		c0.5-0.2,0.8-0.7,0.8-1.3v-15.3C71.7-22.3,71.4-22.8,70.9-23.1z M66-9l-6.9-5.2l6.9-5.2V-9z"/>
</g>
<g>
	<path class="st33" d="M-300.5,36.3h-24.2c-7.1,0-12.9-5.8-12.9-12.9V-0.8c0-7.1,5.8-12.9,12.9-12.9h24.2c7.1,0,12.9,5.8,12.9,12.9
		v24.2C-287.6,30.6-293.3,36.3-300.5,36.3z"/>
	<g>
		<g>
			<g>
				<g>
					
						<linearGradient id="SVGID_00000008842903812122701350000009510102446033451684_" gradientUnits="userSpaceOnUse" x1="-312.6" y1="1019.3" x2="-312.6" y2="1059.3" gradientTransform="matrix(1 0 0 1 0 -1028)">
						<stop  offset="0" style="stop-color:#0093E5"/>
						<stop  offset="1" style="stop-color:#004383"/>
					</linearGradient>
					<path style="fill:url(#SVGID_00000008842903812122701350000009510102446033451684_);" d="M-302.9,31.3h-19.4
						c-5.7,0-10.3-4.6-10.3-10.3V1.6c0-5.7,4.6-10.3,10.3-10.3h19.4c5.7,0,10.3,4.6,10.3,10.3V21C-292.6,26.7-297.2,31.3-302.9,31.3
						z"/>
				</g>
			</g>
		</g>
	</g>
</g>
<g>
	
		<linearGradient id="SVGID_00000036959964163364511360000001522870291987356861_" gradientUnits="userSpaceOnUse" x1="-312.6069" y1="1028.3639" x2="-312.6069" y2="1051.0326" gradientTransform="matrix(1 0 0 1 0 -1028)">
		<stop  offset="0" style="stop-color:#FFFFFF"/>
		<stop  offset="0.6844" style="stop-color:#0C5190"/>
		<stop  offset="1" style="stop-color:#00488A"/>
	</linearGradient>
	<path style="fill:url(#SVGID_00000036959964163364511360000001522870291987356861_);" d="M-301.9,2.8l-4.7-2.3
		c-0.5-0.3-1.2-0.2-1.6,0.3l-9.1,8.2l-4-3c-0.4-0.3-0.9-0.3-1.2,0.1l-1.3,1.1c-0.4,0.4-0.4,1-0.1,1.3c0,0,0,0,0.1,0.1l3.4,3.1
		l-3.4,3.1c-0.4,0.4-0.4,1-0.1,1.3c0,0,0,0,0.1,0.1l1.3,1.1c0.3,0.3,0.9,0.3,1.2,0.1l4-3l9.1,8.2c0.4,0.4,1.1,0.5,1.6,0.3l4.7-2.3
		c0.5-0.2,0.8-0.7,0.8-1.3V4C-301.1,3.5-301.4,3-301.9,2.8z M-306.8,16.9l-6.9-5.2l6.9-5.2V16.9z"/>
	
		<linearGradient id="SVGID_00000030462937176464053020000001178793104450606015_" gradientUnits="userSpaceOnUse" x1="-312.6069" y1="1027.6509" x2="-312.6069" y2="1050.3197" gradientTransform="matrix(1 0 0 1 0 -1028)">
		<stop  offset="0" style="stop-color:#FFFFFF"/>
		<stop  offset="1" style="stop-color:#0091E3"/>
	</linearGradient>
	<path style="fill:url(#SVGID_00000030462937176464053020000001178793104450606015_);" d="M-301.9,2l-4.7-2.3
		c-0.5-0.3-1.2-0.2-1.6,0.3l-9.1,8.2l-4-3c-0.4-0.3-0.9-0.3-1.2,0.1l-1.3,1.1c-0.4,0.4-0.4,1-0.1,1.3c0,0,0,0,0.1,0.1l3.4,3.1
		l-3.4,3.1c-0.4,0.4-0.4,1-0.1,1.3c0,0,0,0,0.1,0.1l1.3,1.1c0.3,0.3,0.9,0.3,1.2,0.1l4-3l9.1,8.2c0.4,0.4,1.1,0.5,1.6,0.3l4.7-2.3
		c0.5-0.2,0.8-0.7,0.8-1.3V3.3C-301.1,2.8-301.4,2.3-301.9,2z M-306.8,16.1l-6.9-5.2l6.9-5.2V16.1z"/>
</g>
<g>
	<path class="st37" d="M-175.3,34.9h-24.2c-7.1,0-12.9-5.8-12.9-12.9V-2.2c0-7.1,5.8-12.9,12.9-12.9h24.2c7.1,0,12.9,5.8,12.9,12.9
		V22C-162.4,29.1-168.2,34.9-175.3,34.9z"/>
	<g>
		<g>
			<g>
				<g>
					
						<linearGradient id="SVGID_00000130624431556257209480000008802098865821034911_" gradientUnits="userSpaceOnUse" x1="-187.4" y1="1017.9" x2="-187.4" y2="1057.9" gradientTransform="matrix(1 0 0 1 0 -1028)">
						<stop  offset="0" style="stop-color:#8129FF"/>
						<stop  offset="1" style="stop-color:#4000BF"/>
					</linearGradient>
					<path style="fill:url(#SVGID_00000130624431556257209480000008802098865821034911_);" d="M-177.7,29.9h-19.4
						c-5.7,0-10.3-4.6-10.3-10.3V0.2c0-5.7,4.6-10.3,10.3-10.3h19.4c5.7,0,10.3,4.6,10.3,10.3v19.4
						C-167.4,25.3-172.1,29.9-177.7,29.9z"/>
				</g>
			</g>
		</g>
	</g>
</g>
<linearGradient id="SVGID_00000083807678252129018180000006160364049849887645_" gradientUnits="userSpaceOnUse" x1="-187.4" y1="1026.5688" x2="-187.4" y2="1049.2208" gradientTransform="matrix(1 0 0 1 0 -1028)">
	<stop  offset="0" style="stop-color:#FFFFFF"/>
	<stop  offset="0.662" style="stop-color:#4302C2"/>
	<stop  offset="1" style="stop-color:#4302C2"/>
</linearGradient>
<path style="fill:url(#SVGID_00000083807678252129018180000006160364049849887645_);" d="M-187.3,1.8c4.5,0,8.1,3.6,8.1,8.1
	s-3.6,8.1-8.1,8.1s-8.1-3.6-8.1-8.1c0-1.1,0.2-2.1,0.6-3.1c0.6,0.8,1.5,1.3,2.5,1.3c1.7,0,3.1-1.4,3.1-3.1c0-1-0.5-2-1.3-2.5
	C-189.4,2-188.4,1.8-187.3,1.8z M-187.4-1.4c-6.3,0-11.3,5.1-11.3,11.3s5.1,11.3,11.3,11.3c6.3,0,11.3-5.1,11.3-11.3
	S-181.2-1.4-187.4-1.4z M-187.4-0.3c5.6,0,10.2,4.6,10.2,10.2s-4.6,10.2-10.2,10.2s-10.2-4.6-10.2-10.2S-193.1-0.3-187.4-0.3z"/>
<linearGradient id="SVGID_00000175285872258730462850000015156975208181370496_" gradientUnits="userSpaceOnUse" x1="-187.4" y1="1026.5688" x2="-187.4" y2="1049.2208" gradientTransform="matrix(1 0 0 1 0 -1028)">
	<stop  offset="0" style="stop-color:#FFFFFF"/>
	<stop  offset="1" style="stop-color:#8029FE"/>
</linearGradient>
<path style="fill:url(#SVGID_00000175285872258730462850000015156975208181370496_);" d="M-187.3,1.8c4.5,0,8.1,3.6,8.1,8.1
	s-3.6,8.1-8.1,8.1s-8.1-3.6-8.1-8.1c0-1.1,0.2-2.1,0.6-3.1c0.6,0.8,1.5,1.3,2.5,1.3c1.7,0,3.1-1.4,3.1-3.1c0-1-0.5-2-1.3-2.5
	C-189.4,2-188.4,1.8-187.3,1.8z M-187.4-1.4c-6.3,0-11.3,5.1-11.3,11.3s5.1,11.3,11.3,11.3c6.3,0,11.3-5.1,11.3-11.3
	S-181.2-1.4-187.4-1.4z M-187.4-0.3c5.6,0,10.2,4.6,10.2,10.2s-4.6,10.2-10.2,10.2s-10.2-4.6-10.2-10.2S-193.1-0.3-187.4-0.3z"/>
<g>
	<path class="st41" d="M-174.4,95.8h-24.2c-7.1,0-12.9-5.8-12.9-12.9V58.7c0-7.1,5.8-12.9,12.9-12.9h24.2c7.1,0,12.9,5.8,12.9,12.9
		v24.2C-161.6,90-167.3,95.8-174.4,95.8z"/>
	<g>
		<g>
			<g>
				<g>
					
						<linearGradient id="SVGID_00000031203107969536264370000000195020814827078043_" gradientUnits="userSpaceOnUse" x1="-186.6" y1="1078.8" x2="-186.6" y2="1118.8" gradientTransform="matrix(1 0 0 1 0 -1028)">
						<stop  offset="0" style="stop-color:#33C1FF"/>
						<stop  offset="1" style="stop-color:#2E6BFF"/>
					</linearGradient>
					<path style="fill:url(#SVGID_00000031203107969536264370000000195020814827078043_);" d="M-176.9,90.8h-19.4
						c-5.7,0-10.3-4.6-10.3-10.3V61.1c0-5.7,4.6-10.3,10.3-10.3h19.4c5.7,0,10.3,4.6,10.3,10.3v19.4
						C-166.6,86.2-171.2,90.8-176.9,90.8z"/>
				</g>
			</g>
		</g>
	</g>
</g>
<g>
	
		<linearGradient id="SVGID_00000178176194659126285520000009082468763724345519_" gradientUnits="userSpaceOnUse" x1="-192.5" y1="1089.8739" x2="-192.5" y2="1108.5045" gradientTransform="matrix(1 0 0 1 0 -1028)">
		<stop  offset="0" style="stop-color:#FFFFFF"/>
		<stop  offset="0.6508" style="stop-color:#2E6EFF"/>
		<stop  offset="1" style="stop-color:#2E6DFF"/>
	</linearGradient>
	<path style="fill:url(#SVGID_00000178176194659126285520000009082468763724345519_);" d="M-186.3,65.9c-0.3-0.8-0.7-1.4-1.3-2
		c-0.7-0.7-1.5-1.1-2.4-1.4c-1-0.4-2.2-0.5-3.6-0.5c-0.5,0-1.1,0-1.6,0s-1.1,0-1.5,0c-0.5,0-0.9,0-1.3,0c-0.4,0-0.7,0-1,0
		c-0.1,0-0.2,0.1-0.2,0.2v18.1c0,0.2,0.1,0.2,0.2,0.2h3.4c0.1,0,0.2-0.1,0.2-0.2v-5.6c0.3,0,0.6,0,0.8,0s0.5,0,0.9,0
		c1.4,0,2.8-0.2,4-0.6c1.1-0.4,2.1-1.2,2.8-2.1c0.7-1,1.1-2.2,1.1-3.7C-185.9,67.4-186.1,66.6-186.3,65.9z M-190.3,70.1
		c-0.4,0.4-0.9,0.8-1.4,0.9c-0.7,0.2-1.3,0.3-2,0.3h-0.9c-0.2,0-0.4,0-0.7,0v-5.9c0.1,0,0.4,0,0.7,0s0.7,0,1.2,0
		c0.7,0,1.4,0.1,2.1,0.4c0.5,0.2,0.9,0.5,1.2,1s0.4,1,0.4,1.6C-189.8,69-189.9,69.6-190.3,70.1z"/>
	
		<linearGradient id="SVGID_00000105411704635709909300000003452526147235493286_" gradientUnits="userSpaceOnUse" x1="-178.95" y1="1094.2368" x2="-178.95" y2="1108.8739" gradientTransform="matrix(1 0 0 1 0 -1028)">
		<stop  offset="0" style="stop-color:#FFFFFF"/>
		<stop  offset="0.6508" style="stop-color:#2E6EFF"/>
		<stop  offset="1" style="stop-color:#2E6DFF"/>
	</linearGradient>
	<path style="fill:url(#SVGID_00000105411704635709909300000003452526147235493286_);" d="M-173.8,76.4c0,0.8-0.2,1.7-0.7,2.3
		c-0.5,0.7-1.2,1.2-2,1.6c-0.9,0.4-1.9,0.6-3.2,0.6c-0.8,0-1.6-0.1-2.4-0.2c-0.6-0.1-1.2-0.3-1.8-0.6c-0.1-0.1-0.2-0.2-0.2-0.3v-3.1
		c0-0.1,0-0.1,0.1-0.2c0.1,0,0.1,0,0.2,0c0.7,0.4,1.4,0.7,2.2,0.9c0.7,0.2,1.4,0.3,2.1,0.3c0.7,0,1.1-0.1,1.5-0.2
		c0.3-0.1,0.5-0.4,0.5-0.7c0-0.2-0.1-0.5-0.4-0.7s-0.9-0.5-1.7-0.8c-0.9-0.3-1.7-0.7-2.5-1.3c-0.5-0.4-1-0.9-1.3-1.5
		s-0.4-1.2-0.4-1.8c0-0.8,0.2-1.5,0.6-2.1c0.4-0.7,1.1-1.3,1.8-1.6c0.8-0.4,1.9-0.6,3.1-0.6c0.7,0,1.5,0.1,2.2,0.2
		c0.5,0.1,1,0.2,1.5,0.4c0.1,0,0.1,0.1,0.2,0.2c0,0.1,0,0.1,0,0.2V70c0,0.1,0,0.1-0.1,0.2c-0.2,0-0.2,0-0.3,0
		c-0.5-0.3-1.1-0.5-1.7-0.6c-0.7-0.1-1.3-0.2-2-0.2c-0.4,0-0.7,0-1.1,0.1c-0.2,0.1-0.4,0.2-0.5,0.4c-0.1,0.1-0.1,0.3-0.1,0.5
		s0.1,0.3,0.2,0.5c0.2,0.2,0.4,0.4,0.6,0.5c0.4,0.2,0.8,0.4,1.2,0.6c0.9,0.3,1.9,0.8,2.7,1.3c0.6,0.4,1.1,0.9,1.4,1.5
		C-173.9,75.2-173.8,75.8-173.8,76.4z"/>
</g>
<g>
	
		<linearGradient id="SVGID_00000096030014097847253040000012379277215494706596_" gradientUnits="userSpaceOnUse" x1="-192.9" y1="1089.3925" x2="-192.9" y2="1108.0229" gradientTransform="matrix(1 0 0 1 0 -1028)">
		<stop  offset="0" style="stop-color:#FFFFFF"/>
		<stop  offset="1" style="stop-color:#33C0FF"/>
	</linearGradient>
	<path style="fill:url(#SVGID_00000096030014097847253040000012379277215494706596_);" d="M-186.7,65.4c-0.3-0.8-0.7-1.4-1.3-2
		c-0.7-0.7-1.5-1.1-2.4-1.4c-1-0.4-2.2-0.5-3.6-0.5c-0.5,0-1.1,0-1.6,0s-1.1,0-1.5,0c-0.5,0-0.9,0-1.3,0c-0.4,0-0.7,0-1,0
		c-0.1,0-0.2,0.1-0.2,0.2v18.1c0,0.2,0.1,0.2,0.2,0.2h3.4c0.1,0,0.2-0.1,0.2-0.2v-5.6c0.3,0,0.6,0,0.8,0s0.5,0,0.9,0
		c1.4,0,2.8-0.2,4-0.6c1.1-0.4,2.1-1.2,2.8-2.1c0.7-1,1.1-2.2,1.1-3.7C-186.3,66.9-186.4,66.1-186.7,65.4z M-190.6,69.6
		c-0.4,0.4-0.9,0.8-1.4,0.9c-0.7,0.2-1.3,0.3-2,0.3h-0.9c-0.2,0-0.4,0-0.7,0v-5.9c0.1,0,0.4,0,0.7,0s0.7,0,1.2,0
		c0.7,0,1.4,0.1,2.1,0.4c0.5,0.2,0.9,0.5,1.2,1s0.4,1,0.4,1.6C-190.1,68.6-190.3,69.2-190.6,69.6z"/>
	
		<linearGradient id="SVGID_00000071534296701156988160000007789703361127520136_" gradientUnits="userSpaceOnUse" x1="-179.3367" y1="1093.7552" x2="-179.3367" y2="1108.3925" gradientTransform="matrix(1 0 0 1 0 -1028)">
		<stop  offset="0" style="stop-color:#FFFFFF"/>
		<stop  offset="1" style="stop-color:#33C0FF"/>
	</linearGradient>
	<path style="fill:url(#SVGID_00000071534296701156988160000007789703361127520136_);" d="M-174.2,75.9c0,0.8-0.2,1.7-0.7,2.3
		c-0.5,0.7-1.2,1.2-2,1.6c-0.9,0.4-1.9,0.6-3.2,0.6c-0.8,0-1.6-0.1-2.4-0.2c-0.6-0.1-1.2-0.3-1.8-0.6c-0.1-0.1-0.2-0.2-0.2-0.3v-3.1
		c0-0.1,0-0.1,0.1-0.2c0.1,0,0.1,0,0.2,0c0.7,0.4,1.4,0.7,2.2,0.9c0.7,0.2,1.4,0.3,2.1,0.3c0.7,0,1.1-0.1,1.5-0.2
		c0.3-0.1,0.5-0.4,0.5-0.7c0-0.2-0.1-0.5-0.4-0.7s-0.9-0.5-1.7-0.8c-0.9-0.3-1.7-0.7-2.5-1.3c-0.5-0.4-1-0.9-1.3-1.5
		s-0.4-1.2-0.4-1.8c0-0.8,0.2-1.5,0.6-2.1c0.4-0.7,1.1-1.3,1.8-1.6c0.8-0.4,1.9-0.6,3.1-0.6c0.7,0,1.5,0.1,2.2,0.2
		c0.5,0.1,1,0.2,1.5,0.4c0.1,0,0.1,0.1,0.2,0.2c0,0.1,0,0.1,0,0.2v2.9c0,0.1,0,0.1-0.1,0.2c-0.2,0-0.2,0-0.3,0
		c-0.5-0.3-1.1-0.5-1.7-0.6c-0.7-0.1-1.3-0.2-2-0.2c-0.4,0-0.7,0-1.1,0.1c-0.2,0.1-0.4,0.2-0.5,0.4c-0.1,0.1-0.1,0.3-0.1,0.5
		s0.1,0.3,0.2,0.5c0.2,0.2,0.4,0.4,0.6,0.5c0.4,0.2,0.8,0.4,1.2,0.6c0.9,0.3,1.9,0.8,2.7,1.3c0.6,0.4,1.1,0.9,1.4,1.5
		C-174.3,74.7-174.1,75.3-174.2,75.9z"/>
</g>
<g>
	<path class="st47" d="M-289.6,91.3h-24.2c-7.1,0-12.9-5.8-12.9-12.9V54.2c0-7.1,5.8-12.9,12.9-12.9h24.2c7.1,0,12.9,5.8,12.9,12.9
		v24.2C-276.7,85.6-282.4,91.3-289.6,91.3z"/>
	<g>
		<g>
			<g>
				<g>
					
						<linearGradient id="SVGID_00000183217731856649560000000003936990247847103138_" gradientUnits="userSpaceOnUse" x1="-301.7" y1="1074.3413" x2="-301.7" y2="1114.3413" gradientTransform="matrix(1 0 0 1 0 -1028)">
						<stop  offset="5.586592e-03" style="stop-color:#48A5D3"/>
						<stop  offset="1" style="stop-color:#20495E"/>
					</linearGradient>
					<path style="fill:url(#SVGID_00000183217731856649560000000003936990247847103138_);" d="M-292,86.3h-19.4
						c-5.7,0-10.3-4.6-10.3-10.3V56.7c0-5.7,4.6-10.3,10.3-10.3h19.4c5.7,0,10.3,4.6,10.3,10.3V76C-281.7,81.7-286.3,86.3-292,86.3z
						"/>
				</g>
			</g>
		</g>
	</g>
</g>
<g>
	
		<linearGradient id="SVGID_00000047746124967742362070000001865252531321146532_" gradientUnits="userSpaceOnUse" x1="-301.4934" y1="1083.6" x2="-301.4934" y2="1105.6676" gradientTransform="matrix(1 0 0 1 0 -1028)">
		<stop  offset="0" style="stop-color:#FFFFFF"/>
		<stop  offset="0.581" style="stop-color:#235067"/>
	</linearGradient>
	<path style="fill:url(#SVGID_00000047746124967742362070000001865252531321146532_);" d="M-290.9,69.1c0,0,0-0.1-0.1-0.1
		c-0.1-0.2-0.4-0.3-0.9-0.2c-1.5,0.3-2.1,0.1-2.3,0c1.2-1.9,2.2-4.2,2.8-6.3c0.2-1,0.7-3.2,0.1-4.4c0-0.1-0.1-0.1-0.1-0.2
		c-1.2-1.5-2.9-2.3-5-2.3c-1.4,0-2.5,0.3-2.9,0.4c-0.2,0-0.3-0.1-0.5-0.1c-0.4-0.1-0.8-0.1-1.2-0.1c-1.1,0-2,0.2-2.8,0.8
		c-0.8-0.3-4.4-1.5-6.6,0.1c-1.2,0.9-1.8,2.5-1.7,4.7c0,0.8,0.5,3.1,1.1,5.3c0.4,1.4,0.9,2.5,1.3,3.3c0.5,0.9,1,1.5,1.6,1.6
		c0.4,0.1,1,0.1,1.7-0.7c0.7-0.9,1.5-1.7,1.8-2c0.4,0.2,0.8,0.3,1.3,0.3l0,0c-0.1,0.1-0.2,0.2-0.2,0.3c-0.3,0.4-0.4,0.5-1.4,0.7
		c-0.3,0.1-1,0.2-1.1,0.7c0,0.1,0,0.2,0.1,0.3c0.2,0.4,0.8,0.6,0.9,0.6c1.2,0.3,2.3,0.1,3.1-0.6c0,2.1,0.1,4.1,0.3,4.7
		c0.2,0.5,0.7,1.8,2.3,1.8c0.2,0,0.5,0,0.8-0.1c1.6-0.4,2.3-1.1,2.6-2.7c0.1-0.8,0.4-2.6,0.5-3.8c0-0.1,0-0.1,0.1-0.1
		c0,0,0.1,0,0.4,0l0,0h0.2l0,0c0.8,0,1.8-0.1,2.3-0.4C-291.8,70.4-290.7,69.7-290.9,69.1z M-310.4,66.5c-0.7-2.2-1.1-4.5-1.1-5.1
		c-0.1-2,0.4-3.4,1.4-4.1c1.7-1.2,4.5-0.5,5.6-0.1l0,0c-1.9,1.9-1.8,5.1-1.8,5.3c0,0.1,0,0.2,0,0.3c0,0.5,0.1,1.5-0.1,2.7
		c-0.1,1.1,0.2,2.1,0.9,2.8c0.1,0.1,0.2,0.1,0.2,0.2c-0.3,0.3-1,1.1-1.7,2c-0.5,0.6-0.9,0.5-1,0.5c-0.4-0.1-0.7-0.5-1.1-1.2
		C-309.5,69-310,67.9-310.4,66.5z M-304.8,71.2c-0.2,0-0.3-0.1-0.4-0.2c0.1,0,0.2-0.1,0.4-0.1c1.2-0.2,1.4-0.4,1.8-0.9
		c0.1-0.1,0.2-0.2,0.3-0.4l0.1-0.1c0.2-0.1,0.3-0.1,0.4,0s0.3,0.2,0.3,0.4c0,0.1,0.1,0.3,0,0.4C-302.8,71.4-304,71.4-304.8,71.2z
		 M-302.9,67.5L-302.9,67.5c-0.1,0.4-0.2,0.7-0.3,1c-0.6,0-1.2-0.3-1.7-0.7c-0.6-0.6-0.8-1.4-0.7-2.3c0.2-1.2,0.1-2.2,0.1-2.8
		c0-0.1,0-0.1,0-0.2c-0.1-0.8,1.4-1.3,2.2-1.1c0.4,0.1,0.8,0.8,0.9,1.3c0.5,2.5,0.1,3.5-0.3,4.4C-302.8,67.2-302.9,67.4-302.9,67.5z
		 M-296.2,71.7c0,0.2,0,0.3-0.1,0.5l-0.1,0.4v0.1c0,0.4,0,0.6-0.1,0.8c-0.1,0.2-0.1,0.4-0.2,1c-0.1,1.3-0.8,2-2.2,2.4
		c-1.4,0.3-1.6-0.5-1.9-1.1c0-0.1,0-0.1-0.1-0.2c-0.2-0.5-0.2-1.3-0.1-2.3c0-0.5,0-1.7-0.3-2.4c0-0.3,0-0.5,0-0.8V70
		c0-0.1,0-0.1,0-0.2c-0.1-0.4-0.4-0.7-0.7-0.9c-0.1-0.1-0.4-0.2-0.7-0.1c0.1-0.3,0.2-0.5,0.3-0.9v-0.1c0.1-0.1,0.1-0.3,0.2-0.5
		c0.4-0.9,0.9-2.1,0.3-4.8c-0.2-1-0.9-1.5-2.1-1.4c-0.7,0.1-1.3,0.3-1.6,0.5c-0.1,0-0.1,0.1-0.2,0.1c0.1-1,0.4-2.9,1.6-4.1
		c0.1-0.1,0.2-0.2,0.3-0.3c0,0,0.1,0,0.1-0.1c0.7-0.5,1.6-0.8,2.6-0.8c0.4,0,0.7,0,1.1,0.1c1.8,0.3,3,1.3,3.7,2.2s1.2,1.8,1.3,2.3
		c-1.2-0.1-2,0.1-2.5,0.7c-0.9,1.3,0.5,3.8,1.2,5.1c0.1,0.2,0.2,0.4,0.3,0.5c0.2,0.5,0.5,0.9,0.7,1.2c0.1,0.1,0.1,0.2,0.2,0.2
		c-0.4,0.1-1,0.4-1,1.6c0,0.1,0,0.4-0.1,0.7C-296.1,71.2-296.1,71.5-296.2,71.7z M-295.3,70.2c0-0.8,0.2-0.8,0.5-0.9h0.1l0.1,0.1
		c0.5,0.3,1.5,0.4,2.8,0.1c-0.2,0.2-0.5,0.4-0.9,0.6s-1,0.3-1.6,0.3C-294.9,70.4-295.3,70.3-295.3,70.2z M-294.8,61.4
		c0,0.3-0.1,0.9-0.1,1.2c-0.1,0.3-0.1,0.7-0.1,1.1s0,0.8,0.1,1.2c0.1,0.8,0.2,1.7-0.2,2.5c-0.1-0.1-0.1-0.2-0.2-0.4
		c0-0.1-0.2-0.3-0.3-0.6c-0.6-1-2.2-3.9-1.5-4.8C-296.7,61.2-295.7,61.2-294.8,61.4z M-294.6,68.2
		C-294.6,68.1-294.7,68.1-294.6,68.2l-0.1-0.1c0.7-1.1,0.5-2.2,0.4-3.2c0-0.4-0.1-0.8-0.1-1.1c0-0.4,0.1-0.7,0.1-1
		c0.1-0.4,0.1-0.8,0.1-1.2c0,0,0-0.1,0-0.2c0-0.4-0.6-1.8-1.6-3c-0.6-0.7-1.4-1.4-2.5-1.9c0.5-0.1,1.1-0.2,1.9-0.2
		c1.9,0,3.4,0.7,4.4,2.1c0,0,0,0.1,0.1,0.1C-291.2,59.7-292.1,64.2-294.6,68.2z"/>
	
		<linearGradient id="SVGID_00000149367018316347685280000011680187632313151104_" gradientUnits="userSpaceOnUse" x1="-301.7934" y1="1083.0154" x2="-301.7934" y2="1105.083" gradientTransform="matrix(1 0 0 1 0 -1028)">
		<stop  offset="0" style="stop-color:#FFFFFF"/>
		<stop  offset="1" style="stop-color:#48A4D2"/>
	</linearGradient>
	<path style="fill:url(#SVGID_00000149367018316347685280000011680187632313151104_);" d="M-291.2,68.6c0,0,0-0.1-0.1-0.1
		c-0.1-0.2-0.4-0.3-0.9-0.2c-1.5,0.3-2.1,0.1-2.3,0c1.2-1.9,2.2-4.2,2.8-6.3c0.2-1,0.7-3.2,0.1-4.4c0-0.1-0.1-0.1-0.1-0.2
		c-1.2-1.5-2.9-2.3-5-2.3c-1.4,0-2.5,0.3-2.9,0.4c-0.2,0-0.3-0.1-0.5-0.1c-0.4-0.1-0.8-0.1-1.2-0.1c-1.1,0-2,0.2-2.8,0.8
		c-0.8-0.3-4.4-1.5-6.6,0.1c-1.2,0.9-1.8,2.5-1.7,4.7c0,0.8,0.5,3.1,1.1,5.3c0.4,1.4,0.9,2.5,1.3,3.3c0.5,0.9,1,1.5,1.6,1.6
		c0.4,0.1,1,0.1,1.7-0.7c0.7-0.9,1.5-1.7,1.8-2c0.4,0.2,0.8,0.3,1.3,0.3l0,0c-0.1,0.1-0.2,0.2-0.2,0.3c-0.3,0.4-0.4,0.5-1.4,0.7
		c-0.3,0.1-1,0.2-1.1,0.7c0,0.1,0,0.2,0.1,0.3c0.2,0.4,0.8,0.6,0.9,0.6c1.2,0.3,2.3,0.1,3.1-0.6c0,2.1,0.1,4.1,0.3,4.7
		c0.2,0.5,0.7,1.8,2.3,1.8c0.2,0,0.5,0,0.8-0.1c1.6-0.4,2.3-1.1,2.6-2.7c0.1-0.8,0.4-2.6,0.5-3.8c0-0.1,0-0.1,0.1-0.1
		c0,0,0.1,0,0.4,0l0,0h0.2l0,0c0.8,0,1.8-0.1,2.3-0.4C-292.1,69.8-291,69.1-291.2,68.6z M-310.7,65.9c-0.7-2.2-1.1-4.5-1.1-5.1
		c-0.1-2,0.4-3.4,1.4-4.1c1.7-1.2,4.5-0.5,5.6-0.1l0,0c-1.9,1.9-1.8,5.1-1.8,5.3c0,0.1,0,0.2,0,0.3c0,0.5,0.1,1.5-0.1,2.7
		c-0.1,1.1,0.2,2.1,0.9,2.8c0.1,0.1,0.2,0.1,0.2,0.2c-0.3,0.3-1,1.1-1.7,2c-0.5,0.6-0.9,0.5-1,0.5c-0.4-0.1-0.7-0.5-1.1-1.2
		C-309.8,68.4-310.3,67.3-310.7,65.9z M-305.1,70.6c-0.2,0-0.3-0.1-0.4-0.2c0.1,0,0.2-0.1,0.4-0.1c1.2-0.2,1.4-0.4,1.8-0.9
		c0.1-0.1,0.2-0.2,0.3-0.4l0.1-0.1c0.2-0.1,0.3-0.1,0.4,0s0.3,0.2,0.3,0.4c0,0.1,0.1,0.3,0,0.4C-303.1,70.8-304.3,70.8-305.1,70.6z
		 M-303.2,66.9L-303.2,66.9c-0.1,0.4-0.2,0.7-0.3,1c-0.6,0-1.2-0.3-1.7-0.7c-0.6-0.6-0.8-1.4-0.7-2.3c0.2-1.2,0.1-2.2,0.1-2.8
		c0-0.1,0-0.1,0-0.2c0.3-0.2,1.5-0.9,2.4-0.7c0.4,0.1,0.7,0.4,0.8,0.9c0.5,2.5,0.1,3.5-0.3,4.4C-303.1,66.6-303.2,66.8-303.2,66.9z
		 M-296.5,71.2c0,0.2,0,0.3-0.1,0.5l-0.1,0.4v0.1c0,0.4,0,0.6-0.1,0.8c-0.1,0.2-0.1,0.4-0.2,1c-0.1,1.3-0.8,2-2.2,2.4
		c-1.4,0.3-1.6-0.5-1.9-1.1c0-0.1,0-0.1-0.1-0.2c-0.2-0.5-0.2-1.3-0.1-2.3c0-0.5,0-1.7-0.3-2.4c0-0.3,0-0.5,0-0.8v-0.1
		c0-0.1,0-0.1,0-0.2c-0.1-0.4-0.4-0.7-0.7-0.9c-0.1-0.1-0.4-0.2-0.7-0.1c0.1-0.3,0.2-0.5,0.3-0.9v-0.1c0.1-0.1,0.1-0.3,0.2-0.5
		c0.4-0.9,0.9-2.1,0.3-4.8c-0.2-1-0.9-1.5-2.1-1.4c-0.7,0.1-1.3,0.3-1.6,0.5c-0.1,0-0.1,0.1-0.2,0.1c0.1-1,0.4-2.9,1.6-4.1
		c0.1-0.1,0.2-0.2,0.3-0.3c0,0,0.1,0,0.1-0.1c0.7-0.5,1.6-0.8,2.6-0.8c0.4,0,0.7,0,1.1,0.1c1.8,0.3,3,1.3,3.7,2.2s1.2,1.8,1.3,2.3
		c-1.2-0.1-2,0.1-2.5,0.7c-0.9,1.3,0.5,3.8,1.2,5.1c0.1,0.2,0.2,0.4,0.3,0.5c0.2,0.5,0.5,0.9,0.7,1.2c0.1,0.1,0.1,0.2,0.2,0.2
		c-0.4,0.1-1,0.4-1,1.6c0,0.1,0,0.4-0.1,0.7C-296.4,70.6-296.4,70.9-296.5,71.2z M-295.6,69.7c0-0.8,0.2-0.8,0.5-0.9h0.1l0.1,0.1
		c0.5,0.3,1.5,0.4,2.8,0.1c-0.2,0.2-0.5,0.4-0.9,0.6s-1,0.3-1.6,0.3C-295.2,69.8-295.6,69.7-295.6,69.7z M-295.1,61.1
		c0,0.3,0,0.6-0.1,0.9c-0.1,0.3-0.1,0.7-0.1,1.1c0,0.4,0,0.8,0.1,1.2c0.1,0.8,0.2,1.7-0.2,2.5c-0.1-0.1-0.1-0.2-0.2-0.4
		c0-0.1-0.2-0.3-0.3-0.6c-0.6-1-1.9-3.4-1.2-4.4C-296.8,61.1-295.9,61-295.1,61.1z M-294.9,67.6C-294.9,67.6-295,67.5-294.9,67.6
		l-0.1-0.1c0.7-1.1,0.5-2.2,0.4-3.2c0-0.4-0.1-0.8-0.1-1.1c0-0.4,0.1-0.7,0.1-1c0.1-0.4,0.1-0.8,0.1-1.2c0,0,0-0.1,0-0.2
		c0-0.4-0.6-1.8-1.6-3c-0.6-0.7-1.4-1.4-2.5-1.9c0.5-0.1,1.1-0.2,1.9-0.2c1.9,0,3.4,0.7,4.4,2.1c0,0,0,0.1,0.1,0.1
		C-291.5,59.1-292.4,63.7-294.9,67.6z M-303,62c0,0.2-0.3,0.4-0.6,0.4c0,0,0,0-0.1,0c-0.2,0-0.3-0.1-0.5-0.3c0-0.1-0.1-0.2-0.1-0.3
		c0,0,0-0.1,0.1-0.1c0.1-0.1,0.3-0.1,0.6-0.1C-303.3,61.6-303,61.8-303,62z M-295.7,61.6c0,0.1,0,0.2-0.1,0.3s-0.2,0.2-0.4,0.2
		c0,0,0,0-0.1,0c-0.3,0-0.5-0.2-0.5-0.3c0-0.2,0.2-0.3,0.5-0.3C-296,61.4-295.7,61.4-295.7,61.6z"/>
</g>
<g>
	<path class="st51" d="M-231.3,93.6h-24.2c-7.1,0-12.9-5.8-12.9-12.9V56.5c0-7.1,5.8-12.9,12.9-12.9h24.2c7.1,0,12.9,5.8,12.9,12.9
		v24.2C-218.4,87.8-224.2,93.6-231.3,93.6z"/>
	<g>
		<g>
			<g>
				<g>
					
						<linearGradient id="SVGID_00000067233932070491202340000003257467517226960559_" gradientUnits="userSpaceOnUse" x1="-243.4" y1="1076.6" x2="-243.4" y2="1116.6" gradientTransform="matrix(1 0 0 1 0 -1028)">
						<stop  offset="0" style="stop-color:#DCE0E2"/>
						<stop  offset="1" style="stop-color:#8F9FB2"/>
					</linearGradient>
					<path style="fill:url(#SVGID_00000067233932070491202340000003257467517226960559_);" d="M-233.7,88.6h-19.4
						c-5.7,0-10.3-4.6-10.3-10.3V58.9c0-5.7,4.6-10.3,10.3-10.3h19.4c5.7,0,10.3,4.6,10.3,10.3v19.4
						C-223.4,83.9-228.1,88.6-233.7,88.6z"/>
				</g>
			</g>
		</g>
	</g>
</g>
<linearGradient id="SVGID_00000053506091305178275070000009793328332303446176_" gradientUnits="userSpaceOnUse" x1="-243.4" y1="1085.2395" x2="-243.4" y2="1107.8723" gradientTransform="matrix(1 0 0 1 0 -1028)">
	<stop  offset="0" style="stop-color:#DCE0E2"/>
	<stop  offset="1" style="stop-color:#6F7C89"/>
</linearGradient>
<path style="fill:url(#SVGID_00000053506091305178275070000009793328332303446176_);" d="M-250.6,61.2c0.7,0.6,1,0.5,2.3,0.4
	l12.5-0.7c0.3,0,0-0.3,0-0.3l-2.1-1.5c-0.4-0.3-0.9-0.7-1.9-0.6l-12.1,0.9c-0.4,0-0.5,0.3-0.4,0.4L-250.6,61.2z M-249.8,64.1v13.1
	c0,0.7,0.4,1,1.1,0.9l13.7-0.8c0.8,0,0.9-0.5,0.9-1.1v-13c0-0.6-0.2-0.9-0.7-0.8l-14.3,0.8C-249.6,63.3-249.8,63.5-249.8,64.1
	L-249.8,64.1z M-236.3,64.8c0.1,0.4,0,0.8-0.4,0.8l-0.7,0.1v9.7c-0.6,0.3-1.1,0.5-1.5,0.5c-0.7,0-0.9-0.2-1.4-0.9l-4.3-6.8v6.6
	l1.4,0.3c0,0,0,0.8-1.1,0.8l-3,0.2c-0.1-0.2,0-0.6,0.3-0.7l0.8-0.2v-8.7l-1.1-0.1c-0.1-0.4,0.1-1,0.7-1l3.3-0.2l4.5,6.9V66l-1.1-0.1
	c-0.1-0.5,0.3-0.8,0.7-0.9L-236.3,64.8z M-252.9,58.2l12.6-0.9c1.5-0.1,1.9,0,2.9,0.7l4,2.8c0.7,0.5,0.9,0.6,0.9,1.1v15.5
	c0,1-0.4,1.5-1.6,1.6l-14.6,0.9c-0.9,0-1.4-0.1-1.9-0.7l-3-3.8c-0.5-0.7-0.7-1.2-0.7-1.8V59.8C-254.3,59-253.9,58.3-252.9,58.2z"/>
<linearGradient id="SVGID_00000146494351186144210310000013129215688724206721_" gradientUnits="userSpaceOnUse" x1="-243.4" y1="1085.2395" x2="-243.4" y2="1107.8723" gradientTransform="matrix(1 0 0 1 0 -1028)">
	<stop  offset="0" style="stop-color:#353535"/>
	<stop  offset="1" style="stop-color:#151515"/>
</linearGradient>
<path style="fill:url(#SVGID_00000146494351186144210310000013129215688724206721_);" d="M-250.6,61.2c0.7,0.6,1,0.5,2.3,0.4
	l12.5-0.7c0.3,0,0-0.3,0-0.3l-2.1-1.5c-0.4-0.3-0.9-0.7-1.9-0.6l-12.1,0.9c-0.4,0-0.5,0.3-0.4,0.4L-250.6,61.2z M-249.8,64.1v13.1
	c0,0.7,0.4,1,1.1,0.9l13.7-0.8c0.8,0,0.9-0.5,0.9-1.1v-13c0-0.6-0.2-0.9-0.7-0.8l-14.3,0.8C-249.6,63.3-249.8,63.5-249.8,64.1
	L-249.8,64.1z M-236.3,64.8c0.1,0.4,0,0.8-0.4,0.8l-0.7,0.1v9.7c-0.6,0.3-1.1,0.5-1.5,0.5c-0.7,0-0.9-0.2-1.4-0.9l-4.3-6.8v6.6
	l1.4,0.3c0,0,0,0.8-1.1,0.8l-3,0.2c-0.1-0.2,0-0.6,0.3-0.7l0.8-0.2v-8.7l-1.1-0.1c-0.1-0.4,0.1-1,0.7-1l3.3-0.2l4.5,6.9V66l-1.1-0.1
	c-0.1-0.5,0.3-0.8,0.7-0.9L-236.3,64.8z M-252.9,58.2l12.6-0.9c1.5-0.1,1.9,0,2.9,0.7l4,2.8c0.7,0.5,0.9,0.6,0.9,1.1v15.5
	c0,1-0.4,1.5-1.6,1.6l-14.6,0.9c-0.9,0-1.4-0.1-1.9-0.7l-3-3.8c-0.5-0.7-0.7-1.2-0.7-1.8V59.8C-254.3,59-253.9,58.3-252.9,58.2z"/>
<g>
	<path class="st55" d="M-367.4,91.7h-24.2c-7.1,0-12.9-5.8-12.9-12.9V54.6c0-7.1,5.8-12.9,12.9-12.9h24.2c7.1,0,12.9,5.8,12.9,12.9
		v24.2C-354.6,86-360.3,91.7-367.4,91.7z"/>
	<g>
		<g>
			<g>
				<g>
					
						<linearGradient id="SVGID_00000159442362578462011030000005132025958375292292_" gradientUnits="userSpaceOnUse" x1="-379.6" y1="1074.7479" x2="-379.6" y2="1114.7479" gradientTransform="matrix(1 0 0 1 0 -1028)">
						<stop  offset="0" style="stop-color:#9088FF"/>
						<stop  offset="1" style="stop-color:#5865F2"/>
					</linearGradient>
					<path style="fill:url(#SVGID_00000159442362578462011030000005132025958375292292_);" d="M-369.9,86.7h-19.4
						c-5.7,0-10.3-4.6-10.3-10.3V57.1c0-5.7,4.6-10.3,10.3-10.3h19.4c5.7,0,10.3,4.6,10.3,10.3v19.4
						C-359.6,82.1-364.2,86.7-369.9,86.7z"/>
				</g>
			</g>
		</g>
	</g>
</g>
<g>
	<g id="_2_00000105403290655438259080000004599690892376677031_">
		<g id="Discord_Logos_00000015339368837798244070000013304816961511327158_">
			<g id="Discord_Logo_-_Large_-_White_00000062170276513918347990000003093195935158141103_">
				
					<linearGradient id="SVGID_00000124148718871142268320000003834699577019607701_" gradientUnits="userSpaceOnUse" x1="-379.5788" y1="1084.9" x2="-379.5788" y2="1105.1" gradientTransform="matrix(1 0 0 1 0 -1028)">
					<stop  offset="0" style="stop-color:#FFFFFF"/>
					<stop  offset="1" style="stop-color:#5A66F2"/>
				</linearGradient>
				<path style="fill:url(#SVGID_00000124148718871142268320000003834699577019607701_);" d="M-370.3,58.6c-1.8-0.8-3.6-1.4-5.5-1.7
					c-0.3,0.5-0.5,0.9-0.7,1.4c-2-0.3-4.1-0.3-6.1,0c-0.2-0.5-0.4-1-0.7-1.4c-1.9,0.3-3.8,0.9-5.5,1.7c-3.5,5.2-4.4,10.2-4,15.1l0,0
					c2,1.5,4.3,2.7,6.7,3.4c0.5-0.7,1-1.5,1.4-2.3c-0.8-0.3-1.6-0.7-2.3-1.1c0.2-0.1,0.4-0.3,0.6-0.4c4.3,2,9.2,2,13.5,0
					c0.2,0.1,0.4,0.3,0.6,0.4c-0.7,0.4-1.5,0.8-2.3,1.1c0.4,0.8,0.9,1.6,1.4,2.3c2.4-0.7,4.7-1.9,6.8-3.4l0,0
					C-365.8,68-367.3,63-370.3,58.6z M-384,70.7c-1.3,0-2.4-1.2-2.4-2.7s1-2.7,2.4-2.7c1.3,0,2.4,1.2,2.4,2.7S-382.6,70.7-384,70.7z
					 M-375.1,70.7c-1.3,0-2.4-1.2-2.4-2.7s1-2.7,2.4-2.7s2.4,1.2,2.4,2.7S-373.8,70.7-375.1,70.7z"/>
			</g>
		</g>
	</g>
	<g id="_2_00000080891021390953466360000012290610452150015669_">
		<g id="Discord_Logos_00000114767948726506065390000008913904537969812113_">
			<g id="Discord_Logo_-_Large_-_White_00000112615048365184050680000004647852928042650552_">
				
					<linearGradient id="SVGID_00000093859897791180433610000012369393373988656570_" gradientUnits="userSpaceOnUse" x1="-379.5788" y1="1084.3612" x2="-379.5788" y2="1104.5612" gradientTransform="matrix(1 0 0 1 0 -1028)">
					<stop  offset="0" style="stop-color:#FFFFFF"/>
					<stop  offset="0.8659" style="stop-color:#8F87FF"/>
				</linearGradient>
				<path style="fill:url(#SVGID_00000093859897791180433610000012369393373988656570_);" d="M-370.3,58.1c-1.8-0.8-3.6-1.4-5.5-1.7
					c-0.3,0.5-0.5,0.9-0.7,1.4c-2-0.3-4.1-0.3-6.1,0c-0.2-0.5-0.4-1-0.7-1.4c-1.9,0.3-3.8,0.9-5.5,1.7c-3.5,5.2-4.4,10.2-4,15.1l0,0
					c2,1.5,4.3,2.7,6.7,3.4c0.5-0.7,1-1.5,1.4-2.3c-0.8-0.3-1.6-0.7-2.3-1.1c0.2-0.1,0.4-0.3,0.6-0.4c4.3,2,9.2,2,13.5,0
					c0.2,0.1,0.4,0.3,0.6,0.4c-0.7,0.4-1.5,0.8-2.3,1.1c0.4,0.8,0.9,1.6,1.4,2.3c2.4-0.7,4.7-1.9,6.8-3.4l0,0
					C-365.8,67.4-367.3,62.5-370.3,58.1z M-384,70.1c-1.3,0-2.4-1.2-2.4-2.7s1-2.7,2.4-2.7s2.4,1.2,2.4,2.7
					C-381.6,69-382.7,70.1-384,70.1z M-375.2,70.1c-1.3,0-2.4-1.2-2.4-2.7s1-2.7,2.4-2.7s2.4,1.2,2.4,2.7
					C-372.8,69-373.8,70.1-375.2,70.1z"/>
			</g>
		</g>
	</g>
</g>
<g>
	<g>
		<path class="st59" d="M-288.7,154.5h-24.2c-7.1,0-12.9-5.8-12.9-12.9v-24.2c0-7.1,5.8-12.9,12.9-12.9h24.2
			c7.1,0,12.9,5.8,12.9,12.9v24.2C-275.8,148.7-281.6,154.5-288.7,154.5z"/>
		<g>
			<g>
				<g>
					<g>
						
							<linearGradient id="SVGID_00000093882259072269737970000013804062656984324244_" gradientUnits="userSpaceOnUse" x1="-300.8" y1="1137.5" x2="-300.8" y2="1177.5" gradientTransform="matrix(1 0 0 1 0 -1028)">
							<stop  offset="0" style="stop-color:#2A2F35"/>
							<stop  offset="1" style="stop-color:#0A0A0A"/>
						</linearGradient>
						<path style="fill:url(#SVGID_00000093882259072269737970000013804062656984324244_);" d="M-291.1,149.5h-19.4
							c-5.7,0-10.3-4.6-10.3-10.3v-19.4c0-5.7,4.6-10.3,10.3-10.3h19.4c5.7,0,10.3,4.6,10.3,10.3v19.4
							C-280.8,144.9-285.4,149.5-291.1,149.5z"/>
					</g>
				</g>
			</g>
		</g>
	</g>
	
		<linearGradient id="SVGID_00000016055759989772516300000011572743301630874752_" gradientUnits="userSpaceOnUse" x1="-300.75" y1="1146.1533" x2="-300.75" y2="1168.8052" gradientTransform="matrix(1 0 0 1 0 -1028)">
		<stop  offset="0" style="stop-color:#FFFFFF"/>
		<stop  offset="1" style="stop-color:#15171A"/>
	</linearGradient>
	<path style="fill:url(#SVGID_00000016055759989772516300000011572743301630874752_);" d="M-300.8,118.2c-6.4,0-11.6,5.2-11.6,11.6
		c0,5.1,3.3,9.5,7.9,11c0.6,0.1,0.8-0.2,0.8-0.6c0-0.3,0-1,0-2c-3.2,0.7-3.9-1.6-3.9-1.6c-0.5-1.3-1.3-1.7-1.3-1.7
		c-1.1-0.7,0.1-0.7,0.1-0.7c1.2,0.1,1.8,1.2,1.8,1.2c1,1.8,2.7,1.3,3.4,1c0.1-0.8-0.2-1.5,0.1-1.8c-2.6-0.3-4.7-1-4.7-5.5
		c0-1.3-0.3-2.5,0.5-3.3c-0.3-0.9-0.5-3,0.5-3.3c0,0,1.3,0.2,3.5,1.7c0.9-0.3,1.9-0.4,2.9-0.4s2,0.1,2.9,0.4
		c2.2-1.5,3.8-1.5,3.8-1.5c0.6,1.6,0.1,2.7,0,3c0.7,0.8,0.7,2.3,0.7,3.5c0,4.5-2.3,5.1-4.8,5.4c0.4,0.3,0.4,1.8,0.4,2.9
		c0,1.6-0.1,2.4-0.1,2.8c0,0.3,0.2,0.7,0.8,0.6c4.6-1.5,8-5.9,8-11C-289.2,123.4-294.4,118.2-300.8,118.2"/>
	
		<linearGradient id="SVGID_00000130625697251847729530000006018510206418545061_" gradientUnits="userSpaceOnUse" x1="-300.75" y1="1146.1533" x2="-300.75" y2="1168.8052" gradientTransform="matrix(1 0 0 1 0 -1028)">
		<stop  offset="0" style="stop-color:#FFFFFF"/>
		<stop  offset="1" style="stop-color:#292E34"/>
	</linearGradient>
	<path style="fill:url(#SVGID_00000130625697251847729530000006018510206418545061_);" d="M-300.8,118.2c-6.4,0-11.6,5.2-11.6,11.6
		c0,5.1,3.3,9.5,7.9,11c0.6,0.1,0.8-0.2,0.8-0.6c0-0.3,0-1,0-2c-3.2,0.7-3.9-1.6-3.9-1.6c-0.5-1.3-1.3-1.7-1.3-1.7
		c-1.1-0.7,0.1-0.7,0.1-0.7c1.2,0.1,1.8,1.2,1.8,1.2c1,1.8,2.7,1.3,3.4,1c0.1-0.8,0.4-1.3,0.7-1.6c-2.6-0.3-5.3-1.3-5.3-5.7
		c0-1.3,0.5-2.3,1.2-3.1c-0.1-0.3-0.5-1.5,0.1-3.1c0,0,1-0.3,3.2,1.2c0.9-0.3,1.9-0.4,2.9-0.4s2,0.1,2.9,0.4
		c2.2-1.5,3.2-1.2,3.2-1.2c0.6,1.6,0.2,2.8,0.1,3.1c0.7,0.8,1.2,1.8,1.2,3.1c0,4.5-2.7,5.4-5.3,5.7c0.4,0.3,0.8,1.1,0.8,2.1
		c0,1.6,0,2.8,0,3.2c0,0.3,0.2,0.7,0.8,0.6c4.6-1.5,8-5.9,8-11C-289.2,123.4-294.4,118.2-300.8,118.2"/>
</g>
<g>
	<g>
		<path class="st63" d="M-171.8,153.5H-196c-7.1,0-12.9-5.8-12.9-12.9v-24.2c0-7.1,5.8-12.9,12.9-12.9h24.2
			c7.1,0,12.9,5.8,12.9,12.9v24.2C-158.9,147.8-164.6,153.5-171.8,153.5z"/>
		<g>
			<g>
				<g>
					<g>
						
							<linearGradient id="SVGID_00000041982646027130969330000003820795417241818553_" gradientUnits="userSpaceOnUse" x1="-183.9" y1="1136.547" x2="-183.9" y2="1176.547" gradientTransform="matrix(1 0 0 1 0 -1028)">
							<stop  offset="0" style="stop-color:#FFBE4A"/>
							<stop  offset="1" style="stop-color:#E57D00"/>
						</linearGradient>
						<path style="fill:url(#SVGID_00000041982646027130969330000003820795417241818553_);" d="M-174.2,148.5h-19.4
							c-5.7,0-10.3-4.6-10.3-10.3v-19.4c0-5.7,4.6-10.3,10.3-10.3h19.4c5.7,0,10.3,4.6,10.3,10.3v19.4
							C-163.9,143.9-168.5,148.5-174.2,148.5z"/>
					</g>
				</g>
			</g>
		</g>
	</g>
	<g>
		<g>
			<g>
				
					<linearGradient id="SVGID_00000032629739878021473690000017196409163692149137_" gradientUnits="userSpaceOnUse" x1="-186.45" y1="1148.6481" x2="-186.45" y2="1166.2943" gradientTransform="matrix(1 0 0 1 0 -1028)">
					<stop  offset="0" style="stop-color:#FFFFFF"/>
					<stop  offset="0.7318" style="stop-color:#D67205"/>
					<stop  offset="1" style="stop-color:#D67205"/>
				</linearGradient>
				<path style="fill:url(#SVGID_00000032629739878021473690000017196409163692149137_);" d="M-184.5,120.8c0-0.1-0.1-0.1-0.2-0.1
					h-4.3c-0.1,0-0.1,0.1-0.1,0.2c0,0.4,0,0.7-0.1,1.1c-0.1,0.2-0.1,0.4-0.2,0.6l-5.3,15.5c0,0.2,0,0.3,0.2,0.3h3.1
					c0.1,0,0.3-0.1,0.3-0.2l1.3-3.9h6.2l1.4,4c0,0.1,0.1,0.2,0.3,0.2h3.5c0.2,0,0.2-0.1,0.2-0.3L-184.5,120.8z M-188.9,130.7
					c0.2-0.7,0.5-1.5,0.7-2.3c0.3-0.8,0.5-1.7,0.8-2.5c0.2-0.7,0.4-1.4,0.6-2.2l0,0c0.1,0.4,0.2,0.8,0.4,1.3c0.1,0.5,0.3,1,0.4,1.5
					c0.2,0.5,0.3,1,0.5,1.5c0.1,0.5,0.3,1,0.4,1.4c0.1,0.4,0.3,0.9,0.4,1.2h-4.2L-188.9,130.7L-188.9,130.7z"/>
				
					<linearGradient id="SVGID_00000085951156677071979390000001083675072408444333_" gradientUnits="userSpaceOnUse" x1="-174.7" y1="1152.4034" x2="-174.7" y2="1166.2449" gradientTransform="matrix(1 0 0 1 0 -1028)">
					<stop  offset="0" style="stop-color:#FFFFFF"/>
					<stop  offset="0.7318" style="stop-color:#D67205"/>
					<stop  offset="1" style="stop-color:#D67205"/>
				</linearGradient>
				<path style="fill:url(#SVGID_00000085951156677071979390000001083675072408444333_);" d="M-172.8,124.6V138
					c0,0.2-0.1,0.3-0.2,0.3h-3.3c-0.2,0-0.3-0.1-0.3-0.3v-13.3c0-0.2,0.1-0.2,0.2-0.2h3.3C-172.8,124.4-172.8,124.5-172.8,124.6z"/>
				
					<linearGradient id="SVGID_00000008115943474560084310000004779379352289743792_" gradientUnits="userSpaceOnUse" x1="-174.8" y1="1147.0311" x2="-174.8" y2="1151.2363" gradientTransform="matrix(1 0 0 1 0 -1028)">
					<stop  offset="0" style="stop-color:#FFFFFF"/>
					<stop  offset="0.7318" style="stop-color:#D67205"/>
					<stop  offset="1" style="stop-color:#D67205"/>
				</linearGradient>
				<path style="fill:url(#SVGID_00000008115943474560084310000004779379352289743792_);" d="M-173.3,119.6c0.4,0.4,0.6,0.9,0.6,1.5
					s-0.2,1.1-0.6,1.5c-0.4,0.4-1,0.6-1.5,0.6c-0.6,0-1.1-0.2-1.5-0.6s-0.6-1-0.6-1.5c0-0.6,0.2-1.1,0.6-1.5
					c0.4-0.4,0.9-0.6,1.5-0.6C-174.1,119-173.6,119.2-173.3,119.6z"/>
			</g>
		</g>
		<g>
			<g>
				
					<linearGradient id="SVGID_00000047758625807589870770000011291487844203142321_" gradientUnits="userSpaceOnUse" x1="-186.7696" y1="1148.1388" x2="-186.7696" y2="1165.785" gradientTransform="matrix(1 0 0 1 0 -1028)">
					<stop  offset="0" style="stop-color:#FFFFFF"/>
					<stop  offset="8.656976e-02" style="stop-color:#FFFBF4"/>
					<stop  offset="0.238" style="stop-color:#FFF1D7"/>
					<stop  offset="0.4363" style="stop-color:#FFDFA8"/>
					<stop  offset="0.6713" style="stop-color:#FEC868"/>
					<stop  offset="0.7821" style="stop-color:#FEBC47"/>
				</linearGradient>
				<path style="fill:url(#SVGID_00000047758625807589870770000011291487844203142321_);" d="M-184.7,120.3c0-0.1-0.1-0.1-0.2-0.1
					h-4.3c-0.1,0-0.2,0.1-0.1,0.2c0,0.4,0,0.7-0.1,1.1c-0.1,0.2-0.1,0.4-0.2,0.6l-5.4,15.5c-0.1,0.2,0,0.3,0.2,0.3h3.1
					c0.2,0,0.3-0.1,0.3-0.2l1.3-3.9h6.2l1.4,4c0,0.1,0.2,0.2,0.3,0.2h3.5c0.2,0,0.2-0.1,0.2-0.3L-184.7,120.3z M-189.1,130.2
					c0.3-0.7,0.5-1.5,0.7-2.3c0.3-0.8,0.5-1.7,0.8-2.5c0.2-0.7,0.4-1.4,0.6-2.2l0,0c0.1,0.4,0.2,0.8,0.4,1.3c0.1,0.5,0.3,1,0.5,1.5
					s0.3,1,0.5,1.5s0.3,1,0.5,1.4s0.3,0.9,0.4,1.2h-4.4V130.2z"/>
				
					<linearGradient id="SVGID_00000059301211086612334050000003241567625981130674_" gradientUnits="userSpaceOnUse" x1="-174.9" y1="1152.4" x2="-174.9" y2="1165.8" gradientTransform="matrix(1 0 0 1 0 -1028)">
					<stop  offset="0" style="stop-color:#FFFFFF"/>
					<stop  offset="0.7318" style="stop-color:#FEBC47"/>
				</linearGradient>
				<path style="fill:url(#SVGID_00000059301211086612334050000003241567625981130674_);" d="M-173,124.6v12.9
					c0,0.2-0.1,0.3-0.2,0.3h-3.3c-0.2,0-0.3-0.1-0.3-0.3v-12.9c0-0.2,0.1-0.2,0.2-0.2h3.3C-173.1,124.4-173,124.5-173,124.6z"/>
				
					<linearGradient id="SVGID_00000081627045882483217510000003945873543453331584_" gradientUnits="userSpaceOnUse" x1="-174.9" y1="1146.8" x2="-174.9" y2="1151.0051" gradientTransform="matrix(1 0 0 1 0 -1028)">
					<stop  offset="0" style="stop-color:#FFFFFF"/>
					<stop  offset="0.676" style="stop-color:#FEBC47"/>
				</linearGradient>
				<path style="fill:url(#SVGID_00000081627045882483217510000003945873543453331584_);" d="M-173.4,119.4c0.4,0.4,0.6,0.9,0.6,1.5
					s-0.2,1.1-0.6,1.5c-0.4,0.4-1,0.6-1.5,0.6c-0.6,0-1.1-0.2-1.5-0.6s-0.6-1-0.6-1.5c0-0.6,0.2-1.1,0.6-1.5
					c0.4-0.4,0.9-0.6,1.5-0.6C-174.2,118.8-173.7,119-173.4,119.4z"/>
			</g>
		</g>
	</g>
</g>
<g>
	<g>
		<path class="st27" d="M-225.4,154.3h-24.2c-7.1,0-12.9-5.8-12.9-12.9v-24.2c0-7.1,5.8-12.9,12.9-12.9h24.2
			c7.1,0,12.9,5.8,12.9,12.9v24.2C-212.5,148.5-218.3,154.3-225.4,154.3z"/>
		<g>
			<g>
				<g>
					<g>
						
							<linearGradient id="SVGID_00000079483627357578921190000014482175512134419375_" gradientUnits="userSpaceOnUse" x1="-237.5" y1="1137.3" x2="-237.5" y2="1177.3" gradientTransform="matrix(1 0 0 1 0 -1028)">
							<stop  offset="0" style="stop-color:#FFDB43"/>
							<stop  offset="1" style="stop-color:#F9C33D"/>
						</linearGradient>
						<path style="fill:url(#SVGID_00000079483627357578921190000014482175512134419375_);" d="M-227.8,149.3h-19.4
							c-5.7,0-10.3-4.6-10.3-10.3v-19.4c0-5.7,4.6-10.3,10.3-10.3h19.4c5.7,0,10.3,4.6,10.3,10.3V139
							C-217.5,144.7-222.1,149.3-227.8,149.3z"/>
					</g>
				</g>
			</g>
		</g>
	</g>
	<g>
		<g>
			<g>
				
					<linearGradient id="SVGID_00000031165664439581751040000012978638521273655231_" gradientUnits="userSpaceOnUse" x1="-237.55" y1="1146.384" x2="-237.55" y2="1169.0359" gradientTransform="matrix(1 0 0 1 0 -1028)">
					<stop  offset="0" style="stop-color:#FFFFFF"/>
					<stop  offset="1" style="stop-color:#D1A537"/>
				</linearGradient>
				<path style="fill:url(#SVGID_00000031165664439581751040000012978638521273655231_);" d="M-229,122.7l-6.8-3.9
					c-1.1-0.6-2.4-0.6-3.5,0l-1.8,1v4.5v1v4.3c0,1.3,0.7,2.4,1.8,3.1c0.5,0.3,1.2,0.5,1.8,0.5s1.2-0.2,1.8-0.5l0,0
					c1.1-0.6,1.8-1.8,1.8-3.1s-0.7-2.4-1.8-3.1l0,0c-0.5-0.3-1.2-0.5-1.8-0.5v-2c0.6,0,1.2,0.2,1.8,0.5l1.9,1.1
					c1.1,0.6,1.8,1.8,1.8,3.1v2.2c0,1.3-0.7,2.4-1.8,3.1l-1.9,1.1c-0.5,0.3-1.2,0.5-1.8,0.5s-1.2-0.2-1.8-0.5l-1.9-1.1
					c-1.1-0.6-1.8-1.8-1.8-3.1v-1.1v-1.1v-2.9V121l-3.1,1.8c-1.1,0.6-1.8,1.8-1.8,3.1v7.8c0,1.3,0.7,2.4,1.8,3.1l6.8,3.9
					c1.1,0.6,2.4,0.6,3.5,0l6.8-3.9c1.1-0.6,1.8-1.8,1.8-3.1v-7.8C-227.2,124.5-227.9,123.4-229,122.7z M-239.7,126.9
					c-0.2,0.2-0.4,0.3-0.5,0.5V125l0.5-0.3V126.9z M-238.3,126.3c-0.2,0-0.4,0.1-0.5,0.2v-2.2c0.2-0.1,0.4-0.1,0.5-0.2V126.3z"/>
			</g>
		</g>
		<g>
			<g>
				
					<linearGradient id="SVGID_00000044144455946085571720000015489165705967266951_" gradientUnits="userSpaceOnUse" x1="-237.55" y1="1145.5785" x2="-237.55" y2="1168.2303" gradientTransform="matrix(1 0 0 1 0 -1028)">
					<stop  offset="0" style="stop-color:#FFFFFF"/>
					<stop  offset="1" style="stop-color:#FDDA42"/>
				</linearGradient>
				<path style="fill:url(#SVGID_00000044144455946085571720000015489165705967266951_);" d="M-229,121.9l-6.8-3.9
					c-1.1-0.6-2.4-0.6-3.5,0l-1.8,1v4.5v1v4.3c0,1.3,0.7,2.4,1.8,3.1c0.5,0.3,1.2,0.5,1.8,0.5s1.2-0.2,1.8-0.5l0,0
					c1.1-0.6,1.8-1.8,1.8-3.1s-0.7-2.4-1.8-3.1l0,0c-0.5-0.3-1.2-0.5-1.8-0.5V123c0.6,0,1.2,0.2,1.8,0.5l1.9,1.1
					c1.1,0.6,1.8,1.8,1.8,3.1v2.2c0,1.3-0.7,2.4-1.8,3.1l-1.9,1.1c-0.5,0.3-1.2,0.5-1.8,0.5s-1.2-0.2-1.8-0.5l-1.9-1.1
					c-1.1-0.6-1.8-1.8-1.8-3.1v-1.1v-1.1v-2.9V120l-3.1,1.8c-1.1,0.6-1.8,1.8-1.8,3.1v7.8c0,1.3,0.7,2.4,1.8,3.1l6.8,3.9
					c1.1,0.6,2.4,0.6,3.5,0l6.8-3.9c1.1-0.6,1.8-1.8,1.8-3.1V125C-227.3,123.7-227.9,122.6-229,121.9z M-239.7,126.1
					c-0.2,0.2-0.4,0.3-0.5,0.5v-2.5l0.5-0.3V126.1z M-238.4,125.5c-0.2,0-0.4,0.1-0.5,0.2v-2.2c0.2-0.1,0.4-0.1,0.5-0.2V125.5z"/>
			</g>
		</g>
	</g>
</g>
<g>
	<path class="st27" d="M-364.7,151.4h-24.2c-7.1,0-12.9-5.8-12.9-12.9v-24.2c0-7.1,5.8-12.9,12.9-12.9h24.2
		c7.1,0,12.9,5.8,12.9,12.9v24.2C-351.8,145.7-357.5,151.4-364.7,151.4z"/>
	<g>
		<g>
			<g>
				<g>
					
						<linearGradient id="SVGID_00000024685364709013813800000002819031735493567131_" gradientUnits="userSpaceOnUse" x1="-376.8" y1="1134.4496" x2="-376.8" y2="1174.4496" gradientTransform="matrix(1 0 0 1 0 -1028)">
						<stop  offset="0" style="stop-color:#FF7A64"/>
						<stop  offset="1" style="stop-color:#CC342D"/>
					</linearGradient>
					<path style="fill:url(#SVGID_00000024685364709013813800000002819031735493567131_);" d="M-367.1,146.4h-19.4
						c-5.7,0-10.3-4.6-10.3-10.3v-19.4c0-5.7,4.6-10.3,10.3-10.3h19.4c5.7,0,10.3,4.6,10.3,10.3v19.4
						C-356.8,141.8-361.4,146.4-367.1,146.4z"/>
				</g>
			</g>
		</g>
	</g>
</g>
<g>
	
		<linearGradient id="SVGID_00000021095313735913273800000002992438683770350259_" gradientUnits="userSpaceOnUse" x1="-381.5786" y1="1146.5428" x2="-369.8444" y2="1166.8669" gradientTransform="matrix(1 0 0 1 0 -1028)">
		<stop  offset="0" style="stop-color:#FFFFFF"/>
		<stop  offset="0.5978" style="stop-color:#C12F2F"/>
		<stop  offset="1" style="stop-color:#C12F2F"/>
	</linearGradient>
	<path style="fill:url(#SVGID_00000021095313735913273800000002992438683770350259_);" d="M-369,115.5c2.9,0.5,3.7,2.5,3.6,4.5l0,0
		l-1.3,17l-16.9,1.2l0,0c-1.4-0.1-4.5-0.2-4.7-4.5l1.6-2.8l2.7,6.3l0.5,1.1l2.7-8.7l0,0l0,0l8.8,2.8l-1.3-5.2l-0.9-3.7l8.4-0.5
		l-0.6-0.5l-6-4.9L-369,115.5L-369,115.5z M-383.3,120.3c3.4-3.4,7.7-5.3,9.4-3.6c1.7,1.7-0.1,5.8-3.5,9.2c-3.4,3.4-7.7,5.4-9.4,3.8
		C-388.4,127.8-386.7,123.6-383.3,120.3L-383.3,120.3z"/>
	
		<linearGradient id="SVGID_00000116225464928030541070000002656615926515870613_" gradientUnits="userSpaceOnUse" x1="-376.8459" y1="1142.7255" x2="-376.8459" y2="1165.3774" gradientTransform="matrix(1 0 0 1 0 -1028)">
		<stop  offset="0" style="stop-color:#FFFFFF"/>
		<stop  offset="1" style="stop-color:#FD7762"/>
	</linearGradient>
	<path style="fill:url(#SVGID_00000116225464928030541070000002656615926515870613_);" d="M-369,114.7c2.9,0.5,3.7,2.5,3.6,4.5l0,0
		l-1.3,17l-16.9,1.2l0,0c-1.4-0.1-4.5-0.2-4.7-4.5l1.6-2.8l2.7,6.3l0.5,1.1l2.7-8.7l0,0l0,0l8.8,2.8l-1.3-5.2l-0.9-3.7l8.4-0.5
		l-0.6-0.5l-6-4.9L-369,114.7L-369,114.7z M-383.3,119.5c3.4-3.4,7.7-5.3,9.4-3.6c1.7,1.7-0.1,5.8-3.5,9.2c-3.4,3.4-7.7,5.4-9.4,3.8
		C-388.4,127-386.7,122.8-383.3,119.5L-383.3,119.5z"/>
</g>
<g>
	<path class="st27" d="M-172.4,209.1h-24.2c-7.1,0-12.9-5.8-12.9-12.9V172c0-7.1,5.8-12.9,12.9-12.9h24.2c7.1,0,12.9,5.8,12.9,12.9
		v24.2C-159.5,203.3-165.3,209.1-172.4,209.1z"/>
	<g>
		<g>
			<g>
				<g>
					
						<linearGradient id="SVGID_00000178193458111335949570000002737362783708917949_" gradientUnits="userSpaceOnUse" x1="-184.5" y1="1192.1" x2="-184.5" y2="1232.1" gradientTransform="matrix(1 0 0 1 0 -1028)">
						<stop  offset="0" style="stop-color:#FF5942"/>
						<stop  offset="1" style="stop-color:#CB3837"/>
					</linearGradient>
					<path style="fill:url(#SVGID_00000178193458111335949570000002737362783708917949_);" d="M-174.8,204.1h-19.4
						c-5.7,0-10.3-4.6-10.3-10.3v-19.4c0-5.7,4.6-10.3,10.3-10.3h19.4c5.7,0,10.3,4.6,10.3,10.3v19.4
						C-164.5,199.5-169.1,204.1-174.8,204.1z"/>
				</g>
			</g>
		</g>
	</g>
</g>
<g>
	
		<linearGradient id="SVGID_00000174599218764666284580000001552867999780963995_" gradientUnits="userSpaceOnUse" x1="-184.45" y1="-121.1463" x2="-184.45" y2="-143.9463" gradientTransform="matrix(1 0 0 -1 0 52)">
		<stop  offset="0" style="stop-color:#E5E5E5"/>
		<stop  offset="1" style="stop-color:#A52F2F"/>
	</linearGradient>
	<path style="fill:url(#SVGID_00000174599218764666284580000001552867999780963995_);" d="M-194.2,173.1c-0.9,0-1.7,0.7-1.7,1.7
		v19.5c0,0.9,0.7,1.7,1.7,1.7h19.5c0.9,0,1.7-0.7,1.7-1.7v-19.5c0-0.9-0.7-1.7-1.7-1.7H-194.2z M-191.4,177.9h13.8v13.8h-3.5v-10.4
		h-3.5v10.4h-6.9L-191.4,177.9z"/>
	
		<linearGradient id="SVGID_00000011731671127980247490000016359071943245500588_" gradientUnits="userSpaceOnUse" x1="-184.45" y1="-120.2759" x2="-184.45" y2="-143.0759" gradientTransform="matrix(1 0 0 -1 0 52)">
		<stop  offset="0" style="stop-color:#FFFFFF"/>
		<stop  offset="1" style="stop-color:#FE5842"/>
	</linearGradient>
	<path style="fill:url(#SVGID_00000011731671127980247490000016359071943245500588_);" d="M-194.2,172.3c-0.9,0-1.7,0.7-1.7,1.7
		v19.5c0,0.9,0.7,1.7,1.7,1.7h19.5c0.9,0,1.7-0.7,1.7-1.7V174c0-0.9-0.7-1.7-1.7-1.7H-194.2z M-191.4,177h13.8v13.8h-3.5v-10.4h-3.5
		v10.4h-6.9L-191.4,177z"/>
</g>
<g>
	<path class="st59" d="M-227.2,208.7h-24.2c-7.1,0-12.9-5.8-12.9-12.9v-24.2c0-7.1,5.8-12.9,12.9-12.9h24.2
		c7.1,0,12.9,5.8,12.9,12.9v24.2C-214.3,202.9-220.1,208.7-227.2,208.7z"/>
	<g>
		<g>
			<g>
				<g>
					
						<linearGradient id="SVGID_00000160883492313476602820000013750436936491930781_" gradientUnits="userSpaceOnUse" x1="-239.3" y1="1191.7" x2="-239.3" y2="1231.7" gradientTransform="matrix(1 0 0 1 0 -1028)">
						<stop  offset="0" style="stop-color:#2A2F35"/>
						<stop  offset="1" style="stop-color:#0A0A0A"/>
					</linearGradient>
					<path style="fill:url(#SVGID_00000160883492313476602820000013750436936491930781_);" d="M-229.6,203.7H-249
						c-5.7,0-10.3-4.6-10.3-10.3V174c0-5.7,4.6-10.3,10.3-10.3h19.4c5.7,0,10.3,4.6,10.3,10.3v19.4
						C-219.3,199.1-223.9,203.7-229.6,203.7z"/>
				</g>
			</g>
		</g>
	</g>
</g>
<g>
	
		<linearGradient id="SVGID_00000039819611015731933980000017487307296705574326_" gradientUnits="userSpaceOnUse" x1="-239.25" y1="-120.4" x2="-239.25" y2="-143.2" gradientTransform="matrix(1 0 0 -1 0 52)">
		<stop  offset="0" style="stop-color:#FFFFFF"/>
		<stop  offset="0.5464" style="stop-color:#101112"/>
	</linearGradient>
	<path style="fill:url(#SVGID_00000039819611015731933980000017487307296705574326_);" d="M-241,172.4v6.1l1.7,2.3l1.7-2.3v-6.1
		H-241z M-237.6,178.6v2.9l2.8-0.9l3.6-4.9l-2.8-2L-237.6,178.6z M-234.8,180.6l-1.7,2.4l2.8,0.9l5.8-1.9l-1.1-3.3L-234.8,180.6z
		 M-233.7,183.8l-2.8,0.9l1.7,2.4l5.8,1.9l1.1-3.3L-233.7,183.8z M-234.8,187.1l-2.8-0.9v2.9l3.6,5l2.8-2L-234.8,187.1z
		 M-237.6,189.1l-1.7-2.3l-1.7,2.3v6.1h3.4V189.1z M-241,189.1v-2.9l-2.8,0.9l-3.6,4.9l2.8,2L-241,189.1z M-243.7,187.1l1.7-2.4
		l-2.8-0.9l-5.8,1.9l1.1,3.3L-243.7,187.1z M-244.8,183.8l2.8-0.9l-1.7-2.4l-5.8-1.9l-1.1,3.3L-244.8,183.8z M-243.7,180.6l2.8,0.9
		v-2.9l-3.6-5l-2.8,2L-243.7,180.6z"/>
	
		<linearGradient id="SVGID_00000156562421977293736280000016089369367569323966_" gradientUnits="userSpaceOnUse" x1="-239.25" y1="-120.1295" x2="-239.25" y2="-142.9295" gradientTransform="matrix(1 0 0 -1 0 52)">
		<stop  offset="0" style="stop-color:#FFFFFF"/>
		<stop  offset="1" style="stop-color:#41474A"/>
	</linearGradient>
	<path style="fill:url(#SVGID_00000156562421977293736280000016089369367569323966_);" d="M-241,172.1v6.1l1.7,2.3l1.7-2.3v-6.1
		H-241z M-237.6,178.3v2.9l2.8-0.9l3.6-4.9l-2.8-2L-237.6,178.3z M-234.8,180.3l-1.7,2.4l2.8,0.9l5.8-1.9l-1.1-3.3L-234.8,180.3z
		 M-233.7,183.5l-2.8,0.9l1.7,2.4l5.8,1.9l1.1-3.3L-233.7,183.5z M-234.8,186.8l-2.8-0.9v2.9l3.6,5l2.8-2L-234.8,186.8z
		 M-237.6,188.8l-1.7-2.3l-1.7,2.3v6.1h3.4V188.8z M-241,188.8v-2.9l-2.8,0.9l-3.6,4.9l2.8,2L-241,188.8z M-243.7,186.8l1.7-2.4
		l-2.8-0.9l-5.8,1.9l1.1,3.3L-243.7,186.8z M-244.8,183.5l2.8-0.9l-1.7-2.4l-5.8-1.9l-1.1,3.3L-244.8,183.5z M-243.7,180.3l2.8,0.9
		v-2.9l-3.6-5l-2.8,2L-243.7,180.3z"/>
</g>
<g>
	<path class="st83" d="M-290.1,214.8h-24.2c-7.1,0-12.9-5.8-12.9-12.9v-24.2c0-7.1,5.8-12.9,12.9-12.9h24.2
		c7.1,0,12.9,5.8,12.9,12.9v24.2C-277.2,209-283,214.8-290.1,214.8z"/>
	<g>
		<g>
			<g>
				<g>
					
						<linearGradient id="SVGID_00000084498434032388410550000005129341079483182743_" gradientUnits="userSpaceOnUse" x1="-302.1556" y1="1237.8" x2="-302.1556" y2="1197.8" gradientTransform="matrix(1 0 0 1 0 -1028)">
						<stop  offset="0" style="stop-color:#5D9DE2"/>
						<stop  offset="1" style="stop-color:#61DAFB"/>
					</linearGradient>
					<path style="fill:url(#SVGID_00000084498434032388410550000005129341079483182743_);" d="M-292.5,209.8h-19.4
						c-5.7,0-10.3-4.6-10.3-10.3v-19.4c0-5.7,4.6-10.3,10.3-10.3h19.4c5.7,0,10.3,4.6,10.3,10.3v19.4
						C-282.2,205.2-286.8,209.8-292.5,209.8z"/>
				</g>
			</g>
		</g>
	</g>
</g>
<g>
	
		<linearGradient id="SVGID_00000016784159698124969010000005165114672881628338_" gradientUnits="userSpaceOnUse" x1="-302.1543" y1="178.7272" x2="-302.1543" y2="201.5273">
		<stop  offset="0" style="stop-color:#FFFFFF"/>
		<stop  offset="1" style="stop-color:#4B88B5"/>
	</linearGradient>
	<path style="fill:url(#SVGID_00000016784159698124969010000005165114672881628338_);" d="M-299.8,190.1c0,1.3-1.1,2.4-2.4,2.4
		c-1.3,0-2.4-1.1-2.4-2.4l0,0c0-1.3,1.1-2.4,2.4-2.4C-300.8,187.7-299.8,188.8-299.8,190.1L-299.8,190.1z M-297,178.7
		c-1.4,0-3.3,1-5.2,2.8c-1.9-1.8-3.8-2.8-5.2-2.8c-0.4,0-0.8,0.1-1.2,0.3c-1.5,0.8-1.8,3.5-1,6.8c-3.2,1-5.4,2.6-5.4,4.3
		c0,1.7,2.1,3.3,5.4,4.3c-0.8,3.3-0.4,6,1.1,6.8c0.3,0.2,0.7,0.3,1.2,0.3c1.4,0,3.3-1,5.2-2.8c1.9,1.8,3.8,2.8,5.2,2.8
		c0.4,0,0.8-0.1,1.2-0.3c1.5-0.8,1.8-3.5,1-6.8c3.2-1,5.3-2.6,5.3-4.3c0-1.7-2.1-3.3-5.4-4.3c0.8-3.3,0.4-6-1.1-6.8
		C-296.1,178.8-296.5,178.7-297,178.7L-297,178.7z M-297,179.9L-297,179.9c0.2,0,0.4,0.1,0.6,0.1c0.7,0.4,1,2,0.8,4
		c-0.1,0.5-0.2,1-0.3,1.5c-1-0.3-2.1-0.4-3.3-0.6c-0.7-1-1.4-1.8-2.2-2.6C-299.6,180.8-298,179.9-297,179.9L-297,179.9z
		 M-307.4,179.9c1.1,0,2.7,0.9,4.4,2.4c-0.7,0.8-1.5,1.6-2.2,2.6c-1.2,0.1-2.3,0.3-3.3,0.6c-0.1-0.5-0.2-1-0.3-1.5
		c-0.2-2,0.1-3.5,0.8-4C-307.8,180-307.6,179.9-307.4,179.9L-307.4,179.9z M-302.2,183.2c0.5,0.5,1,1.1,1.5,1.7c-0.5,0-0.9,0-1.4,0
		c-0.5,0-1,0-1.5,0C-303.1,184.2-302.7,183.7-302.2,183.2L-302.2,183.2z M-302.2,186c0.8,0,1.6,0,2.3,0.1c0.4,0.6,0.9,1.3,1.3,2
		c0.4,0.7,0.8,1.4,1.1,2.1c-0.3,0.7-0.7,1.4-1.1,2.1c-0.4,0.7-0.8,1.4-1.3,2c-0.8,0.1-1.6,0.1-2.4,0.1c-0.8,0-1.6,0-2.3-0.1
		c-0.4-0.6-0.9-1.3-1.3-2c-0.4-0.7-0.8-1.4-1.1-2.1c0.3-0.7,0.7-1.4,1.1-2.1c0.4-0.7,0.8-1.4,1.3-2C-303.7,186-302.9,186-302.2,186
		L-302.2,186z M-306,186.2c-0.3,0.4-0.5,0.8-0.8,1.2c-0.2,0.4-0.5,0.8-0.7,1.3c-0.3-0.7-0.5-1.4-0.7-2.1
		C-307.5,186.5-306.8,186.3-306,186.2L-306,186.2z M-298.3,186.2c0.7,0.1,1.5,0.2,2.1,0.4c-0.2,0.7-0.4,1.4-0.7,2.1
		c-0.2-0.4-0.4-0.8-0.7-1.3C-297.8,187-298,186.6-298.3,186.2L-298.3,186.2z M-295,187c0.5,0.2,1,0.3,1.5,0.5c1.8,0.8,3,1.8,3,2.6
		c0,0.8-1.2,1.9-3,2.6c-0.4,0.2-0.9,0.4-1.4,0.5c-0.3-1-0.7-2.1-1.2-3.2C-295.7,189-295.3,188-295,187L-295,187z M-309.3,187
		c0.3,1,0.7,2.1,1.2,3.2c-0.5,1.1-0.9,2.1-1.2,3.2c-0.5-0.2-1-0.3-1.5-0.5c-1.8-0.8-3-1.8-3-2.6s1.2-1.9,3-2.6
		C-310.3,187.3-309.8,187.1-309.3,187z M-296.9,191.5c0.3,0.7,0.5,1.4,0.7,2.1c-0.7,0.2-1.4,0.3-2.2,0.4c0.3-0.4,0.5-0.8,0.8-1.2
		C-297.3,192.4-297.1,191.9-296.9,191.5L-296.9,191.5z M-307.5,191.5c0.2,0.4,0.4,0.8,0.7,1.3c0.2,0.4,0.5,0.8,0.8,1.2
		c-0.7-0.1-1.5-0.2-2.1-0.4C-308,192.9-307.7,192.2-307.5,191.5L-307.5,191.5z M-295.8,194.7c0.1,0.5,0.2,1,0.3,1.5
		c0.2,2-0.1,3.5-0.8,4c-0.2,0.1-0.4,0.1-0.6,0.1c-1.1,0-2.7-0.9-4.4-2.4c0.7-0.8,1.5-1.6,2.2-2.6C-298,195.2-296.9,195-295.8,194.7
		L-295.8,194.7z M-308.5,194.7c1,0.2,2.1,0.4,3.3,0.6c0.7,1,1.4,1.8,2.2,2.6c-1.7,1.6-3.3,2.4-4.4,2.4c-0.2,0-0.4-0.1-0.6-0.1
		c-0.7-0.4-1-2-0.8-3.9C-308.7,195.8-308.6,195.3-308.5,194.7L-308.5,194.7z M-303.6,195.4c0.5,0,0.9,0,1.4,0c0.5,0,1,0,1.5,0
		c-0.5,0.6-1,1.2-1.4,1.7C-302.6,196.6-303.1,196-303.6,195.4z"/>
	
		<linearGradient id="SVGID_00000092444058250144872350000017598007174817671078_" gradientUnits="userSpaceOnUse" x1="-302.1569" y1="178.0728" x2="-302.1569" y2="200.8728">
		<stop  offset="0" style="stop-color:#FFFFFF"/>
		<stop  offset="1" style="stop-color:#61D8FB"/>
	</linearGradient>
	<path style="fill:url(#SVGID_00000092444058250144872350000017598007174817671078_);" d="M-299.8,189.5c0,1.3-1.1,2.4-2.4,2.4
		c-1.3,0-2.4-1.1-2.4-2.4l0,0c0-1.3,1.1-2.4,2.4-2.4C-300.8,187.1-299.8,188.2-299.8,189.5L-299.8,189.5z M-297,178.1
		c-1.4,0-3.3,1-5.2,2.8c-1.9-1.8-3.8-2.8-5.2-2.8c-0.4,0-0.8,0.1-1.2,0.3c-1.5,0.8-1.8,3.5-1,6.8c-3.2,1-5.4,2.6-5.4,4.3
		c0,1.7,2.1,3.3,5.4,4.3c-0.8,3.3-0.4,6,1.1,6.8c0.3,0.2,0.7,0.3,1.2,0.3c1.4,0,3.3-1,5.2-2.8c1.9,1.8,3.8,2.8,5.2,2.8
		c0.4,0,0.8-0.1,1.2-0.3c1.5-0.8,1.8-3.5,1-6.8c3.2-1,5.3-2.6,5.3-4.3c0-1.7-2.1-3.3-5.4-4.3c0.8-3.3,0.4-6-1.1-6.8
		C-296.1,178.2-296.5,178.1-297,178.1L-297,178.1z M-297,179.2L-297,179.2c0.2,0,0.4,0.1,0.6,0.1c0.7,0.4,1,2,0.8,4
		c-0.1,0.5-0.2,1-0.3,1.5c-1-0.3-2.1-0.4-3.3-0.6c-0.7-1-1.4-1.8-2.2-2.6C-299.6,180.1-298,179.2-297,179.2L-297,179.2z
		 M-307.4,179.3c1.1,0,2.7,0.9,4.4,2.4c-0.7,0.8-1.5,1.6-2.2,2.6c-1.2,0.1-2.3,0.3-3.3,0.6c-0.1-0.5-0.2-1-0.3-1.5
		c-0.2-2,0.1-3.5,0.8-4C-307.8,179.3-307.6,179.3-307.4,179.3L-307.4,179.3z M-302.2,182.5c0.5,0.5,1,1.1,1.5,1.7
		c-0.5,0-0.9,0-1.4,0c-0.5,0-1,0-1.5,0C-303.1,183.6-302.7,183-302.2,182.5L-302.2,182.5z M-302.2,185.3c0.8,0,1.6,0,2.3,0.1
		c0.4,0.6,0.9,1.3,1.3,2c0.4,0.7,0.8,1.4,1.1,2.1c-0.3,0.7-0.7,1.4-1.1,2.1c-0.4,0.7-0.8,1.4-1.3,2c-0.8,0.1-1.6,0.1-2.4,0.1
		c-0.8,0-1.6,0-2.3-0.1c-0.4-0.6-0.9-1.3-1.3-2c-0.4-0.7-0.8-1.4-1.1-2.1c0.3-0.7,0.7-1.4,1.1-2.1c0.4-0.7,0.8-1.4,1.3-2
		C-303.7,185.3-303,185.3-302.2,185.3L-302.2,185.3z M-306,185.6c-0.3,0.4-0.5,0.8-0.8,1.2c-0.2,0.4-0.5,0.8-0.7,1.3
		c-0.3-0.7-0.5-1.4-0.7-2.1C-307.5,185.8-306.8,185.7-306,185.6L-306,185.6z M-298.3,185.6c0.7,0.1,1.5,0.2,2.1,0.4
		c-0.2,0.7-0.4,1.4-0.7,2.1c-0.2-0.4-0.4-0.8-0.7-1.3C-297.8,186.4-298,186-298.3,185.6L-298.3,185.6z M-295,186.3
		c0.5,0.2,1,0.3,1.5,0.5c1.8,0.8,3,1.8,3,2.6c0,0.8-1.2,1.9-3,2.6c-0.4,0.2-0.9,0.4-1.4,0.5c-0.3-1-0.7-2.1-1.2-3.2
		C-295.7,188.4-295.3,187.3-295,186.3L-295,186.3z M-309.3,186.3c0.3,1,0.7,2.1,1.2,3.2c-0.5,1.1-0.9,2.1-1.2,3.2
		c-0.5-0.2-1-0.3-1.5-0.5c-1.8-0.8-3-1.8-3-2.6s1.2-1.9,3-2.6C-310.3,186.6-309.8,186.5-309.3,186.3z M-296.9,190.9
		c0.3,0.7,0.5,1.4,0.7,2.1c-0.7,0.2-1.4,0.3-2.2,0.4c0.3-0.4,0.5-0.8,0.8-1.2C-297.3,191.7-297.1,191.3-296.9,190.9L-296.9,190.9z
		 M-307.5,190.9c0.2,0.4,0.4,0.8,0.7,1.3c0.2,0.4,0.5,0.8,0.8,1.2c-0.7-0.1-1.5-0.2-2.1-0.4C-308,192.3-307.7,191.6-307.5,190.9
		L-307.5,190.9z M-295.8,194.1c0.1,0.5,0.2,1,0.3,1.5c0.2,2-0.1,3.5-0.8,4c-0.2,0.1-0.4,0.1-0.6,0.1c-1.1,0-2.7-0.9-4.4-2.4
		c0.7-0.8,1.5-1.6,2.2-2.6C-298,194.5-296.9,194.3-295.8,194.1L-295.8,194.1z M-308.5,194.1c1,0.2,2.1,0.4,3.3,0.6
		c0.7,1,1.4,1.8,2.2,2.6c-1.7,1.6-3.3,2.4-4.4,2.4c-0.2,0-0.4-0.1-0.6-0.1c-0.7-0.4-1-2-0.8-3.9
		C-308.7,195.1-308.6,194.6-308.5,194.1L-308.5,194.1z M-303.6,194.8c0.5,0,0.9,0,1.4,0c0.5,0,1,0,1.5,0c-0.5,0.6-1,1.2-1.4,1.7
		C-302.6,195.9-303.1,195.4-303.6,194.8z"/>
</g>
<linearGradient id="SVGID_00000099646759996653995350000012093773047040535487_" gradientUnits="userSpaceOnUse" x1="-33.7444" y1="3.7112" x2="-33.7444" y2="26.5112">
	<stop  offset="0" style="stop-color:#FFFFFF"/>
	<stop  offset="1" style="stop-color:#FD4E61"/>
</linearGradient>
<path style="fill:url(#SVGID_00000099646759996653995350000012093773047040535487_);" d="M-31.7,3.7c-0.2,0-0.3,0-0.5,0.1
	c0.3,0.2,0.5,0.5,0.5,0.8c0,0,0,0.1,0,0.1c0,0,0,0.1,0,0.1c0,0.5-0.1,0.6-0.2,0.9C-32,6.1-32,6.5-31.8,6.8c0,0,0,0.1,0.1,0.1
	c-0.2-1.5,1-1.7,1.3-2.2c0-0.4-0.3-0.7-0.6-0.9C-31.2,3.8-31.5,3.7-31.7,3.7L-31.7,3.7z M-29.8,4c0,0.1,0,0.1,0,0.2c0,0,0,0.1,0,0.2
	c0,0,0,0.1,0,0.1c0,0,0,0.1,0,0.1L-30,4.8c0,0,0,0,0,0.1l0,0.1c0,0-0.1,0.1-0.1,0.1c0,0-0.1,0.1-0.1,0.1v0c0,0-0.1,0.1-0.1,0.1
	c-0.1,0.1-0.3,0.2-0.4,0.3c0,0-0.1,0.1-0.1,0.1c0,0-0.1,0.1-0.1,0.1c0,0-0.1,0.1-0.1,0.1c0,0-0.1,0.1-0.1,0.1c0,0-0.1,0.1-0.1,0.1
	c0,0,0,0.1-0.1,0.1c0,0,0,0.1,0,0.1c0,0,0,0.1,0,0.1c0,0,0,0.1,0,0.1c0,0,0,0,0,0.1c0,0,0,0.1,0,0.1c0,0,0,0.1,0,0.1
	c0,0,0,0.1,0,0.1c0,0,0,0.1,0,0.1c0,0,0,0.1,0,0.1c0,0,0,0.1,0,0.1l-1.4-0.5c-0.2-0.1-0.5-0.1-0.7-0.2l-0.4-0.1
	c-0.4-0.1-0.7-0.1-1.1-0.2c0,0,0,0,0,0c-0.6-0.1-1.2-0.1-1.8,0c-0.4,0-0.7,0.1-1.1,0.1c-0.3,0-0.5,0.1-0.8,0.2l-0.3,0.1
	c-0.1,0-0.2,0.1-0.3,0.1L-39.3,7c0,0,0,0,0,0c-0.1,0-0.1,0.1-0.2,0.1c-0.1,0-0.2,0.1-0.2,0.1c0,0-0.1,0-0.1,0.1c0,0,0,0-0.1,0
	c-0.1,0-0.1,0.1-0.2,0.1c0,0-0.1,0.1-0.1,0.1c0,0-0.1,0.1-0.1,0.1c0,0,0,0,0,0c0,0-0.1,0.1-0.1,0.1l0,0l-0.1,0.1c0,0,0,0,0,0
	c0,0-0.1,0.1-0.1,0.1c0,0,0,0,0,0c0,0-0.1,0.1-0.1,0.1c0,0,0,0,0,0c0,0-0.1,0.1-0.1,0.1c0,0,0,0,0,0c0,0-0.1,0.1-0.1,0.1
	c0,0,0,0,0,0c0,0-0.1,0.1-0.1,0.1c0,0,0,0,0,0c0,0-0.1,0.1-0.1,0.1l0,0c-0.1,0.1-0.2,0.2-0.3,0.3C-41.7,8.8-41.8,8.9-42,9
	c-0.2,0.2-0.5,0.3-0.7,0.4c-0.1,0.1-0.3,0.1-0.4,0.1c-0.2,0.1-0.5,0.2-0.7,0.2c0,0-0.1,0-0.1,0l-0.1,0l-0.1,0.1c0,0-0.1,0-0.1,0.1
	c0,0-0.1,0.1-0.1,0.1c0,0-0.1,0.1-0.1,0.1c0,0-0.1,0.1-0.1,0.1c0,0-0.1,0.1-0.1,0.1c0,0-0.1,0.1-0.1,0.1c0,0-0.1,0.1-0.1,0.1
	c0,0.1,0,0.1-0.1,0.2c0,0,0,0.1-0.1,0.2c0,0,0,0.1,0,0.1c0,0,0,0,0,0c0,0.1,0,0.1,0,0.2c0,0,0,0.1,0,0.1c0,0.1,0,0.2,0.1,0.3v0
	c0,0,0,0.1,0.1,0.1c0,0,0,0.1,0.1,0.1c0,0,0.1,0.1,0.1,0.1c0,0,0.1,0.1,0.1,0.1c0.1,0.1,0.2,0.2,0.4,0.3c0,0,0.1,0,0.1,0
	c0,0,0,0,0,0c0,0,0,0,0,0c0,0.1,0,0.2,0.1,0.3c0,0,0,0.1,0,0.1c0,0,0,0,0,0c0,0,0,0.1,0.1,0.1L-44,13c0,0,0.1,0.1,0.1,0.1
	c0,0,0.1,0.1,0.1,0.1c0,0,0,0,0,0c0,0,0.1,0.1,0.1,0.1c0,0,0.1,0.1,0.1,0.1c0,0,0.1,0,0.1,0.1c0,0,0.1,0,0.1,0c0,0,0,0,0,0
	c0,0,0.1,0,0.1,0c0,0.3,0,0.6,0,0.7c0.1,0.1,0.3-0.2,0.6-0.7c0,0.4-0.1,0.9,0,1c0.1,0.1,0.4-0.3,0.7-0.8c4.2-1,8,1.9,8.4,6
	c-0.1-0.6-0.9-1-1.2-0.9c-0.2,0.4-0.5,1-1,1.3c0-0.4,0-0.8-0.1-1.2c-0.1,0.5-0.4,1.1-0.7,1.5c-0.6,0-1.1-0.2-1.4-0.6
	c0,0,0-0.1,0-0.1c0,0,0-0.1,0-0.1c0,0,0-0.1,0-0.1c0,0,0-0.1,0-0.1v-0.1c0,0,0-0.1,0-0.1c0,0,0-0.1,0-0.1c0,0,0-0.1,0.1-0.1
	c0.1-0.3,0.1-0.5-0.1-0.7c0,0-0.1,0-0.1-0.1c0,0-0.1,0-0.1,0l0,0c0,0-0.1,0-0.1,0c0,0-0.1,0-0.1,0c0,0-0.1,0-0.1,0c0,0-0.1,0-0.1,0
	c0,0-0.1,0-0.1,0c0,0-0.1,0-0.1,0c0,0-0.1,0-0.1,0c0,0-0.1,0-0.1,0.1c0,0-0.1,0-0.1,0.1c-1.4,0.9-0.6,3,0.4,3.6
	c-0.4,0.1-0.7,0.1-0.8,0.2l0,0c0.3,0.2,0.5,0.3,0.8,0.4c0.4,0.1,0.8,0.2,1,0.3v0c0.5,0.1,1,0.1,1.5,0.1c2.6-0.2,4.8-2.2,5.2-4.8
	l0,0.2c0,0.1,0,0.2,0.1,0.3v0c0,0.1,0,0.1,0,0.2v0c0,0.1,0,0.1,0,0.2c0,0.1,0,0.1,0,0.2v0.1c0,0,0,0.1,0,0.1c0,0,0,0.1,0,0.1v0.1
	c0,0,0,0.1,0,0.1c0,0,0,0,0,0.1c0,0,0,0.1,0,0.1c0,0,0,0,0,0.1l0,0.1c0,0,0,0,0,0.1c0,0.1,0,0.1,0,0.2v0l0,0.2v0l0,0.2c0,0,0,0,0,0
	c0,0.1,0,0.1,0,0.2v0c0,0.1,0,0.1,0,0.2c0,0,0,0,0,0l-0.1,0.2c0,0.1,0,0.1-0.1,0.2c0,0.1,0,0.1-0.1,0.2c0,0.1,0,0.1-0.1,0.2h0
	c0,0.1,0,0.1-0.1,0.2c0,0,0,0,0,0c0,0,0,0,0,0c-0.4,0.8-1,1.5-1.7,2c0,0-0.1,0.1-0.1,0.1c0,0,0,0,0,0c0,0-0.1,0.1-0.1,0.1l0,0h0
	l0.2,0h0c0.2,0,0.3-0.1,0.5-0.1c0,0,0.1,0,0.1,0l0.1,0c0,0,0.1,0,0.1,0c0,0,0.1,0,0.1,0c0.6-0.1,1.2-0.3,1.7-0.6
	c-1,1.3-2.2,2.3-3.7,3c0.7,0,1.4-0.2,2-0.3c2.4-0.7,4.4-2.3,5.6-4.5c-0.2,1.4-0.8,2.7-1.6,3.8c0.6-0.4,1.1-0.8,1.6-1.3
	c1.3-1.4,2.2-3.1,2.5-5c0.2,0.9,0.3,1.9,0.2,2.8c4.3-6,0.4-12.1-1.3-13.7c0,0,0,0,0,0c0,0,0,0,0,0c0,0,0,0,0,0c0,0.1,0,0.1,0,0.2
	c0,0.1,0,0.3-0.1,0.4c0,0.1-0.1,0.3-0.1,0.4c0,0.1-0.1,0.3-0.1,0.4C-25.9,9.7-26,9.9-26,10c-0.1,0.2-0.3,0.5-0.5,0.7
	c-0.1,0.1-0.2,0.2-0.3,0.3c-0.1,0.1-0.1,0.1-0.2,0.1l-0.1,0.1c-0.1,0.1-0.2,0.2-0.3,0.2c-0.1,0.1-0.2,0.1-0.3,0.2
	c-0.1,0.1-0.2,0.1-0.4,0.2c-0.3,0.1-0.5,0.2-0.8,0.2c-0.1,0-0.3,0-0.4,0c-0.1,0-0.2,0-0.3,0c-0.1,0-0.3,0-0.4,0
	c-0.1,0-0.3,0-0.4-0.1c-0.1,0-0.3-0.1-0.4-0.1h0c0.1,0,0.3,0,0.4,0c0.3,0,0.5-0.1,0.8-0.2c0.1,0,0.3-0.1,0.4-0.2
	c0.1-0.1,0.2-0.1,0.4-0.2c0.1-0.1,0.2-0.2,0.3-0.2c0.1-0.1,0.2-0.2,0.3-0.3c0.1-0.1,0.2-0.2,0.3-0.3c0.1-0.1,0.2-0.2,0.2-0.3
	c0,0,0,0,0-0.1c0.1-0.1,0.1-0.2,0.2-0.3c0.1-0.2,0.2-0.5,0.3-0.7c0-0.1,0.1-0.3,0.1-0.4c0-0.1,0-0.3,0.1-0.4c0-0.1,0-0.3,0-0.4
	c0-0.1,0-0.2,0-0.3c0-0.1,0-0.3,0-0.4c0-0.1-0.1-0.3-0.1-0.4c0-0.1-0.1-0.3-0.1-0.4c0-0.1-0.1-0.2-0.2-0.4c-0.1-0.1-0.1-0.2-0.2-0.3
	c-0.1-0.1-0.2-0.2-0.2-0.3c-0.1-0.1-0.2-0.2-0.3-0.3c0-0.1-0.1-0.1-0.2-0.1c-0.3-0.2-0.5-0.4-0.8-0.6c0,0-0.1,0-0.1-0.1
	C-29.4,4.2-29.6,4.1-29.8,4L-29.8,4z"/>
<g>
	
		<linearGradient id="SVGID_00000075139960071459148540000010551151984591918222_" gradientUnits="userSpaceOnUse" x1="25" y1="14.2293" x2="25" y2="36.6927">
		<stop  offset="0" style="stop-color:#FFFFFF"/>
		<stop  offset="1" style="stop-color:#B21F45"/>
	</linearGradient>
	<path style="fill:url(#SVGID_00000075139960071459148540000010551151984591918222_);" d="M28.9,14.2c0,0.1,0,0.1,0,0.2
		c0,0,0,0.1,0,0.2c0,0,0,0.1,0,0.1c0,0,0,0.1,0,0.1L28.7,15c0,0,0,0,0,0.1l0,0.1c0,0-0.1,0.1-0.1,0.1c0,0-0.1,0.1-0.1,0.1v0
		c0,0-0.1,0.1-0.1,0.1c-0.1,0.1-0.3,0.2-0.4,0.3c0,0-0.1,0.1-0.1,0.1c0,0-0.1,0.1-0.1,0.1c0,0-0.1,0.1-0.1,0.1c0,0-0.1,0.1-0.1,0.1
		c0,0-0.1,0.1-0.1,0.1c0,0,0,0.1-0.1,0.1c0,0,0,0.1,0,0.1c0,0,0,0.1,0,0.1c0,0,0,0.1,0,0.1c0,0,0.1,0.2,0.1,0.3c0,0-0.1-0.1-0.1,0
		c0,0,0,0.1,0,0.1c0,0,0,0.1,0,0.1c0,0,0,0.1,0,0.1c0,0,0,0.1,0,0.1c0,0,0,0.1,0,0.1L26,17c-0.2-0.1-0.5-0.1-0.7-0.2L25,16.8
		c-0.4-0.1-0.7-0.1-1.1-0.2c0,0,0,0,0,0c-0.6-0.1-1.2-0.1-1.8,0c-0.4,0-0.7,0.1-1.1,0.1c-0.3,0-0.5,0.1-0.8,0.2l-0.3,0.1
		c-0.1,0-0.2,0.1-0.3,0.1l-0.2,0.1c0,0,0,0,0,0c-0.1,0-0.1,0.1-0.2,0.1c-0.1,0-0.2,0.1-0.2,0.1c0,0-0.1,0-0.1,0.1c0,0,0,0-0.1,0
		c-0.1,0-0.1,0.1-0.2,0.1c0,0-0.1,0.1-0.1,0.1c0,0-0.1,0.1-0.1,0.1c0,0,0,0,0,0c0,0-0.1,0.1-0.1,0.1l0,0l-0.1,0.1c0,0,0,0,0,0
		c0,0-0.1,0.1-0.1,0.1c0,0,0,0,0,0c0,0-0.1,0.1-0.1,0.1c0,0,0,0,0,0c0,0-0.1,0.1-0.1,0.1c0,0,0,0,0,0c0,0-0.1,0.1-0.1,0.1
		c0,0,0,0,0,0c0,0-0.1,0.1-0.1,0.1c0,0,0,0,0,0c0,0-0.1,0.1-0.1,0.1l0,0c-0.1,0.1-0.2,0.2-0.3,0.3c-0.1,0.1-0.2,0.2-0.3,0.3
		c-0.2,0.2-0.5,0.3-0.7,0.4c-0.1,0.1-0.3,0.1-0.4,0.1c-0.2,0.1-0.5,0.2-0.7,0.2c0,0-0.1,0-0.1,0l-0.1,0L14.5,20c0,0-0.1,0-0.1,0.1
		c0,0-0.1,0.1-0.1,0.1c0,0-0.1,0.1-0.1,0.1c0,0-0.1,0.1-0.1,0.1c0,0-0.1,0.1-0.1,0.1c0,0-0.1,0.1-0.1,0.1c0,0-0.1,0.1-0.1,0.1
		c0,0.1,0,0.1-0.1,0.2c0,0,0,0.1-0.1,0.2c0,0,0,0.1,0,0.1c0,0,0,0,0,0c0,0.1,0,0.1,0,0.2c0,0,0,0.1,0,0.1c0,0.1,0,0.2,0.1,0.3v0
		c0,0,0,0.1,0.1,0.1c0,0,0,0.1,0.1,0.1c0,0,0.1,0.1,0.1,0.1c0,0,0.1,0.1,0.1,0.1c0.1,0.1,0.2,0.2,0.4,0.3c0,0,0.1,0,0.1,0
		c0,0,0,0,0,0c0,0,0,0,0,0c0,0.1,0,0.2,0.1,0.3c0,0,0,0.1,0,0.1c0,0,0,0,0,0c0,0,0,0.1,0.1,0.1l0.1,0.1c0,0,0.1,0.1,0.1,0.1
		c0,0,0.1,0.1,0.1,0.1c0,0,0,0,0,0c0,0,0.1,0.1,0.1,0.1c0,0,0.1,0.1,0.1,0.1c0,0,0.1,0,0.1,0.1c0,0,0.1,0,0.1,0c0,0,0,0,0,0
		c0,0,0.1,0,0.1,0c0,0.3,0,0.6,0,0.7c0.1,0.1,0.3-0.2,0.6-0.7c0,0.4-0.1,0.9,0,1c0.1,0.1,0.4-0.3,0.7-0.8c4.2-1,8,1.9,8.4,6
		c-0.1-0.6-0.9-1-1.2-0.9c-0.2,0.4-0.5,1-1,1.3c0-0.4,0-0.8-0.1-1.2c-0.1,0.5-0.4,1.1-0.7,1.5c-0.6,0-1.1-0.2-1.4-0.6
		c0,0,0-0.1,0-0.1c0,0,0-0.1,0-0.1c0,0,0-0.1,0-0.1c0,0,0-0.1,0-0.1v-0.1c0,0,0-0.1,0-0.1c0,0,0-0.1,0-0.1c0,0,0-0.1,0.1-0.1
		c0.1-0.3,0.1-0.5-0.1-0.7c0,0-0.1,0-0.1-0.1c0,0-0.1,0-0.1,0l0,0c0,0-0.1,0-0.1,0c0,0-0.1,0-0.1,0c0,0-0.1,0-0.1,0c0,0-0.1,0-0.1,0
		c0,0-0.1,0-0.1,0c0,0-0.1,0-0.1,0c0,0-0.1,0-0.1,0c0,0-0.1,0-0.1,0.1c0,0-0.1,0-0.1,0.1c-1.4,0.9-0.6,3,0.4,3.6
		c-0.4,0.1-0.7,0.1-0.8,0.2l0,0c0.3,0.2,0.5,0.3,0.8,0.4c0.4,0.1,0.8,0.2,1,0.3v0c0.5,0.1,1,0.1,1.5,0.1c2.6-0.2,4.8-2.2,5.2-4.8
		l0,0.2c0,0.1,0,0.2,0.1,0.3v0c0,0.1,0,0.1,0,0.2v0c0,0.1,0,0.1,0,0.2c0,0.1,0,0.1,0,0.2v0.1c0,0,0,0.1,0,0.1c0,0,0,0.1,0,0.1v0.1
		c0,0,0,0.1,0,0.1c0,0,0,0,0,0.1c0,0,0,0.1,0,0.1c0,0,0,0,0,0.1l0,0.1c0,0,0,0,0,0.1c0,0.1,0,0.1,0,0.2v0l0,0.2v0l0,0.2c0,0,0,0,0,0
		c0,0.1,0,0.1,0,0.2v0c0,0.1,0,0.1,0,0.2c0,0,0,0,0,0l-0.1,0.2c0,0.1,0,0.1-0.1,0.2c0,0.1,0,0.1-0.1,0.2c0,0.1,0,0.1-0.1,0.2h0
		c0,0.1,0,0.1-0.1,0.2c0,0,0,0,0,0c0,0,0,0,0,0c-0.4,0.8-1,1.5-1.7,2c0,0-0.1,0.1-0.1,0.1c0,0,0,0,0,0c0,0-0.1,0.1-0.1,0.1l0,0h0
		l0.2,0h0c0.2,0,0.3-0.1,0.5-0.1c0,0,0.1,0,0.1,0l0.1,0c0,0,0.1,0,0.1,0c0,0,0.1,0,0.1,0c0.6-0.1,1.2-0.3,1.7-0.6
		c-1,1.3-2.2,2.3-3.7,3c0.7,0,1.4-0.2,2-0.3c2.4-0.7,4.4-2.3,5.6-4.5c-0.2,1.4-0.8,2.7-1.6,3.8c0.6-0.4,1.1-0.8,1.6-1.3
		c1.3-1.4,2.2-3.1,2.5-5c0.2,0.9,0.3,1.9,0.2,2.8c4.3-6,0.4-12.1-1.3-13.7c0,0,0,0,0,0c0,0,0,0,0,0c0,0,0,0,0,0c0,0.1,0,0.1,0,0.2
		c0,0.1,0,0.3-0.1,0.4c0,0.1-0.1,0.3-0.1,0.4c0,0.1-0.1,0.3-0.1,0.4c-0.1,0.1-0.1,0.2-0.2,0.4c-0.1,0.2-0.3,0.5-0.5,0.7
		c-0.1,0.1-0.2,0.2-0.3,0.3c-0.1,0.1-0.1,0.1-0.2,0.1l-0.1,0.1c-0.1,0.1-0.2,0.2-0.3,0.2c-0.1,0.1-0.2,0.1-0.3,0.2
		c-0.1,0.1-0.2,0.1-0.4,0.2c-0.3,0.1-0.5,0.2-0.8,0.2c-0.1,0-0.3,0-0.4,0c-0.1,0-0.2,0-0.3,0c-0.1,0-0.3,0-0.4,0
		c-0.1,0-0.3,0-0.4-0.1c-0.1,0-0.3-0.1-0.4-0.1h0c0.1,0,0.3,0,0.4,0c0.3,0,0.5-0.1,0.8-0.2c0.1,0,0.3-0.1,0.4-0.2
		c0.1-0.1,0.2-0.1,0.4-0.2c0.1-0.1,0.2-0.2,0.3-0.2s0.2-0.2,0.3-0.3c0.1-0.1,0.2-0.2,0.3-0.3c0.1-0.1,0.2-0.2,0.2-0.3c0,0,0,0,0-0.1
		c0.1-0.1,0.1-0.2,0.2-0.3c0.1-0.2,0.2-0.5,0.3-0.7c0-0.1,0.1-0.3,0.1-0.4c0-0.1,0-0.3,0.1-0.4c0-0.1,0-0.3,0-0.4c0-0.1,0-0.2,0-0.3
		c0-0.1,0-0.3,0-0.4c0-0.1-0.1-0.3-0.1-0.4c0-0.1-0.1-0.3-0.1-0.4c0-0.1-0.1-0.2-0.2-0.4c-0.1-0.1-0.1-0.2-0.2-0.3
		c-0.1-0.1-0.2-0.2-0.2-0.3c-0.1-0.1-0.2-0.2-0.3-0.3c0-0.1-0.1-0.1-0.2-0.1c-0.3-0.2-0.5-0.4-0.8-0.6c0,0-0.1,0-0.1-0.1
		C29.3,14.4,29.1,14.3,28.9,14.2L28.9,14.2z"/>
	
		<linearGradient id="SVGID_00000181048114677436589190000009334877108500137895_" gradientUnits="userSpaceOnUse" x1="25" y1="13.3073" x2="25" y2="36.1073">
		<stop  offset="0" style="stop-color:#FFFFFF"/>
		<stop  offset="1" style="stop-color:#FF525F"/>
	</linearGradient>
	<path style="fill:url(#SVGID_00000181048114677436589190000009334877108500137895_);" d="M27,13.3c-0.2,0-0.3,0-0.5,0.1
		c0.3,0.2,0.5,0.5,0.5,0.8c0,0,0,0.1,0,0.1c0,0,0,0.1,0,0.1c0,0.5-0.1,0.6-0.2,0.9c-0.2,0.4-0.1,0.8,0.1,1.2c0,0,0,0.1,0.1,0.1
		c-0.2-1.5,1-1.7,1.3-2.2c0-0.4-0.3-0.7-0.6-0.9C27.5,13.4,27.3,13.3,27,13.3L27,13.3z M28.9,13.6c0,0.1,0,0.1,0,0.2
		c0,0,0,0.1,0,0.2c0,0,0,0.1,0,0.1c0,0,0,0.1,0,0.1l-0.1,0.1c0,0,0,0,0,0.1l0,0.1c0,0-0.1,0.1-0.1,0.1c0,0-0.1,0.1-0.1,0.1v0
		c0,0-0.1,0.1-0.1,0.1c-0.1,0.1-0.3,0.2-0.4,0.3c0,0-0.1,0.1-0.1,0.1c0,0-0.1,0.1-0.1,0.1c0,0-0.1,0.1-0.1,0.1c0,0-0.1,0.1-0.1,0.1
		c0,0-0.1,0.1-0.1,0.1c0,0,0,0.1-0.1,0.1c0,0,0,0.1,0,0.1c0,0,0,0.1,0,0.1c0,0,0,0.1,0,0.1c0,0,0,0,0,0.1c0,0,0,0.1,0,0.1
		c0,0,0,0.1,0,0.1c0,0,0,0.1,0,0.1c0,0,0,0.1,0,0.1c0,0,0,0.1,0,0.1c0,0,0,0.1,0,0.1L26,16.4c-0.2-0.1-0.5-0.1-0.7-0.2L25,16.2
		c-0.4-0.1-0.7-0.1-1.1-0.2c0,0,0,0,0,0c-0.6-0.1-1.2-0.1-1.8,0c-0.4,0-0.7,0.1-1.1,0.1c-0.3,0-0.5,0.1-0.8,0.2l-0.3,0.1
		c-0.1,0-0.2,0.1-0.3,0.1l-0.2,0.1c0,0,0,0,0,0c-0.1,0-0.1,0.1-0.2,0.1c-0.1,0-0.2,0.1-0.2,0.1c0,0-0.1,0-0.1,0.1c0,0,0,0-0.1,0
		c-0.1,0-0.1,0.1-0.2,0.1c0,0-0.1,0.1-0.1,0.1c0,0-0.1,0.1-0.1,0.1c0,0,0,0,0,0c0,0-0.1,0.1-0.1,0.1l0,0l-0.1,0.1c0,0,0,0,0,0
		c0,0-0.1,0.1-0.1,0.1c0,0,0,0,0,0c0,0-0.1,0.1-0.1,0.1c0,0,0,0,0,0c0,0-0.1,0.1-0.1,0.1c0,0,0,0,0,0c0,0-0.1,0.1-0.1,0.1
		c0,0,0,0,0,0c0,0-0.1,0.1-0.1,0.1c0,0,0,0,0,0c0,0-0.1,0.1-0.1,0.1l0,0c-0.1,0.1-0.2,0.2-0.3,0.3c-0.1,0.1-0.2,0.2-0.3,0.3
		c-0.2,0.2-0.5,0.3-0.7,0.4c-0.1,0.1-0.3,0.1-0.4,0.1c-0.2,0.1-0.5,0.2-0.7,0.2c0,0-0.1,0-0.1,0l-0.1,0l-0.1,0.1c0,0-0.1,0-0.1,0.1
		c0,0-0.1,0.1-0.1,0.1c0,0-0.1,0.1-0.1,0.1c0,0-0.1,0.1-0.1,0.1c0,0-0.1,0.1-0.1,0.1c0,0-0.1,0.1-0.1,0.1c0,0-0.1,0.1-0.1,0.1
		c0,0.1,0,0.1-0.1,0.2c0,0,0,0.1-0.1,0.2c0,0,0,0.1,0,0.1c0,0,0,0,0,0c0,0.1,0,0.1,0,0.2c0,0,0,0.1,0,0.1c0,0.1,0,0.2,0.1,0.3v0
		c0,0,0,0.1,0.1,0.1c0,0,0,0.1,0.1,0.1c0,0,0.1,0.1,0.1,0.1c0,0,0.1,0.1,0.1,0.1c0.1,0.1,0.2,0.2,0.4,0.3c0,0,0.1,0,0.1,0
		c0,0,0,0,0,0c0,0,0,0,0,0c0,0.1,0,0.2,0.1,0.3c0,0,0,0.1,0,0.1c0,0,0,0,0,0c0,0,0,0.1,0.1,0.1l0.1,0.1c0,0,0.1,0.1,0.1,0.1
		c0,0,0.1,0.1,0.1,0.1c0,0,0,0,0,0c0,0,0.1,0.1,0.1,0.1c0,0,0.1,0.1,0.1,0.1c0,0,0.1,0,0.1,0.1c0,0,0.1,0,0.1,0c0,0,0,0,0,0
		c0,0,0.1,0,0.1,0c0,0.3,0,0.6,0,0.7c0.1,0.1,0.3-0.2,0.6-0.7c0,0.4-0.1,0.9,0,1c0.1,0.1,0.4-0.3,0.7-0.8c4.2-1,8,1.9,8.4,6
		c-0.1-0.6-0.9-1-1.2-0.9c-0.2,0.4-0.5,1-1,1.3c0-0.4,0-0.8-0.1-1.2c-0.1,0.5-0.4,1.1-0.7,1.5c-0.6,0-1.1-0.2-1.4-0.6
		c0,0,0-0.1,0-0.1c0,0,0-0.1,0-0.1c0,0,0-0.1,0-0.1c0,0,0-0.1,0-0.1V29c0,0,0-0.1,0-0.1c0,0,0-0.1,0-0.1c0,0,0-0.1,0.1-0.1
		c0.1-0.3,0.1-0.5-0.1-0.7c0,0-0.1,0-0.1-0.1c0,0-0.1,0-0.1,0l0,0c0,0-0.1,0-0.1,0c0,0-0.1,0-0.1,0c0,0-0.1,0-0.1,0c0,0-0.1,0-0.1,0
		c0,0-0.1,0-0.1,0c0,0-0.1,0-0.1,0c0,0-0.1,0-0.1,0c0,0-0.1,0-0.1,0.1c0,0-0.1,0-0.1,0.1c-1.4,0.9-0.6,3,0.4,3.6
		c-0.4,0.1-0.7,0.1-0.8,0.2l0,0c0.3,0.2,0.5,0.3,0.8,0.4c0.4,0.1,0.8,0.2,1,0.3v0c0.5,0.1,1,0.1,1.5,0.1c2.6-0.2,4.8-2.2,5.2-4.8
		l0,0.2c0,0.1,0,0.2,0.1,0.3v0c0,0.1,0,0.1,0,0.2v0c0,0.1,0,0.1,0,0.2c0,0.1,0,0.1,0,0.2V29c0,0,0,0.1,0,0.1c0,0,0,0.1,0,0.1v0.1
		c0,0,0,0.1,0,0.1c0,0,0,0,0,0.1c0,0,0,0.1,0,0.1c0,0,0,0,0,0.1l0,0.1c0,0,0,0,0,0.1c0,0.1,0,0.1,0,0.2v0l0,0.2v0l0,0.2c0,0,0,0,0,0
		c0,0.1,0,0.1,0,0.2v0c0,0.1,0,0.1,0,0.2c0,0,0,0,0,0l-0.1,0.2c0,0.1,0,0.1-0.1,0.2c0,0.1,0,0.1-0.1,0.2c0,0.1,0,0.1-0.1,0.2h0
		c0,0.1,0,0.1-0.1,0.2c0,0,0,0,0,0c0,0,0,0,0,0c-0.4,0.8-1,1.5-1.7,2c0,0-0.1,0.1-0.1,0.1c0,0,0,0,0,0c0,0-0.1,0.1-0.1,0.1l0,0h0
		l0.2,0h0c0.2,0,0.3-0.1,0.5-0.1c0,0,0.1,0,0.1,0l0.1,0c0,0,0.1,0,0.1,0c0,0,0.1,0,0.1,0c0.6-0.1,1.2-0.3,1.7-0.6
		c-1,1.3-2.2,2.3-3.7,3c0.7,0,1.4-0.2,2-0.3c2.4-0.7,4.4-2.3,5.6-4.5c-0.2,1.4-0.8,2.7-1.6,3.8c0.6-0.4,1.1-0.8,1.6-1.3
		c1.3-1.4,2.2-3.1,2.5-5c0.2,0.9,0.3,1.9,0.2,2.8c4.3-6,0.4-12.1-1.3-13.7c0,0,0,0,0,0c0,0,0,0,0,0c0,0,0,0,0,0c0,0.1,0,0.1,0,0.2
		c0,0.1,0,0.3-0.1,0.4c0,0.1-0.1,0.3-0.1,0.4c0,0.1-0.1,0.3-0.1,0.4c-0.1,0.1-0.1,0.2-0.2,0.4c-0.1,0.2-0.3,0.5-0.5,0.7
		c-0.1,0.1-0.2,0.2-0.3,0.3c-0.1,0.1-0.1,0.1-0.2,0.1l-0.1,0.1c-0.1,0.1-0.2,0.2-0.3,0.2c-0.1,0.1-0.2,0.1-0.3,0.2
		c-0.1,0.1-0.2,0.1-0.4,0.2c-0.3,0.1-0.5,0.2-0.8,0.2c-0.1,0-0.3,0-0.4,0c-0.1,0-0.2,0-0.3,0c-0.1,0-0.3,0-0.4,0
		c-0.1,0-0.3,0-0.4-0.1c-0.1,0-0.3-0.1-0.4-0.1h0c0.1,0,0.3,0,0.4,0c0.3,0,0.5-0.1,0.8-0.2c0.1,0,0.3-0.1,0.4-0.2
		c0.1-0.1,0.2-0.1,0.4-0.2c0.1-0.1,0.2-0.2,0.3-0.2s0.2-0.2,0.3-0.3c0.1-0.1,0.2-0.2,0.3-0.3c0.1-0.1,0.2-0.2,0.2-0.3c0,0,0,0,0-0.1
		c0.1-0.1,0.1-0.2,0.2-0.3c0.1-0.2,0.2-0.5,0.3-0.7c0-0.1,0.1-0.3,0.1-0.4c0-0.1,0-0.3,0.1-0.4c0-0.1,0-0.3,0-0.4c0-0.1,0-0.2,0-0.3
		c0-0.1,0-0.3,0-0.4c0-0.1-0.1-0.3-0.1-0.4c0-0.1-0.1-0.3-0.1-0.4c0-0.1-0.1-0.2-0.2-0.4c-0.1-0.1-0.1-0.2-0.2-0.3
		c-0.1-0.1-0.2-0.2-0.2-0.3c-0.1-0.1-0.2-0.2-0.3-0.3c0-0.1-0.1-0.1-0.2-0.1c-0.3-0.2-0.5-0.4-0.8-0.6c0,0-0.1,0-0.1-0.1
		C29.3,13.8,29.1,13.7,28.9,13.6L28.9,13.6z"/>
</g>
</svg>
