<?xml version="1.0" encoding="utf-8"?>
<!-- Generator: Adobe Illustrator 27.3.1, SVG Export Plug-In . SVG Version: 6.00 Build 0)  -->
<svg version="1.1" id="Camada_1" xmlns="http://www.w3.org/2000/svg" xmlns:xlink="http://www.w3.org/1999/xlink" x="0px" y="0px"
	 width="50px" height="50px" viewBox="0 0 50 50" style="enable-background:new 0 0 50 50;" xml:space="preserve">
<style type="text/css">
	.st0{fill:#2B2611;}
	.st1{fill:url(#SVGID_1_);}
	.st2{fill:url(#SVGID_00000065754718716172229540000004728612853733650617_);}
	.st3{fill:url(#SVGID_00000075153198075376585290000009488044628596739739_);}
	.st4{fill:url(#SVGID_00000009558762156248347740000016482577939816659842_);}
	.st5{fill:url(#SVGID_00000093895573012586311880000016374309098906523020_);}
	.st6{display:none;fill:#141D14;}
	.st7{fill:#281613;}
	.st8{fill:url(#SVGID_00000084489058751378896450000013330382780495750840_);}
	.st9{fill:url(#SVGID_00000121977792424345636110000012571515291013140144_);}
	.st10{fill:url(#SVGID_00000120547394585834782910000009192671168035824532_);}
	.st11{fill:#111921;}
	.st12{fill:url(#SVGID_00000158001996431616786380000006646199158967852459_);}
	.st13{fill:url(#SVGID_00000021088890398831939950000011408273715683646339_);}
	.st14{fill:url(#SVGID_00000178166696896730923190000008847592063669761921_);}
	.st15{fill:#291614;}
	.st16{fill:url(#SVGID_00000179617023470182889660000001113665824810164158_);}
	.st17{fill:#19191B;}
	.st18{fill:url(#SVGID_00000087409034551167361150000010672579400853171074_);}
	.st19{fill:url(#SVGID_00000080179435432784183440000005626191845655574461_);}
	.st20{fill:url(#SVGID_00000029026785164777086470000000441306034056268214_);}
	.st21{fill:url(#SVGID_00000060733659010500567340000002257655954133524133_);}
	.st22{fill:url(#SVGID_00000070087508414011976770000000355798049407034752_);}
	.st23{fill:#141D14;}
	.st24{fill:url(#SVGID_00000168117973507906203050000001178630936888402825_);}
	.st25{fill:url(#SVGID_00000181792989229709612100000003441261969629020091_);}
	.st26{fill:url(#SVGID_00000083797628435684930860000013598329923785815227_);}
	.st27{fill:url(#SVGID_00000010308795885098530330000008502011352535560594_);}
	.st28{fill:url(#SVGID_00000015339721091026258190000010369066042644801974_);}
	.st29{fill:url(#SVGID_00000127731555304945416540000000065914269290812822_);}
	.st30{fill:url(#SVGID_00000093143852430383731280000016787026858543986857_);}
	.st31{fill:url(#SVGID_00000133502072194574423820000000674451912170156978_);}
	.st32{fill:#111B24;}
	.st33{fill:url(#SVGID_00000075872687554758754600000000275895551627465098_);}
	.st34{fill:url(#SVGID_00000124884020958976987960000008722506201480474043_);}
	.st35{fill:url(#SVGID_00000059293769952685167030000008950135302816772012_);}
	.st36{fill:#161122;}
	.st37{fill:url(#SVGID_00000038382250358696085840000010292428386855570870_);}
	.st38{fill:url(#SVGID_00000162338644858065554660000014941872872583865248_);}
	.st39{fill:url(#SVGID_00000129180295251352149840000006463217996981114008_);}
	.st40{fill:#001E36;}
	.st41{fill:url(#SVGID_00000030489274500704969090000012570934995734186680_);}
	.st42{fill:url(#SVGID_00000157306195663976385260000007429755015412478350_);}
	.st43{fill:url(#SVGID_00000032606164751891261190000013711517069514046598_);}
	.st44{fill:url(#SVGID_00000127731230097755369420000007233419978743645604_);}
	.st45{fill:url(#SVGID_00000083791841343398789120000006671281718514505914_);}
	.st46{fill:#161F25;}
	.st47{fill:url(#SVGID_00000038409058540933391490000009230187378623409548_);}
	.st48{fill:url(#SVGID_00000006700230490065721560000002790457255994462357_);}
	.st49{fill:url(#SVGID_00000022540342174781225850000005202894454036867516_);}
	.st50{fill:#242628;}
	.st51{fill:url(#SVGID_00000129200944933317536340000002106256006044520609_);}
	.st52{fill:url(#SVGID_00000044138712384718128440000006890532102319703699_);}
	.st53{fill:url(#SVGID_00000106833663890884558200000013445432579689704101_);}
	.st54{fill:#1D1D2C;}
	.st55{fill:url(#SVGID_00000005263626333900354060000010599539338715965330_);}
	.st56{fill:url(#SVGID_00000150087469125225893300000014779857109804894097_);}
	.st57{fill:url(#SVGID_00000126306824905351935490000011022178725098072230_);}
	.st58{fill:#151515;}
	.st59{fill:url(#SVGID_00000111182113020048353260000016602823509370526610_);}
	.st60{fill:url(#SVGID_00000136369635593823638900000011385908870736789149_);}
	.st61{fill:url(#SVGID_00000004515987177239669130000015960915118947370907_);}
	.st62{fill:#281C11;}
	.st63{fill:url(#SVGID_00000180332546075389972750000013532872323980202414_);}
	.st64{fill:url(#SVGID_00000010281538362978157650000006766319262572221099_);}
	.st65{fill:url(#SVGID_00000168117353034922971360000006144617932759842213_);}
	.st66{fill:url(#SVGID_00000153697434023754896830000000535649701708532132_);}
	.st67{fill:url(#SVGID_00000100357539229941581400000000063386879930862259_);}
	.st68{fill:url(#SVGID_00000026880915935383770390000005467084641924219306_);}
	.st69{fill:url(#SVGID_00000183250175813444296870000010680290125551185335_);}
	.st70{fill:url(#SVGID_00000021091168101870464010000000412778675757881269_);}
	.st71{fill:url(#SVGID_00000143600186426892829180000012285069619427826590_);}
	.st72{fill:url(#SVGID_00000121996159327901293030000012853526738874009221_);}
	.st73{fill:url(#SVGID_00000183963797364455570290000001089262244929171617_);}
	.st74{fill:url(#SVGID_00000046315886179246692330000003014923237819008175_);}
	.st75{fill:url(#SVGID_00000030471011546991346360000011936616818468292005_);}
	.st76{fill:url(#SVGID_00000053518023757102340130000007365283300782325675_);}
	.st77{fill:url(#SVGID_00000161593594092432719570000013844279785830464695_);}
	.st78{fill:url(#SVGID_00000114043458647966049260000005617461546509563817_);}
	.st79{fill:url(#SVGID_00000131337529760752112620000002814313748288981140_);}
	.st80{fill:url(#SVGID_00000078735888889922705030000000259136190307169420_);}
</style>
<path class="st0" d="M-171.2-30.3h-24.2c-7.1,0-12.9-5.8-12.9-12.9v-24.2c0-7.1,5.8-12.9,12.9-12.9h24.2c7.1,0,12.9,5.8,12.9,12.9
	v24.2C-158.3-36.1-164.1-30.3-171.2-30.3z"/>
<g>
	<g>
		<g>
			
				<linearGradient id="SVGID_1_" gradientUnits="userSpaceOnUse" x1="-183.3" y1="127.3" x2="-183.3" y2="87.3" gradientTransform="matrix(1 0 0 -1 0 52)">
				<stop  offset="0" style="stop-color:#FAF92A"/>
				<stop  offset="1" style="stop-color:#F4C121"/>
			</linearGradient>
			<path class="st1" d="M-173.6-35.3H-193c-5.7,0-10.3-4.6-10.3-10.3V-65c0-5.7,4.6-10.3,10.3-10.3h19.4c5.7,0,10.3,4.6,10.3,10.3
				v19.4C-163.3-39.9-167.9-35.3-173.6-35.3z"/>
		</g>
	</g>
	<g>
		<g>
			<g>
				<g>
					<g>
						
							<linearGradient id="SVGID_00000158750719820019182780000006478183816521444787_" gradientUnits="userSpaceOnUse" x1="-175.7" y1="117.555" x2="-175.7" y2="96.789" gradientTransform="matrix(1 0 0 -1 0 52)">
							<stop  offset="0" style="stop-color:#FFFFFF"/>
							<stop  offset="1" style="stop-color:#E2AA2D"/>
						</linearGradient>
						<path style="fill:url(#SVGID_00000158750719820019182780000006478183816521444787_);" d="M-168.1-51.3v1.3
							c-0.1,0.3-0.1,0.7-0.2,1c-0.4,1.6-1.5,2.7-3,3.4c-2,1-6.7,1.5-9.8-0.8c-1-0.7-1.7-1.6-2.3-2.6c0.2-0.2,0.5-0.4,0.8-0.6
							c1-0.7,1.9-1.1,2.8-1.4c0.1,0.2,0.4,0.6,0.7,0.9c1.2,1.4,3.3,2,5.1,1.4c1.2-0.4,1.8-1.4,1.4-2.5c-0.1-0.4-0.4-0.8-0.8-1
							c-0.7-0.4-1.5-0.7-2.2-1.1c-1.1-0.5-2.2-0.9-3.2-1.5c-1.5-0.8-2.6-1.9-3-3.6c-0.5-1.9-0.3-3.7,1.1-5.3
							c0.8-0.9,1.9-1.5,3.1-1.8c1.5-0.4,3.1-0.3,4.6,0.1c1.7,0.5,2.8,1.6,3.7,3c-1.1,0.7-2.3,1.4-3.4,2.1c-0.2-0.3-0.4-0.5-0.6-0.8
							c-0.8-0.9-1.8-1.2-2.9-0.9c-1.4,0.3-2,2-0.9,3c0.4,0.3,0.8,0.6,1.3,0.8c1,0.5,2.1,0.9,3.1,1.3c1.1,0.5,2.2,1.1,3.1,1.9
							c0.9,0.9,1.4,2,1.6,3.2C-168.1-51.4-168.1-51.4-168.1-51.3z"/>
						
							<linearGradient id="SVGID_00000007409783356203250280000006280471569901951132_" gradientUnits="userSpaceOnUse" x1="-191.85" y1="117.5404" x2="-191.85" y2="96.9882" gradientTransform="matrix(1 0 0 -1 0 52)">
							<stop  offset="0" style="stop-color:#FFFFFF"/>
							<stop  offset="1" style="stop-color:#E2AA2D"/>
						</linearGradient>
						<path style="fill:url(#SVGID_00000007409783356203250280000006280471569901951132_);" d="M-185.2-65.5v14.1
							c0,0.9-0.1,1.7-0.3,2.6c-0.6,1.8-1.7,3-3.6,3.5c-2.1,0.6-4.1,0.5-6.1-0.4c-1.4-0.6-2.6-2-3.3-3.4c1.2-0.7,2.6-1.1,3.8-1.8
							c0.2,0.4,0.5,0.7,0.7,1c0.7,1,1.7,1.2,2.9,1c0.8-0.1,1.3-0.6,1.4-1.3c0.1-0.5,0.2-1,0.2-1.5c0-4.5,0-9,0-13.6
							c0-0.4,0-0.4,0.4-0.4h3.9V-65.5z"/>
					</g>
				</g>
			</g>
		</g>
		<g>
			<g>
				<g>
					<g>
						
							<linearGradient id="SVGID_00000130610321764330161680000008107769360977570178_" gradientUnits="userSpaceOnUse" x1="-175.7" y1="117.7949" x2="-175.7" y2="97.5868" gradientTransform="matrix(1 0 0 -1 0 52)">
							<stop  offset="0" style="stop-color:#FFFFFF"/>
							<stop  offset="1" style="stop-color:#F9E280"/>
						</linearGradient>
						<path style="fill:url(#SVGID_00000130610321764330161680000008107769360977570178_);" d="M-168.3-51.9v1.3
							c-0.1,0.3-0.1,0.6-0.2,0.9c-0.4,1.5-1.4,2.6-2.9,3.3c-2.6,1.3-6.9,1.1-9.5-0.8c-0.9-0.7-1.7-1.5-2.2-2.5
							c1.1-0.6,2.3-1.3,3.4-1.9c0.3,0.3,0.5,0.6,0.7,0.9c1.2,1.4,3.2,1.9,4.9,1.3c1.2-0.4,1.8-1.4,1.4-2.4c-0.1-0.4-0.4-0.7-0.8-0.9
							c-0.7-0.4-1.4-0.7-2.1-1.1c-1-0.5-2.1-0.9-3.1-1.4c-1.4-0.8-2.5-1.9-2.9-3.5c-0.5-1.9-0.3-3.6,1.1-5.1c0.8-0.9,1.8-1.4,3-1.7
							c1.5-0.4,3-0.3,4.5,0.1c1.6,0.5,2.7,1.5,3.6,2.9c-1.1,0.7-2.2,1.3-3.3,2c-0.2-0.3-0.4-0.5-0.6-0.7c-0.7-0.9-1.7-1.1-2.9-0.9
							c-1.4,0.3-1.9,2-0.9,2.9c0.4,0.3,0.8,0.6,1.3,0.8c1,0.5,2,0.9,3,1.3c1.1,0.5,2.1,1.1,3,1.9c0.9,0.9,1.4,1.9,1.5,3.1
							C-168.4-52.1-168.3-52-168.3-51.9z"/>
						
							<linearGradient id="SVGID_00000052783973562374747880000010556367646313014920_" gradientUnits="userSpaceOnUse" x1="-191.85" y1="117.5544" x2="-191.85" y2="97.5687" gradientTransform="matrix(1 0 0 -1 0 52)">
							<stop  offset="0" style="stop-color:#FFFFFF"/>
							<stop  offset="1" style="stop-color:#F9E280"/>
						</linearGradient>
						<path style="fill:url(#SVGID_00000052783973562374747880000010556367646313014920_);" d="M-185.5-65.6v13.7
							c0,0.8-0.1,1.7-0.3,2.5c-0.5,1.7-1.7,2.9-3.5,3.4c-2,0.6-4,0.5-5.9-0.3c-1.4-0.6-2.3-1.7-3-3c1.2-0.7,2.3-1.3,3.5-2
							c0.2,0.3,0.5,0.7,0.7,1c0.7,0.9,1.7,1.2,2.8,1c0.8-0.1,1.2-0.6,1.4-1.3c0.1-0.5,0.2-1,0.2-1.4c0-4.4,0-8.8,0-13.2
							c0-0.4,0-0.4,0.4-0.4H-185.5z"/>
					</g>
				</g>
			</g>
		</g>
	</g>
</g>
<rect class="st6" width="50" height="50"/>
<path class="st7" d="M-228.7-29.5h-24.2c-7.1,0-12.9-5.8-12.9-12.9v-24.2c0-7.1,5.8-12.9,12.9-12.9h24.2c7.1,0,12.9,5.8,12.9,12.9
	v24.2C-215.8-35.3-221.5-29.5-228.7-29.5z"/>
<g>
	<g>
		<g>
			
				<linearGradient id="SVGID_00000091008121761190585040000014229377745624980409_" gradientUnits="userSpaceOnUse" x1="-240.8" y1="126.5" x2="-240.8" y2="86.5" gradientTransform="matrix(1 0 0 -1 0 52)">
				<stop  offset="0" style="stop-color:#E9952F"/>
				<stop  offset="1" style="stop-color:#E34F26"/>
			</linearGradient>
			<path style="fill:url(#SVGID_00000091008121761190585040000014229377745624980409_);" d="M-231.1-34.5h-19.4
				c-5.7,0-10.3-4.6-10.3-10.3v-19.4c0-5.7,4.6-10.3,10.3-10.3h19.4c5.7,0,10.3,4.6,10.3,10.3v19.4
				C-220.8-39.2-225.4-34.5-231.1-34.5z"/>
		</g>
	</g>
</g>
<g>
	<g>
		
			<linearGradient id="SVGID_00000050655539159461176970000014047290750732398510_" gradientUnits="userSpaceOnUse" x1="-240.85" y1="117.5" x2="-240.85" y2="95" gradientTransform="matrix(1 0 0 -1 0 52)">
			<stop  offset="0" style="stop-color:#FFFFFF"/>
			<stop  offset="1" style="stop-color:#D34124"/>
		</linearGradient>
		<path style="fill:url(#SVGID_00000050655539159461176970000014047290750732398510_);" d="M-230.9-65.5h-19.9c0,0.5,0.1,1,0.1,1.5
			c0.1,1.6,0.2,3.2,0.3,4.7c0.1,1.8,0.3,3.5,0.4,5.3c0.1,1.5,0.2,3.1,0.3,4.6c0.1,1.1,0.2,2.3,0.2,3.4c0,0.2,0.1,0.2,0.2,0.3
			c2.7,0.9,5.4,1.8,8.1,2.6c0.1,0,0.1,0.1,0.2,0.1h0.1c0.3-0.1,0.7-0.2,1-0.3c2.4-0.8,4.8-1.6,7.3-2.4c0.2-0.1,0.2-0.1,0.2-0.3
			c0.2-2.9,0.4-5.7,0.6-8.6c0.2-2.2,0.3-4.3,0.5-6.5c0.1-1.3,0.2-2.7,0.3-4C-230.9-65.3-230.9-65.4-230.9-65.5z M-234.6-59.6h-9.8
			c0.1,1.1,0.2,2.2,0.2,3.4h9.3c0,0.5-0.1,1-0.1,1.5c-0.1,1.4-0.2,2.7-0.3,4.1c-0.1,0.7-0.1,1.5-0.2,2.2c0,0.1-0.1,0.2-0.2,0.3
			c-1.7,0.6-3.4,1.1-5.1,1.7c-0.1,0-0.2,0-0.3,0c-1.7-0.6-3.4-1.1-5.1-1.7c-0.1,0-0.2-0.1-0.2-0.3c0-0.7-0.1-1.5-0.2-2.2
			c0-0.1,0-0.2,0-0.2h2.6c0,0.2,0,0.4,0.1,0.6c0,0.1,0.1,0.2,0.1,0.2c0.9,0.3,1.8,0.6,2.6,0.9c0.1,0,0.2,0,0.2,0
			c0.9-0.3,1.8-0.6,2.6-0.9c0.1,0,0.1-0.1,0.1-0.2c0.1-1.1,0.2-2.1,0.2-3.3h-8.9c-0.2-2.9-0.4-5.8-0.6-8.7h12.8
			C-234.4-61.3-234.5-60.5-234.6-59.6z"/>
	</g>
	<g>
		
			<linearGradient id="SVGID_00000168835899645078914490000011430025685046424963_" gradientUnits="userSpaceOnUse" x1="-240.8" y1="118.1" x2="-240.8" y2="95.4481" gradientTransform="matrix(1 0 0 -1 0 52)">
			<stop  offset="0" style="stop-color:#FFFFFF"/>
			<stop  offset="1" style="stop-color:#F7803E"/>
		</linearGradient>
		<path style="fill:url(#SVGID_00000168835899645078914490000011430025685046424963_);" d="M-230.8-66.1h-20c0,0.5,0.1,1,0.1,1.5
			c0.1,1.6,0.2,3.2,0.3,4.8c0.1,1.8,0.3,3.5,0.4,5.3c0.1,1.5,0.2,3.1,0.3,4.6c0.1,1.1,0.2,2.3,0.2,3.4c0,0.2,0.1,0.2,0.2,0.3
			c2.7,0.9,5.4,1.8,8.1,2.7c0.1,0,0.1,0.1,0.2,0.1h0.1c0.3-0.1,0.7-0.2,1-0.4c2.4-0.8,4.9-1.6,7.3-2.4c0.2-0.1,0.2-0.1,0.2-0.3
			c0.2-2.9,0.4-5.8,0.6-8.7c0.2-2.2,0.3-4.4,0.5-6.6c0.1-1.3,0.2-2.7,0.3-4C-230.8-65.9-230.8-66-230.8-66.1z M-234.5-60.1h-9.8
			c0.1,1.1,0.2,2.3,0.2,3.4h9.4c0,0.5-0.1,1-0.1,1.5c-0.1,1.4-0.2,2.7-0.3,4.1c-0.1,0.7-0.1,1.5-0.2,2.2c0,0.1-0.1,0.2-0.2,0.3
			c-1.7,0.6-3.4,1.1-5.1,1.7c-0.1,0-0.2,0-0.3,0c-1.7-0.6-3.4-1.1-5.1-1.7c-0.1,0-0.2-0.1-0.2-0.3c0-0.7-0.1-1.5-0.2-2.2
			c0-0.1,0-0.2,0-0.2h2.6c0,0.2,0,0.4,0.1,0.6c0,0.1,0.1,0.2,0.1,0.2c0.9,0.3,1.8,0.6,2.7,0.9c0.1,0,0.2,0,0.2,0
			c0.9-0.3,1.8-0.6,2.7-0.9c0.1,0,0.1-0.1,0.1-0.2c0.1-1.1,0.2-2.2,0.2-3.3h-9c-0.2-2.9-0.4-5.8-0.6-8.7h12.9
			C-234.4-61.9-234.4-61-234.5-60.1z"/>
	</g>
</g>
<path class="st11" d="M-290.4-30.9h-24.2c-7.1,0-12.9-5.8-12.9-12.9V-68c0-7.1,5.8-12.9,12.9-12.9h24.2c7.1,0,12.9,5.8,12.9,12.9
	v24.2C-277.6-36.7-283.3-30.9-290.4-30.9z"/>
<g>
	<g>
		<g>
			<g>
				
					<linearGradient id="SVGID_00000103256107324595359690000007881855922679324826_" gradientUnits="userSpaceOnUse" x1="-302.6" y1="127.9" x2="-302.6" y2="87.9" gradientTransform="matrix(1 0 0 -1 0 52)">
					<stop  offset="0" style="stop-color:#31BAFF"/>
					<stop  offset="1" style="stop-color:#1572B6"/>
				</linearGradient>
				<path style="fill:url(#SVGID_00000103256107324595359690000007881855922679324826_);" d="M-292.9-35.9h-19.4
					c-5.7,0-10.3-4.6-10.3-10.3v-19.4c0-5.7,4.6-10.3,10.3-10.3h19.4c5.7,0,10.3,4.6,10.3,10.3v19.4
					C-282.6-40.5-287.2-35.9-292.9-35.9z"/>
			</g>
		</g>
	</g>
	<g>
		<g>
			
				<linearGradient id="SVGID_00000130637791554382916820000004300630184565494964_" gradientUnits="userSpaceOnUse" x1="-302.5" y1="119.0253" x2="-302.5" y2="96.1903" gradientTransform="matrix(1 0 0 -1 0 52)">
				<stop  offset="0" style="stop-color:#FFFFFF"/>
				<stop  offset="1" style="stop-color:#146799"/>
			</linearGradient>
			<path style="fill:url(#SVGID_00000130637791554382916820000004300630184565494964_);" d="M-312.5-67c0.1,1.6,0.3,3.2,0.4,4.8
				s0.3,3.2,0.4,4.8s0.3,3.2,0.4,4.8s0.3,3.2,0.4,4.8c0,0.4,0.1,0.8,0.1,1.2c0,0.1,0.1,0.2,0.2,0.2c2.6,0.7,5.2,1.5,7.9,2.2
				c0.1,0,0.2,0,0.3,0c2.6-0.7,5.2-1.5,7.8-2.2c0.1,0,0.2-0.1,0.2-0.2c0.1-1.1,0.2-2.2,0.3-3.3c0.1-1.4,0.3-2.9,0.4-4.3
				c0.1-1.4,0.2-2.8,0.4-4.2c0.1-1.4,0.3-2.9,0.4-4.3s0.2-2.8,0.4-4.2L-312.5-67L-312.5-67z M-296.4-61.8c-0.2,1.9-0.3,3.8-0.5,5.8
				c-0.2,1.7-0.3,3.5-0.5,5.2c0,0.2,0,0.5-0.1,0.7c0,0.1-0.1,0.2-0.1,0.2c-1.6,0.5-3.3,0.9-4.9,1.4c-0.1,0-0.2,0-0.3,0
				c-1.6-0.4-3.2-0.9-4.8-1.3c-0.1,0-0.2-0.1-0.2-0.2c-0.1-1.1-0.2-2.2-0.3-3.3c0-0.2,0-0.4,0-0.6c0.8,0,1.6,0,2.4,0
				c0,0,0.1,0.1,0.1,0.2c0.1,0.6,0.1,1.1,0.2,1.7c0,0.2,0.1,0.2,0.2,0.3c0.8,0.2,1.6,0.4,2.4,0.6c0.1,0,0.2,0,0.3,0
				c0.8-0.2,1.6-0.4,2.4-0.7c0.2,0,0.2-0.1,0.2-0.3c0.1-1.1,0.2-2.2,0.3-3.3h-8.8c-0.1-0.8-0.2-1.6-0.2-2.4c0.1,0,0.2,0,0.3,0
				c2.9,0,5.8-0.1,8.7-0.1c0.3,0,0.3,0,0.3-0.3c0-0.7,0.1-1.5,0.2-2.2h-9.7c-0.1-0.8-0.1-1.6-0.2-2.4h12.5
				C-296.3-62.5-296.4-62.2-296.4-61.8z"/>
		</g>
		
			<linearGradient id="SVGID_00000134951562337254846770000013445291820900677280_" gradientUnits="userSpaceOnUse" x1="-302.55" y1="119.6" x2="-302.55" y2="96.7652" gradientTransform="matrix(1 0 0 -1 0 52)">
			<stop  offset="0" style="stop-color:#FFFFFF"/>
			<stop  offset="1" style="stop-color:#30B8FD"/>
		</linearGradient>
		<path style="fill:url(#SVGID_00000134951562337254846770000013445291820900677280_);" d="M-312.6-67.6c0.1,1.6,0.3,3.2,0.4,4.8
			c0.1,1.6,0.3,3.2,0.4,4.8s0.3,3.2,0.4,4.8s0.3,3.2,0.4,4.8c0,0.4,0.1,0.8,0.1,1.2c0,0.1,0.1,0.2,0.2,0.2c2.6,0.7,5.3,1.5,7.9,2.2
			c0.1,0,0.2,0,0.3,0c2.6-0.7,5.2-1.5,7.9-2.2c0.1,0,0.2-0.1,0.2-0.2c0.1-1.1,0.2-2.2,0.3-3.3c0.1-1.4,0.3-2.9,0.4-4.3
			c0.1-1.4,0.2-2.8,0.4-4.2c0.1-1.4,0.3-2.9,0.4-4.3s0.2-2.8,0.4-4.2L-312.6-67.6L-312.6-67.6z M-296.3-62.4
			c-0.2,1.9-0.3,3.8-0.5,5.8c-0.2,1.7-0.3,3.5-0.5,5.2c0,0.2,0,0.5-0.1,0.7c0,0.1-0.1,0.2-0.1,0.2c-1.6,0.5-3.3,0.9-4.9,1.4
			c-0.1,0-0.2,0-0.3,0c-1.6-0.4-3.2-0.9-4.8-1.3c-0.1,0-0.2-0.1-0.2-0.2c-0.1-1.1-0.2-2.2-0.3-3.3c0-0.2,0-0.4-0.1-0.6
			c0.8,0,1.6,0,2.4,0c0,0,0.1,0.1,0.1,0.2c0.1,0.6,0.1,1.1,0.2,1.7c0,0.2,0.1,0.2,0.2,0.3c0.8,0.2,1.6,0.4,2.4,0.6
			c0.1,0,0.2,0,0.3,0c0.8-0.2,1.6-0.4,2.5-0.7c0.2,0,0.2-0.1,0.2-0.3c0.1-1.1,0.2-2.2,0.4-3.3h-8.9c-0.1-0.8-0.2-1.6-0.3-2.4
			c0.1,0,0.2,0,0.3,0c2.9,0,5.8-0.1,8.8-0.1c0.3,0,0.3,0,0.3-0.3c0.1-0.7,0.1-1.5,0.2-2.2h-9.8c-0.1-0.8-0.1-1.6-0.2-2.4h12.7
			C-296.3-63-296.3-62.7-296.3-62.4z"/>
	</g>
</g>
<g>
	<path class="st15" d="M37.1,50H12.9C5.8,50,0,44.2,0,37.1V12.9C0,5.8,5.8,0,12.9,0h24.2C44.2,0,50,5.8,50,12.9v24.2
		C50,44.2,44.2,50,37.1,50z"/>
	<g>
		<g>
			<g>
				<g>
					
						<linearGradient id="SVGID_00000183242689284017374810000005696433126459384994_" gradientUnits="userSpaceOnUse" x1="25" y1="47" x2="25" y2="7" gradientTransform="matrix(1 0 0 -1 0 52)">
						<stop  offset="0" style="stop-color:#FF5942"/>
						<stop  offset="1" style="stop-color:#CB3837"/>
					</linearGradient>
					<path style="fill:url(#SVGID_00000183242689284017374810000005696433126459384994_);" d="M34.7,45H15.3C9.6,45,5,40.4,5,34.7
						V15.3C5,9.6,9.6,5,15.3,5h19.4C40.4,5,45,9.6,45,15.3v19.4C45,40.4,40.4,45,34.7,45z"/>
				</g>
			</g>
		</g>
	</g>
</g>
<g>
	<path class="st17" d="M-364.7-31.8h-24.2c-7.1,0-12.9-5.8-12.9-12.9v-24.2c0-7.1,5.8-12.9,12.9-12.9h24.2c7.1,0,12.9,5.8,12.9,12.9
		v24.2C-351.8-37.5-357.5-31.8-364.7-31.8z"/>
	<g>
		<g>
			<g>
				<g>
					
						<linearGradient id="SVGID_00000130633281277515319550000011176660172336306573_" gradientUnits="userSpaceOnUse" x1="-376.8" y1="128.8" x2="-376.8" y2="88.8" gradientTransform="matrix(1 0 0 -1 0 52)">
						<stop  offset="0" style="stop-color:#42484C"/>
						<stop  offset="1" style="stop-color:#1D1E21"/>
					</linearGradient>
					<path style="fill:url(#SVGID_00000130633281277515319550000011176660172336306573_);" d="M-367.1-36.8h-19.4
						c-5.7,0-10.3-4.6-10.3-10.3v-19.4c0-5.7,4.6-10.3,10.3-10.3h19.4c5.7,0,10.3,4.6,10.3,10.3v19.4
						C-356.8-41.4-361.4-36.8-367.1-36.8z"/>
				</g>
			</g>
		</g>
	</g>
	<g transform="matrix(0.42 0 0 0.42 12 12)">
		<g>
			<g transform="matrix(1 0 0 1 10.5 1.28)">
				
					<linearGradient id="SVGID_00000004525131209449015280000006034137596554054061_" gradientUnits="userSpaceOnUse" x1="845.8322" y1="-1156.0647" x2="845.8322" y2="-1173.3169" gradientTransform="matrix(0.42 0 0 -0.42 -1273.3995 -670.3472)">
					<stop  offset="0" style="stop-color:#CCCCCC"/>
					<stop  offset="0.1606" style="stop-color:#B7B8B8"/>
					<stop  offset="0.492" style="stop-color:#828384"/>
					<stop  offset="0.9621" style="stop-color:#2C2E32"/>
					<stop  offset="1" style="stop-color:#25272B"/>
				</linearGradient>
				<path style="fill:url(#SVGID_00000004525131209449015280000006034137596554054061_);" d="M-900.4-143.7h-1.9
					c-1.4,0-2.7-0.6-3.5-1.8l-12.4-16.5l-12.3,16.5c-0.8,1.1-2.1,1.8-3.5,1.8h-1.9l15.7-21l-15-20.1h1.9c1.4,0,2.7,0.6,3.5,1.8
					l11.6,15.5l11.6-15.5c0.8-1.1,2.1-1.8,3.5-1.8h1.9l-15,20.1L-900.4-143.7z"/>
			</g>
			<g transform="matrix(1 0 0 1 -11 1)">
				
					<linearGradient id="SVGID_00000006688068825814667640000002467238173016691331_" gradientUnits="userSpaceOnUse" x1="833.8801" y1="-1156.1299" x2="833.8801" y2="-1173.8177" gradientTransform="matrix(0.42 0 0 -0.42 -1282.4296 -670.2296)">
					<stop  offset="0" style="stop-color:#CCCCCC"/>
					<stop  offset="0.1606" style="stop-color:#B7B8B8"/>
					<stop  offset="0.492" style="stop-color:#828384"/>
					<stop  offset="0.9621" style="stop-color:#2C2E32"/>
					<stop  offset="1" style="stop-color:#25272B"/>
				</linearGradient>
				<path style="fill:url(#SVGID_00000006688068825814667640000002467238173016691331_);" d="M-914.1-162v-4.9
					c0-10.8-9.8-19.4-21.1-17.6c-8.8,1.4-15.1,9.3-15.1,18v4.6c0,10.6,7.9,19.1,17.9,19.2c8.4,0.1,15.4-5.4,17.6-13h-1.7
					c-1,0-1.9,0.6-2.4,1.5c-2.9,5.8-9.5,9.5-16.8,7.8c-6.7-1.5-11.3-7.7-11.3-14.5v-1.3h32.9V-162z M-947-165.7
					c0-7.6,4.6-13.8,11.4-15.3c9.7-2.1,18.2,5.1,18.2,14.2v1.6H-947V-165.7z"/>
			</g>
		</g>
	</g>
	<g>
		<g transform="matrix(1 0 0 1 10.5 1.28)">
			
				<linearGradient id="SVGID_00000054960166408880111970000000742542151117036685_" gradientUnits="userSpaceOnUse" x1="-390.3" y1="117.3788" x2="-390.3" y2="100.4017" gradientTransform="matrix(1 0 0 -1 10.5 50.72)">
				<stop  offset="0" style="stop-color:#FFFFFF"/>
				<stop  offset="1" style="stop-color:#41474A"/>
			</linearGradient>
			<path style="fill:url(#SVGID_00000054960166408880111970000000742542151117036685_);" d="M-372.3-49.7h-0.8
				c-0.6,0-1.1-0.3-1.5-0.7l-5.2-6.8l-5.2,6.8c-0.3,0.5-0.9,0.7-1.5,0.7h-0.8l6.6-8.7l-6.3-8.3h0.8c0.6,0,1.1,0.3,1.5,0.7l4.9,6.4
				l4.9-6.4c0.3-0.5,0.9-0.7,1.5-0.7h0.8l-6.3,8.3L-372.3-49.7z"/>
		</g>
		<g transform="matrix(1 0 0 1 -11 1)">
			
				<linearGradient id="SVGID_00000034071805863323051890000001546373323296580235_" gradientUnits="userSpaceOnUse" x1="-362.25" y1="118.0754" x2="-362.25" y2="100.0884" gradientTransform="matrix(1 0 0 -1 -11 51)">
				<stop  offset="0" style="stop-color:#FFFFFF"/>
				<stop  offset="1" style="stop-color:#41474A"/>
			</linearGradient>
			<path style="fill:url(#SVGID_00000034071805863323051890000001546373323296580235_);" d="M-365.6-57.4v-2.1
				c0-4.6-4.1-8.3-8.9-7.5c-3.7,0.6-6.4,4-6.4,7.7v2c0,4.5,3.3,8.2,7.5,8.2c3.5,0,6.5-2.3,7.4-5.5h-0.7c-0.4,0-0.8,0.2-1,0.6
				c-1.2,2.5-4,4.1-7.1,3.3c-2.8-0.6-4.8-3.3-4.8-6.2v-0.5H-365.6z M-379.4-59c0-3.2,1.9-5.9,4.8-6.6c4.1-0.9,7.7,2.2,7.7,6.1v0.7
				h-12.4V-59H-379.4z"/>
		</g>
	</g>
</g>
<path class="st23" d="M-368.8,36.4H-393c-7.1,0-12.9-5.8-12.9-12.9V-0.7c0-7.1,5.8-12.9,12.9-12.9h24.2c7.1,0,12.9,5.8,12.9,12.9
	v24.2C-355.9,30.6-361.7,36.4-368.8,36.4z"/>
<g>
	<g>
		<g>
			<g>
				
					<linearGradient id="SVGID_00000104665863478873583480000015886504478686248868_" gradientUnits="userSpaceOnUse" x1="-380.9" y1="60.6" x2="-380.9" y2="20.6" gradientTransform="matrix(1 0 0 -1 0 52)">
					<stop  offset="0" style="stop-color:#46CC46"/>
					<stop  offset="1" style="stop-color:#155019"/>
				</linearGradient>
				<path style="fill:url(#SVGID_00000104665863478873583480000015886504478686248868_);" d="M-371.2,31.4h-19.4
					c-5.7,0-10.3-4.6-10.3-10.3V1.7c0-5.7,4.6-10.3,10.3-10.3h19.4c5.7,0,10.3,4.6,10.3,10.3v19.4
					C-360.9,26.8-365.5,31.4-371.2,31.4z"/>
			</g>
		</g>
	</g>
</g>
<g>
	
		<linearGradient id="SVGID_00000156564480724026760280000018383935272735778702_" gradientUnits="userSpaceOnUse" x1="-381.05" y1="52.125" x2="-381.05" y2="28.6448" gradientTransform="matrix(1 0 0 -1 0 52)">
		<stop  offset="0" style="stop-color:#FFFFFF"/>
		<stop  offset="1" style="stop-color:#113D17"/>
	</linearGradient>
	<path style="fill:url(#SVGID_00000156564480724026760280000018383935272735778702_);" d="M-380.9,23.4c-0.3,0-0.6-0.1-0.9-0.2
		l-2.8-1.7c-0.4-0.2-0.2-0.3-0.1-0.4c0.6-0.2,0.7-0.2,1.3-0.6c0.1,0,0.1,0,0.2,0l2.1,1.3c0.1,0,0.2,0,0.3,0l8.3-5
		c0.1,0,0.1-0.1,0.1-0.2V6.7c0-0.1-0.1-0.2-0.1-0.2l-8.3-5c-0.1,0-0.2,0-0.3,0l-8.3,5c-0.1,0-0.1,0.1-0.1,0.2v9.9
		c0,0.1,0.1,0.2,0.1,0.2l2.3,1.4c1.2,0.6,2-0.1,2-0.9V7.1c0-0.1,0.1-0.3,0.2-0.3h1c0.1,0,0.3,0.1,0.3,0.3v10.3
		c0,1.7-0.9,2.7-2.5,2.7c-0.5,0-0.9,0-1.9-0.5l-2.2-1.3c-0.5-0.3-0.9-0.9-0.9-1.6v-10c0-0.6,0.3-1.2,0.9-1.6l8.3-5
		c0.5-0.3,1.2-0.3,1.7,0l8.3,5c0.5,0.3,0.9,0.9,0.9,1.6v9.9c0,0.6-0.3,1.2-0.9,1.6l-8.3,5C-380.3,23.3-380.6,23.4-380.9,23.4z
		 M-374.2,13.6c0-1.9-1.2-2.4-3.8-2.7c-2.6-0.4-2.8-0.5-2.8-1.2c0-0.5,0.2-1.2,2.1-1.2c1.7,0,2.3,0.4,2.6,1.6c0,0.1,0.1,0.2,0.2,0.2
		h1.1c0.1,0,0.1,0,0.2-0.1c0-0.1,0.1-0.1,0.1-0.2c-0.2-2.1-1.5-3-4.2-3c-2.4,0-3.8,1-3.8,2.8c0,1.9,1.4,2.4,3.7,2.6
		c2.7,0.3,2.9,0.7,2.9,1.2c0,1-0.7,1.4-2.5,1.4c-2.2,0-2.7-0.6-2.8-1.7c0-0.1-0.1-0.2-0.2-0.2h-1.1c-0.1,0-0.2,0.1-0.2,0.2
		c0,1.4,0.8,3.2,4.4,3.2C-375.7,16.5-374.2,15.5-374.2,13.6z"/>
	
		<linearGradient id="SVGID_00000021097346741196480670000005127637790080796329_" gradientUnits="userSpaceOnUse" x1="-380.9" y1="52.6296" x2="-380.9" y2="29.1494" gradientTransform="matrix(1 0 0 -1 0 52)">
		<stop  offset="0" style="stop-color:#FFFFFF"/>
		<stop  offset="1" style="stop-color:#45C945"/>
	</linearGradient>
	<path style="fill:url(#SVGID_00000021097346741196480670000005127637790080796329_);" d="M-380.9,22.9c-0.3,0-0.6-0.1-0.9-0.2
		l-2.9-1.7c-0.4-0.2-0.2-0.3-0.1-0.4c0.6-0.2,0.7-0.2,1.3-0.6c0.1,0,0.1,0,0.2,0l2.2,1.3c0.1,0,0.2,0,0.3,0l8.6-5
		c0.1,0,0.1-0.1,0.1-0.2v-10c0-0.1-0.1-0.2-0.1-0.2l-8.6-5c-0.1,0-0.2,0-0.3,0l-8.6,5c-0.1,0-0.1,0.1-0.1,0.2V16
		c0,0.1,0.1,0.2,0.1,0.2l2.4,1.4c1.3,0.6,2.1-0.1,2.1-0.9V7c0-0.1,0.1-0.2,0.3-0.2h1.1c0.1,0,0.2,0.1,0.2,0.2v9.8
		c0,1.7-0.9,2.7-2.5,2.7c-0.5,0-0.9,0-2-0.5l-2.3-1.3c-0.6-0.3-0.9-0.9-0.9-1.6v-10c0-0.6,0.3-1.2,0.9-1.6l8.6-5
		c0.5-0.3,1.3-0.3,1.8,0l8.6,5c0.6,0.3,0.9,0.9,0.9,1.6V16c0,0.6-0.3,1.2-0.9,1.6l-8.6,5C-380.3,22.8-380.6,22.9-380.9,22.9z
		 M-374,13.1c0-1.9-1.3-2.4-3.9-2.7c-2.7-0.4-2.9-0.5-2.9-1.2c0-0.5,0.2-1.2,2.2-1.2c1.8,0,2.4,0.4,2.7,1.6c0,0.1,0.1,0.2,0.2,0.2
		h1.1c0.1,0,0.1,0,0.2-0.1c0-0.1,0.1-0.1,0.1-0.2c-0.2-2.1-1.5-3-4.3-3c-2.5,0-3.9,1-3.9,2.8c0,1.9,1.5,2.4,3.8,2.6
		c2.8,0.3,3,0.7,3,1.2c0,1-0.8,1.4-2.6,1.4c-2.3,0-2.8-0.6-2.9-1.7c0-0.1-0.1-0.2-0.2-0.2h-1.1c-0.1,0-0.2,0.1-0.2,0.2
		c0,1.4,0.8,3.2,4.6,3.2C-375.5,16-374,14.9-374,13.1z"/>
</g>
<g>
	<path class="st15" d="M-239.6,37h-24.2c-7.1,0-12.9-5.8-12.9-12.9V-0.1c0-7.1,5.8-12.9,12.9-12.9h24.2c7.1,0,12.9,5.8,12.9,12.9
		v24.2C-226.7,31.2-232.5,37-239.6,37z"/>
	<g>
		<g>
			<g>
				<g>
					
						<linearGradient id="SVGID_00000157300017855712128670000012219443329972325260_" gradientUnits="userSpaceOnUse" x1="-251.7992" y1="60" x2="-251.7992" y2="20" gradientTransform="matrix(1 0 0 -1 0 52)">
						<stop  offset="0" style="stop-color:#FF603B"/>
						<stop  offset="1" style="stop-color:#992E25"/>
					</linearGradient>
					<path style="fill:url(#SVGID_00000157300017855712128670000012219443329972325260_);" d="M-242.1,32h-19.4
						c-5.7,0-10.3-4.6-10.3-10.3V2.3c0-5.7,4.6-10.3,10.3-10.3h19.4c5.7,0,10.3,4.6,10.3,10.3v19.4C-231.7,27.4-236.4,32-242.1,32z"
						/>
				</g>
			</g>
		</g>
	</g>
</g>
<g>
	
		<linearGradient id="SVGID_00000089569735179445880580000017268431930206630806_" gradientUnits="userSpaceOnUse" x1="-251.7059" y1="51.4983" x2="-251.7059" y2="27.4637" gradientTransform="matrix(1 0 0 -1 0 52)">
		<stop  offset="0" style="stop-color:#FFFFFF"/>
		<stop  offset="0.5531" style="stop-color:#9E3026"/>
	</linearGradient>
	<path style="fill:url(#SVGID_00000089569735179445880580000017268431930206630806_);" d="M-239.8,11.4L-250.7,1
		c-0.6-0.6-1.6-0.6-2.3,0l-2.3,2.2l2.9,2.8c0.7-0.2,1.4-0.1,2,0.4c0.5,0.5,0.7,1.3,0.5,1.9l2.8,2.7c0.7-0.2,1.4-0.1,2,0.4
		c0.7,0.7,0.7,1.9,0,2.6c-0.7,0.7-2,0.7-2.7,0c-0.6-0.5-0.7-1.3-0.4-2l-2.6-2.5V16c0.2,0.1,0.4,0.2,0.5,0.3c0.7,0.7,0.7,1.9,0,2.6
		s-2,0.7-2.7,0s-0.7-1.9,0-2.6c0.2-0.2,0.4-0.3,0.6-0.4V9.3c-0.2-0.1-0.4-0.2-0.6-0.4c-0.6-0.5-0.7-1.3-0.4-2l-2.8-2.7l-7.5,7.2
		c-0.6,0.6-0.6,1.6,0,2.2l10.9,10.5c0.6,0.6,1.6,0.6,2.3,0l10.8-10.4C-239.1,13-239.1,12.1-239.8,11.4"/>
	
		<linearGradient id="SVGID_00000079456214201452943650000004518700137440765873_" gradientUnits="userSpaceOnUse" x1="-251.6433" y1="52.5979" x2="-251.6433" y2="28.5633" gradientTransform="matrix(1 0 0 -1 0 52)">
		<stop  offset="0" style="stop-color:#FFFFFF"/>
		<stop  offset="1" style="stop-color:#FC5F3A"/>
	</linearGradient>
	<path style="fill:url(#SVGID_00000079456214201452943650000004518700137440765873_);" d="M-239.7,10.3l-10.9-10.5
		c-0.6-0.6-1.6-0.6-2.3,0l-2.3,2.2l2.9,2.8c0.7-0.2,1.4-0.1,2,0.4c0.5,0.5,0.7,1.3,0.5,1.9l2.8,2.7c0.7-0.2,1.4-0.1,2,0.4
		c0.7,0.7,0.7,1.9,0,2.6s-2,0.7-2.7,0c-0.6-0.5-0.7-1.3-0.4-2l-2.6-2.5v6.5c0.2,0.1,0.4,0.2,0.5,0.3c0.7,0.7,0.7,1.9,0,2.6
		c-0.7,0.7-2,0.7-2.7,0s-0.7-1.9,0-2.6c0.2-0.2,0.4-0.3,0.6-0.4V8.2c-0.2-0.1-0.4-0.2-0.6-0.4c-0.6-0.5-0.7-1.3-0.4-2l-2.8-2.7
		l-7.5,7.2c-0.6,0.6-0.6,1.6,0,2.2l10.9,10.5c0.6,0.6,1.6,0.6,2.3,0l10.8-10.4C-239.1,11.9-239.1,11-239.7,10.3"/>
</g>
<g>
	
		<linearGradient id="SVGID_00000155829064404463710670000014415152001265268363_" gradientUnits="userSpaceOnUse" x1="60.1931" y1="76.7477" x2="60.1931" y2="54.0958" gradientTransform="matrix(1 0 0 -1 0 52)">
		<stop  offset="0" style="stop-color:#FFFFFF"/>
		<stop  offset="0.6844" style="stop-color:#0C5190"/>
		<stop  offset="1" style="stop-color:#00488A"/>
	</linearGradient>
	<path style="fill:url(#SVGID_00000155829064404463710670000014415152001265268363_);" d="M70.9-22.4l-4.7-2.3
		c-0.5-0.3-1.2-0.2-1.6,0.3l-9.1,8.2l-4-3c-0.4-0.3-0.9-0.3-1.2,0.1L49-17.9c-0.4,0.4-0.4,1-0.1,1.3c0,0,0,0,0.1,0.1l3.4,3.1
		L49-10.3c-0.4,0.4-0.4,1-0.1,1.3c0,0,0,0,0.1,0.1l1.3,1.1c0.3,0.3,0.9,0.3,1.2,0.1l4-3l9.1,8.2c0.4,0.4,1,0.5,1.6,0.3l4.7-2.3
		c0.5-0.2,0.8-0.7,0.8-1.3v-15.3C71.7-21.6,71.4-22.1,70.9-22.4z M66-8.3l-6.9-5.2l6.9-5.2V-8.3z"/>
	
		<linearGradient id="SVGID_00000011033197546076230060000007068419691315522491_" gradientUnits="userSpaceOnUse" x1="60.1931" y1="77.4607" x2="60.1931" y2="54.8088" gradientTransform="matrix(1 0 0 -1 0 52)">
		<stop  offset="0" style="stop-color:#FFFFFF"/>
		<stop  offset="1" style="stop-color:#0091E3"/>
	</linearGradient>
	<path style="fill:url(#SVGID_00000011033197546076230060000007068419691315522491_);" d="M70.9-23.1l-4.7-2.3
		c-0.5-0.3-1.2-0.2-1.6,0.3l-9.1,8.2l-4-3c-0.4-0.3-0.9-0.3-1.2,0.1L49-18.6c-0.4,0.4-0.4,1-0.1,1.3c0,0,0,0,0.1,0.1l3.4,3.1L49-11
		c-0.4,0.4-0.4,1-0.1,1.3c0,0,0,0,0.1,0.1l1.3,1.1c0.3,0.3,0.9,0.3,1.2,0.1l4-3l9.1,8.2c0.4,0.4,1.1,0.5,1.6,0.3l4.7-2.3
		c0.5-0.2,0.8-0.7,0.8-1.3v-15.3C71.7-22.3,71.4-22.8,70.9-23.1z M66-9l-6.9-5.2l6.9-5.2V-9z"/>
</g>
<g>
	<path class="st32" d="M-300.5,36.3h-24.2c-7.1,0-12.9-5.8-12.9-12.9V-0.8c0-7.1,5.8-12.9,12.9-12.9h24.2c7.1,0,12.9,5.8,12.9,12.9
		v24.2C-287.6,30.6-293.3,36.3-300.5,36.3z"/>
	<g>
		<g>
			<g>
				<g>
					
						<linearGradient id="SVGID_00000081636939095339682780000011978604381103430296_" gradientUnits="userSpaceOnUse" x1="-312.6" y1="60.7" x2="-312.6" y2="20.7" gradientTransform="matrix(1 0 0 -1 0 52)">
						<stop  offset="0" style="stop-color:#0093E5"/>
						<stop  offset="1" style="stop-color:#004383"/>
					</linearGradient>
					<path style="fill:url(#SVGID_00000081636939095339682780000011978604381103430296_);" d="M-302.9,31.3h-19.4
						c-5.7,0-10.3-4.6-10.3-10.3V1.6c0-5.7,4.6-10.3,10.3-10.3h19.4c5.7,0,10.3,4.6,10.3,10.3V21C-292.6,26.7-297.2,31.3-302.9,31.3
						z"/>
				</g>
			</g>
		</g>
	</g>
</g>
<g>
	
		<linearGradient id="SVGID_00000057148260533341759600000017476138925180380086_" gradientUnits="userSpaceOnUse" x1="-312.6069" y1="51.6361" x2="-312.6069" y2="28.9673" gradientTransform="matrix(1 0 0 -1 0 52)">
		<stop  offset="0" style="stop-color:#FFFFFF"/>
		<stop  offset="0.6844" style="stop-color:#0C5190"/>
		<stop  offset="1" style="stop-color:#00488A"/>
	</linearGradient>
	<path style="fill:url(#SVGID_00000057148260533341759600000017476138925180380086_);" d="M-301.9,2.8l-4.7-2.3
		c-0.5-0.3-1.2-0.2-1.6,0.3l-9.1,8.2l-4-3c-0.4-0.3-0.9-0.3-1.2,0.1l-1.3,1.1c-0.4,0.4-0.4,1-0.1,1.3c0,0,0,0,0.1,0.1l3.4,3.1
		l-3.4,3.1c-0.4,0.4-0.4,1-0.1,1.3c0,0,0,0,0.1,0.1l1.3,1.1c0.3,0.3,0.9,0.3,1.2,0.1l4-3l9.1,8.2c0.4,0.4,1.1,0.5,1.6,0.3l4.7-2.3
		c0.5-0.2,0.8-0.7,0.8-1.3V4C-301.1,3.5-301.4,3-301.9,2.8z M-306.8,16.9l-6.9-5.2l6.9-5.2V16.9z"/>
	
		<linearGradient id="SVGID_00000039851004941141124030000015797204976838626233_" gradientUnits="userSpaceOnUse" x1="-312.6069" y1="52.3491" x2="-312.6069" y2="29.6804" gradientTransform="matrix(1 0 0 -1 0 52)">
		<stop  offset="0" style="stop-color:#FFFFFF"/>
		<stop  offset="1" style="stop-color:#0091E3"/>
	</linearGradient>
	<path style="fill:url(#SVGID_00000039851004941141124030000015797204976838626233_);" d="M-301.9,2l-4.7-2.3
		c-0.5-0.3-1.2-0.2-1.6,0.3l-9.1,8.2l-4-3c-0.4-0.3-0.9-0.3-1.2,0.1l-1.3,1.1c-0.4,0.4-0.4,1-0.1,1.3c0,0,0,0,0.1,0.1l3.4,3.1
		l-3.4,3.1c-0.4,0.4-0.4,1-0.1,1.3c0,0,0,0,0.1,0.1l1.3,1.1c0.3,0.3,0.9,0.3,1.2,0.1l4-3l9.1,8.2c0.4,0.4,1.1,0.5,1.6,0.3l4.7-2.3
		c0.5-0.2,0.8-0.7,0.8-1.3V3.3C-301.1,2.8-301.4,2.3-301.9,2z M-306.8,16.1l-6.9-5.2l6.9-5.2V16.1z"/>
</g>
<g>
	<path class="st36" d="M-175.3,34.9h-24.2c-7.1,0-12.9-5.8-12.9-12.9V-2.2c0-7.1,5.8-12.9,12.9-12.9h24.2c7.1,0,12.9,5.8,12.9,12.9
		V22C-162.4,29.1-168.2,34.9-175.3,34.9z"/>
	<g>
		<g>
			<g>
				<g>
					
						<linearGradient id="SVGID_00000108275537369388929020000005467997683936498094_" gradientUnits="userSpaceOnUse" x1="-187.4" y1="62.1" x2="-187.4" y2="22.1" gradientTransform="matrix(1 0 0 -1 0 52)">
						<stop  offset="0" style="stop-color:#8129FF"/>
						<stop  offset="1" style="stop-color:#4000BF"/>
					</linearGradient>
					<path style="fill:url(#SVGID_00000108275537369388929020000005467997683936498094_);" d="M-177.7,29.9h-19.4
						c-5.7,0-10.3-4.6-10.3-10.3V0.2c0-5.7,4.6-10.3,10.3-10.3h19.4c5.7,0,10.3,4.6,10.3,10.3v19.4
						C-167.4,25.3-172.1,29.9-177.7,29.9z"/>
				</g>
			</g>
		</g>
	</g>
</g>
<linearGradient id="SVGID_00000094613372568647136710000009628124847588127649_" gradientUnits="userSpaceOnUse" x1="-187.4" y1="53.4311" x2="-187.4" y2="30.7792" gradientTransform="matrix(1 0 0 -1 0 52)">
	<stop  offset="0" style="stop-color:#FFFFFF"/>
	<stop  offset="0.662" style="stop-color:#4302C2"/>
	<stop  offset="1" style="stop-color:#4302C2"/>
</linearGradient>
<path style="fill:url(#SVGID_00000094613372568647136710000009628124847588127649_);" d="M-187.3,1.8c4.5,0,8.1,3.6,8.1,8.1
	s-3.6,8.1-8.1,8.1s-8.1-3.6-8.1-8.1c0-1.1,0.2-2.1,0.6-3.1c0.6,0.8,1.5,1.3,2.5,1.3c1.7,0,3.1-1.4,3.1-3.1c0-1-0.5-2-1.3-2.5
	C-189.4,2-188.4,1.8-187.3,1.8z M-187.4-1.4c-6.3,0-11.3,5.1-11.3,11.3s5.1,11.3,11.3,11.3c6.3,0,11.3-5.1,11.3-11.3
	S-181.2-1.4-187.4-1.4z M-187.4-0.3c5.6,0,10.2,4.6,10.2,10.2s-4.6,10.2-10.2,10.2s-10.2-4.6-10.2-10.2S-193.1-0.3-187.4-0.3z"/>
<linearGradient id="SVGID_00000145043083879020988290000006144852359347751862_" gradientUnits="userSpaceOnUse" x1="-187.4" y1="53.4311" x2="-187.4" y2="30.7792" gradientTransform="matrix(1 0 0 -1 0 52)">
	<stop  offset="0" style="stop-color:#FFFFFF"/>
	<stop  offset="1" style="stop-color:#8029FE"/>
</linearGradient>
<path style="fill:url(#SVGID_00000145043083879020988290000006144852359347751862_);" d="M-187.3,1.8c4.5,0,8.1,3.6,8.1,8.1
	s-3.6,8.1-8.1,8.1s-8.1-3.6-8.1-8.1c0-1.1,0.2-2.1,0.6-3.1c0.6,0.8,1.5,1.3,2.5,1.3c1.7,0,3.1-1.4,3.1-3.1c0-1-0.5-2-1.3-2.5
	C-189.4,2-188.4,1.8-187.3,1.8z M-187.4-1.4c-6.3,0-11.3,5.1-11.3,11.3s5.1,11.3,11.3,11.3c6.3,0,11.3-5.1,11.3-11.3
	S-181.2-1.4-187.4-1.4z M-187.4-0.3c5.6,0,10.2,4.6,10.2,10.2s-4.6,10.2-10.2,10.2s-10.2-4.6-10.2-10.2S-193.1-0.3-187.4-0.3z"/>
<g>
	<path class="st40" d="M-174.4,95.8h-24.2c-7.1,0-12.9-5.8-12.9-12.9V58.7c0-7.1,5.8-12.9,12.9-12.9h24.2c7.1,0,12.9,5.8,12.9,12.9
		v24.2C-161.6,90-167.3,95.8-174.4,95.8z"/>
	<g>
		<g>
			<g>
				<g>
					
						<linearGradient id="SVGID_00000150795571618434811680000015757072021963619981_" gradientUnits="userSpaceOnUse" x1="-186.6" y1="1.2" x2="-186.6" y2="-38.8" gradientTransform="matrix(1 0 0 -1 0 52)">
						<stop  offset="0" style="stop-color:#33C1FF"/>
						<stop  offset="1" style="stop-color:#2E6BFF"/>
					</linearGradient>
					<path style="fill:url(#SVGID_00000150795571618434811680000015757072021963619981_);" d="M-176.9,90.8h-19.4
						c-5.7,0-10.3-4.6-10.3-10.3V61.1c0-5.7,4.6-10.3,10.3-10.3h19.4c5.7,0,10.3,4.6,10.3,10.3v19.4
						C-166.6,86.2-171.2,90.8-176.9,90.8z"/>
				</g>
			</g>
		</g>
	</g>
</g>
<g>
	
		<linearGradient id="SVGID_00000118366803899288169490000014495849412659603878_" gradientUnits="userSpaceOnUse" x1="-192.5" y1="-9.8739" x2="-192.5" y2="-28.5045" gradientTransform="matrix(1 0 0 -1 0 52)">
		<stop  offset="0" style="stop-color:#FFFFFF"/>
		<stop  offset="0.6508" style="stop-color:#2E6EFF"/>
		<stop  offset="1" style="stop-color:#2E6DFF"/>
	</linearGradient>
	<path style="fill:url(#SVGID_00000118366803899288169490000014495849412659603878_);" d="M-186.3,65.9c-0.3-0.8-0.7-1.4-1.3-2
		c-0.7-0.7-1.5-1.1-2.4-1.4c-1-0.4-2.2-0.5-3.6-0.5c-0.5,0-1.1,0-1.6,0s-1.1,0-1.5,0c-0.5,0-0.9,0-1.3,0c-0.4,0-0.7,0-1,0
		c-0.1,0-0.2,0.1-0.2,0.2v18.1c0,0.2,0.1,0.2,0.2,0.2h3.4c0.1,0,0.2-0.1,0.2-0.2v-5.6c0.3,0,0.6,0,0.8,0s0.5,0,0.9,0
		c1.4,0,2.8-0.2,4-0.6c1.1-0.4,2.1-1.2,2.8-2.1c0.7-1,1.1-2.2,1.1-3.7C-185.9,67.4-186.1,66.6-186.3,65.9z M-190.3,70.1
		c-0.4,0.4-0.9,0.8-1.4,0.9c-0.7,0.2-1.3,0.3-2,0.3h-0.9c-0.2,0-0.4,0-0.7,0v-5.9c0.1,0,0.4,0,0.7,0s0.7,0,1.2,0
		c0.7,0,1.4,0.1,2.1,0.4c0.5,0.2,0.9,0.5,1.2,1s0.4,1,0.4,1.6C-189.8,69-189.9,69.6-190.3,70.1z"/>
	
		<linearGradient id="SVGID_00000119839410801099538200000007369510248485106098_" gradientUnits="userSpaceOnUse" x1="-178.95" y1="-14.2368" x2="-178.95" y2="-28.8739" gradientTransform="matrix(1 0 0 -1 0 52)">
		<stop  offset="0" style="stop-color:#FFFFFF"/>
		<stop  offset="0.6508" style="stop-color:#2E6EFF"/>
		<stop  offset="1" style="stop-color:#2E6DFF"/>
	</linearGradient>
	<path style="fill:url(#SVGID_00000119839410801099538200000007369510248485106098_);" d="M-173.8,76.4c0,0.8-0.2,1.7-0.7,2.3
		c-0.5,0.7-1.2,1.2-2,1.6c-0.9,0.4-1.9,0.6-3.2,0.6c-0.8,0-1.6-0.1-2.4-0.2c-0.6-0.1-1.2-0.3-1.8-0.6c-0.1-0.1-0.2-0.2-0.2-0.3v-3.1
		c0-0.1,0-0.1,0.1-0.2c0.1,0,0.1,0,0.2,0c0.7,0.4,1.4,0.7,2.2,0.9c0.7,0.2,1.4,0.3,2.1,0.3c0.7,0,1.1-0.1,1.5-0.2
		c0.3-0.1,0.5-0.4,0.5-0.7c0-0.2-0.1-0.5-0.4-0.7s-0.9-0.5-1.7-0.8c-0.9-0.3-1.7-0.7-2.5-1.3c-0.5-0.4-1-0.9-1.3-1.5
		s-0.4-1.2-0.4-1.8c0-0.8,0.2-1.5,0.6-2.1c0.4-0.7,1.1-1.3,1.8-1.6c0.8-0.4,1.9-0.6,3.1-0.6c0.7,0,1.5,0.1,2.2,0.2
		c0.5,0.1,1,0.2,1.5,0.4c0.1,0,0.1,0.1,0.2,0.2c0,0.1,0,0.1,0,0.2V70c0,0.1,0,0.1-0.1,0.2c-0.2,0-0.2,0-0.3,0
		c-0.5-0.3-1.1-0.5-1.7-0.6c-0.7-0.1-1.3-0.2-2-0.2c-0.4,0-0.7,0-1.1,0.1c-0.2,0.1-0.4,0.2-0.5,0.4c-0.1,0.1-0.1,0.3-0.1,0.5
		s0.1,0.3,0.2,0.5c0.2,0.2,0.4,0.4,0.6,0.5c0.4,0.2,0.8,0.4,1.2,0.6c0.9,0.3,1.9,0.8,2.7,1.3c0.6,0.4,1.1,0.9,1.4,1.5
		C-173.9,75.2-173.8,75.8-173.8,76.4z"/>
</g>
<g>
	
		<linearGradient id="SVGID_00000109031585247782094640000014065202929764865202_" gradientUnits="userSpaceOnUse" x1="-192.9" y1="-9.3924" x2="-192.9" y2="-28.023" gradientTransform="matrix(1 0 0 -1 0 52)">
		<stop  offset="0" style="stop-color:#FFFFFF"/>
		<stop  offset="1" style="stop-color:#33C0FF"/>
	</linearGradient>
	<path style="fill:url(#SVGID_00000109031585247782094640000014065202929764865202_);" d="M-186.7,65.4c-0.3-0.8-0.7-1.4-1.3-2
		c-0.7-0.7-1.5-1.1-2.4-1.4c-1-0.4-2.2-0.5-3.6-0.5c-0.5,0-1.1,0-1.6,0s-1.1,0-1.5,0c-0.5,0-0.9,0-1.3,0c-0.4,0-0.7,0-1,0
		c-0.1,0-0.2,0.1-0.2,0.2v18.1c0,0.2,0.1,0.2,0.2,0.2h3.4c0.1,0,0.2-0.1,0.2-0.2v-5.6c0.3,0,0.6,0,0.8,0s0.5,0,0.9,0
		c1.4,0,2.8-0.2,4-0.6c1.1-0.4,2.1-1.2,2.8-2.1c0.7-1,1.1-2.2,1.1-3.7C-186.3,66.9-186.4,66.1-186.7,65.4z M-190.6,69.6
		c-0.4,0.4-0.9,0.8-1.4,0.9c-0.7,0.2-1.3,0.3-2,0.3h-0.9c-0.2,0-0.4,0-0.7,0v-5.9c0.1,0,0.4,0,0.7,0s0.7,0,1.2,0
		c0.7,0,1.4,0.1,2.1,0.4c0.5,0.2,0.9,0.5,1.2,1s0.4,1,0.4,1.6C-190.1,68.6-190.3,69.2-190.6,69.6z"/>
	
		<linearGradient id="SVGID_00000062883545037112090240000011360195323946791314_" gradientUnits="userSpaceOnUse" x1="-179.3367" y1="-13.7553" x2="-179.3367" y2="-28.3924" gradientTransform="matrix(1 0 0 -1 0 52)">
		<stop  offset="0" style="stop-color:#FFFFFF"/>
		<stop  offset="1" style="stop-color:#33C0FF"/>
	</linearGradient>
	<path style="fill:url(#SVGID_00000062883545037112090240000011360195323946791314_);" d="M-174.2,75.9c0,0.8-0.2,1.7-0.7,2.3
		c-0.5,0.7-1.2,1.2-2,1.6c-0.9,0.4-1.9,0.6-3.2,0.6c-0.8,0-1.6-0.1-2.4-0.2c-0.6-0.1-1.2-0.3-1.8-0.6c-0.1-0.1-0.2-0.2-0.2-0.3v-3.1
		c0-0.1,0-0.1,0.1-0.2c0.1,0,0.1,0,0.2,0c0.7,0.4,1.4,0.7,2.2,0.9c0.7,0.2,1.4,0.3,2.1,0.3c0.7,0,1.1-0.1,1.5-0.2
		c0.3-0.1,0.5-0.4,0.5-0.7c0-0.2-0.1-0.5-0.4-0.7s-0.9-0.5-1.7-0.8c-0.9-0.3-1.7-0.7-2.5-1.3c-0.5-0.4-1-0.9-1.3-1.5
		s-0.4-1.2-0.4-1.8c0-0.8,0.2-1.5,0.6-2.1c0.4-0.7,1.1-1.3,1.8-1.6c0.8-0.4,1.9-0.6,3.1-0.6c0.7,0,1.5,0.1,2.2,0.2
		c0.5,0.1,1,0.2,1.5,0.4c0.1,0,0.1,0.1,0.2,0.2c0,0.1,0,0.1,0,0.2v2.9c0,0.1,0,0.1-0.1,0.2c-0.2,0-0.2,0-0.3,0
		c-0.5-0.3-1.1-0.5-1.7-0.6c-0.7-0.1-1.3-0.2-2-0.2c-0.4,0-0.7,0-1.1,0.1c-0.2,0.1-0.4,0.2-0.5,0.4c-0.1,0.1-0.1,0.3-0.1,0.5
		s0.1,0.3,0.2,0.5c0.2,0.2,0.4,0.4,0.6,0.5c0.4,0.2,0.8,0.4,1.2,0.6c0.9,0.3,1.9,0.8,2.7,1.3c0.6,0.4,1.1,0.9,1.4,1.5
		C-174.3,74.7-174.1,75.3-174.2,75.9z"/>
</g>
<g>
	<path class="st46" d="M-289.6,91.3h-24.2c-7.1,0-12.9-5.8-12.9-12.9V54.2c0-7.1,5.8-12.9,12.9-12.9h24.2c7.1,0,12.9,5.8,12.9,12.9
		v24.2C-276.7,85.6-282.4,91.3-289.6,91.3z"/>
	<g>
		<g>
			<g>
				<g>
					
						<linearGradient id="SVGID_00000101068363653780612410000003814866940307065221_" gradientUnits="userSpaceOnUse" x1="-301.7" y1="5.6587" x2="-301.7" y2="-34.3413" gradientTransform="matrix(1 0 0 -1 0 52)">
						<stop  offset="5.586592e-03" style="stop-color:#48A5D3"/>
						<stop  offset="1" style="stop-color:#20495E"/>
					</linearGradient>
					<path style="fill:url(#SVGID_00000101068363653780612410000003814866940307065221_);" d="M-292,86.3h-19.4
						c-5.7,0-10.3-4.6-10.3-10.3V56.7c0-5.7,4.6-10.3,10.3-10.3h19.4c5.7,0,10.3,4.6,10.3,10.3V76C-281.7,81.7-286.3,86.3-292,86.3z
						"/>
				</g>
			</g>
		</g>
	</g>
</g>
<g>
	
		<linearGradient id="SVGID_00000014607123401141816070000013007244216928302010_" gradientUnits="userSpaceOnUse" x1="-301.4934" y1="-3.6" x2="-301.4934" y2="-25.6676" gradientTransform="matrix(1 0 0 -1 0 52)">
		<stop  offset="0" style="stop-color:#FFFFFF"/>
		<stop  offset="0.581" style="stop-color:#235067"/>
	</linearGradient>
	<path style="fill:url(#SVGID_00000014607123401141816070000013007244216928302010_);" d="M-290.9,69.1c0,0,0-0.1-0.1-0.1
		c-0.1-0.2-0.4-0.3-0.9-0.2c-1.5,0.3-2.1,0.1-2.3,0c1.2-1.9,2.2-4.2,2.8-6.3c0.2-1,0.7-3.2,0.1-4.4c0-0.1-0.1-0.1-0.1-0.2
		c-1.2-1.5-2.9-2.3-5-2.3c-1.4,0-2.5,0.3-2.9,0.4c-0.2,0-0.3-0.1-0.5-0.1c-0.4-0.1-0.8-0.1-1.2-0.1c-1.1,0-2,0.2-2.8,0.8
		c-0.8-0.3-4.4-1.5-6.6,0.1c-1.2,0.9-1.8,2.5-1.7,4.7c0,0.8,0.5,3.1,1.1,5.3c0.4,1.4,0.9,2.5,1.3,3.3c0.5,0.9,1,1.5,1.6,1.6
		c0.4,0.1,1,0.1,1.7-0.7c0.7-0.9,1.5-1.7,1.8-2c0.4,0.2,0.8,0.3,1.3,0.3l0,0c-0.1,0.1-0.2,0.2-0.2,0.3c-0.3,0.4-0.4,0.5-1.4,0.7
		c-0.3,0.1-1,0.2-1.1,0.7c0,0.1,0,0.2,0.1,0.3c0.2,0.4,0.8,0.6,0.9,0.6c1.2,0.3,2.3,0.1,3.1-0.6c0,2.1,0.1,4.1,0.3,4.7
		c0.2,0.5,0.7,1.8,2.3,1.8c0.2,0,0.5,0,0.8-0.1c1.6-0.4,2.3-1.1,2.6-2.7c0.1-0.8,0.4-2.6,0.5-3.8c0-0.1,0-0.1,0.1-0.1
		c0,0,0.1,0,0.4,0l0,0h0.2l0,0c0.8,0,1.8-0.1,2.3-0.4C-291.8,70.4-290.7,69.7-290.9,69.1z M-310.4,66.5c-0.7-2.2-1.1-4.5-1.1-5.1
		c-0.1-2,0.4-3.4,1.4-4.1c1.7-1.2,4.5-0.5,5.6-0.1l0,0c-1.9,1.9-1.8,5.1-1.8,5.3c0,0.1,0,0.2,0,0.3c0,0.5,0.1,1.5-0.1,2.7
		c-0.1,1.1,0.2,2.1,0.9,2.8c0.1,0.1,0.2,0.1,0.2,0.2c-0.3,0.3-1,1.1-1.7,2c-0.5,0.6-0.9,0.5-1,0.5c-0.4-0.1-0.7-0.5-1.1-1.2
		C-309.5,69-310,67.9-310.4,66.5z M-304.8,71.2c-0.2,0-0.3-0.1-0.4-0.2c0.1,0,0.2-0.1,0.4-0.1c1.2-0.2,1.4-0.4,1.8-0.9
		c0.1-0.1,0.2-0.2,0.3-0.4l0.1-0.1c0.2-0.1,0.3-0.1,0.4,0s0.3,0.2,0.3,0.4c0,0.1,0.1,0.3,0,0.4C-302.8,71.4-304,71.4-304.8,71.2z
		 M-302.9,67.5L-302.9,67.5c-0.1,0.4-0.2,0.7-0.3,1c-0.6,0-1.2-0.3-1.7-0.7c-0.6-0.6-0.8-1.4-0.7-2.3c0.2-1.2,0.1-2.2,0.1-2.8
		c0-0.1,0-0.1,0-0.2c-0.1-0.8,1.4-1.3,2.2-1.1c0.4,0.1,0.8,0.8,0.9,1.3c0.5,2.5,0.1,3.5-0.3,4.4C-302.8,67.2-302.9,67.4-302.9,67.5z
		 M-296.2,71.7c0,0.2,0,0.3-0.1,0.5l-0.1,0.4v0.1c0,0.4,0,0.6-0.1,0.8c-0.1,0.2-0.1,0.4-0.2,1c-0.1,1.3-0.8,2-2.2,2.4
		c-1.4,0.3-1.6-0.5-1.9-1.1c0-0.1,0-0.1-0.1-0.2c-0.2-0.5-0.2-1.3-0.1-2.3c0-0.5,0-1.7-0.3-2.4c0-0.3,0-0.5,0-0.8V70
		c0-0.1,0-0.1,0-0.2c-0.1-0.4-0.4-0.7-0.7-0.9c-0.1-0.1-0.4-0.2-0.7-0.1c0.1-0.3,0.2-0.5,0.3-0.9v-0.1c0.1-0.1,0.1-0.3,0.2-0.5
		c0.4-0.9,0.9-2.1,0.3-4.8c-0.2-1-0.9-1.5-2.1-1.4c-0.7,0.1-1.3,0.3-1.6,0.5c-0.1,0-0.1,0.1-0.2,0.1c0.1-1,0.4-2.9,1.6-4.1
		c0.1-0.1,0.2-0.2,0.3-0.3c0,0,0.1,0,0.1-0.1c0.7-0.5,1.6-0.8,2.6-0.8c0.4,0,0.7,0,1.1,0.1c1.8,0.3,3,1.3,3.7,2.2s1.2,1.8,1.3,2.3
		c-1.2-0.1-2,0.1-2.5,0.7c-0.9,1.3,0.5,3.8,1.2,5.1c0.1,0.2,0.2,0.4,0.3,0.5c0.2,0.5,0.5,0.9,0.7,1.2c0.1,0.1,0.1,0.2,0.2,0.2
		c-0.4,0.1-1,0.4-1,1.6c0,0.1,0,0.4-0.1,0.7C-296.1,71.2-296.1,71.5-296.2,71.7z M-295.3,70.2c0-0.8,0.2-0.8,0.5-0.9h0.1l0.1,0.1
		c0.5,0.3,1.5,0.4,2.8,0.1c-0.2,0.2-0.5,0.4-0.9,0.6s-1,0.3-1.6,0.3C-294.9,70.4-295.3,70.3-295.3,70.2z M-294.8,61.4
		c0,0.3-0.1,0.9-0.1,1.2c-0.1,0.3-0.1,0.7-0.1,1.1s0,0.8,0.1,1.2c0.1,0.8,0.2,1.7-0.2,2.5c-0.1-0.1-0.1-0.2-0.2-0.4
		c0-0.1-0.2-0.3-0.3-0.6c-0.6-1-2.2-3.9-1.5-4.8C-296.7,61.2-295.7,61.2-294.8,61.4z M-294.6,68.2
		C-294.6,68.1-294.7,68.1-294.6,68.2l-0.1-0.1c0.7-1.1,0.5-2.2,0.4-3.2c0-0.4-0.1-0.8-0.1-1.1c0-0.4,0.1-0.7,0.1-1
		c0.1-0.4,0.1-0.8,0.1-1.2c0,0,0-0.1,0-0.2c0-0.4-0.6-1.8-1.6-3c-0.6-0.7-1.4-1.4-2.5-1.9c0.5-0.1,1.1-0.2,1.9-0.2
		c1.9,0,3.4,0.7,4.4,2.1c0,0,0,0.1,0.1,0.1C-291.2,59.7-292.1,64.2-294.6,68.2z"/>
	
		<linearGradient id="SVGID_00000107560738161458041820000003213993851572834968_" gradientUnits="userSpaceOnUse" x1="-301.7934" y1="-3.0154" x2="-301.7934" y2="-25.083" gradientTransform="matrix(1 0 0 -1 0 52)">
		<stop  offset="0" style="stop-color:#FFFFFF"/>
		<stop  offset="1" style="stop-color:#48A4D2"/>
	</linearGradient>
	<path style="fill:url(#SVGID_00000107560738161458041820000003213993851572834968_);" d="M-291.2,68.6c0,0,0-0.1-0.1-0.1
		c-0.1-0.2-0.4-0.3-0.9-0.2c-1.5,0.3-2.1,0.1-2.3,0c1.2-1.9,2.2-4.2,2.8-6.3c0.2-1,0.7-3.2,0.1-4.4c0-0.1-0.1-0.1-0.1-0.2
		c-1.2-1.5-2.9-2.3-5-2.3c-1.4,0-2.5,0.3-2.9,0.4c-0.2,0-0.3-0.1-0.5-0.1c-0.4-0.1-0.8-0.1-1.2-0.1c-1.1,0-2,0.2-2.8,0.8
		c-0.8-0.3-4.4-1.5-6.6,0.1c-1.2,0.9-1.8,2.5-1.7,4.7c0,0.8,0.5,3.1,1.1,5.3c0.4,1.4,0.9,2.5,1.3,3.3c0.5,0.9,1,1.5,1.6,1.6
		c0.4,0.1,1,0.1,1.7-0.7c0.7-0.9,1.5-1.7,1.8-2c0.4,0.2,0.8,0.3,1.3,0.3l0,0c-0.1,0.1-0.2,0.2-0.2,0.3c-0.3,0.4-0.4,0.5-1.4,0.7
		c-0.3,0.1-1,0.2-1.1,0.7c0,0.1,0,0.2,0.1,0.3c0.2,0.4,0.8,0.6,0.9,0.6c1.2,0.3,2.3,0.1,3.1-0.6c0,2.1,0.1,4.1,0.3,4.7
		c0.2,0.5,0.7,1.8,2.3,1.8c0.2,0,0.5,0,0.8-0.1c1.6-0.4,2.3-1.1,2.6-2.7c0.1-0.8,0.4-2.6,0.5-3.8c0-0.1,0-0.1,0.1-0.1
		c0,0,0.1,0,0.4,0l0,0h0.2l0,0c0.8,0,1.8-0.1,2.3-0.4C-292.1,69.8-291,69.1-291.2,68.6z M-310.7,65.9c-0.7-2.2-1.1-4.5-1.1-5.1
		c-0.1-2,0.4-3.4,1.4-4.1c1.7-1.2,4.5-0.5,5.6-0.1l0,0c-1.9,1.9-1.8,5.1-1.8,5.3c0,0.1,0,0.2,0,0.3c0,0.5,0.1,1.5-0.1,2.7
		c-0.1,1.1,0.2,2.1,0.9,2.8c0.1,0.1,0.2,0.1,0.2,0.2c-0.3,0.3-1,1.1-1.7,2c-0.5,0.6-0.9,0.5-1,0.5c-0.4-0.1-0.7-0.5-1.1-1.2
		C-309.8,68.4-310.3,67.3-310.7,65.9z M-305.1,70.6c-0.2,0-0.3-0.1-0.4-0.2c0.1,0,0.2-0.1,0.4-0.1c1.2-0.2,1.4-0.4,1.8-0.9
		c0.1-0.1,0.2-0.2,0.3-0.4l0.1-0.1c0.2-0.1,0.3-0.1,0.4,0s0.3,0.2,0.3,0.4c0,0.1,0.1,0.3,0,0.4C-303.1,70.8-304.3,70.8-305.1,70.6z
		 M-303.2,66.9L-303.2,66.9c-0.1,0.4-0.2,0.7-0.3,1c-0.6,0-1.2-0.3-1.7-0.7c-0.6-0.6-0.8-1.4-0.7-2.3c0.2-1.2,0.1-2.2,0.1-2.8
		c0-0.1,0-0.1,0-0.2c0.3-0.2,1.5-0.9,2.4-0.7c0.4,0.1,0.7,0.4,0.8,0.9c0.5,2.5,0.1,3.5-0.3,4.4C-303.1,66.6-303.2,66.8-303.2,66.9z
		 M-296.5,71.2c0,0.2,0,0.3-0.1,0.5l-0.1,0.4v0.1c0,0.4,0,0.6-0.1,0.8c-0.1,0.2-0.1,0.4-0.2,1c-0.1,1.3-0.8,2-2.2,2.4
		c-1.4,0.3-1.6-0.5-1.9-1.1c0-0.1,0-0.1-0.1-0.2c-0.2-0.5-0.2-1.3-0.1-2.3c0-0.5,0-1.7-0.3-2.4c0-0.3,0-0.5,0-0.8v-0.1
		c0-0.1,0-0.1,0-0.2c-0.1-0.4-0.4-0.7-0.7-0.9c-0.1-0.1-0.4-0.2-0.7-0.1c0.1-0.3,0.2-0.5,0.3-0.9v-0.1c0.1-0.1,0.1-0.3,0.2-0.5
		c0.4-0.9,0.9-2.1,0.3-4.8c-0.2-1-0.9-1.5-2.1-1.4c-0.7,0.1-1.3,0.3-1.6,0.5c-0.1,0-0.1,0.1-0.2,0.1c0.1-1,0.4-2.9,1.6-4.1
		c0.1-0.1,0.2-0.2,0.3-0.3c0,0,0.1,0,0.1-0.1c0.7-0.5,1.6-0.8,2.6-0.8c0.4,0,0.7,0,1.1,0.1c1.8,0.3,3,1.3,3.7,2.2s1.2,1.8,1.3,2.3
		c-1.2-0.1-2,0.1-2.5,0.7c-0.9,1.3,0.5,3.8,1.2,5.1c0.1,0.2,0.2,0.4,0.3,0.5c0.2,0.5,0.5,0.9,0.7,1.2c0.1,0.1,0.1,0.2,0.2,0.2
		c-0.4,0.1-1,0.4-1,1.6c0,0.1,0,0.4-0.1,0.7C-296.4,70.6-296.4,70.9-296.5,71.2z M-295.6,69.7c0-0.8,0.2-0.8,0.5-0.9h0.1l0.1,0.1
		c0.5,0.3,1.5,0.4,2.8,0.1c-0.2,0.2-0.5,0.4-0.9,0.6s-1,0.3-1.6,0.3C-295.2,69.8-295.6,69.7-295.6,69.7z M-295.1,61.1
		c0,0.3,0,0.6-0.1,0.9c-0.1,0.3-0.1,0.7-0.1,1.1c0,0.4,0,0.8,0.1,1.2c0.1,0.8,0.2,1.7-0.2,2.5c-0.1-0.1-0.1-0.2-0.2-0.4
		c0-0.1-0.2-0.3-0.3-0.6c-0.6-1-1.9-3.4-1.2-4.4C-296.8,61.1-295.9,61-295.1,61.1z M-294.9,67.6C-294.9,67.6-295,67.5-294.9,67.6
		l-0.1-0.1c0.7-1.1,0.5-2.2,0.4-3.2c0-0.4-0.1-0.8-0.1-1.1c0-0.4,0.1-0.7,0.1-1c0.1-0.4,0.1-0.8,0.1-1.2c0,0,0-0.1,0-0.2
		c0-0.4-0.6-1.8-1.6-3c-0.6-0.7-1.4-1.4-2.5-1.9c0.5-0.1,1.1-0.2,1.9-0.2c1.9,0,3.4,0.7,4.4,2.1c0,0,0,0.1,0.1,0.1
		C-291.5,59.1-292.4,63.7-294.9,67.6z M-303,62c0,0.2-0.3,0.4-0.6,0.4c0,0,0,0-0.1,0c-0.2,0-0.3-0.1-0.5-0.3c0-0.1-0.1-0.2-0.1-0.3
		c0,0,0-0.1,0.1-0.1c0.1-0.1,0.3-0.1,0.6-0.1C-303.3,61.6-303,61.8-303,62z M-295.7,61.6c0,0.1,0,0.2-0.1,0.3s-0.2,0.2-0.4,0.2
		c0,0,0,0-0.1,0c-0.3,0-0.5-0.2-0.5-0.3c0-0.2,0.2-0.3,0.5-0.3C-296,61.4-295.7,61.4-295.7,61.6z"/>
</g>
<g>
	<path class="st50" d="M-231.3,93.6h-24.2c-7.1,0-12.9-5.8-12.9-12.9V56.5c0-7.1,5.8-12.9,12.9-12.9h24.2c7.1,0,12.9,5.8,12.9,12.9
		v24.2C-218.4,87.8-224.2,93.6-231.3,93.6z"/>
	<g>
		<g>
			<g>
				<g>
					
						<linearGradient id="SVGID_00000152974715802036954290000000919277767790833313_" gradientUnits="userSpaceOnUse" x1="-243.4" y1="3.4" x2="-243.4" y2="-36.6" gradientTransform="matrix(1 0 0 -1 0 52)">
						<stop  offset="0" style="stop-color:#DCE0E2"/>
						<stop  offset="1" style="stop-color:#8F9FB2"/>
					</linearGradient>
					<path style="fill:url(#SVGID_00000152974715802036954290000000919277767790833313_);" d="M-233.7,88.6h-19.4
						c-5.7,0-10.3-4.6-10.3-10.3V58.9c0-5.7,4.6-10.3,10.3-10.3h19.4c5.7,0,10.3,4.6,10.3,10.3v19.4
						C-223.4,83.9-228.1,88.6-233.7,88.6z"/>
				</g>
			</g>
		</g>
	</g>
</g>
<linearGradient id="SVGID_00000116955976990598280960000006575165406259214214_" gradientUnits="userSpaceOnUse" x1="-243.4" y1="-5.2395" x2="-243.4" y2="-27.8723" gradientTransform="matrix(1 0 0 -1 0 52)">
	<stop  offset="0" style="stop-color:#DCE0E2"/>
	<stop  offset="1" style="stop-color:#6F7C89"/>
</linearGradient>
<path style="fill:url(#SVGID_00000116955976990598280960000006575165406259214214_);" d="M-250.6,61.2c0.7,0.6,1,0.5,2.3,0.4
	l12.5-0.7c0.3,0,0-0.3,0-0.3l-2.1-1.5c-0.4-0.3-0.9-0.7-1.9-0.6l-12.1,0.9c-0.4,0-0.5,0.3-0.4,0.4L-250.6,61.2z M-249.8,64.1v13.1
	c0,0.7,0.4,1,1.1,0.9l13.7-0.8c0.8,0,0.9-0.5,0.9-1.1v-13c0-0.6-0.2-0.9-0.7-0.8l-14.3,0.8C-249.6,63.3-249.8,63.5-249.8,64.1
	L-249.8,64.1z M-236.3,64.8c0.1,0.4,0,0.8-0.4,0.8l-0.7,0.1v9.7c-0.6,0.3-1.1,0.5-1.5,0.5c-0.7,0-0.9-0.2-1.4-0.9l-4.3-6.8v6.6
	l1.4,0.3c0,0,0,0.8-1.1,0.8l-3,0.2c-0.1-0.2,0-0.6,0.3-0.7l0.8-0.2v-8.7l-1.1-0.1c-0.1-0.4,0.1-1,0.7-1l3.3-0.2l4.5,6.9V66l-1.1-0.1
	c-0.1-0.5,0.3-0.8,0.7-0.9L-236.3,64.8z M-252.9,58.2l12.6-0.9c1.5-0.1,1.9,0,2.9,0.7l4,2.8c0.7,0.5,0.9,0.6,0.9,1.1v15.5
	c0,1-0.4,1.5-1.6,1.6l-14.6,0.9c-0.9,0-1.4-0.1-1.9-0.7l-3-3.8c-0.5-0.7-0.7-1.2-0.7-1.8V59.8C-254.3,59-253.9,58.3-252.9,58.2z"/>
<linearGradient id="SVGID_00000144308519158954788140000008754082102470167941_" gradientUnits="userSpaceOnUse" x1="-243.4" y1="-5.2395" x2="-243.4" y2="-27.8723" gradientTransform="matrix(1 0 0 -1 0 52)">
	<stop  offset="0" style="stop-color:#353535"/>
	<stop  offset="1" style="stop-color:#151515"/>
</linearGradient>
<path style="fill:url(#SVGID_00000144308519158954788140000008754082102470167941_);" d="M-250.6,61.2c0.7,0.6,1,0.5,2.3,0.4
	l12.5-0.7c0.3,0,0-0.3,0-0.3l-2.1-1.5c-0.4-0.3-0.9-0.7-1.9-0.6l-12.1,0.9c-0.4,0-0.5,0.3-0.4,0.4L-250.6,61.2z M-249.8,64.1v13.1
	c0,0.7,0.4,1,1.1,0.9l13.7-0.8c0.8,0,0.9-0.5,0.9-1.1v-13c0-0.6-0.2-0.9-0.7-0.8l-14.3,0.8C-249.6,63.3-249.8,63.5-249.8,64.1
	L-249.8,64.1z M-236.3,64.8c0.1,0.4,0,0.8-0.4,0.8l-0.7,0.1v9.7c-0.6,0.3-1.1,0.5-1.5,0.5c-0.7,0-0.9-0.2-1.4-0.9l-4.3-6.8v6.6
	l1.4,0.3c0,0,0,0.8-1.1,0.8l-3,0.2c-0.1-0.2,0-0.6,0.3-0.7l0.8-0.2v-8.7l-1.1-0.1c-0.1-0.4,0.1-1,0.7-1l3.3-0.2l4.5,6.9V66l-1.1-0.1
	c-0.1-0.5,0.3-0.8,0.7-0.9L-236.3,64.8z M-252.9,58.2l12.6-0.9c1.5-0.1,1.9,0,2.9,0.7l4,2.8c0.7,0.5,0.9,0.6,0.9,1.1v15.5
	c0,1-0.4,1.5-1.6,1.6l-14.6,0.9c-0.9,0-1.4-0.1-1.9-0.7l-3-3.8c-0.5-0.7-0.7-1.2-0.7-1.8V59.8C-254.3,59-253.9,58.3-252.9,58.2z"/>
<g>
	<path class="st54" d="M-367.4,91.7h-24.2c-7.1,0-12.9-5.8-12.9-12.9V54.6c0-7.1,5.8-12.9,12.9-12.9h24.2c7.1,0,12.9,5.8,12.9,12.9
		v24.2C-354.6,86-360.3,91.7-367.4,91.7z"/>
	<g>
		<g>
			<g>
				<g>
					
						<linearGradient id="SVGID_00000165222235046080374710000015679619089794688958_" gradientUnits="userSpaceOnUse" x1="-379.6" y1="5.2521" x2="-379.6" y2="-34.7479" gradientTransform="matrix(1 0 0 -1 0 52)">
						<stop  offset="0" style="stop-color:#9088FF"/>
						<stop  offset="1" style="stop-color:#5865F2"/>
					</linearGradient>
					<path style="fill:url(#SVGID_00000165222235046080374710000015679619089794688958_);" d="M-369.9,86.7h-19.4
						c-5.7,0-10.3-4.6-10.3-10.3V57.1c0-5.7,4.6-10.3,10.3-10.3h19.4c5.7,0,10.3,4.6,10.3,10.3v19.4
						C-359.6,82.1-364.2,86.7-369.9,86.7z"/>
				</g>
			</g>
		</g>
	</g>
</g>
<g>
	<g id="_2_00000105403290655438259080000004599690892376677031_">
		<g id="Discord_Logos_00000015339368837798244070000013304816961511327158_">
			<g id="Discord_Logo_-_Large_-_White_00000062170276513918347990000003093195935158141103_">
				
					<linearGradient id="SVGID_00000156588344668504864380000012292836909646231471_" gradientUnits="userSpaceOnUse" x1="-379.5788" y1="-4.9" x2="-379.5788" y2="-25.1" gradientTransform="matrix(1 0 0 -1 0 52)">
					<stop  offset="0" style="stop-color:#FFFFFF"/>
					<stop  offset="1" style="stop-color:#5A66F2"/>
				</linearGradient>
				<path style="fill:url(#SVGID_00000156588344668504864380000012292836909646231471_);" d="M-370.3,58.6c-1.8-0.8-3.6-1.4-5.5-1.7
					c-0.3,0.5-0.5,0.9-0.7,1.4c-2-0.3-4.1-0.3-6.1,0c-0.2-0.5-0.4-1-0.7-1.4c-1.9,0.3-3.8,0.9-5.5,1.7c-3.5,5.2-4.4,10.2-4,15.1l0,0
					c2,1.5,4.3,2.7,6.7,3.4c0.5-0.7,1-1.5,1.4-2.3c-0.8-0.3-1.6-0.7-2.3-1.1c0.2-0.1,0.4-0.3,0.6-0.4c4.3,2,9.2,2,13.5,0
					c0.2,0.1,0.4,0.3,0.6,0.4c-0.7,0.4-1.5,0.8-2.3,1.1c0.4,0.8,0.9,1.6,1.4,2.3c2.4-0.7,4.7-1.9,6.8-3.4l0,0
					C-365.8,68-367.3,63-370.3,58.6z M-384,70.7c-1.3,0-2.4-1.2-2.4-2.7s1-2.7,2.4-2.7c1.3,0,2.4,1.2,2.4,2.7S-382.6,70.7-384,70.7z
					 M-375.1,70.7c-1.3,0-2.4-1.2-2.4-2.7s1-2.7,2.4-2.7s2.4,1.2,2.4,2.7S-373.8,70.7-375.1,70.7z"/>
			</g>
		</g>
	</g>
	<g id="_2_00000080891021390953466360000012290610452150015669_">
		<g id="Discord_Logos_00000114767948726506065390000008913904537969812113_">
			<g id="Discord_Logo_-_Large_-_White_00000112615048365184050680000004647852928042650552_">
				
					<linearGradient id="SVGID_00000123401560876683215000000009676186821114277796_" gradientUnits="userSpaceOnUse" x1="-379.5788" y1="-4.3612" x2="-379.5788" y2="-24.5612" gradientTransform="matrix(1 0 0 -1 0 52)">
					<stop  offset="0" style="stop-color:#FFFFFF"/>
					<stop  offset="0.8659" style="stop-color:#8F87FF"/>
				</linearGradient>
				<path style="fill:url(#SVGID_00000123401560876683215000000009676186821114277796_);" d="M-370.3,58.1c-1.8-0.8-3.6-1.4-5.5-1.7
					c-0.3,0.5-0.5,0.9-0.7,1.4c-2-0.3-4.1-0.3-6.1,0c-0.2-0.5-0.4-1-0.7-1.4c-1.9,0.3-3.8,0.9-5.5,1.7c-3.5,5.2-4.4,10.2-4,15.1l0,0
					c2,1.5,4.3,2.7,6.7,3.4c0.5-0.7,1-1.5,1.4-2.3c-0.8-0.3-1.6-0.7-2.3-1.1c0.2-0.1,0.4-0.3,0.6-0.4c4.3,2,9.2,2,13.5,0
					c0.2,0.1,0.4,0.3,0.6,0.4c-0.7,0.4-1.5,0.8-2.3,1.1c0.4,0.8,0.9,1.6,1.4,2.3c2.4-0.7,4.7-1.9,6.8-3.4l0,0
					C-365.8,67.4-367.3,62.5-370.3,58.1z M-384,70.1c-1.3,0-2.4-1.2-2.4-2.7s1-2.7,2.4-2.7s2.4,1.2,2.4,2.7
					C-381.6,69-382.7,70.1-384,70.1z M-375.2,70.1c-1.3,0-2.4-1.2-2.4-2.7s1-2.7,2.4-2.7s2.4,1.2,2.4,2.7
					C-372.8,69-373.8,70.1-375.2,70.1z"/>
			</g>
		</g>
	</g>
</g>
<g>
	<g>
		<path class="st58" d="M-288.7,154.5h-24.2c-7.1,0-12.9-5.8-12.9-12.9v-24.2c0-7.1,5.8-12.9,12.9-12.9h24.2
			c7.1,0,12.9,5.8,12.9,12.9v24.2C-275.8,148.7-281.6,154.5-288.7,154.5z"/>
		<g>
			<g>
				<g>
					<g>
						
							<linearGradient id="SVGID_00000180335935803257483320000014490914138439571903_" gradientUnits="userSpaceOnUse" x1="-300.8" y1="-57.5" x2="-300.8" y2="-97.5" gradientTransform="matrix(1 0 0 -1 0 52)">
							<stop  offset="0" style="stop-color:#2A2F35"/>
							<stop  offset="1" style="stop-color:#0A0A0A"/>
						</linearGradient>
						<path style="fill:url(#SVGID_00000180335935803257483320000014490914138439571903_);" d="M-291.1,149.5h-19.4
							c-5.7,0-10.3-4.6-10.3-10.3v-19.4c0-5.7,4.6-10.3,10.3-10.3h19.4c5.7,0,10.3,4.6,10.3,10.3v19.4
							C-280.8,144.9-285.4,149.5-291.1,149.5z"/>
					</g>
				</g>
			</g>
		</g>
	</g>
	
		<linearGradient id="SVGID_00000045580969763770542840000016726760669797470910_" gradientUnits="userSpaceOnUse" x1="-300.75" y1="-66.1533" x2="-300.75" y2="-88.8052" gradientTransform="matrix(1 0 0 -1 0 52)">
		<stop  offset="0" style="stop-color:#FFFFFF"/>
		<stop  offset="1" style="stop-color:#15171A"/>
	</linearGradient>
	<path style="fill:url(#SVGID_00000045580969763770542840000016726760669797470910_);" d="M-300.8,118.2c-6.4,0-11.6,5.2-11.6,11.6
		c0,5.1,3.3,9.5,7.9,11c0.6,0.1,0.8-0.2,0.8-0.6c0-0.3,0-1,0-2c-3.2,0.7-3.9-1.6-3.9-1.6c-0.5-1.3-1.3-1.7-1.3-1.7
		c-1.1-0.7,0.1-0.7,0.1-0.7c1.2,0.1,1.8,1.2,1.8,1.2c1,1.8,2.7,1.3,3.4,1c0.1-0.8-0.2-1.5,0.1-1.8c-2.6-0.3-4.7-1-4.7-5.5
		c0-1.3-0.3-2.5,0.5-3.3c-0.3-0.9-0.5-3,0.5-3.3c0,0,1.3,0.2,3.5,1.7c0.9-0.3,1.9-0.4,2.9-0.4s2,0.1,2.9,0.4
		c2.2-1.5,3.8-1.5,3.8-1.5c0.6,1.6,0.1,2.7,0,3c0.7,0.8,0.7,2.3,0.7,3.5c0,4.5-2.3,5.1-4.8,5.4c0.4,0.3,0.4,1.8,0.4,2.9
		c0,1.6-0.1,2.4-0.1,2.8c0,0.3,0.2,0.7,0.8,0.6c4.6-1.5,8-5.9,8-11C-289.2,123.4-294.4,118.2-300.8,118.2"/>
	
		<linearGradient id="SVGID_00000000188632664474687860000013074509225200474762_" gradientUnits="userSpaceOnUse" x1="-300.75" y1="-66.1533" x2="-300.75" y2="-88.8052" gradientTransform="matrix(1 0 0 -1 0 52)">
		<stop  offset="0" style="stop-color:#FFFFFF"/>
		<stop  offset="1" style="stop-color:#292E34"/>
	</linearGradient>
	<path style="fill:url(#SVGID_00000000188632664474687860000013074509225200474762_);" d="M-300.8,118.2c-6.4,0-11.6,5.2-11.6,11.6
		c0,5.1,3.3,9.5,7.9,11c0.6,0.1,0.8-0.2,0.8-0.6c0-0.3,0-1,0-2c-3.2,0.7-3.9-1.6-3.9-1.6c-0.5-1.3-1.3-1.7-1.3-1.7
		c-1.1-0.7,0.1-0.7,0.1-0.7c1.2,0.1,1.8,1.2,1.8,1.2c1,1.8,2.7,1.3,3.4,1c0.1-0.8,0.4-1.3,0.7-1.6c-2.6-0.3-5.3-1.3-5.3-5.7
		c0-1.3,0.5-2.3,1.2-3.1c-0.1-0.3-0.5-1.5,0.1-3.1c0,0,1-0.3,3.2,1.2c0.9-0.3,1.9-0.4,2.9-0.4s2,0.1,2.9,0.4
		c2.2-1.5,3.2-1.2,3.2-1.2c0.6,1.6,0.2,2.8,0.1,3.1c0.7,0.8,1.2,1.8,1.2,3.1c0,4.5-2.7,5.4-5.3,5.7c0.4,0.3,0.8,1.1,0.8,2.1
		c0,1.6,0,2.8,0,3.2c0,0.3,0.2,0.7,0.8,0.6c4.6-1.5,8-5.9,8-11C-289.2,123.4-294.4,118.2-300.8,118.2"/>
</g>
<g>
	<g>
		<path class="st62" d="M-171.8,153.5H-196c-7.1,0-12.9-5.8-12.9-12.9v-24.2c0-7.1,5.8-12.9,12.9-12.9h24.2
			c7.1,0,12.9,5.8,12.9,12.9v24.2C-158.9,147.8-164.6,153.5-171.8,153.5z"/>
		<g>
			<g>
				<g>
					<g>
						
							<linearGradient id="SVGID_00000091001957899845972790000010784371095939657398_" gradientUnits="userSpaceOnUse" x1="-183.9" y1="-56.547" x2="-183.9" y2="-96.547" gradientTransform="matrix(1 0 0 -1 0 52)">
							<stop  offset="0" style="stop-color:#FFBE4A"/>
							<stop  offset="1" style="stop-color:#E57D00"/>
						</linearGradient>
						<path style="fill:url(#SVGID_00000091001957899845972790000010784371095939657398_);" d="M-174.2,148.5h-19.4
							c-5.7,0-10.3-4.6-10.3-10.3v-19.4c0-5.7,4.6-10.3,10.3-10.3h19.4c5.7,0,10.3,4.6,10.3,10.3v19.4
							C-163.9,143.9-168.5,148.5-174.2,148.5z"/>
					</g>
				</g>
			</g>
		</g>
	</g>
	<g>
		<g>
			<g>
				
					<linearGradient id="SVGID_00000020361401094400969920000012856652827594356146_" gradientUnits="userSpaceOnUse" x1="-186.45" y1="-68.6481" x2="-186.45" y2="-86.2943" gradientTransform="matrix(1 0 0 -1 0 52)">
					<stop  offset="0" style="stop-color:#FFFFFF"/>
					<stop  offset="0.7318" style="stop-color:#D67205"/>
					<stop  offset="1" style="stop-color:#D67205"/>
				</linearGradient>
				<path style="fill:url(#SVGID_00000020361401094400969920000012856652827594356146_);" d="M-184.5,120.8c0-0.1-0.1-0.1-0.2-0.1
					h-4.3c-0.1,0-0.1,0.1-0.1,0.2c0,0.4,0,0.7-0.1,1.1c-0.1,0.2-0.1,0.4-0.2,0.6l-5.3,15.5c0,0.2,0,0.3,0.2,0.3h3.1
					c0.1,0,0.3-0.1,0.3-0.2l1.3-3.9h6.2l1.4,4c0,0.1,0.1,0.2,0.3,0.2h3.5c0.2,0,0.2-0.1,0.2-0.3L-184.5,120.8z M-188.9,130.7
					c0.2-0.7,0.5-1.5,0.7-2.3c0.3-0.8,0.5-1.7,0.8-2.5c0.2-0.7,0.4-1.4,0.6-2.2l0,0c0.1,0.4,0.2,0.8,0.4,1.3c0.1,0.5,0.3,1,0.4,1.5
					c0.2,0.5,0.3,1,0.5,1.5c0.1,0.5,0.3,1,0.4,1.4c0.1,0.4,0.3,0.9,0.4,1.2h-4.2V130.7z"/>
				
					<linearGradient id="SVGID_00000143607767628756398460000015492092792647285147_" gradientUnits="userSpaceOnUse" x1="-174.7" y1="-72.4034" x2="-174.7" y2="-86.2448" gradientTransform="matrix(1 0 0 -1 0 52)">
					<stop  offset="0" style="stop-color:#FFFFFF"/>
					<stop  offset="0.7318" style="stop-color:#D67205"/>
					<stop  offset="1" style="stop-color:#D67205"/>
				</linearGradient>
				<path style="fill:url(#SVGID_00000143607767628756398460000015492092792647285147_);" d="M-172.8,124.6V138
					c0,0.2-0.1,0.3-0.2,0.3h-3.3c-0.2,0-0.3-0.1-0.3-0.3v-13.3c0-0.2,0.1-0.2,0.2-0.2h3.3C-172.8,124.4-172.8,124.5-172.8,124.6z"/>
				
					<linearGradient id="SVGID_00000132805725160939886830000015635048655377812671_" gradientUnits="userSpaceOnUse" x1="-174.8" y1="-67.0311" x2="-174.8" y2="-71.2363" gradientTransform="matrix(1 0 0 -1 0 52)">
					<stop  offset="0" style="stop-color:#FFFFFF"/>
					<stop  offset="0.7318" style="stop-color:#D67205"/>
					<stop  offset="1" style="stop-color:#D67205"/>
				</linearGradient>
				<path style="fill:url(#SVGID_00000132805725160939886830000015635048655377812671_);" d="M-173.3,119.6c0.4,0.4,0.6,0.9,0.6,1.5
					s-0.2,1.1-0.6,1.5c-0.4,0.4-1,0.6-1.5,0.6c-0.6,0-1.1-0.2-1.5-0.6s-0.6-1-0.6-1.5c0-0.6,0.2-1.1,0.6-1.5
					c0.4-0.4,0.9-0.6,1.5-0.6C-174.1,119-173.6,119.2-173.3,119.6z"/>
			</g>
		</g>
		<g>
			<g>
				
					<linearGradient id="SVGID_00000026866947295649238080000000808129660728347532_" gradientUnits="userSpaceOnUse" x1="-186.7696" y1="-68.1388" x2="-186.7696" y2="-85.785" gradientTransform="matrix(1 0 0 -1 0 52)">
					<stop  offset="0" style="stop-color:#FFFFFF"/>
					<stop  offset="8.656976e-02" style="stop-color:#FFFBF4"/>
					<stop  offset="0.238" style="stop-color:#FFF1D7"/>
					<stop  offset="0.4363" style="stop-color:#FFDFA8"/>
					<stop  offset="0.6713" style="stop-color:#FEC868"/>
					<stop  offset="0.7821" style="stop-color:#FEBC47"/>
				</linearGradient>
				<path style="fill:url(#SVGID_00000026866947295649238080000000808129660728347532_);" d="M-184.7,120.3c0-0.1-0.1-0.1-0.2-0.1
					h-4.3c-0.1,0-0.2,0.1-0.1,0.2c0,0.4,0,0.7-0.1,1.1c-0.1,0.2-0.1,0.4-0.2,0.6l-5.4,15.5c-0.1,0.2,0,0.3,0.2,0.3h3.1
					c0.2,0,0.3-0.1,0.3-0.2l1.3-3.9h6.2l1.4,4c0,0.1,0.2,0.2,0.3,0.2h3.5c0.2,0,0.2-0.1,0.2-0.3L-184.7,120.3z M-189.1,130.2
					c0.3-0.7,0.5-1.5,0.7-2.3c0.3-0.8,0.5-1.7,0.8-2.5c0.2-0.7,0.4-1.4,0.6-2.2l0,0c0.1,0.4,0.2,0.8,0.4,1.3c0.1,0.5,0.3,1,0.5,1.5
					s0.3,1,0.5,1.5s0.3,1,0.5,1.4s0.3,0.9,0.4,1.2h-4.4V130.2z"/>
				
					<linearGradient id="SVGID_00000061460094444615590490000011799847401204557190_" gradientUnits="userSpaceOnUse" x1="-174.9" y1="-72.4" x2="-174.9" y2="-85.8" gradientTransform="matrix(1 0 0 -1 0 52)">
					<stop  offset="0" style="stop-color:#FFFFFF"/>
					<stop  offset="0.7318" style="stop-color:#FEBC47"/>
				</linearGradient>
				<path style="fill:url(#SVGID_00000061460094444615590490000011799847401204557190_);" d="M-173,124.6v12.9
					c0,0.2-0.1,0.3-0.2,0.3h-3.3c-0.2,0-0.3-0.1-0.3-0.3v-12.9c0-0.2,0.1-0.2,0.2-0.2h3.3C-173.1,124.4-173,124.5-173,124.6z"/>
				
					<linearGradient id="SVGID_00000075878649311165264090000003469775070560772010_" gradientUnits="userSpaceOnUse" x1="-174.9" y1="-66.8" x2="-174.9" y2="-71.0051" gradientTransform="matrix(1 0 0 -1 0 52)">
					<stop  offset="0" style="stop-color:#FFFFFF"/>
					<stop  offset="0.676" style="stop-color:#FEBC47"/>
				</linearGradient>
				<path style="fill:url(#SVGID_00000075878649311165264090000003469775070560772010_);" d="M-173.4,119.4c0.4,0.4,0.6,0.9,0.6,1.5
					s-0.2,1.1-0.6,1.5c-0.4,0.4-1,0.6-1.5,0.6c-0.6,0-1.1-0.2-1.5-0.6s-0.6-1-0.6-1.5c0-0.6,0.2-1.1,0.6-1.5
					c0.4-0.4,0.9-0.6,1.5-0.6C-174.2,118.8-173.7,119-173.4,119.4z"/>
			</g>
		</g>
	</g>
</g>
<g>
	<g>
		<path class="st15" d="M-225.4,154.3h-24.2c-7.1,0-12.9-5.8-12.9-12.9v-24.2c0-7.1,5.8-12.9,12.9-12.9h24.2
			c7.1,0,12.9,5.8,12.9,12.9v24.2C-212.5,148.5-218.3,154.3-225.4,154.3z"/>
		<g>
			<g>
				<g>
					<g>
						
							<linearGradient id="SVGID_00000148659710901970656780000003533206586953029542_" gradientUnits="userSpaceOnUse" x1="-237.5" y1="-57.3" x2="-237.5" y2="-97.3" gradientTransform="matrix(1 0 0 -1 0 52)">
							<stop  offset="0" style="stop-color:#FFDB43"/>
							<stop  offset="1" style="stop-color:#F9C33D"/>
						</linearGradient>
						<path style="fill:url(#SVGID_00000148659710901970656780000003533206586953029542_);" d="M-227.8,149.3h-19.4
							c-5.7,0-10.3-4.6-10.3-10.3v-19.4c0-5.7,4.6-10.3,10.3-10.3h19.4c5.7,0,10.3,4.6,10.3,10.3V139
							C-217.5,144.7-222.1,149.3-227.8,149.3z"/>
					</g>
				</g>
			</g>
		</g>
	</g>
	<g>
		<g>
			<g>
				
					<linearGradient id="SVGID_00000022538188676071268090000001156129329571097255_" gradientUnits="userSpaceOnUse" x1="-237.55" y1="-66.384" x2="-237.55" y2="-89.0359" gradientTransform="matrix(1 0 0 -1 0 52)">
					<stop  offset="0" style="stop-color:#FFFFFF"/>
					<stop  offset="1" style="stop-color:#D1A537"/>
				</linearGradient>
				<path style="fill:url(#SVGID_00000022538188676071268090000001156129329571097255_);" d="M-229,122.7l-6.8-3.9
					c-1.1-0.6-2.4-0.6-3.5,0l-1.8,1v4.5v1v4.3c0,1.3,0.7,2.4,1.8,3.1c0.5,0.3,1.2,0.5,1.8,0.5s1.2-0.2,1.8-0.5l0,0
					c1.1-0.6,1.8-1.8,1.8-3.1s-0.7-2.4-1.8-3.1l0,0c-0.5-0.3-1.2-0.5-1.8-0.5v-2c0.6,0,1.2,0.2,1.8,0.5l1.9,1.1
					c1.1,0.6,1.8,1.8,1.8,3.1v2.2c0,1.3-0.7,2.4-1.8,3.1l-1.9,1.1c-0.5,0.3-1.2,0.5-1.8,0.5s-1.2-0.2-1.8-0.5l-1.9-1.1
					c-1.1-0.6-1.8-1.8-1.8-3.1v-1.1v-1.1v-2.9V121l-3.1,1.8c-1.1,0.6-1.8,1.8-1.8,3.1v7.8c0,1.3,0.7,2.4,1.8,3.1l6.8,3.9
					c1.1,0.6,2.4,0.6,3.5,0l6.8-3.9c1.1-0.6,1.8-1.8,1.8-3.1v-7.8C-227.2,124.5-227.9,123.4-229,122.7z M-239.7,126.9
					c-0.2,0.2-0.4,0.3-0.5,0.5V125l0.5-0.3V126.9z M-238.3,126.3c-0.2,0-0.4,0.1-0.5,0.2v-2.2c0.2-0.1,0.4-0.1,0.5-0.2V126.3z"/>
			</g>
		</g>
		<g>
			<g>
				
					<linearGradient id="SVGID_00000073696802087443895710000016273245030408455568_" gradientUnits="userSpaceOnUse" x1="-237.55" y1="-65.5785" x2="-237.55" y2="-88.2304" gradientTransform="matrix(1 0 0 -1 0 52)">
					<stop  offset="0" style="stop-color:#FFFFFF"/>
					<stop  offset="1" style="stop-color:#FDDA42"/>
				</linearGradient>
				<path style="fill:url(#SVGID_00000073696802087443895710000016273245030408455568_);" d="M-229,121.9l-6.8-3.9
					c-1.1-0.6-2.4-0.6-3.5,0l-1.8,1v4.5v1v4.3c0,1.3,0.7,2.4,1.8,3.1c0.5,0.3,1.2,0.5,1.8,0.5s1.2-0.2,1.8-0.5l0,0
					c1.1-0.6,1.8-1.8,1.8-3.1s-0.7-2.4-1.8-3.1l0,0c-0.5-0.3-1.2-0.5-1.8-0.5V123c0.6,0,1.2,0.2,1.8,0.5l1.9,1.1
					c1.1,0.6,1.8,1.8,1.8,3.1v2.2c0,1.3-0.7,2.4-1.8,3.1l-1.9,1.1c-0.5,0.3-1.2,0.5-1.8,0.5s-1.2-0.2-1.8-0.5l-1.9-1.1
					c-1.1-0.6-1.8-1.8-1.8-3.1v-1.1v-1.1v-2.9V120l-3.1,1.8c-1.1,0.6-1.8,1.8-1.8,3.1v7.8c0,1.3,0.7,2.4,1.8,3.1l6.8,3.9
					c1.1,0.6,2.4,0.6,3.5,0l6.8-3.9c1.1-0.6,1.8-1.8,1.8-3.1V125C-227.3,123.7-227.9,122.6-229,121.9z M-239.7,126.1
					c-0.2,0.2-0.4,0.3-0.5,0.5v-2.5l0.5-0.3V126.1z M-238.4,125.5c-0.2,0-0.4,0.1-0.5,0.2v-2.2c0.2-0.1,0.4-0.1,0.5-0.2V125.5z"/>
			</g>
		</g>
	</g>
</g>
<g>
	<path class="st15" d="M-364.7,151.4h-24.2c-7.1,0-12.9-5.8-12.9-12.9v-24.2c0-7.1,5.8-12.9,12.9-12.9h24.2
		c7.1,0,12.9,5.8,12.9,12.9v24.2C-351.8,145.7-357.5,151.4-364.7,151.4z"/>
	<g>
		<g>
			<g>
				<g>
					
						<linearGradient id="SVGID_00000018234541951326511290000014416228163358083996_" gradientUnits="userSpaceOnUse" x1="-376.8" y1="-54.4496" x2="-376.8" y2="-94.4496" gradientTransform="matrix(1 0 0 -1 0 52)">
						<stop  offset="0" style="stop-color:#FF7A64"/>
						<stop  offset="1" style="stop-color:#CC342D"/>
					</linearGradient>
					<path style="fill:url(#SVGID_00000018234541951326511290000014416228163358083996_);" d="M-367.1,146.4h-19.4
						c-5.7,0-10.3-4.6-10.3-10.3v-19.4c0-5.7,4.6-10.3,10.3-10.3h19.4c5.7,0,10.3,4.6,10.3,10.3v19.4
						C-356.8,141.8-361.4,146.4-367.1,146.4z"/>
				</g>
			</g>
		</g>
	</g>
</g>
<g>
	
		<linearGradient id="SVGID_00000093890081186470964660000005496664760930048417_" gradientUnits="userSpaceOnUse" x1="-381.5786" y1="-66.5429" x2="-369.8444" y2="-86.867" gradientTransform="matrix(1 0 0 -1 0 52)">
		<stop  offset="0" style="stop-color:#FFFFFF"/>
		<stop  offset="0.5978" style="stop-color:#C12F2F"/>
		<stop  offset="1" style="stop-color:#C12F2F"/>
	</linearGradient>
	<path style="fill:url(#SVGID_00000093890081186470964660000005496664760930048417_);" d="M-369,115.5c2.9,0.5,3.7,2.5,3.6,4.5l0,0
		l-1.3,17l-16.9,1.2l0,0c-1.4-0.1-4.5-0.2-4.7-4.5l1.6-2.8l2.7,6.3l0.5,1.1l2.7-8.7l0,0l0,0l8.8,2.8l-1.3-5.2l-0.9-3.7l8.4-0.5
		l-0.6-0.5l-6-4.9L-369,115.5L-369,115.5z M-383.3,120.3c3.4-3.4,7.7-5.3,9.4-3.6c1.7,1.7-0.1,5.8-3.5,9.2c-3.4,3.4-7.7,5.4-9.4,3.8
		C-388.4,127.8-386.7,123.6-383.3,120.3L-383.3,120.3z"/>
	
		<linearGradient id="SVGID_00000074440398002557659200000012916810695656047804_" gradientUnits="userSpaceOnUse" x1="-376.8459" y1="-62.7255" x2="-376.8459" y2="-85.3774" gradientTransform="matrix(1 0 0 -1 0 52)">
		<stop  offset="0" style="stop-color:#FFFFFF"/>
		<stop  offset="1" style="stop-color:#FD7762"/>
	</linearGradient>
	<path style="fill:url(#SVGID_00000074440398002557659200000012916810695656047804_);" d="M-369,114.7c2.9,0.5,3.7,2.5,3.6,4.5l0,0
		l-1.3,17l-16.9,1.2l0,0c-1.4-0.1-4.5-0.2-4.7-4.5l1.6-2.8l2.7,6.3l0.5,1.1l2.7-8.7l0,0l0,0l8.8,2.8l-1.3-5.2l-0.9-3.7l8.4-0.5
		l-0.6-0.5l-6-4.9L-369,114.7L-369,114.7z M-383.3,119.5c3.4-3.4,7.7-5.3,9.4-3.6c1.7,1.7-0.1,5.8-3.5,9.2c-3.4,3.4-7.7,5.4-9.4,3.8
		C-388.4,127-386.7,122.8-383.3,119.5L-383.3,119.5z"/>
</g>
<g>
	
		<linearGradient id="SVGID_00000166652124617470305030000018306409806430724231_" gradientUnits="userSpaceOnUse" x1="25" y1="14.0352" x2="25" y2="36.8352">
		<stop  offset="0" style="stop-color:#E5E5E5"/>
		<stop  offset="1" style="stop-color:#A52F2F"/>
	</linearGradient>
	<path style="fill:url(#SVGID_00000166652124617470305030000018306409806430724231_);" d="M15.3,14c-0.9,0-1.7,0.7-1.7,1.7v19.5
		c0,0.9,0.7,1.7,1.7,1.7h19.5c0.9,0,1.7-0.7,1.7-1.7V15.7c0-0.9-0.7-1.7-1.7-1.7H15.3z M18.1,18.8l13.8,0l0,13.8h-3.5l0-10.4H25
		l0,10.4h-6.9L18.1,18.8z"/>
	
		<linearGradient id="SVGID_00000171712030336471308330000013390673599592278202_" gradientUnits="userSpaceOnUse" x1="25" y1="13.1648" x2="25" y2="35.9648">
		<stop  offset="0" style="stop-color:#FFFFFF"/>
		<stop  offset="1" style="stop-color:#FE5842"/>
	</linearGradient>
	<path style="fill:url(#SVGID_00000171712030336471308330000013390673599592278202_);" d="M15.3,13.2c-0.9,0-1.7,0.7-1.7,1.7v19.5
		c0,0.9,0.7,1.7,1.7,1.7h19.5c0.9,0,1.7-0.7,1.7-1.7V14.8c0-0.9-0.7-1.7-1.7-1.7H15.3z M18.1,17.9l13.8,0l0,13.8h-3.5l0-10.4H25
		l0,10.4h-6.9L18.1,17.9z"/>
</g>
<g>
	<path class="st15" d="M-172.4,209.1h-24.2c-7.1,0-12.9-5.8-12.9-12.9V172c0-7.1,5.8-12.9,12.9-12.9h24.2c7.1,0,12.9,5.8,12.9,12.9
		v24.2C-159.5,203.3-165.3,209.1-172.4,209.1z"/>
	<g>
		<g>
			<g>
				<g>
					
						<linearGradient id="SVGID_00000088846083151312299460000003878009330724867258_" gradientUnits="userSpaceOnUse" x1="-184.5" y1="-112.1111" x2="-184.5" y2="-152.1111" gradientTransform="matrix(1 0 0 -1 0 52)">
						<stop  offset="0" style="stop-color:#FF5942"/>
						<stop  offset="1" style="stop-color:#CB3837"/>
					</linearGradient>
					<path style="fill:url(#SVGID_00000088846083151312299460000003878009330724867258_);" d="M-174.8,204.1h-19.4
						c-5.7,0-10.3-4.6-10.3-10.3v-19.4c0-5.7,4.6-10.3,10.3-10.3h19.4c5.7,0,10.3,4.6,10.3,10.3v19.4
						C-164.5,199.5-169.1,204.1-174.8,204.1z"/>
				</g>
			</g>
		</g>
	</g>
</g>
<g>
	
		<linearGradient id="SVGID_00000152971488244590449930000008215064839084119428_" gradientUnits="userSpaceOnUse" x1="-184.5" y1="173.1463" x2="-184.5" y2="195.9463">
		<stop  offset="0" style="stop-color:#E5E5E5"/>
		<stop  offset="1" style="stop-color:#A52F2F"/>
	</linearGradient>
	<path style="fill:url(#SVGID_00000152971488244590449930000008215064839084119428_);" d="M-194.2,173.1c-0.9,0-1.7,0.7-1.7,1.7
		v19.5c0,0.9,0.7,1.7,1.7,1.7h19.5c0.9,0,1.7-0.7,1.7-1.7v-19.5c0-0.9-0.7-1.7-1.7-1.7H-194.2z M-191.4,177.9l13.8,0l0,13.8h-3.5
		l0-10.4h-3.5l0,10.4h-6.9L-191.4,177.9z"/>
	
		<linearGradient id="SVGID_00000038394807663213363370000011985268394342143631_" gradientUnits="userSpaceOnUse" x1="-184.5" y1="172.2759" x2="-184.5" y2="195.0759">
		<stop  offset="0" style="stop-color:#FFFFFF"/>
		<stop  offset="1" style="stop-color:#FE5842"/>
	</linearGradient>
	<path style="fill:url(#SVGID_00000038394807663213363370000011985268394342143631_);" d="M-194.2,172.3c-0.9,0-1.7,0.7-1.7,1.7
		v19.5c0,0.9,0.7,1.7,1.7,1.7h19.5c0.9,0,1.7-0.7,1.7-1.7V174c0-0.9-0.7-1.7-1.7-1.7H-194.2z M-191.4,177l13.8,0l0,13.8h-3.5l0-10.4
		h-3.5l0,10.4h-6.9L-191.4,177z"/>
</g>
</svg>
