<?xml version="1.0" encoding="utf-8"?>
<!-- Generator: Adobe Illustrator 27.3.1, SVG Export Plug-In . SVG Version: 6.00 Build 0)  -->
<svg version="1.1" id="Camada_1" xmlns="http://www.w3.org/2000/svg" xmlns:xlink="http://www.w3.org/1999/xlink" x="0px" y="0px"
	 width="50px" height="50px" viewBox="0 0 50 50" style="enable-background:new 0 0 50 50;" xml:space="preserve">
<style type="text/css">
	.st0{fill:#2B2611;}
	.st1{fill:url(#SVGID_1_);}
	.st2{fill:url(#SVGID_00000016067385069942561900000012836169845177865391_);}
	.st3{fill:url(#SVGID_00000116942086064530370680000013049243637663736976_);}
	.st4{fill:url(#SVGID_00000084494324350747139100000013309574960017687971_);}
	.st5{fill:url(#SVGID_00000081636909382813504910000003655430119529339044_);}
	.st6{display:none;fill:#141D14;}
	.st7{fill:#281613;}
	.st8{fill:url(#SVGID_00000178884236194720665860000016525405008085605049_);}
	.st9{fill:url(#SVGID_00000029015386296695281750000015543697702189789884_);}
	.st10{fill:url(#SVGID_00000178908423024259626320000014398863704544845963_);}
	.st11{fill:#111921;}
	.st12{fill:url(#SVGID_00000117652979420213294630000011204626065363319226_);}
	.st13{fill:url(#SVGID_00000018234099077554310390000008576439748316495248_);}
	.st14{fill:url(#SVGID_00000101796002943567502850000011792204969431575185_);}
	.st15{fill:#19262B;}
	.st16{fill:url(#SVGID_00000010269463322281625270000005240104165109708704_);}
	.st17{fill:#19191B;}
	.st18{fill:url(#SVGID_00000172433979170828340630000014043809610330234504_);}
	.st19{fill:url(#SVGID_00000167392873335563499550000000799831586171598006_);}
	.st20{fill:url(#SVGID_00000100353973383766441770000003497160802999927948_);}
	.st21{fill:url(#SVGID_00000159449786783796599970000003563134761614034872_);}
	.st22{fill:url(#SVGID_00000061437359966497888970000008242513797022781835_);}
	.st23{fill:#141D14;}
	.st24{fill:url(#SVGID_00000180350846380472381010000007579126185617483148_);}
	.st25{fill:url(#SVGID_00000035527075620841479850000005216585510664621236_);}
	.st26{fill:url(#SVGID_00000074436134234922581720000000408777501846446224_);}
	.st27{fill:#291614;}
	.st28{fill:url(#SVGID_00000154386354311849835490000012399778807632080266_);}
	.st29{fill:url(#SVGID_00000169529208130638670690000017630440601316513958_);}
	.st30{fill:url(#SVGID_00000175293099768493746790000004879160053768723131_);}
	.st31{fill:url(#SVGID_00000091007363742438618310000013844563336811475617_);}
	.st32{fill:url(#SVGID_00000047755109851588692910000017854527448664991407_);}
	.st33{fill:#111B24;}
	.st34{fill:url(#SVGID_00000021831133731555767220000007825300766909618594_);}
	.st35{fill:url(#SVGID_00000070078712845128916270000008275677715919314830_);}
	.st36{fill:url(#SVGID_00000015320977950089153070000011862966664500364188_);}
	.st37{fill:#161122;}
	.st38{fill:url(#SVGID_00000057106069981466910980000005500086782715616181_);}
	.st39{fill:url(#SVGID_00000009588646993308856450000004000346920470967175_);}
	.st40{fill:url(#SVGID_00000052088627873396517460000005426771485675328129_);}
	.st41{fill:#001E36;}
	.st42{fill:url(#SVGID_00000164499686383362886880000012988745457425586060_);}
	.st43{fill:url(#SVGID_00000147928150691601502890000001308544926695652269_);}
	.st44{fill:url(#SVGID_00000053528952111963202920000014594270647445533827_);}
	.st45{fill:url(#SVGID_00000004547612396513766450000012778960047334623895_);}
	.st46{fill:url(#SVGID_00000160887652226938859720000013303798689365997495_);}
	.st47{fill:#161F25;}
	.st48{fill:url(#SVGID_00000017494325840398235070000010000064951635918527_);}
	.st49{fill:url(#SVGID_00000119809279731933061350000003727910182054238128_);}
	.st50{fill:url(#SVGID_00000044888871799084254480000009162772306126018715_);}
	.st51{fill:#242628;}
	.st52{fill:url(#SVGID_00000026154220568869391250000016926173979124963745_);}
	.st53{fill:url(#SVGID_00000127755570406953918100000010117638243289609100_);}
	.st54{fill:url(#SVGID_00000005252716473640760000000015706040713593588918_);}
	.st55{fill:#1D1D2C;}
	.st56{fill:url(#SVGID_00000106132673422435074990000004335214709941189007_);}
	.st57{fill:url(#SVGID_00000150079541574090777580000002251061937243252881_);}
	.st58{fill:url(#SVGID_00000100378898935984808050000016022066695910009499_);}
	.st59{fill:#151515;}
	.st60{fill:url(#SVGID_00000180350910574579583440000015803684117080361651_);}
	.st61{fill:url(#SVGID_00000116935841461056319110000004869458658641624992_);}
	.st62{fill:url(#SVGID_00000119111961479267980380000016325116436565094280_);}
	.st63{fill:#281C11;}
	.st64{fill:url(#SVGID_00000144335103674827809500000002172784596324395163_);}
	.st65{fill:url(#SVGID_00000080916807624058180440000015660463706305810563_);}
	.st66{fill:url(#SVGID_00000176035292906839786500000011828374545104741791_);}
	.st67{fill:url(#SVGID_00000055692555798354471500000012073728726530644622_);}
	.st68{fill:url(#SVGID_00000142137151067581998650000010024769366834804669_);}
	.st69{fill:url(#SVGID_00000004537218724261529890000002850666747915223217_);}
	.st70{fill:url(#SVGID_00000078729498354426784720000009628881395537957280_);}
	.st71{fill:url(#SVGID_00000141449575425786319050000009010539777548358065_);}
	.st72{fill:url(#SVGID_00000090259088688963665030000008054862506198689969_);}
	.st73{fill:url(#SVGID_00000003821381458751335190000007417336869679319957_);}
	.st74{fill:url(#SVGID_00000010287793453672184920000008866221850748498878_);}
	.st75{fill:url(#SVGID_00000164514120102555130830000016794117808012553091_);}
	.st76{fill:url(#SVGID_00000140732538415975206970000013670570166191840423_);}
	.st77{fill:url(#SVGID_00000134949097810209996980000011816056498672325023_);}
	.st78{fill:url(#SVGID_00000029003847872314804490000013299738702729994175_);}
	.st79{fill:url(#SVGID_00000040539931887585477860000002420363842988799104_);}
	.st80{fill:url(#SVGID_00000054984017954413585590000008787656344086554784_);}
	.st81{fill:url(#SVGID_00000125596620435411414290000011344720492411607208_);}
	.st82{fill:url(#SVGID_00000176018529897621687180000010628766961545882554_);}
	.st83{fill:url(#SVGID_00000082351044738306710020000013834933154914783375_);}
	.st84{fill:url(#SVGID_00000101812907771639826870000013082788027492338832_);}
</style>
<path class="st0" d="M-171.2-30.3h-24.2c-7.1,0-12.9-5.8-12.9-12.9v-24.2c0-7.1,5.8-12.9,12.9-12.9h24.2c7.1,0,12.9,5.8,12.9,12.9
	v24.2C-158.3-36.1-164.1-30.3-171.2-30.3z"/>
<g>
	<g>
		<g>
			
				<linearGradient id="SVGID_1_" gradientUnits="userSpaceOnUse" x1="-183.3" y1="952.7" x2="-183.3" y2="992.7" gradientTransform="matrix(1 0 0 1 0 -1028)">
				<stop  offset="0" style="stop-color:#FAF92A"/>
				<stop  offset="1" style="stop-color:#F4C121"/>
			</linearGradient>
			<path class="st1" d="M-173.6-35.3H-193c-5.7,0-10.3-4.6-10.3-10.3V-65c0-5.7,4.6-10.3,10.3-10.3h19.4c5.7,0,10.3,4.6,10.3,10.3
				v19.4C-163.3-39.9-167.9-35.3-173.6-35.3z"/>
		</g>
	</g>
	<g>
		<g>
			<g>
				<g>
					<g>
						
							<linearGradient id="SVGID_00000035525250762502997000000003682717513976766901_" gradientUnits="userSpaceOnUse" x1="-175.7" y1="962.445" x2="-175.7" y2="983.211" gradientTransform="matrix(1 0 0 1 0 -1028)">
							<stop  offset="0" style="stop-color:#FFFFFF"/>
							<stop  offset="1" style="stop-color:#E2AA2D"/>
						</linearGradient>
						<path style="fill:url(#SVGID_00000035525250762502997000000003682717513976766901_);" d="M-168.1-51.3v1.3
							c-0.1,0.3-0.1,0.7-0.2,1c-0.4,1.6-1.5,2.7-3,3.4c-2,1-6.7,1.5-9.8-0.8c-1-0.7-1.7-1.6-2.3-2.6c0.2-0.2,0.5-0.4,0.8-0.6
							c1-0.7,1.9-1.1,2.8-1.4c0.1,0.2,0.4,0.6,0.7,0.9c1.2,1.4,3.3,2,5.1,1.4c1.2-0.4,1.8-1.4,1.4-2.5c-0.1-0.4-0.4-0.8-0.8-1
							c-0.7-0.4-1.5-0.7-2.2-1.1c-1.1-0.5-2.2-0.9-3.2-1.5c-1.5-0.8-2.6-1.9-3-3.6c-0.5-1.9-0.3-3.7,1.1-5.3
							c0.8-0.9,1.9-1.5,3.1-1.8c1.5-0.4,3.1-0.3,4.6,0.1c1.7,0.5,2.8,1.6,3.7,3c-1.1,0.7-2.3,1.4-3.4,2.1c-0.2-0.3-0.4-0.5-0.6-0.8
							c-0.8-0.9-1.8-1.2-2.9-0.9c-1.4,0.3-2,2-0.9,3c0.4,0.3,0.8,0.6,1.3,0.8c1,0.5,2.1,0.9,3.1,1.3c1.1,0.5,2.2,1.1,3.1,1.9
							c0.9,0.9,1.4,2,1.6,3.2C-168.1-51.4-168.1-51.4-168.1-51.3z"/>
						
							<linearGradient id="SVGID_00000031168075472730843210000009031483599743714742_" gradientUnits="userSpaceOnUse" x1="-191.85" y1="962.4596" x2="-191.85" y2="983.0118" gradientTransform="matrix(1 0 0 1 0 -1028)">
							<stop  offset="0" style="stop-color:#FFFFFF"/>
							<stop  offset="1" style="stop-color:#E2AA2D"/>
						</linearGradient>
						<path style="fill:url(#SVGID_00000031168075472730843210000009031483599743714742_);" d="M-185.2-65.5v14.1
							c0,0.9-0.1,1.7-0.3,2.6c-0.6,1.8-1.7,3-3.6,3.5c-2.1,0.6-4.1,0.5-6.1-0.4c-1.4-0.6-2.6-2-3.3-3.4c1.2-0.7,2.6-1.1,3.8-1.8
							c0.2,0.4,0.5,0.7,0.7,1c0.7,1,1.7,1.2,2.9,1c0.8-0.1,1.3-0.6,1.4-1.3c0.1-0.5,0.2-1,0.2-1.5c0-4.5,0-9,0-13.6
							c0-0.4,0-0.4,0.4-0.4h3.9L-185.2-65.5L-185.2-65.5z"/>
					</g>
				</g>
			</g>
		</g>
		<g>
			<g>
				<g>
					<g>
						
							<linearGradient id="SVGID_00000071520653523585815140000013544748786224321201_" gradientUnits="userSpaceOnUse" x1="-175.7" y1="962.2051" x2="-175.7" y2="982.4132" gradientTransform="matrix(1 0 0 1 0 -1028)">
							<stop  offset="0" style="stop-color:#FFFFFF"/>
							<stop  offset="1" style="stop-color:#F9E280"/>
						</linearGradient>
						<path style="fill:url(#SVGID_00000071520653523585815140000013544748786224321201_);" d="M-168.3-51.9v1.3
							c-0.1,0.3-0.1,0.6-0.2,0.9c-0.4,1.5-1.4,2.6-2.9,3.3c-2.6,1.3-6.9,1.1-9.5-0.8c-0.9-0.7-1.7-1.5-2.2-2.5
							c1.1-0.6,2.3-1.3,3.4-1.9c0.3,0.3,0.5,0.6,0.7,0.9c1.2,1.4,3.2,1.9,4.9,1.3c1.2-0.4,1.8-1.4,1.4-2.4c-0.1-0.4-0.4-0.7-0.8-0.9
							c-0.7-0.4-1.4-0.7-2.1-1.1c-1-0.5-2.1-0.9-3.1-1.4c-1.4-0.8-2.5-1.9-2.9-3.5c-0.5-1.9-0.3-3.6,1.1-5.1c0.8-0.9,1.8-1.4,3-1.7
							c1.5-0.4,3-0.3,4.5,0.1c1.6,0.5,2.7,1.5,3.6,2.9c-1.1,0.7-2.2,1.3-3.3,2c-0.2-0.3-0.4-0.5-0.6-0.7c-0.7-0.9-1.7-1.1-2.9-0.9
							c-1.4,0.3-1.9,2-0.9,2.9c0.4,0.3,0.8,0.6,1.3,0.8c1,0.5,2,0.9,3,1.3c1.1,0.5,2.1,1.1,3,1.9c0.9,0.9,1.4,1.9,1.5,3.1
							C-168.4-52.1-168.3-52-168.3-51.9z"/>
						
							<linearGradient id="SVGID_00000054986431947090944260000008124637001711779244_" gradientUnits="userSpaceOnUse" x1="-191.85" y1="962.4456" x2="-191.85" y2="982.4313" gradientTransform="matrix(1 0 0 1 0 -1028)">
							<stop  offset="0" style="stop-color:#FFFFFF"/>
							<stop  offset="1" style="stop-color:#F9E280"/>
						</linearGradient>
						<path style="fill:url(#SVGID_00000054986431947090944260000008124637001711779244_);" d="M-185.5-65.6v13.7
							c0,0.8-0.1,1.7-0.3,2.5c-0.5,1.7-1.7,2.9-3.5,3.4c-2,0.6-4,0.5-5.9-0.3c-1.4-0.6-2.3-1.7-3-3c1.2-0.7,2.3-1.3,3.5-2
							c0.2,0.3,0.5,0.7,0.7,1c0.7,0.9,1.7,1.2,2.8,1c0.8-0.1,1.2-0.6,1.4-1.3c0.1-0.5,0.2-1,0.2-1.4c0-4.4,0-8.8,0-13.2
							c0-0.4,0-0.4,0.4-0.4H-185.5z"/>
					</g>
				</g>
			</g>
		</g>
	</g>
</g>
<rect class="st6" width="50" height="50"/>
<path class="st7" d="M-228.7-29.5h-24.2c-7.1,0-12.9-5.8-12.9-12.9v-24.2c0-7.1,5.8-12.9,12.9-12.9h24.2c7.1,0,12.9,5.8,12.9,12.9
	v24.2C-215.8-35.3-221.5-29.5-228.7-29.5z"/>
<g>
	<g>
		<g>
			
				<linearGradient id="SVGID_00000090264937306744265190000017207876601336804242_" gradientUnits="userSpaceOnUse" x1="-240.8" y1="953.5" x2="-240.8" y2="993.5" gradientTransform="matrix(1 0 0 1 0 -1028)">
				<stop  offset="0" style="stop-color:#E9952F"/>
				<stop  offset="1" style="stop-color:#E34F26"/>
			</linearGradient>
			<path style="fill:url(#SVGID_00000090264937306744265190000017207876601336804242_);" d="M-231.1-34.5h-19.4
				c-5.7,0-10.3-4.6-10.3-10.3v-19.4c0-5.7,4.6-10.3,10.3-10.3h19.4c5.7,0,10.3,4.6,10.3,10.3v19.4
				C-220.8-39.2-225.4-34.5-231.1-34.5z"/>
		</g>
	</g>
</g>
<g>
	<g>
		
			<linearGradient id="SVGID_00000133493700327263898470000012822705172162061501_" gradientUnits="userSpaceOnUse" x1="-240.85" y1="962.5" x2="-240.85" y2="985" gradientTransform="matrix(1 0 0 1 0 -1028)">
			<stop  offset="0" style="stop-color:#FFFFFF"/>
			<stop  offset="1" style="stop-color:#D34124"/>
		</linearGradient>
		<path style="fill:url(#SVGID_00000133493700327263898470000012822705172162061501_);" d="M-230.9-65.5h-19.9c0,0.5,0.1,1,0.1,1.5
			c0.1,1.6,0.2,3.2,0.3,4.7c0.1,1.8,0.3,3.5,0.4,5.3c0.1,1.5,0.2,3.1,0.3,4.6c0.1,1.1,0.2,2.3,0.2,3.4c0,0.2,0.1,0.2,0.2,0.3
			c2.7,0.9,5.4,1.8,8.1,2.6c0.1,0,0.1,0.1,0.2,0.1h0.1c0.3-0.1,0.7-0.2,1-0.3c2.4-0.8,4.8-1.6,7.3-2.4c0.2-0.1,0.2-0.1,0.2-0.3
			c0.2-2.9,0.4-5.7,0.6-8.6c0.2-2.2,0.3-4.3,0.5-6.5c0.1-1.3,0.2-2.7,0.3-4C-230.9-65.3-230.9-65.4-230.9-65.5z M-234.6-59.6h-9.8
			c0.1,1.1,0.2,2.2,0.2,3.4h9.3c0,0.5-0.1,1-0.1,1.5c-0.1,1.4-0.2,2.7-0.3,4.1c-0.1,0.7-0.1,1.5-0.2,2.2c0,0.1-0.1,0.2-0.2,0.3
			c-1.7,0.6-3.4,1.1-5.1,1.7c-0.1,0-0.2,0-0.3,0c-1.7-0.6-3.4-1.1-5.1-1.7c-0.1,0-0.2-0.1-0.2-0.3c0-0.7-0.1-1.5-0.2-2.2
			c0-0.1,0-0.2,0-0.2h2.6c0,0.2,0,0.4,0.1,0.6c0,0.1,0.1,0.2,0.1,0.2c0.9,0.3,1.8,0.6,2.6,0.9c0.1,0,0.2,0,0.2,0
			c0.9-0.3,1.8-0.6,2.6-0.9c0.1,0,0.1-0.1,0.1-0.2c0.1-1.1,0.2-2.1,0.2-3.3h-8.9c-0.2-2.9-0.4-5.8-0.6-8.7h12.8
			C-234.4-61.3-234.5-60.5-234.6-59.6z"/>
	</g>
	<g>
		
			<linearGradient id="SVGID_00000152981511423754561140000009778812106621520257_" gradientUnits="userSpaceOnUse" x1="-240.8" y1="961.9" x2="-240.8" y2="984.5519" gradientTransform="matrix(1 0 0 1 0 -1028)">
			<stop  offset="0" style="stop-color:#FFFFFF"/>
			<stop  offset="1" style="stop-color:#F7803E"/>
		</linearGradient>
		<path style="fill:url(#SVGID_00000152981511423754561140000009778812106621520257_);" d="M-230.8-66.1h-20c0,0.5,0.1,1,0.1,1.5
			c0.1,1.6,0.2,3.2,0.3,4.8c0.1,1.8,0.3,3.5,0.4,5.3c0.1,1.5,0.2,3.1,0.3,4.6c0.1,1.1,0.2,2.3,0.2,3.4c0,0.2,0.1,0.2,0.2,0.3
			c2.7,0.9,5.4,1.8,8.1,2.7c0.1,0,0.1,0.1,0.2,0.1h0.1c0.3-0.1,0.7-0.2,1-0.4c2.4-0.8,4.9-1.6,7.3-2.4c0.2-0.1,0.2-0.1,0.2-0.3
			c0.2-2.9,0.4-5.8,0.6-8.7c0.2-2.2,0.3-4.4,0.5-6.6c0.1-1.3,0.2-2.7,0.3-4C-230.8-65.9-230.8-66-230.8-66.1z M-234.5-60.1h-9.8
			c0.1,1.1,0.2,2.3,0.2,3.4h9.4c0,0.5-0.1,1-0.1,1.5c-0.1,1.4-0.2,2.7-0.3,4.1c-0.1,0.7-0.1,1.5-0.2,2.2c0,0.1-0.1,0.2-0.2,0.3
			c-1.7,0.6-3.4,1.1-5.1,1.7c-0.1,0-0.2,0-0.3,0c-1.7-0.6-3.4-1.1-5.1-1.7c-0.1,0-0.2-0.1-0.2-0.3c0-0.7-0.1-1.5-0.2-2.2
			c0-0.1,0-0.2,0-0.2h2.6c0,0.2,0,0.4,0.1,0.6c0,0.1,0.1,0.2,0.1,0.2c0.9,0.3,1.8,0.6,2.7,0.9c0.1,0,0.2,0,0.2,0
			c0.9-0.3,1.8-0.6,2.7-0.9c0.1,0,0.1-0.1,0.1-0.2c0.1-1.1,0.2-2.2,0.2-3.3h-9c-0.2-2.9-0.4-5.8-0.6-8.7h12.9
			C-234.4-61.9-234.4-61-234.5-60.1z"/>
	</g>
</g>
<path class="st11" d="M-290.4-30.9h-24.2c-7.1,0-12.9-5.8-12.9-12.9V-68c0-7.1,5.8-12.9,12.9-12.9h24.2c7.1,0,12.9,5.8,12.9,12.9
	v24.2C-277.6-36.7-283.3-30.9-290.4-30.9z"/>
<g>
	<g>
		<g>
			<g>
				
					<linearGradient id="SVGID_00000163795334870244111820000014186403159436507319_" gradientUnits="userSpaceOnUse" x1="-302.6" y1="952.1" x2="-302.6" y2="992.1" gradientTransform="matrix(1 0 0 1 0 -1028)">
					<stop  offset="0" style="stop-color:#31BAFF"/>
					<stop  offset="1" style="stop-color:#1572B6"/>
				</linearGradient>
				<path style="fill:url(#SVGID_00000163795334870244111820000014186403159436507319_);" d="M-292.9-35.9h-19.4
					c-5.7,0-10.3-4.6-10.3-10.3v-19.4c0-5.7,4.6-10.3,10.3-10.3h19.4c5.7,0,10.3,4.6,10.3,10.3v19.4
					C-282.6-40.5-287.2-35.9-292.9-35.9z"/>
			</g>
		</g>
	</g>
	<g>
		<g>
			
				<linearGradient id="SVGID_00000020400122091007249940000000091897627706963647_" gradientUnits="userSpaceOnUse" x1="-302.5" y1="960.9747" x2="-302.5" y2="983.8097" gradientTransform="matrix(1 0 0 1 0 -1028)">
				<stop  offset="0" style="stop-color:#FFFFFF"/>
				<stop  offset="1" style="stop-color:#146799"/>
			</linearGradient>
			<path style="fill:url(#SVGID_00000020400122091007249940000000091897627706963647_);" d="M-312.5-67c0.1,1.6,0.3,3.2,0.4,4.8
				s0.3,3.2,0.4,4.8s0.3,3.2,0.4,4.8s0.3,3.2,0.4,4.8c0,0.4,0.1,0.8,0.1,1.2c0,0.1,0.1,0.2,0.2,0.2c2.6,0.7,5.2,1.5,7.9,2.2
				c0.1,0,0.2,0,0.3,0c2.6-0.7,5.2-1.5,7.8-2.2c0.1,0,0.2-0.1,0.2-0.2c0.1-1.1,0.2-2.2,0.3-3.3c0.1-1.4,0.3-2.9,0.4-4.3
				c0.1-1.4,0.2-2.8,0.4-4.2c0.1-1.4,0.3-2.9,0.4-4.3s0.2-2.8,0.4-4.2L-312.5-67L-312.5-67z M-296.4-61.8c-0.2,1.9-0.3,3.8-0.5,5.8
				c-0.2,1.7-0.3,3.5-0.5,5.2c0,0.2,0,0.5-0.1,0.7c0,0.1-0.1,0.2-0.1,0.2c-1.6,0.5-3.3,0.9-4.9,1.4c-0.1,0-0.2,0-0.3,0
				c-1.6-0.4-3.2-0.9-4.8-1.3c-0.1,0-0.2-0.1-0.2-0.2c-0.1-1.1-0.2-2.2-0.3-3.3c0-0.2,0-0.4,0-0.6c0.8,0,1.6,0,2.4,0
				c0,0,0.1,0.1,0.1,0.2c0.1,0.6,0.1,1.1,0.2,1.7c0,0.2,0.1,0.2,0.2,0.3c0.8,0.2,1.6,0.4,2.4,0.6c0.1,0,0.2,0,0.3,0
				c0.8-0.2,1.6-0.4,2.4-0.7c0.2,0,0.2-0.1,0.2-0.3c0.1-1.1,0.2-2.2,0.3-3.3h-8.8c-0.1-0.8-0.2-1.6-0.2-2.4c0.1,0,0.2,0,0.3,0
				c2.9,0,5.8-0.1,8.7-0.1c0.3,0,0.3,0,0.3-0.3c0-0.7,0.1-1.5,0.2-2.2h-9.7c-0.1-0.8-0.1-1.6-0.2-2.4h12.5
				C-296.3-62.5-296.4-62.2-296.4-61.8z"/>
		</g>
		
			<linearGradient id="SVGID_00000055681164079655384000000003272286344792905869_" gradientUnits="userSpaceOnUse" x1="-302.55" y1="960.4" x2="-302.55" y2="983.2348" gradientTransform="matrix(1 0 0 1 0 -1028)">
			<stop  offset="0" style="stop-color:#FFFFFF"/>
			<stop  offset="1" style="stop-color:#30B8FD"/>
		</linearGradient>
		<path style="fill:url(#SVGID_00000055681164079655384000000003272286344792905869_);" d="M-312.6-67.6c0.1,1.6,0.3,3.2,0.4,4.8
			c0.1,1.6,0.3,3.2,0.4,4.8s0.3,3.2,0.4,4.8s0.3,3.2,0.4,4.8c0,0.4,0.1,0.8,0.1,1.2c0,0.1,0.1,0.2,0.2,0.2c2.6,0.7,5.3,1.5,7.9,2.2
			c0.1,0,0.2,0,0.3,0c2.6-0.7,5.2-1.5,7.9-2.2c0.1,0,0.2-0.1,0.2-0.2c0.1-1.1,0.2-2.2,0.3-3.3c0.1-1.4,0.3-2.9,0.4-4.3
			c0.1-1.4,0.2-2.8,0.4-4.2c0.1-1.4,0.3-2.9,0.4-4.3s0.2-2.8,0.4-4.2L-312.6-67.6L-312.6-67.6z M-296.3-62.4
			c-0.2,1.9-0.3,3.8-0.5,5.8c-0.2,1.7-0.3,3.5-0.5,5.2c0,0.2,0,0.5-0.1,0.7c0,0.1-0.1,0.2-0.1,0.2c-1.6,0.5-3.3,0.9-4.9,1.4
			c-0.1,0-0.2,0-0.3,0c-1.6-0.4-3.2-0.9-4.8-1.3c-0.1,0-0.2-0.1-0.2-0.2c-0.1-1.1-0.2-2.2-0.3-3.3c0-0.2,0-0.4-0.1-0.6
			c0.8,0,1.6,0,2.4,0c0,0,0.1,0.1,0.1,0.2c0.1,0.6,0.1,1.1,0.2,1.7c0,0.2,0.1,0.2,0.2,0.3c0.8,0.2,1.6,0.4,2.4,0.6
			c0.1,0,0.2,0,0.3,0c0.8-0.2,1.6-0.4,2.5-0.7c0.2,0,0.2-0.1,0.2-0.3c0.1-1.1,0.2-2.2,0.4-3.3h-8.9c-0.1-0.8-0.2-1.6-0.3-2.4
			c0.1,0,0.2,0,0.3,0c2.9,0,5.8-0.1,8.8-0.1c0.3,0,0.3,0,0.3-0.3c0.1-0.7,0.1-1.5,0.2-2.2h-9.8c-0.1-0.8-0.1-1.6-0.2-2.4h12.7
			C-296.3-63-296.3-62.7-296.3-62.4z"/>
	</g>
</g>
<g>
	<path class="st15" d="M37.1,50H12.9C5.8,50,0,44.2,0,37.1V12.9C0,5.8,5.8,0,12.9,0h24.2C44.2,0,50,5.8,50,12.9v24.2
		C50,44.2,44.2,50,37.1,50z"/>
	<g>
		<g>
			<g>
				<g>
					
						<linearGradient id="SVGID_00000000902979688173970170000005656154584602307774_" gradientUnits="userSpaceOnUse" x1="25.0047" y1="1073" x2="25.0047" y2="1033" gradientTransform="matrix(1 0 0 1 0 -1028)">
						<stop  offset="0" style="stop-color:#5D9DE2"/>
						<stop  offset="1" style="stop-color:#61DAFB"/>
					</linearGradient>
					<path style="fill:url(#SVGID_00000000902979688173970170000005656154584602307774_);" d="M34.7,45H15.3C9.6,45,5,40.4,5,34.7
						V15.3C5,9.6,9.6,5,15.3,5h19.4C40.4,5,45,9.6,45,15.3v19.4C45,40.4,40.4,45,34.7,45z"/>
				</g>
			</g>
		</g>
	</g>
</g>
<g>
	<path class="st17" d="M-364.7-31.8h-24.2c-7.1,0-12.9-5.8-12.9-12.9v-24.2c0-7.1,5.8-12.9,12.9-12.9h24.2c7.1,0,12.9,5.8,12.9,12.9
		v24.2C-351.8-37.5-357.5-31.8-364.7-31.8z"/>
	<g>
		<g>
			<g>
				<g>
					
						<linearGradient id="SVGID_00000163034717432148033200000005044150640695901571_" gradientUnits="userSpaceOnUse" x1="-376.8" y1="951.2" x2="-376.8" y2="991.2" gradientTransform="matrix(1 0 0 1 0 -1028)">
						<stop  offset="0" style="stop-color:#42484C"/>
						<stop  offset="1" style="stop-color:#1D1E21"/>
					</linearGradient>
					<path style="fill:url(#SVGID_00000163034717432148033200000005044150640695901571_);" d="M-367.1-36.8h-19.4
						c-5.7,0-10.3-4.6-10.3-10.3v-19.4c0-5.7,4.6-10.3,10.3-10.3h19.4c5.7,0,10.3,4.6,10.3,10.3v19.4
						C-356.8-41.4-361.4-36.8-367.1-36.8z"/>
				</g>
			</g>
		</g>
	</g>
	<g transform="matrix(0.42 0 0 0.42 12 12)">
		<g>
			<g transform="matrix(1 0 0 1 10.5 1.28)">
				
					<linearGradient id="SVGID_00000141450315008486088670000014533634285593376667_" gradientUnits="userSpaceOnUse" x1="12357.6357" y1="11007.999" x2="12357.6357" y2="11025.251" gradientTransform="matrix(0.1764 0 0 0.1764 -3098.0369 -2126.6108)">
					<stop  offset="0" style="stop-color:#CCCCCC"/>
					<stop  offset="0.1606" style="stop-color:#B7B8B8"/>
					<stop  offset="0.492" style="stop-color:#828384"/>
					<stop  offset="0.9621" style="stop-color:#2C2E32"/>
					<stop  offset="1" style="stop-color:#25272B"/>
				</linearGradient>
				<path style="fill:url(#SVGID_00000141450315008486088670000014533634285593376667_);" d="M-900.4-143.7h-1.9
					c-1.4,0-2.7-0.6-3.5-1.8l-12.4-16.5l-12.3,16.5c-0.8,1.1-2.1,1.8-3.5,1.8h-1.9l15.7-21l-15-20.1h1.9c1.4,0,2.7,0.6,3.5,1.8
					l11.6,15.5l11.6-15.5c0.8-1.1,2.1-1.8,3.5-1.8h1.9l-15,20.1L-900.4-143.7z"/>
			</g>
			<g transform="matrix(1 0 0 1 -11 1)">
				
					<linearGradient id="SVGID_00000054988166009515649310000000320965845844816544_" gradientUnits="userSpaceOnUse" x1="12350.6787" y1="11008.4336" x2="12350.6787" y2="11026.1221" gradientTransform="matrix(0.1764 0 0 0.1764 -3110.8594 -2126.5427)">
					<stop  offset="0" style="stop-color:#CCCCCC"/>
					<stop  offset="0.1606" style="stop-color:#B7B8B8"/>
					<stop  offset="0.492" style="stop-color:#828384"/>
					<stop  offset="0.9621" style="stop-color:#2C2E32"/>
					<stop  offset="1" style="stop-color:#25272B"/>
				</linearGradient>
				<path style="fill:url(#SVGID_00000054988166009515649310000000320965845844816544_);" d="M-914.1-162v-4.9
					c0-10.8-9.8-19.4-21.1-17.6c-8.8,1.4-15.1,9.3-15.1,18v4.6c0,10.6,7.9,19.1,17.9,19.2c8.4,0.1,15.4-5.4,17.6-13h-1.7
					c-1,0-1.9,0.6-2.4,1.5c-2.9,5.8-9.5,9.5-16.8,7.8c-6.7-1.5-11.3-7.7-11.3-14.5v-1.3h32.9L-914.1-162L-914.1-162z M-947-165.7
					c0-7.6,4.6-13.8,11.4-15.3c9.7-2.1,18.2,5.1,18.2,14.2v1.6H-947V-165.7z"/>
			</g>
		</g>
	</g>
	<g>
		<g transform="matrix(1 0 0 1 10.5 1.28)">
			
				<linearGradient id="SVGID_00000149344806474191054300000009946966405604667526_" gradientUnits="userSpaceOnUse" x1="-400.8" y1="961.3412" x2="-400.8" y2="978.3183" gradientTransform="matrix(1 0 0 1 21 -1028)">
				<stop  offset="0" style="stop-color:#FFFFFF"/>
				<stop  offset="1" style="stop-color:#41474A"/>
			</linearGradient>
			<path style="fill:url(#SVGID_00000149344806474191054300000009946966405604667526_);" d="M-372.3-49.7h-0.8
				c-0.6,0-1.1-0.3-1.5-0.7l-5.2-6.8l-5.2,6.8c-0.3,0.5-0.9,0.7-1.5,0.7h-0.8l6.6-8.7l-6.3-8.3h0.8c0.6,0,1.1,0.3,1.5,0.7l4.9,6.4
				l4.9-6.4c0.3-0.5,0.9-0.7,1.5-0.7h0.8l-6.3,8.3L-372.3-49.7z"/>
		</g>
		<g transform="matrix(1 0 0 1 -11 1)">
			
				<linearGradient id="SVGID_00000172426703878392057610000001305001225976312755_" gradientUnits="userSpaceOnUse" x1="-351.25" y1="960.9246" x2="-351.25" y2="978.9116" gradientTransform="matrix(1 0 0 1 -22 -1028)">
				<stop  offset="0" style="stop-color:#FFFFFF"/>
				<stop  offset="1" style="stop-color:#41474A"/>
			</linearGradient>
			<path style="fill:url(#SVGID_00000172426703878392057610000001305001225976312755_);" d="M-365.6-57.4v-2.1
				c0-4.6-4.1-8.3-8.9-7.5c-3.7,0.6-6.4,4-6.4,7.7v2c0,4.5,3.3,8.2,7.5,8.2c3.5,0,6.5-2.3,7.4-5.5h-0.7c-0.4,0-0.8,0.2-1,0.6
				c-1.2,2.5-4,4.1-7.1,3.3c-2.8-0.6-4.8-3.3-4.8-6.2v-0.5H-365.6z M-379.4-59c0-3.2,1.9-5.9,4.8-6.6c4.1-0.9,7.7,2.2,7.7,6.1v0.7
				h-12.4V-59H-379.4z"/>
		</g>
	</g>
</g>
<path class="st23" d="M-368.8,36.4H-393c-7.1,0-12.9-5.8-12.9-12.9V-0.7c0-7.1,5.8-12.9,12.9-12.9h24.2c7.1,0,12.9,5.8,12.9,12.9
	v24.2C-355.9,30.6-361.7,36.4-368.8,36.4z"/>
<g>
	<g>
		<g>
			<g>
				
					<linearGradient id="SVGID_00000113330446228390339060000006966947975361567641_" gradientUnits="userSpaceOnUse" x1="-380.9" y1="1019.4" x2="-380.9" y2="1059.4" gradientTransform="matrix(1 0 0 1 0 -1028)">
					<stop  offset="0" style="stop-color:#46CC46"/>
					<stop  offset="1" style="stop-color:#155019"/>
				</linearGradient>
				<path style="fill:url(#SVGID_00000113330446228390339060000006966947975361567641_);" d="M-371.2,31.4h-19.4
					c-5.7,0-10.3-4.6-10.3-10.3V1.7c0-5.7,4.6-10.3,10.3-10.3h19.4c5.7,0,10.3,4.6,10.3,10.3v19.4
					C-360.9,26.8-365.5,31.4-371.2,31.4z"/>
			</g>
		</g>
	</g>
</g>
<g>
	
		<linearGradient id="SVGID_00000174581014138519757900000005737530146547608194_" gradientUnits="userSpaceOnUse" x1="-381.05" y1="1027.875" x2="-381.05" y2="1051.3552" gradientTransform="matrix(1 0 0 1 0 -1028)">
		<stop  offset="0" style="stop-color:#FFFFFF"/>
		<stop  offset="1" style="stop-color:#113D17"/>
	</linearGradient>
	<path style="fill:url(#SVGID_00000174581014138519757900000005737530146547608194_);" d="M-380.9,23.4c-0.3,0-0.6-0.1-0.9-0.2
		l-2.8-1.7c-0.4-0.2-0.2-0.3-0.1-0.4c0.6-0.2,0.7-0.2,1.3-0.6c0.1,0,0.1,0,0.2,0l2.1,1.3c0.1,0,0.2,0,0.3,0l8.3-5
		c0.1,0,0.1-0.1,0.1-0.2V6.7c0-0.1-0.1-0.2-0.1-0.2l-8.3-5c-0.1,0-0.2,0-0.3,0l-8.3,5c-0.1,0-0.1,0.1-0.1,0.2v9.9
		c0,0.1,0.1,0.2,0.1,0.2l2.3,1.4c1.2,0.6,2-0.1,2-0.9V7.1c0-0.1,0.1-0.3,0.2-0.3h1c0.1,0,0.3,0.1,0.3,0.3v10.3
		c0,1.7-0.9,2.7-2.5,2.7c-0.5,0-0.9,0-1.9-0.5l-2.2-1.3c-0.5-0.3-0.9-0.9-0.9-1.6v-10c0-0.6,0.3-1.2,0.9-1.6l8.3-5
		c0.5-0.3,1.2-0.3,1.7,0l8.3,5c0.5,0.3,0.9,0.9,0.9,1.6v9.9c0,0.6-0.3,1.2-0.9,1.6l-8.3,5C-380.3,23.3-380.6,23.4-380.9,23.4z
		 M-374.2,13.6c0-1.9-1.2-2.4-3.8-2.7c-2.6-0.4-2.8-0.5-2.8-1.2c0-0.5,0.2-1.2,2.1-1.2c1.7,0,2.3,0.4,2.6,1.6c0,0.1,0.1,0.2,0.2,0.2
		h1.1c0.1,0,0.1,0,0.2-0.1c0-0.1,0.1-0.1,0.1-0.2c-0.2-2.1-1.5-3-4.2-3c-2.4,0-3.8,1-3.8,2.8c0,1.9,1.4,2.4,3.7,2.6
		c2.7,0.3,2.9,0.7,2.9,1.2c0,1-0.7,1.4-2.5,1.4c-2.2,0-2.7-0.6-2.8-1.7c0-0.1-0.1-0.2-0.2-0.2h-1.1c-0.1,0-0.2,0.1-0.2,0.2
		c0,1.4,0.8,3.2,4.4,3.2C-375.7,16.5-374.2,15.5-374.2,13.6z"/>
	
		<linearGradient id="SVGID_00000063631093122351746650000013189715398805115015_" gradientUnits="userSpaceOnUse" x1="-380.9" y1="1027.3704" x2="-380.9" y2="1050.8506" gradientTransform="matrix(1 0 0 1 0 -1028)">
		<stop  offset="0" style="stop-color:#FFFFFF"/>
		<stop  offset="1" style="stop-color:#45C945"/>
	</linearGradient>
	<path style="fill:url(#SVGID_00000063631093122351746650000013189715398805115015_);" d="M-380.9,22.9c-0.3,0-0.6-0.1-0.9-0.2
		l-2.9-1.7c-0.4-0.2-0.2-0.3-0.1-0.4c0.6-0.2,0.7-0.2,1.3-0.6c0.1,0,0.1,0,0.2,0l2.2,1.3c0.1,0,0.2,0,0.3,0l8.6-5
		c0.1,0,0.1-0.1,0.1-0.2v-10c0-0.1-0.1-0.2-0.1-0.2l-8.6-5c-0.1,0-0.2,0-0.3,0l-8.6,5c-0.1,0-0.1,0.1-0.1,0.2V16
		c0,0.1,0.1,0.2,0.1,0.2l2.4,1.4c1.3,0.6,2.1-0.1,2.1-0.9V7c0-0.1,0.1-0.2,0.3-0.2h1.1c0.1,0,0.2,0.1,0.2,0.2v9.8
		c0,1.7-0.9,2.7-2.5,2.7c-0.5,0-0.9,0-2-0.5l-2.3-1.3c-0.6-0.3-0.9-0.9-0.9-1.6v-10c0-0.6,0.3-1.2,0.9-1.6l8.6-5
		c0.5-0.3,1.3-0.3,1.8,0l8.6,5c0.6,0.3,0.9,0.9,0.9,1.6V16c0,0.6-0.3,1.2-0.9,1.6l-8.6,5C-380.3,22.8-380.6,22.9-380.9,22.9z
		 M-374,13.1c0-1.9-1.3-2.4-3.9-2.7c-2.7-0.4-2.9-0.5-2.9-1.2c0-0.5,0.2-1.2,2.2-1.2c1.8,0,2.4,0.4,2.7,1.6c0,0.1,0.1,0.2,0.2,0.2
		h1.1c0.1,0,0.1,0,0.2-0.1c0-0.1,0.1-0.1,0.1-0.2c-0.2-2.1-1.5-3-4.3-3c-2.5,0-3.9,1-3.9,2.8c0,1.9,1.5,2.4,3.8,2.6
		c2.8,0.3,3,0.7,3,1.2c0,1-0.8,1.4-2.6,1.4c-2.3,0-2.8-0.6-2.9-1.7c0-0.1-0.1-0.2-0.2-0.2h-1.1c-0.1,0-0.2,0.1-0.2,0.2
		c0,1.4,0.8,3.2,4.6,3.2C-375.5,16-374,14.9-374,13.1z"/>
</g>
<g>
	<path class="st27" d="M-239.6,37h-24.2c-7.1,0-12.9-5.8-12.9-12.9V-0.1c0-7.1,5.8-12.9,12.9-12.9h24.2c7.1,0,12.9,5.8,12.9,12.9
		v24.2C-226.7,31.2-232.5,37-239.6,37z"/>
	<g>
		<g>
			<g>
				<g>
					
						<linearGradient id="SVGID_00000042712610508742323300000010776059365960862388_" gradientUnits="userSpaceOnUse" x1="-251.7992" y1="1020" x2="-251.7992" y2="1060" gradientTransform="matrix(1 0 0 1 0 -1028)">
						<stop  offset="0" style="stop-color:#FF603B"/>
						<stop  offset="1" style="stop-color:#992E25"/>
					</linearGradient>
					<path style="fill:url(#SVGID_00000042712610508742323300000010776059365960862388_);" d="M-242.1,32h-19.4
						c-5.7,0-10.3-4.6-10.3-10.3V2.3c0-5.7,4.6-10.3,10.3-10.3h19.4c5.7,0,10.3,4.6,10.3,10.3v19.4C-231.7,27.4-236.4,32-242.1,32z"
						/>
				</g>
			</g>
		</g>
	</g>
</g>
<g>
	
		<linearGradient id="SVGID_00000119114781516298169380000013723293419489437082_" gradientUnits="userSpaceOnUse" x1="-251.7059" y1="1028.5017" x2="-251.7059" y2="1052.5363" gradientTransform="matrix(1 0 0 1 0 -1028)">
		<stop  offset="0" style="stop-color:#FFFFFF"/>
		<stop  offset="0.5531" style="stop-color:#9E3026"/>
	</linearGradient>
	<path style="fill:url(#SVGID_00000119114781516298169380000013723293419489437082_);" d="M-239.8,11.4L-250.7,1
		c-0.6-0.6-1.6-0.6-2.3,0l-2.3,2.2l2.9,2.8c0.7-0.2,1.4-0.1,2,0.4c0.5,0.5,0.7,1.3,0.5,1.9l2.8,2.7c0.7-0.2,1.4-0.1,2,0.4
		c0.7,0.7,0.7,1.9,0,2.6c-0.7,0.7-2,0.7-2.7,0c-0.6-0.5-0.7-1.3-0.4-2l-2.6-2.5V16c0.2,0.1,0.4,0.2,0.5,0.3c0.7,0.7,0.7,1.9,0,2.6
		s-2,0.7-2.7,0s-0.7-1.9,0-2.6c0.2-0.2,0.4-0.3,0.6-0.4V9.3c-0.2-0.1-0.4-0.2-0.6-0.4c-0.6-0.5-0.7-1.3-0.4-2l-2.8-2.7l-7.5,7.2
		c-0.6,0.6-0.6,1.6,0,2.2l10.9,10.5c0.6,0.6,1.6,0.6,2.3,0l10.8-10.4C-239.1,13-239.1,12.1-239.8,11.4"/>
	
		<linearGradient id="SVGID_00000110432508279074754750000008205539885000564402_" gradientUnits="userSpaceOnUse" x1="-251.6433" y1="1027.4021" x2="-251.6433" y2="1051.4366" gradientTransform="matrix(1 0 0 1 0 -1028)">
		<stop  offset="0" style="stop-color:#FFFFFF"/>
		<stop  offset="1" style="stop-color:#FC5F3A"/>
	</linearGradient>
	<path style="fill:url(#SVGID_00000110432508279074754750000008205539885000564402_);" d="M-239.7,10.3l-10.9-10.5
		c-0.6-0.6-1.6-0.6-2.3,0l-2.3,2.2l2.9,2.8c0.7-0.2,1.4-0.1,2,0.4c0.5,0.5,0.7,1.3,0.5,1.9l2.8,2.7c0.7-0.2,1.4-0.1,2,0.4
		c0.7,0.7,0.7,1.9,0,2.6s-2,0.7-2.7,0c-0.6-0.5-0.7-1.3-0.4-2l-2.6-2.5v6.5c0.2,0.1,0.4,0.2,0.5,0.3c0.7,0.7,0.7,1.9,0,2.6
		c-0.7,0.7-2,0.7-2.7,0s-0.7-1.9,0-2.6c0.2-0.2,0.4-0.3,0.6-0.4V8.2c-0.2-0.1-0.4-0.2-0.6-0.4c-0.6-0.5-0.7-1.3-0.4-2l-2.8-2.7
		l-7.5,7.2c-0.6,0.6-0.6,1.6,0,2.2l10.9,10.5c0.6,0.6,1.6,0.6,2.3,0l10.8-10.4C-239.1,11.9-239.1,11-239.7,10.3"/>
</g>
<g>
	
		<linearGradient id="SVGID_00000005244132718630840030000011285241414438593424_" gradientUnits="userSpaceOnUse" x1="60.1931" y1="1003.2523" x2="60.1931" y2="1025.9042" gradientTransform="matrix(1 0 0 1 0 -1028)">
		<stop  offset="0" style="stop-color:#FFFFFF"/>
		<stop  offset="0.6844" style="stop-color:#0C5190"/>
		<stop  offset="1" style="stop-color:#00488A"/>
	</linearGradient>
	<path style="fill:url(#SVGID_00000005244132718630840030000011285241414438593424_);" d="M70.9-22.4l-4.7-2.3
		c-0.5-0.3-1.2-0.2-1.6,0.3l-9.1,8.2l-4-3c-0.4-0.3-0.9-0.3-1.2,0.1L49-17.9c-0.4,0.4-0.4,1-0.1,1.3c0,0,0,0,0.1,0.1l3.4,3.1
		L49-10.3c-0.4,0.4-0.4,1-0.1,1.3c0,0,0,0,0.1,0.1l1.3,1.1c0.3,0.3,0.9,0.3,1.2,0.1l4-3l9.1,8.2c0.4,0.4,1,0.5,1.6,0.3l4.7-2.3
		c0.5-0.2,0.8-0.7,0.8-1.3v-15.3C71.7-21.6,71.4-22.1,70.9-22.4z M66-8.3l-6.9-5.2l6.9-5.2V-8.3z"/>
	
		<linearGradient id="SVGID_00000147909212572488446040000002917019621636228504_" gradientUnits="userSpaceOnUse" x1="60.1931" y1="1002.5393" x2="60.1931" y2="1025.1912" gradientTransform="matrix(1 0 0 1 0 -1028)">
		<stop  offset="0" style="stop-color:#FFFFFF"/>
		<stop  offset="1" style="stop-color:#0091E3"/>
	</linearGradient>
	<path style="fill:url(#SVGID_00000147909212572488446040000002917019621636228504_);" d="M70.9-23.1l-4.7-2.3
		c-0.5-0.3-1.2-0.2-1.6,0.3l-9.1,8.2l-4-3c-0.4-0.3-0.9-0.3-1.2,0.1L49-18.6c-0.4,0.4-0.4,1-0.1,1.3c0,0,0,0,0.1,0.1l3.4,3.1L49-11
		c-0.4,0.4-0.4,1-0.1,1.3c0,0,0,0,0.1,0.1l1.3,1.1c0.3,0.3,0.9,0.3,1.2,0.1l4-3l9.1,8.2c0.4,0.4,1.1,0.5,1.6,0.3l4.7-2.3
		c0.5-0.2,0.8-0.7,0.8-1.3v-15.3C71.7-22.3,71.4-22.8,70.9-23.1z M66-9l-6.9-5.2l6.9-5.2V-9z"/>
</g>
<g>
	<path class="st33" d="M-300.5,36.3h-24.2c-7.1,0-12.9-5.8-12.9-12.9V-0.8c0-7.1,5.8-12.9,12.9-12.9h24.2c7.1,0,12.9,5.8,12.9,12.9
		v24.2C-287.6,30.6-293.3,36.3-300.5,36.3z"/>
	<g>
		<g>
			<g>
				<g>
					
						<linearGradient id="SVGID_00000176039427056787674550000000485400121811094971_" gradientUnits="userSpaceOnUse" x1="-312.6" y1="1019.3" x2="-312.6" y2="1059.3" gradientTransform="matrix(1 0 0 1 0 -1028)">
						<stop  offset="0" style="stop-color:#0093E5"/>
						<stop  offset="1" style="stop-color:#004383"/>
					</linearGradient>
					<path style="fill:url(#SVGID_00000176039427056787674550000000485400121811094971_);" d="M-302.9,31.3h-19.4
						c-5.7,0-10.3-4.6-10.3-10.3V1.6c0-5.7,4.6-10.3,10.3-10.3h19.4c5.7,0,10.3,4.6,10.3,10.3V21C-292.6,26.7-297.2,31.3-302.9,31.3
						z"/>
				</g>
			</g>
		</g>
	</g>
</g>
<g>
	
		<linearGradient id="SVGID_00000146466531252246338660000005963755966432853890_" gradientUnits="userSpaceOnUse" x1="-312.6069" y1="1028.3639" x2="-312.6069" y2="1051.0326" gradientTransform="matrix(1 0 0 1 0 -1028)">
		<stop  offset="0" style="stop-color:#FFFFFF"/>
		<stop  offset="0.6844" style="stop-color:#0C5190"/>
		<stop  offset="1" style="stop-color:#00488A"/>
	</linearGradient>
	<path style="fill:url(#SVGID_00000146466531252246338660000005963755966432853890_);" d="M-301.9,2.8l-4.7-2.3
		c-0.5-0.3-1.2-0.2-1.6,0.3l-9.1,8.2l-4-3c-0.4-0.3-0.9-0.3-1.2,0.1l-1.3,1.1c-0.4,0.4-0.4,1-0.1,1.3c0,0,0,0,0.1,0.1l3.4,3.1
		l-3.4,3.1c-0.4,0.4-0.4,1-0.1,1.3c0,0,0,0,0.1,0.1l1.3,1.1c0.3,0.3,0.9,0.3,1.2,0.1l4-3l9.1,8.2c0.4,0.4,1.1,0.5,1.6,0.3l4.7-2.3
		c0.5-0.2,0.8-0.7,0.8-1.3V4C-301.1,3.5-301.4,3-301.9,2.8z M-306.8,16.9l-6.9-5.2l6.9-5.2V16.9z"/>
	
		<linearGradient id="SVGID_00000141414968993992955130000005769120746805011885_" gradientUnits="userSpaceOnUse" x1="-312.6069" y1="1027.6509" x2="-312.6069" y2="1050.3197" gradientTransform="matrix(1 0 0 1 0 -1028)">
		<stop  offset="0" style="stop-color:#FFFFFF"/>
		<stop  offset="1" style="stop-color:#0091E3"/>
	</linearGradient>
	<path style="fill:url(#SVGID_00000141414968993992955130000005769120746805011885_);" d="M-301.9,2l-4.7-2.3
		c-0.5-0.3-1.2-0.2-1.6,0.3l-9.1,8.2l-4-3c-0.4-0.3-0.9-0.3-1.2,0.1l-1.3,1.1c-0.4,0.4-0.4,1-0.1,1.3c0,0,0,0,0.1,0.1l3.4,3.1
		l-3.4,3.1c-0.4,0.4-0.4,1-0.1,1.3c0,0,0,0,0.1,0.1l1.3,1.1c0.3,0.3,0.9,0.3,1.2,0.1l4-3l9.1,8.2c0.4,0.4,1.1,0.5,1.6,0.3l4.7-2.3
		c0.5-0.2,0.8-0.7,0.8-1.3V3.3C-301.1,2.8-301.4,2.3-301.9,2z M-306.8,16.1l-6.9-5.2l6.9-5.2V16.1z"/>
</g>
<g>
	<path class="st37" d="M-175.3,34.9h-24.2c-7.1,0-12.9-5.8-12.9-12.9V-2.2c0-7.1,5.8-12.9,12.9-12.9h24.2c7.1,0,12.9,5.8,12.9,12.9
		V22C-162.4,29.1-168.2,34.9-175.3,34.9z"/>
	<g>
		<g>
			<g>
				<g>
					
						<linearGradient id="SVGID_00000063628781408253388200000010706630815754206638_" gradientUnits="userSpaceOnUse" x1="-187.4" y1="1017.9" x2="-187.4" y2="1057.9" gradientTransform="matrix(1 0 0 1 0 -1028)">
						<stop  offset="0" style="stop-color:#8129FF"/>
						<stop  offset="1" style="stop-color:#4000BF"/>
					</linearGradient>
					<path style="fill:url(#SVGID_00000063628781408253388200000010706630815754206638_);" d="M-177.7,29.9h-19.4
						c-5.7,0-10.3-4.6-10.3-10.3V0.2c0-5.7,4.6-10.3,10.3-10.3h19.4c5.7,0,10.3,4.6,10.3,10.3v19.4
						C-167.4,25.3-172.1,29.9-177.7,29.9z"/>
				</g>
			</g>
		</g>
	</g>
</g>
<linearGradient id="SVGID_00000119086888095653639920000014952276657888084665_" gradientUnits="userSpaceOnUse" x1="-187.4" y1="1026.5688" x2="-187.4" y2="1049.2208" gradientTransform="matrix(1 0 0 1 0 -1028)">
	<stop  offset="0" style="stop-color:#FFFFFF"/>
	<stop  offset="0.662" style="stop-color:#4302C2"/>
	<stop  offset="1" style="stop-color:#4302C2"/>
</linearGradient>
<path style="fill:url(#SVGID_00000119086888095653639920000014952276657888084665_);" d="M-187.3,1.8c4.5,0,8.1,3.6,8.1,8.1
	s-3.6,8.1-8.1,8.1s-8.1-3.6-8.1-8.1c0-1.1,0.2-2.1,0.6-3.1c0.6,0.8,1.5,1.3,2.5,1.3c1.7,0,3.1-1.4,3.1-3.1c0-1-0.5-2-1.3-2.5
	C-189.4,2-188.4,1.8-187.3,1.8z M-187.4-1.4c-6.3,0-11.3,5.1-11.3,11.3s5.1,11.3,11.3,11.3c6.3,0,11.3-5.1,11.3-11.3
	S-181.2-1.4-187.4-1.4z M-187.4-0.3c5.6,0,10.2,4.6,10.2,10.2s-4.6,10.2-10.2,10.2s-10.2-4.6-10.2-10.2S-193.1-0.3-187.4-0.3z"/>
<linearGradient id="SVGID_00000176006138677378364750000000885280870841613461_" gradientUnits="userSpaceOnUse" x1="-187.4" y1="1026.5688" x2="-187.4" y2="1049.2208" gradientTransform="matrix(1 0 0 1 0 -1028)">
	<stop  offset="0" style="stop-color:#FFFFFF"/>
	<stop  offset="1" style="stop-color:#8029FE"/>
</linearGradient>
<path style="fill:url(#SVGID_00000176006138677378364750000000885280870841613461_);" d="M-187.3,1.8c4.5,0,8.1,3.6,8.1,8.1
	s-3.6,8.1-8.1,8.1s-8.1-3.6-8.1-8.1c0-1.1,0.2-2.1,0.6-3.1c0.6,0.8,1.5,1.3,2.5,1.3c1.7,0,3.1-1.4,3.1-3.1c0-1-0.5-2-1.3-2.5
	C-189.4,2-188.4,1.8-187.3,1.8z M-187.4-1.4c-6.3,0-11.3,5.1-11.3,11.3s5.1,11.3,11.3,11.3c6.3,0,11.3-5.1,11.3-11.3
	S-181.2-1.4-187.4-1.4z M-187.4-0.3c5.6,0,10.2,4.6,10.2,10.2s-4.6,10.2-10.2,10.2s-10.2-4.6-10.2-10.2S-193.1-0.3-187.4-0.3z"/>
<g>
	<path class="st41" d="M-174.4,95.8h-24.2c-7.1,0-12.9-5.8-12.9-12.9V58.7c0-7.1,5.8-12.9,12.9-12.9h24.2c7.1,0,12.9,5.8,12.9,12.9
		v24.2C-161.6,90-167.3,95.8-174.4,95.8z"/>
	<g>
		<g>
			<g>
				<g>
					
						<linearGradient id="SVGID_00000127751880600488337610000007874042284841704118_" gradientUnits="userSpaceOnUse" x1="-186.6" y1="1078.8" x2="-186.6" y2="1118.8" gradientTransform="matrix(1 0 0 1 0 -1028)">
						<stop  offset="0" style="stop-color:#33C1FF"/>
						<stop  offset="1" style="stop-color:#2E6BFF"/>
					</linearGradient>
					<path style="fill:url(#SVGID_00000127751880600488337610000007874042284841704118_);" d="M-176.9,90.8h-19.4
						c-5.7,0-10.3-4.6-10.3-10.3V61.1c0-5.7,4.6-10.3,10.3-10.3h19.4c5.7,0,10.3,4.6,10.3,10.3v19.4
						C-166.6,86.2-171.2,90.8-176.9,90.8z"/>
				</g>
			</g>
		</g>
	</g>
</g>
<g>
	
		<linearGradient id="SVGID_00000099647865313687812920000004490951037172397970_" gradientUnits="userSpaceOnUse" x1="-192.5" y1="1089.8739" x2="-192.5" y2="1108.5045" gradientTransform="matrix(1 0 0 1 0 -1028)">
		<stop  offset="0" style="stop-color:#FFFFFF"/>
		<stop  offset="0.6508" style="stop-color:#2E6EFF"/>
		<stop  offset="1" style="stop-color:#2E6DFF"/>
	</linearGradient>
	<path style="fill:url(#SVGID_00000099647865313687812920000004490951037172397970_);" d="M-186.3,65.9c-0.3-0.8-0.7-1.4-1.3-2
		c-0.7-0.7-1.5-1.1-2.4-1.4c-1-0.4-2.2-0.5-3.6-0.5c-0.5,0-1.1,0-1.6,0s-1.1,0-1.5,0c-0.5,0-0.9,0-1.3,0c-0.4,0-0.7,0-1,0
		c-0.1,0-0.2,0.1-0.2,0.2v18.1c0,0.2,0.1,0.2,0.2,0.2h3.4c0.1,0,0.2-0.1,0.2-0.2v-5.6c0.3,0,0.6,0,0.8,0s0.5,0,0.9,0
		c1.4,0,2.8-0.2,4-0.6c1.1-0.4,2.1-1.2,2.8-2.1c0.7-1,1.1-2.2,1.1-3.7C-185.9,67.4-186.1,66.6-186.3,65.9z M-190.3,70.1
		c-0.4,0.4-0.9,0.8-1.4,0.9c-0.7,0.2-1.3,0.3-2,0.3h-0.9c-0.2,0-0.4,0-0.7,0v-5.9c0.1,0,0.4,0,0.7,0s0.7,0,1.2,0
		c0.7,0,1.4,0.1,2.1,0.4c0.5,0.2,0.9,0.5,1.2,1s0.4,1,0.4,1.6C-189.8,69-189.9,69.6-190.3,70.1z"/>
	
		<linearGradient id="SVGID_00000114056581969969016390000007877667765079143327_" gradientUnits="userSpaceOnUse" x1="-178.95" y1="1094.2368" x2="-178.95" y2="1108.8739" gradientTransform="matrix(1 0 0 1 0 -1028)">
		<stop  offset="0" style="stop-color:#FFFFFF"/>
		<stop  offset="0.6508" style="stop-color:#2E6EFF"/>
		<stop  offset="1" style="stop-color:#2E6DFF"/>
	</linearGradient>
	<path style="fill:url(#SVGID_00000114056581969969016390000007877667765079143327_);" d="M-173.8,76.4c0,0.8-0.2,1.7-0.7,2.3
		c-0.5,0.7-1.2,1.2-2,1.6c-0.9,0.4-1.9,0.6-3.2,0.6c-0.8,0-1.6-0.1-2.4-0.2c-0.6-0.1-1.2-0.3-1.8-0.6c-0.1-0.1-0.2-0.2-0.2-0.3v-3.1
		c0-0.1,0-0.1,0.1-0.2c0.1,0,0.1,0,0.2,0c0.7,0.4,1.4,0.7,2.2,0.9c0.7,0.2,1.4,0.3,2.1,0.3c0.7,0,1.1-0.1,1.5-0.2
		c0.3-0.1,0.5-0.4,0.5-0.7c0-0.2-0.1-0.5-0.4-0.7s-0.9-0.5-1.7-0.8c-0.9-0.3-1.7-0.7-2.5-1.3c-0.5-0.4-1-0.9-1.3-1.5
		s-0.4-1.2-0.4-1.8c0-0.8,0.2-1.5,0.6-2.1c0.4-0.7,1.1-1.3,1.8-1.6c0.8-0.4,1.9-0.6,3.1-0.6c0.7,0,1.5,0.1,2.2,0.2
		c0.5,0.1,1,0.2,1.5,0.4c0.1,0,0.1,0.1,0.2,0.2c0,0.1,0,0.1,0,0.2V70c0,0.1,0,0.1-0.1,0.2c-0.2,0-0.2,0-0.3,0
		c-0.5-0.3-1.1-0.5-1.7-0.6c-0.7-0.1-1.3-0.2-2-0.2c-0.4,0-0.7,0-1.1,0.1c-0.2,0.1-0.4,0.2-0.5,0.4c-0.1,0.1-0.1,0.3-0.1,0.5
		s0.1,0.3,0.2,0.5c0.2,0.2,0.4,0.4,0.6,0.5c0.4,0.2,0.8,0.4,1.2,0.6c0.9,0.3,1.9,0.8,2.7,1.3c0.6,0.4,1.1,0.9,1.4,1.5
		C-173.9,75.2-173.8,75.8-173.8,76.4z"/>
</g>
<g>
	
		<linearGradient id="SVGID_00000173847623359692271230000017990170602662311040_" gradientUnits="userSpaceOnUse" x1="-192.9" y1="1089.3925" x2="-192.9" y2="1108.0229" gradientTransform="matrix(1 0 0 1 0 -1028)">
		<stop  offset="0" style="stop-color:#FFFFFF"/>
		<stop  offset="1" style="stop-color:#33C0FF"/>
	</linearGradient>
	<path style="fill:url(#SVGID_00000173847623359692271230000017990170602662311040_);" d="M-186.7,65.4c-0.3-0.8-0.7-1.4-1.3-2
		c-0.7-0.7-1.5-1.1-2.4-1.4c-1-0.4-2.2-0.5-3.6-0.5c-0.5,0-1.1,0-1.6,0s-1.1,0-1.5,0c-0.5,0-0.9,0-1.3,0c-0.4,0-0.7,0-1,0
		c-0.1,0-0.2,0.1-0.2,0.2v18.1c0,0.2,0.1,0.2,0.2,0.2h3.4c0.1,0,0.2-0.1,0.2-0.2v-5.6c0.3,0,0.6,0,0.8,0s0.5,0,0.9,0
		c1.4,0,2.8-0.2,4-0.6c1.1-0.4,2.1-1.2,2.8-2.1c0.7-1,1.1-2.2,1.1-3.7C-186.3,66.9-186.4,66.1-186.7,65.4z M-190.6,69.6
		c-0.4,0.4-0.9,0.8-1.4,0.9c-0.7,0.2-1.3,0.3-2,0.3h-0.9c-0.2,0-0.4,0-0.7,0v-5.9c0.1,0,0.4,0,0.7,0s0.7,0,1.2,0
		c0.7,0,1.4,0.1,2.1,0.4c0.5,0.2,0.9,0.5,1.2,1s0.4,1,0.4,1.6C-190.1,68.6-190.3,69.2-190.6,69.6z"/>
	
		<linearGradient id="SVGID_00000119798022072826144570000007623785448331979140_" gradientUnits="userSpaceOnUse" x1="-179.3367" y1="1093.7552" x2="-179.3367" y2="1108.3925" gradientTransform="matrix(1 0 0 1 0 -1028)">
		<stop  offset="0" style="stop-color:#FFFFFF"/>
		<stop  offset="1" style="stop-color:#33C0FF"/>
	</linearGradient>
	<path style="fill:url(#SVGID_00000119798022072826144570000007623785448331979140_);" d="M-174.2,75.9c0,0.8-0.2,1.7-0.7,2.3
		c-0.5,0.7-1.2,1.2-2,1.6c-0.9,0.4-1.9,0.6-3.2,0.6c-0.8,0-1.6-0.1-2.4-0.2c-0.6-0.1-1.2-0.3-1.8-0.6c-0.1-0.1-0.2-0.2-0.2-0.3v-3.1
		c0-0.1,0-0.1,0.1-0.2c0.1,0,0.1,0,0.2,0c0.7,0.4,1.4,0.7,2.2,0.9c0.7,0.2,1.4,0.3,2.1,0.3c0.7,0,1.1-0.1,1.5-0.2
		c0.3-0.1,0.5-0.4,0.5-0.7c0-0.2-0.1-0.5-0.4-0.7s-0.9-0.5-1.7-0.8c-0.9-0.3-1.7-0.7-2.5-1.3c-0.5-0.4-1-0.9-1.3-1.5
		s-0.4-1.2-0.4-1.8c0-0.8,0.2-1.5,0.6-2.1c0.4-0.7,1.1-1.3,1.8-1.6c0.8-0.4,1.9-0.6,3.1-0.6c0.7,0,1.5,0.1,2.2,0.2
		c0.5,0.1,1,0.2,1.5,0.4c0.1,0,0.1,0.1,0.2,0.2c0,0.1,0,0.1,0,0.2v2.9c0,0.1,0,0.1-0.1,0.2c-0.2,0-0.2,0-0.3,0
		c-0.5-0.3-1.1-0.5-1.7-0.6c-0.7-0.1-1.3-0.2-2-0.2c-0.4,0-0.7,0-1.1,0.1c-0.2,0.1-0.4,0.2-0.5,0.4c-0.1,0.1-0.1,0.3-0.1,0.5
		s0.1,0.3,0.2,0.5c0.2,0.2,0.4,0.4,0.6,0.5c0.4,0.2,0.8,0.4,1.2,0.6c0.9,0.3,1.9,0.8,2.7,1.3c0.6,0.4,1.1,0.9,1.4,1.5
		C-174.3,74.7-174.1,75.3-174.2,75.9z"/>
</g>
<g>
	<path class="st47" d="M-289.6,91.3h-24.2c-7.1,0-12.9-5.8-12.9-12.9V54.2c0-7.1,5.8-12.9,12.9-12.9h24.2c7.1,0,12.9,5.8,12.9,12.9
		v24.2C-276.7,85.6-282.4,91.3-289.6,91.3z"/>
	<g>
		<g>
			<g>
				<g>
					
						<linearGradient id="SVGID_00000013186825276028618190000017412599197889636775_" gradientUnits="userSpaceOnUse" x1="-301.7" y1="1074.3413" x2="-301.7" y2="1114.3413" gradientTransform="matrix(1 0 0 1 0 -1028)">
						<stop  offset="5.586592e-03" style="stop-color:#48A5D3"/>
						<stop  offset="1" style="stop-color:#20495E"/>
					</linearGradient>
					<path style="fill:url(#SVGID_00000013186825276028618190000017412599197889636775_);" d="M-292,86.3h-19.4
						c-5.7,0-10.3-4.6-10.3-10.3V56.7c0-5.7,4.6-10.3,10.3-10.3h19.4c5.7,0,10.3,4.6,10.3,10.3V76C-281.7,81.7-286.3,86.3-292,86.3z
						"/>
				</g>
			</g>
		</g>
	</g>
</g>
<g>
	
		<linearGradient id="SVGID_00000001629851081855369570000007057102040331919790_" gradientUnits="userSpaceOnUse" x1="-301.4934" y1="1083.6" x2="-301.4934" y2="1105.6676" gradientTransform="matrix(1 0 0 1 0 -1028)">
		<stop  offset="0" style="stop-color:#FFFFFF"/>
		<stop  offset="0.581" style="stop-color:#235067"/>
	</linearGradient>
	<path style="fill:url(#SVGID_00000001629851081855369570000007057102040331919790_);" d="M-290.9,69.1c0,0,0-0.1-0.1-0.1
		c-0.1-0.2-0.4-0.3-0.9-0.2c-1.5,0.3-2.1,0.1-2.3,0c1.2-1.9,2.2-4.2,2.8-6.3c0.2-1,0.7-3.2,0.1-4.4c0-0.1-0.1-0.1-0.1-0.2
		c-1.2-1.5-2.9-2.3-5-2.3c-1.4,0-2.5,0.3-2.9,0.4c-0.2,0-0.3-0.1-0.5-0.1c-0.4-0.1-0.8-0.1-1.2-0.1c-1.1,0-2,0.2-2.8,0.8
		c-0.8-0.3-4.4-1.5-6.6,0.1c-1.2,0.9-1.8,2.5-1.7,4.7c0,0.8,0.5,3.1,1.1,5.3c0.4,1.4,0.9,2.5,1.3,3.3c0.5,0.9,1,1.5,1.6,1.6
		c0.4,0.1,1,0.1,1.7-0.7c0.7-0.9,1.5-1.7,1.8-2c0.4,0.2,0.8,0.3,1.3,0.3l0,0c-0.1,0.1-0.2,0.2-0.2,0.3c-0.3,0.4-0.4,0.5-1.4,0.7
		c-0.3,0.1-1,0.2-1.1,0.7c0,0.1,0,0.2,0.1,0.3c0.2,0.4,0.8,0.6,0.9,0.6c1.2,0.3,2.3,0.1,3.1-0.6c0,2.1,0.1,4.1,0.3,4.7
		c0.2,0.5,0.7,1.8,2.3,1.8c0.2,0,0.5,0,0.8-0.1c1.6-0.4,2.3-1.1,2.6-2.7c0.1-0.8,0.4-2.6,0.5-3.8c0-0.1,0-0.1,0.1-0.1
		c0,0,0.1,0,0.4,0l0,0h0.2l0,0c0.8,0,1.8-0.1,2.3-0.4C-291.8,70.4-290.7,69.7-290.9,69.1z M-310.4,66.5c-0.7-2.2-1.1-4.5-1.1-5.1
		c-0.1-2,0.4-3.4,1.4-4.1c1.7-1.2,4.5-0.5,5.6-0.1l0,0c-1.9,1.9-1.8,5.1-1.8,5.3c0,0.1,0,0.2,0,0.3c0,0.5,0.1,1.5-0.1,2.7
		c-0.1,1.1,0.2,2.1,0.9,2.8c0.1,0.1,0.2,0.1,0.2,0.2c-0.3,0.3-1,1.1-1.7,2c-0.5,0.6-0.9,0.5-1,0.5c-0.4-0.1-0.7-0.5-1.1-1.2
		C-309.5,69-310,67.9-310.4,66.5z M-304.8,71.2c-0.2,0-0.3-0.1-0.4-0.2c0.1,0,0.2-0.1,0.4-0.1c1.2-0.2,1.4-0.4,1.8-0.9
		c0.1-0.1,0.2-0.2,0.3-0.4l0.1-0.1c0.2-0.1,0.3-0.1,0.4,0s0.3,0.2,0.3,0.4c0,0.1,0.1,0.3,0,0.4C-302.8,71.4-304,71.4-304.8,71.2z
		 M-302.9,67.5L-302.9,67.5c-0.1,0.4-0.2,0.7-0.3,1c-0.6,0-1.2-0.3-1.7-0.7c-0.6-0.6-0.8-1.4-0.7-2.3c0.2-1.2,0.1-2.2,0.1-2.8
		c0-0.1,0-0.1,0-0.2c-0.1-0.8,1.4-1.3,2.2-1.1c0.4,0.1,0.8,0.8,0.9,1.3c0.5,2.5,0.1,3.5-0.3,4.4C-302.8,67.2-302.9,67.4-302.9,67.5z
		 M-296.2,71.7c0,0.2,0,0.3-0.1,0.5l-0.1,0.4v0.1c0,0.4,0,0.6-0.1,0.8c-0.1,0.2-0.1,0.4-0.2,1c-0.1,1.3-0.8,2-2.2,2.4
		c-1.4,0.3-1.6-0.5-1.9-1.1c0-0.1,0-0.1-0.1-0.2c-0.2-0.5-0.2-1.3-0.1-2.3c0-0.5,0-1.7-0.3-2.4c0-0.3,0-0.5,0-0.8V70
		c0-0.1,0-0.1,0-0.2c-0.1-0.4-0.4-0.7-0.7-0.9c-0.1-0.1-0.4-0.2-0.7-0.1c0.1-0.3,0.2-0.5,0.3-0.9v-0.1c0.1-0.1,0.1-0.3,0.2-0.5
		c0.4-0.9,0.9-2.1,0.3-4.8c-0.2-1-0.9-1.5-2.1-1.4c-0.7,0.1-1.3,0.3-1.6,0.5c-0.1,0-0.1,0.1-0.2,0.1c0.1-1,0.4-2.9,1.6-4.1
		c0.1-0.1,0.2-0.2,0.3-0.3c0,0,0.1,0,0.1-0.1c0.7-0.5,1.6-0.8,2.6-0.8c0.4,0,0.7,0,1.1,0.1c1.8,0.3,3,1.3,3.7,2.2s1.2,1.8,1.3,2.3
		c-1.2-0.1-2,0.1-2.5,0.7c-0.9,1.3,0.5,3.8,1.2,5.1c0.1,0.2,0.2,0.4,0.3,0.5c0.2,0.5,0.5,0.9,0.7,1.2c0.1,0.1,0.1,0.2,0.2,0.2
		c-0.4,0.1-1,0.4-1,1.6c0,0.1,0,0.4-0.1,0.7C-296.1,71.2-296.1,71.5-296.2,71.7z M-295.3,70.2c0-0.8,0.2-0.8,0.5-0.9h0.1l0.1,0.1
		c0.5,0.3,1.5,0.4,2.8,0.1c-0.2,0.2-0.5,0.4-0.9,0.6s-1,0.3-1.6,0.3C-294.9,70.4-295.3,70.3-295.3,70.2z M-294.8,61.4
		c0,0.3-0.1,0.9-0.1,1.2c-0.1,0.3-0.1,0.7-0.1,1.1s0,0.8,0.1,1.2c0.1,0.8,0.2,1.7-0.2,2.5c-0.1-0.1-0.1-0.2-0.2-0.4
		c0-0.1-0.2-0.3-0.3-0.6c-0.6-1-2.2-3.9-1.5-4.8C-296.7,61.2-295.7,61.2-294.8,61.4z M-294.6,68.2
		C-294.6,68.1-294.7,68.1-294.6,68.2l-0.1-0.1c0.7-1.1,0.5-2.2,0.4-3.2c0-0.4-0.1-0.8-0.1-1.1c0-0.4,0.1-0.7,0.1-1
		c0.1-0.4,0.1-0.8,0.1-1.2c0,0,0-0.1,0-0.2c0-0.4-0.6-1.8-1.6-3c-0.6-0.7-1.4-1.4-2.5-1.9c0.5-0.1,1.1-0.2,1.9-0.2
		c1.9,0,3.4,0.7,4.4,2.1c0,0,0,0.1,0.1,0.1C-291.2,59.7-292.1,64.2-294.6,68.2z"/>
	
		<linearGradient id="SVGID_00000026163398703775674550000000248167909497574308_" gradientUnits="userSpaceOnUse" x1="-301.7934" y1="1083.0154" x2="-301.7934" y2="1105.083" gradientTransform="matrix(1 0 0 1 0 -1028)">
		<stop  offset="0" style="stop-color:#FFFFFF"/>
		<stop  offset="1" style="stop-color:#48A4D2"/>
	</linearGradient>
	<path style="fill:url(#SVGID_00000026163398703775674550000000248167909497574308_);" d="M-291.2,68.6c0,0,0-0.1-0.1-0.1
		c-0.1-0.2-0.4-0.3-0.9-0.2c-1.5,0.3-2.1,0.1-2.3,0c1.2-1.9,2.2-4.2,2.8-6.3c0.2-1,0.7-3.2,0.1-4.4c0-0.1-0.1-0.1-0.1-0.2
		c-1.2-1.5-2.9-2.3-5-2.3c-1.4,0-2.5,0.3-2.9,0.4c-0.2,0-0.3-0.1-0.5-0.1c-0.4-0.1-0.8-0.1-1.2-0.1c-1.1,0-2,0.2-2.8,0.8
		c-0.8-0.3-4.4-1.5-6.6,0.1c-1.2,0.9-1.8,2.5-1.7,4.7c0,0.8,0.5,3.1,1.1,5.3c0.4,1.4,0.9,2.5,1.3,3.3c0.5,0.9,1,1.5,1.6,1.6
		c0.4,0.1,1,0.1,1.7-0.7c0.7-0.9,1.5-1.7,1.8-2c0.4,0.2,0.8,0.3,1.3,0.3l0,0c-0.1,0.1-0.2,0.2-0.2,0.3c-0.3,0.4-0.4,0.5-1.4,0.7
		c-0.3,0.1-1,0.2-1.1,0.7c0,0.1,0,0.2,0.1,0.3c0.2,0.4,0.8,0.6,0.9,0.6c1.2,0.3,2.3,0.1,3.1-0.6c0,2.1,0.1,4.1,0.3,4.7
		c0.2,0.5,0.7,1.8,2.3,1.8c0.2,0,0.5,0,0.8-0.1c1.6-0.4,2.3-1.1,2.6-2.7c0.1-0.8,0.4-2.6,0.5-3.8c0-0.1,0-0.1,0.1-0.1
		c0,0,0.1,0,0.4,0l0,0h0.2l0,0c0.8,0,1.8-0.1,2.3-0.4C-292.1,69.8-291,69.1-291.2,68.6z M-310.7,65.9c-0.7-2.2-1.1-4.5-1.1-5.1
		c-0.1-2,0.4-3.4,1.4-4.1c1.7-1.2,4.5-0.5,5.6-0.1l0,0c-1.9,1.9-1.8,5.1-1.8,5.3c0,0.1,0,0.2,0,0.3c0,0.5,0.1,1.5-0.1,2.7
		c-0.1,1.1,0.2,2.1,0.9,2.8c0.1,0.1,0.2,0.1,0.2,0.2c-0.3,0.3-1,1.1-1.7,2c-0.5,0.6-0.9,0.5-1,0.5c-0.4-0.1-0.7-0.5-1.1-1.2
		C-309.8,68.4-310.3,67.3-310.7,65.9z M-305.1,70.6c-0.2,0-0.3-0.1-0.4-0.2c0.1,0,0.2-0.1,0.4-0.1c1.2-0.2,1.4-0.4,1.8-0.9
		c0.1-0.1,0.2-0.2,0.3-0.4l0.1-0.1c0.2-0.1,0.3-0.1,0.4,0s0.3,0.2,0.3,0.4c0,0.1,0.1,0.3,0,0.4C-303.1,70.8-304.3,70.8-305.1,70.6z
		 M-303.2,66.9L-303.2,66.9c-0.1,0.4-0.2,0.7-0.3,1c-0.6,0-1.2-0.3-1.7-0.7c-0.6-0.6-0.8-1.4-0.7-2.3c0.2-1.2,0.1-2.2,0.1-2.8
		c0-0.1,0-0.1,0-0.2c0.3-0.2,1.5-0.9,2.4-0.7c0.4,0.1,0.7,0.4,0.8,0.9c0.5,2.5,0.1,3.5-0.3,4.4C-303.1,66.6-303.2,66.8-303.2,66.9z
		 M-296.5,71.2c0,0.2,0,0.3-0.1,0.5l-0.1,0.4v0.1c0,0.4,0,0.6-0.1,0.8c-0.1,0.2-0.1,0.4-0.2,1c-0.1,1.3-0.8,2-2.2,2.4
		c-1.4,0.3-1.6-0.5-1.9-1.1c0-0.1,0-0.1-0.1-0.2c-0.2-0.5-0.2-1.3-0.1-2.3c0-0.5,0-1.7-0.3-2.4c0-0.3,0-0.5,0-0.8v-0.1
		c0-0.1,0-0.1,0-0.2c-0.1-0.4-0.4-0.7-0.7-0.9c-0.1-0.1-0.4-0.2-0.7-0.1c0.1-0.3,0.2-0.5,0.3-0.9v-0.1c0.1-0.1,0.1-0.3,0.2-0.5
		c0.4-0.9,0.9-2.1,0.3-4.8c-0.2-1-0.9-1.5-2.1-1.4c-0.7,0.1-1.3,0.3-1.6,0.5c-0.1,0-0.1,0.1-0.2,0.1c0.1-1,0.4-2.9,1.6-4.1
		c0.1-0.1,0.2-0.2,0.3-0.3c0,0,0.1,0,0.1-0.1c0.7-0.5,1.6-0.8,2.6-0.8c0.4,0,0.7,0,1.1,0.1c1.8,0.3,3,1.3,3.7,2.2s1.2,1.8,1.3,2.3
		c-1.2-0.1-2,0.1-2.5,0.7c-0.9,1.3,0.5,3.8,1.2,5.1c0.1,0.2,0.2,0.4,0.3,0.5c0.2,0.5,0.5,0.9,0.7,1.2c0.1,0.1,0.1,0.2,0.2,0.2
		c-0.4,0.1-1,0.4-1,1.6c0,0.1,0,0.4-0.1,0.7C-296.4,70.6-296.4,70.9-296.5,71.2z M-295.6,69.7c0-0.8,0.2-0.8,0.5-0.9h0.1l0.1,0.1
		c0.5,0.3,1.5,0.4,2.8,0.1c-0.2,0.2-0.5,0.4-0.9,0.6s-1,0.3-1.6,0.3C-295.2,69.8-295.6,69.7-295.6,69.7z M-295.1,61.1
		c0,0.3,0,0.6-0.1,0.9c-0.1,0.3-0.1,0.7-0.1,1.1c0,0.4,0,0.8,0.1,1.2c0.1,0.8,0.2,1.7-0.2,2.5c-0.1-0.1-0.1-0.2-0.2-0.4
		c0-0.1-0.2-0.3-0.3-0.6c-0.6-1-1.9-3.4-1.2-4.4C-296.8,61.1-295.9,61-295.1,61.1z M-294.9,67.6C-294.9,67.6-295,67.5-294.9,67.6
		l-0.1-0.1c0.7-1.1,0.5-2.2,0.4-3.2c0-0.4-0.1-0.8-0.1-1.1c0-0.4,0.1-0.7,0.1-1c0.1-0.4,0.1-0.8,0.1-1.2c0,0,0-0.1,0-0.2
		c0-0.4-0.6-1.8-1.6-3c-0.6-0.7-1.4-1.4-2.5-1.9c0.5-0.1,1.1-0.2,1.9-0.2c1.9,0,3.4,0.7,4.4,2.1c0,0,0,0.1,0.1,0.1
		C-291.5,59.1-292.4,63.7-294.9,67.6z M-303,62c0,0.2-0.3,0.4-0.6,0.4c0,0,0,0-0.1,0c-0.2,0-0.3-0.1-0.5-0.3c0-0.1-0.1-0.2-0.1-0.3
		c0,0,0-0.1,0.1-0.1c0.1-0.1,0.3-0.1,0.6-0.1C-303.3,61.6-303,61.8-303,62z M-295.7,61.6c0,0.1,0,0.2-0.1,0.3s-0.2,0.2-0.4,0.2
		c0,0,0,0-0.1,0c-0.3,0-0.5-0.2-0.5-0.3c0-0.2,0.2-0.3,0.5-0.3C-296,61.4-295.7,61.4-295.7,61.6z"/>
</g>
<g>
	<path class="st51" d="M-231.3,93.6h-24.2c-7.1,0-12.9-5.8-12.9-12.9V56.5c0-7.1,5.8-12.9,12.9-12.9h24.2c7.1,0,12.9,5.8,12.9,12.9
		v24.2C-218.4,87.8-224.2,93.6-231.3,93.6z"/>
	<g>
		<g>
			<g>
				<g>
					
						<linearGradient id="SVGID_00000143610521378822651710000004325221507781766789_" gradientUnits="userSpaceOnUse" x1="-243.4" y1="1076.6" x2="-243.4" y2="1116.6" gradientTransform="matrix(1 0 0 1 0 -1028)">
						<stop  offset="0" style="stop-color:#DCE0E2"/>
						<stop  offset="1" style="stop-color:#8F9FB2"/>
					</linearGradient>
					<path style="fill:url(#SVGID_00000143610521378822651710000004325221507781766789_);" d="M-233.7,88.6h-19.4
						c-5.7,0-10.3-4.6-10.3-10.3V58.9c0-5.7,4.6-10.3,10.3-10.3h19.4c5.7,0,10.3,4.6,10.3,10.3v19.4
						C-223.4,83.9-228.1,88.6-233.7,88.6z"/>
				</g>
			</g>
		</g>
	</g>
</g>
<linearGradient id="SVGID_00000027593326674220273530000009597760523935119528_" gradientUnits="userSpaceOnUse" x1="-243.4" y1="1085.2395" x2="-243.4" y2="1107.8723" gradientTransform="matrix(1 0 0 1 0 -1028)">
	<stop  offset="0" style="stop-color:#DCE0E2"/>
	<stop  offset="1" style="stop-color:#6F7C89"/>
</linearGradient>
<path style="fill:url(#SVGID_00000027593326674220273530000009597760523935119528_);" d="M-250.6,61.2c0.7,0.6,1,0.5,2.3,0.4
	l12.5-0.7c0.3,0,0-0.3,0-0.3l-2.1-1.5c-0.4-0.3-0.9-0.7-1.9-0.6l-12.1,0.9c-0.4,0-0.5,0.3-0.4,0.4L-250.6,61.2z M-249.8,64.1v13.1
	c0,0.7,0.4,1,1.1,0.9l13.7-0.8c0.8,0,0.9-0.5,0.9-1.1v-13c0-0.6-0.2-0.9-0.7-0.8l-14.3,0.8C-249.6,63.3-249.8,63.5-249.8,64.1
	L-249.8,64.1z M-236.3,64.8c0.1,0.4,0,0.8-0.4,0.8l-0.7,0.1v9.7c-0.6,0.3-1.1,0.5-1.5,0.5c-0.7,0-0.9-0.2-1.4-0.9l-4.3-6.8v6.6
	l1.4,0.3c0,0,0,0.8-1.1,0.8l-3,0.2c-0.1-0.2,0-0.6,0.3-0.7l0.8-0.2v-8.7l-1.1-0.1c-0.1-0.4,0.1-1,0.7-1l3.3-0.2l4.5,6.9V66l-1.1-0.1
	c-0.1-0.5,0.3-0.8,0.7-0.9L-236.3,64.8z M-252.9,58.2l12.6-0.9c1.5-0.1,1.9,0,2.9,0.7l4,2.8c0.7,0.5,0.9,0.6,0.9,1.1v15.5
	c0,1-0.4,1.5-1.6,1.6l-14.6,0.9c-0.9,0-1.4-0.1-1.9-0.7l-3-3.8c-0.5-0.7-0.7-1.2-0.7-1.8V59.8C-254.3,59-253.9,58.3-252.9,58.2z"/>
<linearGradient id="SVGID_00000045596551047854741680000013370066204833779371_" gradientUnits="userSpaceOnUse" x1="-243.4" y1="1085.2395" x2="-243.4" y2="1107.8723" gradientTransform="matrix(1 0 0 1 0 -1028)">
	<stop  offset="0" style="stop-color:#353535"/>
	<stop  offset="1" style="stop-color:#151515"/>
</linearGradient>
<path style="fill:url(#SVGID_00000045596551047854741680000013370066204833779371_);" d="M-250.6,61.2c0.7,0.6,1,0.5,2.3,0.4
	l12.5-0.7c0.3,0,0-0.3,0-0.3l-2.1-1.5c-0.4-0.3-0.9-0.7-1.9-0.6l-12.1,0.9c-0.4,0-0.5,0.3-0.4,0.4L-250.6,61.2z M-249.8,64.1v13.1
	c0,0.7,0.4,1,1.1,0.9l13.7-0.8c0.8,0,0.9-0.5,0.9-1.1v-13c0-0.6-0.2-0.9-0.7-0.8l-14.3,0.8C-249.6,63.3-249.8,63.5-249.8,64.1
	L-249.8,64.1z M-236.3,64.8c0.1,0.4,0,0.8-0.4,0.8l-0.7,0.1v9.7c-0.6,0.3-1.1,0.5-1.5,0.5c-0.7,0-0.9-0.2-1.4-0.9l-4.3-6.8v6.6
	l1.4,0.3c0,0,0,0.8-1.1,0.8l-3,0.2c-0.1-0.2,0-0.6,0.3-0.7l0.8-0.2v-8.7l-1.1-0.1c-0.1-0.4,0.1-1,0.7-1l3.3-0.2l4.5,6.9V66l-1.1-0.1
	c-0.1-0.5,0.3-0.8,0.7-0.9L-236.3,64.8z M-252.9,58.2l12.6-0.9c1.5-0.1,1.9,0,2.9,0.7l4,2.8c0.7,0.5,0.9,0.6,0.9,1.1v15.5
	c0,1-0.4,1.5-1.6,1.6l-14.6,0.9c-0.9,0-1.4-0.1-1.9-0.7l-3-3.8c-0.5-0.7-0.7-1.2-0.7-1.8V59.8C-254.3,59-253.9,58.3-252.9,58.2z"/>
<g>
	<path class="st55" d="M-367.4,91.7h-24.2c-7.1,0-12.9-5.8-12.9-12.9V54.6c0-7.1,5.8-12.9,12.9-12.9h24.2c7.1,0,12.9,5.8,12.9,12.9
		v24.2C-354.6,86-360.3,91.7-367.4,91.7z"/>
	<g>
		<g>
			<g>
				<g>
					
						<linearGradient id="SVGID_00000003072465732981345650000014720435543172374407_" gradientUnits="userSpaceOnUse" x1="-379.6" y1="1074.7479" x2="-379.6" y2="1114.7479" gradientTransform="matrix(1 0 0 1 0 -1028)">
						<stop  offset="0" style="stop-color:#9088FF"/>
						<stop  offset="1" style="stop-color:#5865F2"/>
					</linearGradient>
					<path style="fill:url(#SVGID_00000003072465732981345650000014720435543172374407_);" d="M-369.9,86.7h-19.4
						c-5.7,0-10.3-4.6-10.3-10.3V57.1c0-5.7,4.6-10.3,10.3-10.3h19.4c5.7,0,10.3,4.6,10.3,10.3v19.4
						C-359.6,82.1-364.2,86.7-369.9,86.7z"/>
				</g>
			</g>
		</g>
	</g>
</g>
<g>
	<g id="_2_00000105403290655438259080000004599690892376677031_">
		<g id="Discord_Logos_00000015339368837798244070000013304816961511327158_">
			<g id="Discord_Logo_-_Large_-_White_00000062170276513918347990000003093195935158141103_">
				
					<linearGradient id="SVGID_00000048501488219952949950000002459240879202598303_" gradientUnits="userSpaceOnUse" x1="-379.5788" y1="1084.9" x2="-379.5788" y2="1105.1" gradientTransform="matrix(1 0 0 1 0 -1028)">
					<stop  offset="0" style="stop-color:#FFFFFF"/>
					<stop  offset="1" style="stop-color:#5A66F2"/>
				</linearGradient>
				<path style="fill:url(#SVGID_00000048501488219952949950000002459240879202598303_);" d="M-370.3,58.6c-1.8-0.8-3.6-1.4-5.5-1.7
					c-0.3,0.5-0.5,0.9-0.7,1.4c-2-0.3-4.1-0.3-6.1,0c-0.2-0.5-0.4-1-0.7-1.4c-1.9,0.3-3.8,0.9-5.5,1.7c-3.5,5.2-4.4,10.2-4,15.1l0,0
					c2,1.5,4.3,2.7,6.7,3.4c0.5-0.7,1-1.5,1.4-2.3c-0.8-0.3-1.6-0.7-2.3-1.1c0.2-0.1,0.4-0.3,0.6-0.4c4.3,2,9.2,2,13.5,0
					c0.2,0.1,0.4,0.3,0.6,0.4c-0.7,0.4-1.5,0.8-2.3,1.1c0.4,0.8,0.9,1.6,1.4,2.3c2.4-0.7,4.7-1.9,6.8-3.4l0,0
					C-365.8,68-367.3,63-370.3,58.6z M-384,70.7c-1.3,0-2.4-1.2-2.4-2.7s1-2.7,2.4-2.7c1.3,0,2.4,1.2,2.4,2.7S-382.6,70.7-384,70.7z
					 M-375.1,70.7c-1.3,0-2.4-1.2-2.4-2.7s1-2.7,2.4-2.7s2.4,1.2,2.4,2.7S-373.8,70.7-375.1,70.7z"/>
			</g>
		</g>
	</g>
	<g id="_2_00000080891021390953466360000012290610452150015669_">
		<g id="Discord_Logos_00000114767948726506065390000008913904537969812113_">
			<g id="Discord_Logo_-_Large_-_White_00000112615048365184050680000004647852928042650552_">
				
					<linearGradient id="SVGID_00000124129167837042181950000004058093214868820384_" gradientUnits="userSpaceOnUse" x1="-379.5788" y1="1084.3612" x2="-379.5788" y2="1104.5612" gradientTransform="matrix(1 0 0 1 0 -1028)">
					<stop  offset="0" style="stop-color:#FFFFFF"/>
					<stop  offset="0.8659" style="stop-color:#8F87FF"/>
				</linearGradient>
				<path style="fill:url(#SVGID_00000124129167837042181950000004058093214868820384_);" d="M-370.3,58.1c-1.8-0.8-3.6-1.4-5.5-1.7
					c-0.3,0.5-0.5,0.9-0.7,1.4c-2-0.3-4.1-0.3-6.1,0c-0.2-0.5-0.4-1-0.7-1.4c-1.9,0.3-3.8,0.9-5.5,1.7c-3.5,5.2-4.4,10.2-4,15.1l0,0
					c2,1.5,4.3,2.7,6.7,3.4c0.5-0.7,1-1.5,1.4-2.3c-0.8-0.3-1.6-0.7-2.3-1.1c0.2-0.1,0.4-0.3,0.6-0.4c4.3,2,9.2,2,13.5,0
					c0.2,0.1,0.4,0.3,0.6,0.4c-0.7,0.4-1.5,0.8-2.3,1.1c0.4,0.8,0.9,1.6,1.4,2.3c2.4-0.7,4.7-1.9,6.8-3.4l0,0
					C-365.8,67.4-367.3,62.5-370.3,58.1z M-384,70.1c-1.3,0-2.4-1.2-2.4-2.7s1-2.7,2.4-2.7s2.4,1.2,2.4,2.7
					C-381.6,69-382.7,70.1-384,70.1z M-375.2,70.1c-1.3,0-2.4-1.2-2.4-2.7s1-2.7,2.4-2.7s2.4,1.2,2.4,2.7
					C-372.8,69-373.8,70.1-375.2,70.1z"/>
			</g>
		</g>
	</g>
</g>
<g>
	<g>
		<path class="st59" d="M-288.7,154.5h-24.2c-7.1,0-12.9-5.8-12.9-12.9v-24.2c0-7.1,5.8-12.9,12.9-12.9h24.2
			c7.1,0,12.9,5.8,12.9,12.9v24.2C-275.8,148.7-281.6,154.5-288.7,154.5z"/>
		<g>
			<g>
				<g>
					<g>
						
							<linearGradient id="SVGID_00000024688932151942997400000013445637978744983705_" gradientUnits="userSpaceOnUse" x1="-300.8" y1="1137.5" x2="-300.8" y2="1177.5" gradientTransform="matrix(1 0 0 1 0 -1028)">
							<stop  offset="0" style="stop-color:#2A2F35"/>
							<stop  offset="1" style="stop-color:#0A0A0A"/>
						</linearGradient>
						<path style="fill:url(#SVGID_00000024688932151942997400000013445637978744983705_);" d="M-291.1,149.5h-19.4
							c-5.7,0-10.3-4.6-10.3-10.3v-19.4c0-5.7,4.6-10.3,10.3-10.3h19.4c5.7,0,10.3,4.6,10.3,10.3v19.4
							C-280.8,144.9-285.4,149.5-291.1,149.5z"/>
					</g>
				</g>
			</g>
		</g>
	</g>
	
		<linearGradient id="SVGID_00000159459622956910530480000013451126726921402252_" gradientUnits="userSpaceOnUse" x1="-300.75" y1="1146.1533" x2="-300.75" y2="1168.8052" gradientTransform="matrix(1 0 0 1 0 -1028)">
		<stop  offset="0" style="stop-color:#FFFFFF"/>
		<stop  offset="1" style="stop-color:#15171A"/>
	</linearGradient>
	<path style="fill:url(#SVGID_00000159459622956910530480000013451126726921402252_);" d="M-300.8,118.2c-6.4,0-11.6,5.2-11.6,11.6
		c0,5.1,3.3,9.5,7.9,11c0.6,0.1,0.8-0.2,0.8-0.6c0-0.3,0-1,0-2c-3.2,0.7-3.9-1.6-3.9-1.6c-0.5-1.3-1.3-1.7-1.3-1.7
		c-1.1-0.7,0.1-0.7,0.1-0.7c1.2,0.1,1.8,1.2,1.8,1.2c1,1.8,2.7,1.3,3.4,1c0.1-0.8-0.2-1.5,0.1-1.8c-2.6-0.3-4.7-1-4.7-5.5
		c0-1.3-0.3-2.5,0.5-3.3c-0.3-0.9-0.5-3,0.5-3.3c0,0,1.3,0.2,3.5,1.7c0.9-0.3,1.9-0.4,2.9-0.4s2,0.1,2.9,0.4
		c2.2-1.5,3.8-1.5,3.8-1.5c0.6,1.6,0.1,2.7,0,3c0.7,0.8,0.7,2.3,0.7,3.5c0,4.5-2.3,5.1-4.8,5.4c0.4,0.3,0.4,1.8,0.4,2.9
		c0,1.6-0.1,2.4-0.1,2.8c0,0.3,0.2,0.7,0.8,0.6c4.6-1.5,8-5.9,8-11C-289.2,123.4-294.4,118.2-300.8,118.2"/>
	
		<linearGradient id="SVGID_00000092453862045458366710000006766934088073143940_" gradientUnits="userSpaceOnUse" x1="-300.75" y1="1146.1533" x2="-300.75" y2="1168.8052" gradientTransform="matrix(1 0 0 1 0 -1028)">
		<stop  offset="0" style="stop-color:#FFFFFF"/>
		<stop  offset="1" style="stop-color:#292E34"/>
	</linearGradient>
	<path style="fill:url(#SVGID_00000092453862045458366710000006766934088073143940_);" d="M-300.8,118.2c-6.4,0-11.6,5.2-11.6,11.6
		c0,5.1,3.3,9.5,7.9,11c0.6,0.1,0.8-0.2,0.8-0.6c0-0.3,0-1,0-2c-3.2,0.7-3.9-1.6-3.9-1.6c-0.5-1.3-1.3-1.7-1.3-1.7
		c-1.1-0.7,0.1-0.7,0.1-0.7c1.2,0.1,1.8,1.2,1.8,1.2c1,1.8,2.7,1.3,3.4,1c0.1-0.8,0.4-1.3,0.7-1.6c-2.6-0.3-5.3-1.3-5.3-5.7
		c0-1.3,0.5-2.3,1.2-3.1c-0.1-0.3-0.5-1.5,0.1-3.1c0,0,1-0.3,3.2,1.2c0.9-0.3,1.9-0.4,2.9-0.4s2,0.1,2.9,0.4
		c2.2-1.5,3.2-1.2,3.2-1.2c0.6,1.6,0.2,2.8,0.1,3.1c0.7,0.8,1.2,1.8,1.2,3.1c0,4.5-2.7,5.4-5.3,5.7c0.4,0.3,0.8,1.1,0.8,2.1
		c0,1.6,0,2.8,0,3.2c0,0.3,0.2,0.7,0.8,0.6c4.6-1.5,8-5.9,8-11C-289.2,123.4-294.4,118.2-300.8,118.2"/>
</g>
<g>
	<g>
		<path class="st63" d="M-171.8,153.5H-196c-7.1,0-12.9-5.8-12.9-12.9v-24.2c0-7.1,5.8-12.9,12.9-12.9h24.2
			c7.1,0,12.9,5.8,12.9,12.9v24.2C-158.9,147.8-164.6,153.5-171.8,153.5z"/>
		<g>
			<g>
				<g>
					<g>
						
							<linearGradient id="SVGID_00000052800322452374889280000012339938348700838579_" gradientUnits="userSpaceOnUse" x1="-183.9" y1="1136.547" x2="-183.9" y2="1176.547" gradientTransform="matrix(1 0 0 1 0 -1028)">
							<stop  offset="0" style="stop-color:#FFBE4A"/>
							<stop  offset="1" style="stop-color:#E57D00"/>
						</linearGradient>
						<path style="fill:url(#SVGID_00000052800322452374889280000012339938348700838579_);" d="M-174.2,148.5h-19.4
							c-5.7,0-10.3-4.6-10.3-10.3v-19.4c0-5.7,4.6-10.3,10.3-10.3h19.4c5.7,0,10.3,4.6,10.3,10.3v19.4
							C-163.9,143.9-168.5,148.5-174.2,148.5z"/>
					</g>
				</g>
			</g>
		</g>
	</g>
	<g>
		<g>
			<g>
				
					<linearGradient id="SVGID_00000026140549334742575710000008516072930587936157_" gradientUnits="userSpaceOnUse" x1="-186.45" y1="1148.6481" x2="-186.45" y2="1166.2943" gradientTransform="matrix(1 0 0 1 0 -1028)">
					<stop  offset="0" style="stop-color:#FFFFFF"/>
					<stop  offset="0.7318" style="stop-color:#D67205"/>
					<stop  offset="1" style="stop-color:#D67205"/>
				</linearGradient>
				<path style="fill:url(#SVGID_00000026140549334742575710000008516072930587936157_);" d="M-184.5,120.8c0-0.1-0.1-0.1-0.2-0.1
					h-4.3c-0.1,0-0.1,0.1-0.1,0.2c0,0.4,0,0.7-0.1,1.1c-0.1,0.2-0.1,0.4-0.2,0.6l-5.3,15.5c0,0.2,0,0.3,0.2,0.3h3.1
					c0.1,0,0.3-0.1,0.3-0.2l1.3-3.9h6.2l1.4,4c0,0.1,0.1,0.2,0.3,0.2h3.5c0.2,0,0.2-0.1,0.2-0.3L-184.5,120.8z M-188.9,130.7
					c0.2-0.7,0.5-1.5,0.7-2.3c0.3-0.8,0.5-1.7,0.8-2.5c0.2-0.7,0.4-1.4,0.6-2.2l0,0c0.1,0.4,0.2,0.8,0.4,1.3c0.1,0.5,0.3,1,0.4,1.5
					c0.2,0.5,0.3,1,0.5,1.5c0.1,0.5,0.3,1,0.4,1.4c0.1,0.4,0.3,0.9,0.4,1.2h-4.2L-188.9,130.7L-188.9,130.7z"/>
				
					<linearGradient id="SVGID_00000075161232081373568860000017395265920028762014_" gradientUnits="userSpaceOnUse" x1="-174.7" y1="1152.4034" x2="-174.7" y2="1166.2449" gradientTransform="matrix(1 0 0 1 0 -1028)">
					<stop  offset="0" style="stop-color:#FFFFFF"/>
					<stop  offset="0.7318" style="stop-color:#D67205"/>
					<stop  offset="1" style="stop-color:#D67205"/>
				</linearGradient>
				<path style="fill:url(#SVGID_00000075161232081373568860000017395265920028762014_);" d="M-172.8,124.6V138
					c0,0.2-0.1,0.3-0.2,0.3h-3.3c-0.2,0-0.3-0.1-0.3-0.3v-13.3c0-0.2,0.1-0.2,0.2-0.2h3.3C-172.8,124.4-172.8,124.5-172.8,124.6z"/>
				
					<linearGradient id="SVGID_00000113341103923601743370000010269714013348996540_" gradientUnits="userSpaceOnUse" x1="-174.8" y1="1147.0311" x2="-174.8" y2="1151.2363" gradientTransform="matrix(1 0 0 1 0 -1028)">
					<stop  offset="0" style="stop-color:#FFFFFF"/>
					<stop  offset="0.7318" style="stop-color:#D67205"/>
					<stop  offset="1" style="stop-color:#D67205"/>
				</linearGradient>
				<path style="fill:url(#SVGID_00000113341103923601743370000010269714013348996540_);" d="M-173.3,119.6c0.4,0.4,0.6,0.9,0.6,1.5
					s-0.2,1.1-0.6,1.5c-0.4,0.4-1,0.6-1.5,0.6c-0.6,0-1.1-0.2-1.5-0.6s-0.6-1-0.6-1.5c0-0.6,0.2-1.1,0.6-1.5
					c0.4-0.4,0.9-0.6,1.5-0.6C-174.1,119-173.6,119.2-173.3,119.6z"/>
			</g>
		</g>
		<g>
			<g>
				
					<linearGradient id="SVGID_00000033355530433940058050000012688620179628102820_" gradientUnits="userSpaceOnUse" x1="-186.7696" y1="1148.1388" x2="-186.7696" y2="1165.785" gradientTransform="matrix(1 0 0 1 0 -1028)">
					<stop  offset="0" style="stop-color:#FFFFFF"/>
					<stop  offset="8.656976e-02" style="stop-color:#FFFBF4"/>
					<stop  offset="0.238" style="stop-color:#FFF1D7"/>
					<stop  offset="0.4363" style="stop-color:#FFDFA8"/>
					<stop  offset="0.6713" style="stop-color:#FEC868"/>
					<stop  offset="0.7821" style="stop-color:#FEBC47"/>
				</linearGradient>
				<path style="fill:url(#SVGID_00000033355530433940058050000012688620179628102820_);" d="M-184.7,120.3c0-0.1-0.1-0.1-0.2-0.1
					h-4.3c-0.1,0-0.2,0.1-0.1,0.2c0,0.4,0,0.7-0.1,1.1c-0.1,0.2-0.1,0.4-0.2,0.6l-5.4,15.5c-0.1,0.2,0,0.3,0.2,0.3h3.1
					c0.2,0,0.3-0.1,0.3-0.2l1.3-3.9h6.2l1.4,4c0,0.1,0.2,0.2,0.3,0.2h3.5c0.2,0,0.2-0.1,0.2-0.3L-184.7,120.3z M-189.1,130.2
					c0.3-0.7,0.5-1.5,0.7-2.3c0.3-0.8,0.5-1.7,0.8-2.5c0.2-0.7,0.4-1.4,0.6-2.2l0,0c0.1,0.4,0.2,0.8,0.4,1.3c0.1,0.5,0.3,1,0.5,1.5
					s0.3,1,0.5,1.5s0.3,1,0.5,1.4s0.3,0.9,0.4,1.2h-4.4V130.2z"/>
				
					<linearGradient id="SVGID_00000018230640201411304500000003914797835985935548_" gradientUnits="userSpaceOnUse" x1="-174.9" y1="1152.4" x2="-174.9" y2="1165.8" gradientTransform="matrix(1 0 0 1 0 -1028)">
					<stop  offset="0" style="stop-color:#FFFFFF"/>
					<stop  offset="0.7318" style="stop-color:#FEBC47"/>
				</linearGradient>
				<path style="fill:url(#SVGID_00000018230640201411304500000003914797835985935548_);" d="M-173,124.6v12.9
					c0,0.2-0.1,0.3-0.2,0.3h-3.3c-0.2,0-0.3-0.1-0.3-0.3v-12.9c0-0.2,0.1-0.2,0.2-0.2h3.3C-173.1,124.4-173,124.5-173,124.6z"/>
				
					<linearGradient id="SVGID_00000042009113713497581320000009618029213226376869_" gradientUnits="userSpaceOnUse" x1="-174.9" y1="1146.8" x2="-174.9" y2="1151.0051" gradientTransform="matrix(1 0 0 1 0 -1028)">
					<stop  offset="0" style="stop-color:#FFFFFF"/>
					<stop  offset="0.676" style="stop-color:#FEBC47"/>
				</linearGradient>
				<path style="fill:url(#SVGID_00000042009113713497581320000009618029213226376869_);" d="M-173.4,119.4c0.4,0.4,0.6,0.9,0.6,1.5
					s-0.2,1.1-0.6,1.5c-0.4,0.4-1,0.6-1.5,0.6c-0.6,0-1.1-0.2-1.5-0.6s-0.6-1-0.6-1.5c0-0.6,0.2-1.1,0.6-1.5
					c0.4-0.4,0.9-0.6,1.5-0.6C-174.2,118.8-173.7,119-173.4,119.4z"/>
			</g>
		</g>
	</g>
</g>
<g>
	<g>
		<path class="st27" d="M-225.4,154.3h-24.2c-7.1,0-12.9-5.8-12.9-12.9v-24.2c0-7.1,5.8-12.9,12.9-12.9h24.2
			c7.1,0,12.9,5.8,12.9,12.9v24.2C-212.5,148.5-218.3,154.3-225.4,154.3z"/>
		<g>
			<g>
				<g>
					<g>
						
							<linearGradient id="SVGID_00000125589477161596933590000008471329893022794628_" gradientUnits="userSpaceOnUse" x1="-237.5" y1="1137.3" x2="-237.5" y2="1177.3" gradientTransform="matrix(1 0 0 1 0 -1028)">
							<stop  offset="0" style="stop-color:#FFDB43"/>
							<stop  offset="1" style="stop-color:#F9C33D"/>
						</linearGradient>
						<path style="fill:url(#SVGID_00000125589477161596933590000008471329893022794628_);" d="M-227.8,149.3h-19.4
							c-5.7,0-10.3-4.6-10.3-10.3v-19.4c0-5.7,4.6-10.3,10.3-10.3h19.4c5.7,0,10.3,4.6,10.3,10.3V139
							C-217.5,144.7-222.1,149.3-227.8,149.3z"/>
					</g>
				</g>
			</g>
		</g>
	</g>
	<g>
		<g>
			<g>
				
					<linearGradient id="SVGID_00000122698382668215303730000013941561272350440891_" gradientUnits="userSpaceOnUse" x1="-237.55" y1="1146.384" x2="-237.55" y2="1169.0359" gradientTransform="matrix(1 0 0 1 0 -1028)">
					<stop  offset="0" style="stop-color:#FFFFFF"/>
					<stop  offset="1" style="stop-color:#D1A537"/>
				</linearGradient>
				<path style="fill:url(#SVGID_00000122698382668215303730000013941561272350440891_);" d="M-229,122.7l-6.8-3.9
					c-1.1-0.6-2.4-0.6-3.5,0l-1.8,1v4.5v1v4.3c0,1.3,0.7,2.4,1.8,3.1c0.5,0.3,1.2,0.5,1.8,0.5s1.2-0.2,1.8-0.5l0,0
					c1.1-0.6,1.8-1.8,1.8-3.1s-0.7-2.4-1.8-3.1l0,0c-0.5-0.3-1.2-0.5-1.8-0.5v-2c0.6,0,1.2,0.2,1.8,0.5l1.9,1.1
					c1.1,0.6,1.8,1.8,1.8,3.1v2.2c0,1.3-0.7,2.4-1.8,3.1l-1.9,1.1c-0.5,0.3-1.2,0.5-1.8,0.5s-1.2-0.2-1.8-0.5l-1.9-1.1
					c-1.1-0.6-1.8-1.8-1.8-3.1v-1.1v-1.1v-2.9V121l-3.1,1.8c-1.1,0.6-1.8,1.8-1.8,3.1v7.8c0,1.3,0.7,2.4,1.8,3.1l6.8,3.9
					c1.1,0.6,2.4,0.6,3.5,0l6.8-3.9c1.1-0.6,1.8-1.8,1.8-3.1v-7.8C-227.2,124.5-227.9,123.4-229,122.7z M-239.7,126.9
					c-0.2,0.2-0.4,0.3-0.5,0.5V125l0.5-0.3V126.9z M-238.3,126.3c-0.2,0-0.4,0.1-0.5,0.2v-2.2c0.2-0.1,0.4-0.1,0.5-0.2V126.3z"/>
			</g>
		</g>
		<g>
			<g>
				
					<linearGradient id="SVGID_00000149374831938428428520000000190690264799410865_" gradientUnits="userSpaceOnUse" x1="-237.55" y1="1145.5785" x2="-237.55" y2="1168.2303" gradientTransform="matrix(1 0 0 1 0 -1028)">
					<stop  offset="0" style="stop-color:#FFFFFF"/>
					<stop  offset="1" style="stop-color:#FDDA42"/>
				</linearGradient>
				<path style="fill:url(#SVGID_00000149374831938428428520000000190690264799410865_);" d="M-229,121.9l-6.8-3.9
					c-1.1-0.6-2.4-0.6-3.5,0l-1.8,1v4.5v1v4.3c0,1.3,0.7,2.4,1.8,3.1c0.5,0.3,1.2,0.5,1.8,0.5s1.2-0.2,1.8-0.5l0,0
					c1.1-0.6,1.8-1.8,1.8-3.1s-0.7-2.4-1.8-3.1l0,0c-0.5-0.3-1.2-0.5-1.8-0.5V123c0.6,0,1.2,0.2,1.8,0.5l1.9,1.1
					c1.1,0.6,1.8,1.8,1.8,3.1v2.2c0,1.3-0.7,2.4-1.8,3.1l-1.9,1.1c-0.5,0.3-1.2,0.5-1.8,0.5s-1.2-0.2-1.8-0.5l-1.9-1.1
					c-1.1-0.6-1.8-1.8-1.8-3.1v-1.1v-1.1v-2.9V120l-3.1,1.8c-1.1,0.6-1.8,1.8-1.8,3.1v7.8c0,1.3,0.7,2.4,1.8,3.1l6.8,3.9
					c1.1,0.6,2.4,0.6,3.5,0l6.8-3.9c1.1-0.6,1.8-1.8,1.8-3.1V125C-227.3,123.7-227.9,122.6-229,121.9z M-239.7,126.1
					c-0.2,0.2-0.4,0.3-0.5,0.5v-2.5l0.5-0.3V126.1z M-238.4,125.5c-0.2,0-0.4,0.1-0.5,0.2v-2.2c0.2-0.1,0.4-0.1,0.5-0.2V125.5z"/>
			</g>
		</g>
	</g>
</g>
<g>
	<path class="st27" d="M-364.7,151.4h-24.2c-7.1,0-12.9-5.8-12.9-12.9v-24.2c0-7.1,5.8-12.9,12.9-12.9h24.2
		c7.1,0,12.9,5.8,12.9,12.9v24.2C-351.8,145.7-357.5,151.4-364.7,151.4z"/>
	<g>
		<g>
			<g>
				<g>
					
						<linearGradient id="SVGID_00000082358205752440232450000018234330850141865141_" gradientUnits="userSpaceOnUse" x1="-376.8" y1="1134.4496" x2="-376.8" y2="1174.4496" gradientTransform="matrix(1 0 0 1 0 -1028)">
						<stop  offset="0" style="stop-color:#FF7A64"/>
						<stop  offset="1" style="stop-color:#CC342D"/>
					</linearGradient>
					<path style="fill:url(#SVGID_00000082358205752440232450000018234330850141865141_);" d="M-367.1,146.4h-19.4
						c-5.7,0-10.3-4.6-10.3-10.3v-19.4c0-5.7,4.6-10.3,10.3-10.3h19.4c5.7,0,10.3,4.6,10.3,10.3v19.4
						C-356.8,141.8-361.4,146.4-367.1,146.4z"/>
				</g>
			</g>
		</g>
	</g>
</g>
<g>
	
		<linearGradient id="SVGID_00000165949372187066419450000015361492019077938879_" gradientUnits="userSpaceOnUse" x1="-381.5786" y1="1146.5428" x2="-369.8444" y2="1166.8669" gradientTransform="matrix(1 0 0 1 0 -1028)">
		<stop  offset="0" style="stop-color:#FFFFFF"/>
		<stop  offset="0.5978" style="stop-color:#C12F2F"/>
		<stop  offset="1" style="stop-color:#C12F2F"/>
	</linearGradient>
	<path style="fill:url(#SVGID_00000165949372187066419450000015361492019077938879_);" d="M-369,115.5c2.9,0.5,3.7,2.5,3.6,4.5l0,0
		l-1.3,17l-16.9,1.2l0,0c-1.4-0.1-4.5-0.2-4.7-4.5l1.6-2.8l2.7,6.3l0.5,1.1l2.7-8.7l0,0l0,0l8.8,2.8l-1.3-5.2l-0.9-3.7l8.4-0.5
		l-0.6-0.5l-6-4.9L-369,115.5L-369,115.5z M-383.3,120.3c3.4-3.4,7.7-5.3,9.4-3.6c1.7,1.7-0.1,5.8-3.5,9.2c-3.4,3.4-7.7,5.4-9.4,3.8
		C-388.4,127.8-386.7,123.6-383.3,120.3L-383.3,120.3z"/>
	
		<linearGradient id="SVGID_00000110451471401958763460000009807656226383691965_" gradientUnits="userSpaceOnUse" x1="-376.8459" y1="1142.7255" x2="-376.8459" y2="1165.3774" gradientTransform="matrix(1 0 0 1 0 -1028)">
		<stop  offset="0" style="stop-color:#FFFFFF"/>
		<stop  offset="1" style="stop-color:#FD7762"/>
	</linearGradient>
	<path style="fill:url(#SVGID_00000110451471401958763460000009807656226383691965_);" d="M-369,114.7c2.9,0.5,3.7,2.5,3.6,4.5l0,0
		l-1.3,17l-16.9,1.2l0,0c-1.4-0.1-4.5-0.2-4.7-4.5l1.6-2.8l2.7,6.3l0.5,1.1l2.7-8.7l0,0l0,0l8.8,2.8l-1.3-5.2l-0.9-3.7l8.4-0.5
		l-0.6-0.5l-6-4.9L-369,114.7L-369,114.7z M-383.3,119.5c3.4-3.4,7.7-5.3,9.4-3.6c1.7,1.7-0.1,5.8-3.5,9.2c-3.4,3.4-7.7,5.4-9.4,3.8
		C-388.4,127-386.7,122.8-383.3,119.5L-383.3,119.5z"/>
</g>
<g>
	<path class="st27" d="M-172.4,209.1h-24.2c-7.1,0-12.9-5.8-12.9-12.9V172c0-7.1,5.8-12.9,12.9-12.9h24.2c7.1,0,12.9,5.8,12.9,12.9
		v24.2C-159.5,203.3-165.3,209.1-172.4,209.1z"/>
	<g>
		<g>
			<g>
				<g>
					
						<linearGradient id="SVGID_00000133509446534744075710000010654224569454820792_" gradientUnits="userSpaceOnUse" x1="-184.5" y1="1192.1" x2="-184.5" y2="1232.1" gradientTransform="matrix(1 0 0 1 0 -1028)">
						<stop  offset="0" style="stop-color:#FF5942"/>
						<stop  offset="1" style="stop-color:#CB3837"/>
					</linearGradient>
					<path style="fill:url(#SVGID_00000133509446534744075710000010654224569454820792_);" d="M-174.8,204.1h-19.4
						c-5.7,0-10.3-4.6-10.3-10.3v-19.4c0-5.7,4.6-10.3,10.3-10.3h19.4c5.7,0,10.3,4.6,10.3,10.3v19.4
						C-164.5,199.5-169.1,204.1-174.8,204.1z"/>
				</g>
			</g>
		</g>
	</g>
</g>
<g>
	
		<linearGradient id="SVGID_00000018235373420925974520000002512978327429954712_" gradientUnits="userSpaceOnUse" x1="-184.45" y1="-121.1463" x2="-184.45" y2="-143.9463" gradientTransform="matrix(1 0 0 -1 0 52)">
		<stop  offset="0" style="stop-color:#E5E5E5"/>
		<stop  offset="1" style="stop-color:#A52F2F"/>
	</linearGradient>
	<path style="fill:url(#SVGID_00000018235373420925974520000002512978327429954712_);" d="M-194.2,173.1c-0.9,0-1.7,0.7-1.7,1.7
		v19.5c0,0.9,0.7,1.7,1.7,1.7h19.5c0.9,0,1.7-0.7,1.7-1.7v-19.5c0-0.9-0.7-1.7-1.7-1.7H-194.2z M-191.4,177.9h13.8v13.8h-3.5v-10.4
		h-3.5v10.4h-6.9L-191.4,177.9z"/>
	
		<linearGradient id="SVGID_00000008834807204861874300000017178701365633096350_" gradientUnits="userSpaceOnUse" x1="-184.45" y1="-120.2759" x2="-184.45" y2="-143.0759" gradientTransform="matrix(1 0 0 -1 0 52)">
		<stop  offset="0" style="stop-color:#FFFFFF"/>
		<stop  offset="1" style="stop-color:#FE5842"/>
	</linearGradient>
	<path style="fill:url(#SVGID_00000008834807204861874300000017178701365633096350_);" d="M-194.2,172.3c-0.9,0-1.7,0.7-1.7,1.7
		v19.5c0,0.9,0.7,1.7,1.7,1.7h19.5c0.9,0,1.7-0.7,1.7-1.7V174c0-0.9-0.7-1.7-1.7-1.7H-194.2z M-191.4,177h13.8v13.8h-3.5v-10.4h-3.5
		v10.4h-6.9L-191.4,177z"/>
</g>
<g>
	<path class="st59" d="M-227.2,208.7h-24.2c-7.1,0-12.9-5.8-12.9-12.9v-24.2c0-7.1,5.8-12.9,12.9-12.9h24.2
		c7.1,0,12.9,5.8,12.9,12.9v24.2C-214.3,202.9-220.1,208.7-227.2,208.7z"/>
	<g>
		<g>
			<g>
				<g>
					
						<linearGradient id="SVGID_00000008121937137083755920000015052300884471985826_" gradientUnits="userSpaceOnUse" x1="-239.3" y1="1191.7" x2="-239.3" y2="1231.7" gradientTransform="matrix(1 0 0 1 0 -1028)">
						<stop  offset="0" style="stop-color:#2A2F35"/>
						<stop  offset="1" style="stop-color:#0A0A0A"/>
					</linearGradient>
					<path style="fill:url(#SVGID_00000008121937137083755920000015052300884471985826_);" d="M-229.6,203.7H-249
						c-5.7,0-10.3-4.6-10.3-10.3V174c0-5.7,4.6-10.3,10.3-10.3h19.4c5.7,0,10.3,4.6,10.3,10.3v19.4
						C-219.3,199.1-223.9,203.7-229.6,203.7z"/>
				</g>
			</g>
		</g>
	</g>
</g>
<g>
	
		<linearGradient id="SVGID_00000049187606261409620090000007811494977939773596_" gradientUnits="userSpaceOnUse" x1="-239.25" y1="-120.4" x2="-239.25" y2="-143.2" gradientTransform="matrix(1 0 0 -1 0 52)">
		<stop  offset="0" style="stop-color:#FFFFFF"/>
		<stop  offset="0.5464" style="stop-color:#101112"/>
	</linearGradient>
	<path style="fill:url(#SVGID_00000049187606261409620090000007811494977939773596_);" d="M-241,172.4v6.1l1.7,2.3l1.7-2.3v-6.1
		H-241z M-237.6,178.6v2.9l2.8-0.9l3.6-4.9l-2.8-2L-237.6,178.6z M-234.8,180.6l-1.7,2.4l2.8,0.9l5.8-1.9l-1.1-3.3L-234.8,180.6z
		 M-233.7,183.8l-2.8,0.9l1.7,2.4l5.8,1.9l1.1-3.3L-233.7,183.8z M-234.8,187.1l-2.8-0.9v2.9l3.6,5l2.8-2L-234.8,187.1z
		 M-237.6,189.1l-1.7-2.3l-1.7,2.3v6.1h3.4V189.1z M-241,189.1v-2.9l-2.8,0.9l-3.6,4.9l2.8,2L-241,189.1z M-243.7,187.1l1.7-2.4
		l-2.8-0.9l-5.8,1.9l1.1,3.3L-243.7,187.1z M-244.8,183.8l2.8-0.9l-1.7-2.4l-5.8-1.9l-1.1,3.3L-244.8,183.8z M-243.7,180.6l2.8,0.9
		v-2.9l-3.6-5l-2.8,2L-243.7,180.6z"/>
	
		<linearGradient id="SVGID_00000115481439751078262870000010746120096100320414_" gradientUnits="userSpaceOnUse" x1="-239.25" y1="-120.1295" x2="-239.25" y2="-142.9295" gradientTransform="matrix(1 0 0 -1 0 52)">
		<stop  offset="0" style="stop-color:#FFFFFF"/>
		<stop  offset="1" style="stop-color:#41474A"/>
	</linearGradient>
	<path style="fill:url(#SVGID_00000115481439751078262870000010746120096100320414_);" d="M-241,172.1v6.1l1.7,2.3l1.7-2.3v-6.1
		H-241z M-237.6,178.3v2.9l2.8-0.9l3.6-4.9l-2.8-2L-237.6,178.3z M-234.8,180.3l-1.7,2.4l2.8,0.9l5.8-1.9l-1.1-3.3L-234.8,180.3z
		 M-233.7,183.5l-2.8,0.9l1.7,2.4l5.8,1.9l1.1-3.3L-233.7,183.5z M-234.8,186.8l-2.8-0.9v2.9l3.6,5l2.8-2L-234.8,186.8z
		 M-237.6,188.8l-1.7-2.3l-1.7,2.3v6.1h3.4V188.8z M-241,188.8v-2.9l-2.8,0.9l-3.6,4.9l2.8,2L-241,188.8z M-243.7,186.8l1.7-2.4
		l-2.8-0.9l-5.8,1.9l1.1,3.3L-243.7,186.8z M-244.8,183.5l2.8-0.9l-1.7-2.4l-5.8-1.9l-1.1,3.3L-244.8,183.5z M-243.7,180.3l2.8,0.9
		v-2.9l-3.6-5l-2.8,2L-243.7,180.3z"/>
</g>
<g>
	
		<linearGradient id="SVGID_00000044899679403770047630000014828333111592644763_" gradientUnits="userSpaceOnUse" x1="25.006" y1="13.9272" x2="25.006" y2="36.7272">
		<stop  offset="0" style="stop-color:#FFFFFF"/>
		<stop  offset="1" style="stop-color:#4B88B5"/>
	</linearGradient>
	<path style="fill:url(#SVGID_00000044899679403770047630000014828333111592644763_);" d="M27.4,25.3c0,1.3-1.1,2.4-2.4,2.4
		c-1.3,0-2.4-1.1-2.4-2.4l0,0c0-1.3,1.1-2.4,2.4-2.4C26.3,22.9,27.4,24,27.4,25.3L27.4,25.3z M30.2,13.9c-1.4,0-3.3,1-5.2,2.8
		c-1.9-1.8-3.8-2.8-5.2-2.8c-0.4,0-0.8,0.1-1.2,0.3c-1.5,0.8-1.8,3.5-1,6.8c-3.2,1-5.4,2.6-5.4,4.3c0,1.7,2.1,3.3,5.4,4.3
		c-0.8,3.3-0.4,6,1.1,6.8c0.3,0.2,0.7,0.3,1.2,0.3c1.4,0,3.3-1,5.2-2.8c1.9,1.8,3.8,2.8,5.2,2.8c0.4,0,0.8-0.1,1.2-0.3
		c1.5-0.8,1.8-3.5,1-6.8c3.2-1,5.3-2.6,5.3-4.3c0-1.7-2.1-3.3-5.4-4.3c0.8-3.3,0.4-6-1.1-6.8C31,14,30.6,13.9,30.2,13.9L30.2,13.9z
		 M30.2,15.1L30.2,15.1c0.2,0,0.4,0.1,0.6,0.1c0.7,0.4,1,2,0.8,4c-0.1,0.5-0.2,1-0.3,1.5c-1-0.3-2.1-0.4-3.3-0.6
		c-0.7-1-1.4-1.8-2.2-2.6C27.5,16,29.1,15.1,30.2,15.1L30.2,15.1z M19.8,15.1c1.1,0,2.7,0.9,4.4,2.4c-0.7,0.8-1.5,1.6-2.2,2.6
		c-1.2,0.1-2.3,0.3-3.3,0.6c-0.1-0.5-0.2-1-0.3-1.5c-0.2-2,0.1-3.5,0.8-4C19.4,15.2,19.6,15.1,19.8,15.1L19.8,15.1z M25,18.4
		c0.5,0.5,1,1.1,1.5,1.7c-0.5,0-0.9,0-1.4,0c-0.5,0-1,0-1.5,0C24,19.4,24.5,18.9,25,18.4L25,18.4z M25,21.2c0.8,0,1.6,0,2.3,0.1
		c0.4,0.6,0.9,1.3,1.3,2c0.4,0.7,0.8,1.4,1.1,2.1c-0.3,0.7-0.7,1.4-1.1,2.1c-0.4,0.7-0.8,1.4-1.3,2c-0.8,0.1-1.6,0.1-2.4,0.1
		c-0.8,0-1.6,0-2.3-0.1c-0.4-0.6-0.9-1.3-1.3-2c-0.4-0.7-0.8-1.4-1.1-2.1c0.3-0.7,0.7-1.4,1.1-2.1c0.4-0.7,0.8-1.4,1.3-2
		C23.4,21.2,24.2,21.2,25,21.2L25,21.2z M21.1,21.4c-0.3,0.4-0.5,0.8-0.8,1.2c-0.2,0.4-0.5,0.8-0.7,1.3c-0.3-0.7-0.5-1.4-0.7-2.1
		C19.7,21.7,20.4,21.5,21.1,21.4L21.1,21.4z M28.9,21.4c0.7,0.1,1.5,0.2,2.1,0.4c-0.2,0.7-0.4,1.4-0.7,2.1c-0.2-0.4-0.4-0.8-0.7-1.3
		C29.4,22.2,29.1,21.8,28.9,21.4L28.9,21.4z M32.1,22.2c0.5,0.2,1,0.3,1.5,0.5c1.8,0.8,3,1.8,3,2.6c0,0.8-1.2,1.9-3,2.6
		c-0.4,0.2-0.9,0.4-1.4,0.5c-0.3-1-0.7-2.1-1.2-3.2C31.5,24.2,31.8,23.2,32.1,22.2L32.1,22.2z M17.9,22.2c0.3,1,0.7,2.1,1.2,3.2
		c-0.5,1.1-0.9,2.1-1.2,3.2c-0.5-0.2-1-0.3-1.5-0.5c-1.8-0.8-3-1.8-3-2.6c0-0.8,1.2-1.9,3-2.6C16.9,22.5,17.3,22.3,17.9,22.2z
		 M30.3,26.7c0.3,0.7,0.5,1.4,0.7,2.1c-0.7,0.2-1.4,0.3-2.2,0.4c0.3-0.4,0.5-0.8,0.8-1.2C29.9,27.6,30.1,27.1,30.3,26.7L30.3,26.7z
		 M19.7,26.7c0.2,0.4,0.4,0.8,0.7,1.3c0.2,0.4,0.5,0.8,0.8,1.2c-0.7-0.1-1.5-0.2-2.1-0.4C19.2,28.1,19.4,27.4,19.7,26.7L19.7,26.7z
		 M31.3,29.9c0.1,0.5,0.2,1,0.3,1.5c0.2,2-0.1,3.5-0.8,4c-0.2,0.1-0.4,0.1-0.6,0.1c-1.1,0-2.7-0.9-4.4-2.4c0.7-0.8,1.5-1.6,2.2-2.6
		C29.2,30.4,30.3,30.2,31.3,29.9L31.3,29.9z M18.7,29.9c1,0.2,2.1,0.4,3.3,0.6c0.7,1,1.4,1.8,2.2,2.6c-1.7,1.6-3.3,2.4-4.4,2.4
		c-0.2,0-0.4-0.1-0.6-0.1c-0.7-0.4-1-2-0.8-3.9C18.5,31,18.6,30.5,18.7,29.9L18.7,29.9z M23.6,30.6c0.5,0,0.9,0,1.4,0
		c0.5,0,1,0,1.5,0c-0.5,0.6-1,1.2-1.4,1.7C24.5,31.8,24,31.2,23.6,30.6z"/>
	
		<linearGradient id="SVGID_00000068667879039559701420000006111889324699570340_" gradientUnits="userSpaceOnUse" x1="25.0033" y1="13.2728" x2="25.0033" y2="36.0728">
		<stop  offset="0" style="stop-color:#FFFFFF"/>
		<stop  offset="1" style="stop-color:#61D8FB"/>
	</linearGradient>
	<path style="fill:url(#SVGID_00000068667879039559701420000006111889324699570340_);" d="M27.4,24.7c0,1.3-1.1,2.4-2.4,2.4
		c-1.3,0-2.4-1.1-2.4-2.4l0,0c0-1.3,1.1-2.4,2.4-2.4C26.3,22.3,27.4,23.4,27.4,24.7L27.4,24.7z M30.2,13.3c-1.4,0-3.3,1-5.2,2.8
		c-1.9-1.8-3.8-2.8-5.2-2.8c-0.4,0-0.8,0.1-1.2,0.3c-1.5,0.8-1.8,3.5-1,6.8c-3.2,1-5.4,2.6-5.4,4.3c0,1.7,2.1,3.3,5.4,4.3
		c-0.8,3.3-0.4,6,1.1,6.8c0.3,0.2,0.7,0.3,1.2,0.3c1.4,0,3.3-1,5.2-2.8c1.9,1.8,3.8,2.8,5.2,2.8c0.4,0,0.8-0.1,1.2-0.3
		c1.5-0.8,1.8-3.5,1-6.8c3.2-1,5.3-2.6,5.3-4.3c0-1.7-2.1-3.3-5.4-4.3c0.8-3.3,0.4-6-1.1-6.8C31,13.4,30.6,13.3,30.2,13.3L30.2,13.3
		z M30.2,14.4L30.2,14.4c0.2,0,0.4,0.1,0.6,0.1c0.7,0.4,1,2,0.8,4c-0.1,0.5-0.2,1-0.3,1.5c-1-0.3-2.1-0.4-3.3-0.6
		c-0.7-1-1.4-1.8-2.2-2.6C27.5,15.3,29.1,14.4,30.2,14.4L30.2,14.4z M19.8,14.5c1.1,0,2.7,0.9,4.4,2.4c-0.7,0.8-1.5,1.6-2.2,2.6
		c-1.2,0.1-2.3,0.3-3.3,0.6c-0.1-0.5-0.2-1-0.3-1.5c-0.2-2,0.1-3.5,0.8-4C19.4,14.5,19.6,14.5,19.8,14.5L19.8,14.5z M25,17.7
		c0.5,0.5,1,1.1,1.5,1.7c-0.5,0-0.9,0-1.4,0c-0.5,0-1,0-1.5,0C24,18.8,24.5,18.2,25,17.7L25,17.7z M25,20.5c0.8,0,1.6,0,2.3,0.1
		c0.4,0.6,0.9,1.3,1.3,2c0.4,0.7,0.8,1.4,1.1,2.1c-0.3,0.7-0.7,1.4-1.1,2.1c-0.4,0.7-0.8,1.4-1.3,2c-0.8,0.1-1.6,0.1-2.4,0.1
		c-0.8,0-1.6,0-2.3-0.1c-0.4-0.6-0.9-1.3-1.3-2c-0.4-0.7-0.8-1.4-1.1-2.1c0.3-0.7,0.7-1.4,1.1-2.1c0.4-0.7,0.8-1.4,1.3-2
		C23.4,20.5,24.2,20.5,25,20.5L25,20.5z M21.1,20.8c-0.3,0.4-0.5,0.8-0.8,1.2c-0.2,0.4-0.5,0.8-0.7,1.3c-0.3-0.7-0.5-1.4-0.7-2.1
		C19.7,21,20.4,20.9,21.1,20.8L21.1,20.8z M28.9,20.8c0.7,0.1,1.5,0.2,2.1,0.4c-0.2,0.7-0.4,1.4-0.7,2.1c-0.2-0.4-0.4-0.8-0.7-1.3
		C29.4,21.6,29.1,21.2,28.9,20.8L28.9,20.8z M32.1,21.5c0.5,0.2,1,0.3,1.5,0.5c1.8,0.8,3,1.8,3,2.6c0,0.8-1.2,1.9-3,2.6
		c-0.4,0.2-0.9,0.4-1.4,0.5c-0.3-1-0.7-2.1-1.2-3.2C31.5,23.6,31.8,22.5,32.1,21.5L32.1,21.5z M17.8,21.5c0.3,1,0.7,2.1,1.2,3.2
		c-0.5,1.1-0.9,2.1-1.2,3.2c-0.5-0.2-1-0.3-1.5-0.5c-1.8-0.8-3-1.8-3-2.6c0-0.8,1.2-1.9,3-2.6C16.9,21.8,17.3,21.7,17.8,21.5z
		 M30.3,26.1c0.3,0.7,0.5,1.4,0.7,2.1c-0.7,0.2-1.4,0.3-2.2,0.4c0.3-0.4,0.5-0.8,0.8-1.2C29.9,26.9,30.1,26.5,30.3,26.1L30.3,26.1z
		 M19.7,26.1c0.2,0.4,0.4,0.8,0.7,1.3c0.2,0.4,0.5,0.8,0.8,1.2c-0.7-0.1-1.5-0.2-2.1-0.4C19.2,27.5,19.4,26.8,19.7,26.1L19.7,26.1z
		 M31.3,29.3c0.1,0.5,0.2,1,0.3,1.5c0.2,2-0.1,3.5-0.8,4c-0.2,0.1-0.4,0.1-0.6,0.1c-1.1,0-2.7-0.9-4.4-2.4c0.7-0.8,1.5-1.6,2.2-2.6
		C29.2,29.7,30.3,29.5,31.3,29.3L31.3,29.3z M18.7,29.3c1,0.2,2.1,0.4,3.3,0.6c0.7,1,1.4,1.8,2.2,2.6c-1.7,1.6-3.3,2.4-4.4,2.4
		c-0.2,0-0.4-0.1-0.6-0.1c-0.7-0.4-1-2-0.8-3.9C18.5,30.3,18.6,29.8,18.7,29.3L18.7,29.3z M23.6,30c0.5,0,0.9,0,1.4,0
		c0.5,0,1,0,1.5,0c-0.5,0.6-1,1.2-1.4,1.7C24.5,31.1,24,30.6,23.6,30z"/>
</g>
</svg>
