<?xml version="1.0" encoding="utf-8"?>
<!-- Generator: Adobe Illustrator 26.3.0, SVG Export Plug-In . SVG Version: 6.00 Build 0)  -->
<svg version="1.1" id="Camada_1" xmlns="http://www.w3.org/2000/svg" xmlns:xlink="http://www.w3.org/1999/xlink" x="0px" y="0px"
	 width="24.5px" height="7.9px" viewBox="0 0 24.5 7.9" style="enable-background:new 0 0 24.5 7.9;" xml:space="preserve">
<style type="text/css">
	.st0{fill:#291414;}
	.st1{fill:#EA4335;}
</style>
<g>
	<g>
		<path class="st0" d="M23.8,7.9H0.7C0.3,7.9,0,7.6,0,7.2l0-6.5C0,0.3,0.3,0,0.7,0l23.1,0c0.4,0,0.7,0.3,0.7,0.7v6.5
			C24.5,7.6,24.2,7.9,23.8,7.9z"/>
	</g>
	<g>
		<path class="st1" d="M7.3,2.8v2.5c0,0.2-0.1,0.3-0.3,0.3H6.3V3.9L5.2,4.8L4,3.9v1.7H3.3C3.1,5.6,3,5.4,3,5.3c0,0,0,0,0,0V2.8
			c0-0.4,0.4-0.6,0.7-0.4L4,2.6l1.2,0.9l1.2-0.9l0.3-0.2C6.9,2.2,7.3,2.4,7.3,2.8z"/>
	</g>
	<g>
		<g>
			<path class="st1" d="M12.2,5.3h-1.5V2.6h1.4V3h-1v0.7H12v0.4h-0.9v0.8h1V5.3z"/>
			<path class="st1" d="M15.5,5.3h-0.4V3.6c0-0.1,0-0.2,0-0.3c0-0.1,0-0.2,0-0.3h0c0,0.1,0,0.1,0,0.2c0,0.1,0,0.1,0,0.1l-0.8,1.9
				h-0.3l-0.8-1.9c0,0,0-0.1,0-0.1c0-0.1,0-0.1,0-0.2h0c0,0.1,0,0.2,0,0.3c0,0.1,0,0.2,0,0.3v1.6h-0.4V2.6h0.6L14,4.3
				c0,0.1,0,0.1,0.1,0.2s0,0.1,0,0.2h0c0-0.1,0-0.1,0.1-0.2c0-0.1,0-0.1,0.1-0.1l0.7-1.7h0.6V5.3z"/>
			<path class="st1" d="M15.9,5.3l1-2.7h0.5l1,2.7h-0.5l-0.2-0.6h-1.1l-0.2,0.6H15.9z M16.8,4.3h0.8l-0.4-1c0,0,0-0.1,0-0.1
				c0,0,0-0.1,0-0.1h0c0,0,0,0.1,0,0.1s0,0.1,0,0.1L16.8,4.3z"/>
			<path class="st1" d="M19.3,5.3h-0.5V2.6h0.5V5.3z"/>
			<path class="st1" d="M21.4,5.3H20V2.6h0.4v2.3h1V5.3z"/>
		</g>
	</g>
</g>
</svg>
