<svg xmlns="http://www.w3.org/2000/svg" viewBox="0 0 256 256"><defs><style>.cls-1{fill:#281613;}.cls-2{fill:#e34f26;}</style></defs><g id="Camada_2" data-name="Camada 2"><g id="Camada_1-2" data-name="Camada 1"><rect class="cls-1" width="256" height="256" rx="33.67"/><path class="cls-2" d="M203.35,42.63H52.63c.26,3.8.5,7.5.76,11.2q1.28,18,2.57,35.92,1.42,20,2.86,39.92,1.24,17.37,2.46,34.76c.61,8.65,1.27,17.29,1.81,25.94a2.21,2.21,0,0,0,1.85,2.27q30.56,10,61.06,20.06c.58.19,1.13.44,1.69.67h1c2.49-.89,5-1.83,7.47-2.66q27.51-9.08,55.05-18.07a2.35,2.35,0,0,0,1.86-2.46q2.27-32.69,4.62-65.36,1.74-24.7,3.46-49.4c.72-10.09,1.47-20.18,2.19-30.27C203.4,44.34,203.35,43.52,203.35,42.63ZM175.2,87.55H101c.6,8.61,1.19,17,1.79,25.68h70.57c-.26,3.94-.52,7.68-.78,11.43q-1.1,15.39-2.2,30.77c-.41,5.54-.84,11.08-1.18,16.63a1.87,1.87,0,0,1-1.52,2c-12.8,4.22-25.58,8.52-38.39,12.74a4.31,4.31,0,0,1-2.54,0c-12.8-4.23-25.59-8.52-38.39-12.75a1.84,1.84,0,0,1-1.49-2c-.33-5.61-.78-11.21-1.18-16.8,0-.6,0-1.19,0-1.87h19.86a42.58,42.58,0,0,0,.44,4.24,2.17,2.17,0,0,0,1.08,1.49c6.67,2.28,13.36,4.49,20.06,6.68a3.1,3.1,0,0,0,1.76,0Q139,162.54,149,159.15a1.77,1.77,0,0,0,1.08-1.16c.65-8.14,1.22-16.28,1.82-24.68H84.11c-1.54-21.93-3.06-43.74-4.6-65.65H176.6C176.13,74.28,175.67,80.84,175.2,87.55Z"/></g></g></svg>