<?xml version="1.0" encoding="utf-8"?>
<!-- Generator: Adobe Illustrator 26.3.0, SVG Export Plug-In . SVG Version: 6.00 Build 0)  -->
<svg version="1.1" xmlns="http://www.w3.org/2000/svg" xmlns:xlink="http://www.w3.org/1999/xlink" x="0px" y="0px"
	 viewBox="0 0 49.67 61.67" style="enable-background:new 0 0 49.67 61.67;" xml:space="preserve">
<style type="text/css">
	.st0{fill:#281613;stroke:#E34F26;stroke-miterlimit:10;}
	.st1{fill:#E34F26;}
	.st2{display:none;}
	.st3{display:inline;fill:none;}
</style>
<g id="Camada_1">
	<g>
		<path class="st0" d="M42.16,48.6H7.56c-3.7,0-6.7-3-6.7-6.7V7.37c0-3.7,3-6.7,6.7-6.7h34.61c3.7,0,6.7,3,6.7,6.7V41.9
			C48.86,45.6,45.86,48.6,42.16,48.6z"/>
	</g>
	<g>
		<path class="st1" d="M17.87,58h-1.11v-2.94h-3.03V58h-1.1v-6.8h1.1v2.86h3.03V51.2h1.11V58z"/>
		<path class="st1" d="M23.74,52.17h-1.87V58h-1.1v-5.83h-1.86V51.2h4.83V52.17z"/>
		<path class="st1" d="M31.8,58h-1.09v-4.32c0-0.2,0-0.41,0.02-0.65c0.01-0.24,0.03-0.48,0.04-0.75h-0.03
			c-0.04,0.18-0.07,0.34-0.1,0.47c-0.03,0.13-0.06,0.23-0.09,0.31L28.65,58h-0.77l-1.89-4.9c-0.02-0.07-0.05-0.17-0.09-0.31
			c-0.04-0.14-0.07-0.31-0.11-0.51h-0.03c0.02,0.24,0.03,0.48,0.04,0.74c0.01,0.26,0.01,0.52,0.01,0.8V58h-1.02v-6.8h1.56l1.67,4.4
			c0.07,0.16,0.12,0.32,0.17,0.46s0.08,0.28,0.1,0.4h0.03c0.05-0.18,0.11-0.35,0.15-0.49c0.05-0.15,0.09-0.27,0.13-0.38l1.69-4.38
			h1.51V58z"/>
		<path class="st1" d="M37.09,58h-3.61v-6.8h1.1v5.83h2.51V58z"/>
	</g>
	<g>
		<path class="st1" d="M34.76,13.42h-19.8c0.03,0.5,0.07,0.98,0.1,1.47c0.11,1.57,0.22,3.15,0.34,4.72c0.13,1.75,0.25,3.5,0.38,5.24
			c0.11,1.52,0.22,3.04,0.32,4.57c0.08,1.14,0.17,2.27,0.24,3.41c0.01,0.18,0.08,0.25,0.24,0.3c2.67,0.87,5.35,1.76,8.02,2.64
			c0.08,0.02,0.15,0.06,0.22,0.09h0.13c0.33-0.12,0.65-0.24,0.98-0.35c2.41-0.79,4.82-1.59,7.23-2.37c0.18-0.06,0.23-0.15,0.24-0.32
			c0.2-2.86,0.4-5.72,0.61-8.59c0.15-2.16,0.3-4.33,0.45-6.49c0.09-1.33,0.19-2.65,0.29-3.98C34.77,13.65,34.76,13.54,34.76,13.42z
			 M31.06,19.32h-9.74c0.08,1.13,0.16,2.24,0.24,3.37h9.27c-0.04,0.52-0.07,1.01-0.1,1.5c-0.1,1.35-0.19,2.69-0.29,4.04
			c-0.05,0.73-0.11,1.46-0.15,2.18c-0.01,0.14-0.06,0.21-0.2,0.26c-1.68,0.55-3.36,1.12-5.04,1.67c-0.1,0.03-0.23,0.03-0.33,0
			c-1.68-0.55-3.36-1.12-5.04-1.67c-0.14-0.05-0.19-0.11-0.2-0.26c-0.04-0.74-0.1-1.47-0.15-2.21c-0.01-0.08,0-0.16,0-0.24h2.61
			c0.02,0.19,0.02,0.37,0.06,0.56c0.01,0.07,0.08,0.17,0.14,0.19c0.88,0.3,1.76,0.59,2.64,0.88c0.07,0.02,0.16,0.03,0.23,0
			c0.88-0.29,1.76-0.58,2.64-0.88c0.06-0.02,0.14-0.1,0.14-0.15c0.08-1.07,0.16-2.14,0.24-3.24h-8.9c-0.2-2.88-0.4-5.75-0.6-8.62
			h12.75C31.18,17.58,31.12,18.44,31.06,19.32z"/>
	</g>
</g>
<g id="Camada_2" class="st2">
	<rect x="0.03" class="st3" width="49.67" height="61.67"/>
</g>
</svg>
