<?xml version="1.0" encoding="utf-8"?>
<!-- Generator: Adobe Illustrator 26.3.0, SVG Export Plug-In . SVG Version: 6.00 Build 0)  -->
<svg version="1.1" id="Camada_1" xmlns="http://www.w3.org/2000/svg" xmlns:xlink="http://www.w3.org/1999/xlink" x="0px" y="0px"
	 width="30px" height="7.9px" viewBox="0 0 30 7.9" style="enable-background:new 0 0 30 7.9;" xml:space="preserve">
<style type="text/css">
	.st0{fill:#111923;}
	.st1{fill:#0A66C2;}
</style>
<g>
	<g>
		<path class="st0" d="M29.3,7.9H0.7C0.3,7.9,0,7.6,0,7.2V0.7C0,0.3,0.3,0,0.7,0l28.6,0C29.7,0,30,0.3,30,0.7v6.5
			C30,7.6,29.7,7.9,29.3,7.9z"/>
	</g>
	<g>
		<g>
			<path class="st1" d="M12.1,5.5h-1.4V2.8h0.4v2.3h1V5.5z"/>
			<path class="st1" d="M12.9,5.5h-0.4V2.8h0.4V5.5z"/>
			<path class="st1" d="M15.8,5.5h-0.5l-1.2-1.9c0,0,0-0.1-0.1-0.1s0-0.1,0-0.1h0c0,0,0,0.1,0,0.2s0,0.1,0,0.2v1.7h-0.4V2.8h0.5
				l1.2,1.9c0,0,0,0.1,0.1,0.1c0,0,0,0.1,0,0.1h0c0,0,0-0.1,0-0.1c0-0.1,0-0.1,0-0.2V2.8h0.4V5.5z"/>
			<path class="st1" d="M18.4,5.5h-0.6L17,4.3c0,0,0,0,0-0.1c0,0,0,0,0-0.1h0v1.3h-0.4V2.8h0.4v1.2h0c0,0,0,0,0-0.1c0,0,0,0,0-0.1
				l0.8-1.1h0.5l-1,1.3L18.4,5.5z"/>
			<path class="st1" d="M20.2,5.5h-1.5V2.8h1.4v0.4h-1v0.7h0.9v0.4h-0.9v0.8h1V5.5z"/>
			<path class="st1" d="M20.7,5.5V2.8h0.8c0.5,0,0.8,0.1,1,0.3c0.2,0.2,0.3,0.5,0.3,1c0,0.4-0.1,0.7-0.4,1c-0.3,0.2-0.6,0.4-1,0.4
				H20.7z M21.1,3.2v1.9h0.3c0.3,0,0.5-0.1,0.7-0.3c0.2-0.2,0.2-0.4,0.2-0.7c0-0.3-0.1-0.5-0.2-0.7c-0.2-0.2-0.4-0.2-0.7-0.2H21.1z"
				/>
			<path class="st1" d="M23.8,5.5h-0.4V2.8h0.4V5.5z"/>
			<path class="st1" d="M26.7,5.5h-0.5L25,3.6c0,0,0-0.1-0.1-0.1c0,0,0-0.1,0-0.1h0c0,0,0,0.1,0,0.2c0,0.1,0,0.1,0,0.2v1.7h-0.4V2.8
				H25l1.2,1.9c0,0,0,0.1,0.1,0.1s0,0.1,0,0.1h0c0,0,0-0.1,0-0.1c0-0.1,0-0.1,0-0.2V2.8h0.4V5.5z"/>
		</g>
	</g>
	<path class="st1" d="M6.7,5.5H6v-1c0-0.2,0-0.5-0.3-0.5c-0.3,0-0.4,0.3-0.4,0.5v1H4.7V3.4h0.6v0.3h0c0.1-0.2,0.3-0.3,0.6-0.3
		c0.6,0,0.8,0.4,0.8,1L6.7,5.5L6.7,5.5z M4,3.1C3.7,3.1,3.6,3,3.6,2.8c0-0.2,0.2-0.4,0.4-0.4c0.2,0,0.4,0.2,0.4,0.4
		C4.3,3,4.2,3.1,4,3.1z M4.3,5.5H3.6V3.4h0.6V5.5z M7,1.8H3.3C3.1,1.8,3,1.9,3,2.1v3.7C3,6,3.1,6.1,3.3,6.1H7c0.2,0,0.3-0.1,0.3-0.3
		V2.1C7.3,1.9,7.2,1.8,7,1.8L7,1.8z"/>
</g>
</svg>
