<svg xmlns="http://www.w3.org/2000/svg" viewBox="0 0 257 257"><defs><style>.cls-1{fill:#111921;stroke:#1572b6;stroke-miterlimit:10;}.cls-2{fill:#1572b6;}</style></defs><g id="Camada_2" data-name="Camada 2"><g id="Camada_1-2" data-name="Camada 1"><rect class="cls-1" x="0.5" y="0.5" width="256" height="256" rx="33.67"/><path class="cls-2" d="M53.77,43.18q1.62,18.1,3.22,36.2,1.59,17.87,3.13,35.7C61.18,127,62.28,139,63.34,151s2.07,23.8,3.13,35.69c.26,3.05.5,6.11.88,9.14a2,2,0,0,0,1.18,1.41q29.57,8.34,59.17,16.53a3.7,3.7,0,0,0,1.92-.07q29.34-8.16,58.7-16.34c1.09-.29,1.33-.89,1.4-1.85.7-8.15,1.44-16.28,2.16-24.42q1.44-16.09,2.87-32.21c.93-10.53,1.85-21,2.79-31.56Q199,91.1,200.42,74.89q1.41-15.82,2.81-31.71ZM175.16,82q-1.92,21.51-3.87,43-1.74,19.59-3.47,39.19c-.16,1.83-.28,3.66-.57,5.47a1.94,1.94,0,0,1-1.11,1.29q-18.44,5.18-36.91,10.21a3.69,3.69,0,0,1-1.94-.12c-12-3.32-24.06-6.67-36.11-10a1.71,1.71,0,0,1-1.54-1.74c-.68-8.2-1.45-16.38-2.19-24.58-.12-1.37-.24-2.75-.37-4.36,6.21,0,12.15,0,18.09,0,.32,0,.89.84.94,1.34q.66,6.36,1.16,12.76a1.9,1.9,0,0,0,1.68,2c6.07,1.56,12.11,3.25,18.17,4.83a5.4,5.4,0,0,0,2.59,0c6.12-1.6,12.22-3.29,18.34-4.87a2,2,0,0,0,1.71-2c.86-8.12,1.75-16.25,2.64-24.48H86.17c-.62-5.87-1.23-11.7-1.88-17.85.77,0,1.4,0,2,0q32.79-.37,65.55-.8c2.21,0,2.17,0,2.33-2.29.37-5.55.8-11.08,1.21-16.74h-73c-.41-5.87-.82-11.67-1.23-17.63h94.57C175.55,77.15,175.38,79.57,175.16,82Z"/></g></g></svg>